<svg width="270" height="270" viewBox="0 0 270 270" fill="none" xmlns="http://www.w3.org/2000/svg">
<circle cx="135" cy="135" r="135" fill="#FFF4DA"/>
<path d="M142.651 207.094H136.43C136.316 206.289 136.084 205.574 135.734 204.949C135.384 204.314 134.934 203.775 134.384 203.33C133.835 202.884 133.201 202.544 132.481 202.307C131.771 202.07 130.999 201.952 130.166 201.952C128.66 201.952 127.348 202.326 126.231 203.074C125.114 203.812 124.247 204.892 123.632 206.312C123.016 207.723 122.708 209.437 122.708 211.455C122.708 213.528 123.016 215.271 123.632 216.682C124.257 218.093 125.128 219.158 126.245 219.878C127.363 220.598 128.655 220.957 130.123 220.957C130.947 220.957 131.709 220.848 132.41 220.631C133.12 220.413 133.75 220.096 134.299 219.679C134.848 219.253 135.303 218.737 135.663 218.131C136.032 217.525 136.288 216.833 136.43 216.057L142.651 216.085C142.491 217.42 142.088 218.708 141.444 219.949C140.81 221.18 139.953 222.283 138.873 223.259C137.803 224.224 136.525 224.991 135.038 225.56C133.561 226.118 131.889 226.398 130.024 226.398C127.429 226.398 125.109 225.811 123.063 224.636C121.027 223.462 119.418 221.762 118.234 219.537C117.06 217.312 116.473 214.617 116.473 211.455C116.473 208.282 117.069 205.583 118.262 203.358C119.455 201.133 121.075 199.437 123.12 198.273C125.166 197.098 127.467 196.511 130.024 196.511C131.709 196.511 133.272 196.748 134.711 197.222C136.16 197.695 137.443 198.386 138.561 199.295C139.678 200.195 140.587 201.298 141.288 202.605C141.998 203.912 142.453 205.408 142.651 207.094ZM154.013 196.909V226H147.862V196.909H154.013Z" fill="#BE4E1E"/>
<path d="M135.014 176.367H63.91C63.4421 176.367 62.9701 176.367 62.5064 176.367C61.0192 176.268 59.9999 175.27 59.9999 173.915C59.9999 172.498 61.0275 171.421 62.6066 171.421C66.099 171.384 69.5913 171.334 73.0753 171.442C74.5583 171.488 75.0513 171.226 75.0429 169.576C74.9552 156.463 74.9928 143.35 74.9928 130.236C74.9928 127.29 75.6779 126.62 78.694 126.62C83.0692 126.62 87.4444 126.62 91.8196 126.62C94.1506 126.62 94.9944 127.472 94.9944 129.821C94.9944 143.196 94.9944 156.567 94.9652 169.942C94.9652 171.189 95.3161 171.455 96.5025 171.434C99.999 171.359 99.999 171.409 99.999 167.884V120.132C99.999 117.381 100.738 116.654 103.521 116.654C107.949 116.654 112.377 116.654 116.805 116.654C119.149 116.654 120.001 117.485 120.001 119.837C120.001 136.463 119.99 153.1 119.967 169.751C119.967 171.101 120.256 171.475 121.638 171.413C124.98 171.297 125.001 171.376 125.001 168.03V110.199C125.001 107.435 125.736 106.699 128.502 106.699H141.627C144.251 106.699 145.003 107.476 145.003 110.17C145.003 130.023 144.993 149.876 144.974 169.73C144.974 171.027 145.178 171.488 146.619 171.434C150.003 171.305 150.003 171.392 150.003 168.067C150.003 151.276 150.003 134.483 150.003 117.688C150.003 114.908 150.734 114.164 153.479 114.164H166.613C169.245 114.164 170.009 114.941 170.009 117.614C170.009 134.979 170.001 152.344 169.984 169.709C169.984 170.956 170.114 171.496 171.605 171.438C175.005 171.297 175.009 171.396 175.009 167.934V97.9584C175.009 94.9035 175.67 94.2593 178.769 94.2593C183.091 94.2593 187.415 94.2593 191.74 94.2593C194.18 94.2593 195.003 95.0905 195.003 97.5303C195.003 121.582 194.992 145.633 194.969 169.684C194.969 171.101 195.324 171.471 196.732 171.426C200.116 171.318 203.504 171.384 206.892 171.392C208.864 171.392 209.996 172.315 210 173.886C210.004 175.457 208.868 176.38 206.892 176.38L135.014 176.367ZM180.01 135.324C180.01 146.881 180.01 158.44 180.01 170C180.01 170.96 180.048 171.488 181.284 171.434C183.832 171.322 186.389 171.359 188.937 171.434C189.831 171.434 190.048 171.189 190.048 170.316C190.026 146.991 190.026 123.667 190.048 100.344C190.048 99.463 189.814 99.2136 188.933 99.2344C186.426 99.2926 183.92 99.3258 181.414 99.2344C180.231 99.1887 179.972 99.5212 179.976 100.672C180.031 112.198 180.01 123.757 180.01 135.324ZM130.002 141.558C130.002 151.093 130.002 160.632 129.976 170.17C129.976 171.18 130.227 171.471 131.23 171.442C133.782 171.363 136.335 171.376 138.887 171.442C139.773 171.442 140.002 171.205 140.002 170.328C139.977 151.151 139.977 131.974 140.002 112.796C140.002 111.919 139.773 111.662 138.887 111.683C136.381 111.741 133.874 111.774 131.368 111.683C130.19 111.633 129.922 111.957 129.931 113.117C130.022 122.564 130.002 132.049 130.002 141.533V141.558ZM155.008 145.299C155.008 153.612 155.008 161.887 154.983 170.179C154.983 171.193 155.238 171.48 156.261 171.451C158.809 171.372 161.366 171.384 163.914 171.451C164.804 171.451 165.03 171.205 165.025 170.332C165 153.643 165 136.954 165.025 120.265C165.025 119.388 164.791 119.135 163.906 119.156C161.399 119.214 158.893 119.247 156.407 119.156C155.225 119.11 154.966 119.438 154.97 120.594C155.033 128.786 155.008 137.028 155.008 145.266V145.299ZM104.995 146.546C104.995 154.443 105.016 162.302 104.97 170.179C104.97 171.193 105.225 171.48 106.249 171.451C108.797 171.372 111.353 171.384 113.906 171.451C114.796 171.451 115.017 171.209 115.017 170.337C114.992 154.476 114.992 138.616 115.017 122.755C115.017 121.878 114.783 121.625 113.902 121.645C111.395 121.703 108.889 121.737 106.403 121.645C105.221 121.6 104.958 121.924 104.966 123.083C105.025 130.86 104.995 138.686 104.995 146.513V146.546ZM89.994 151.675C89.994 145.403 89.969 139.131 90.0149 132.863C90.0149 131.853 89.7685 131.558 88.7408 131.587C86.1925 131.666 83.6359 131.65 81.0877 131.587C80.2021 131.566 79.9681 131.82 79.9723 132.701C79.9974 145.242 79.9974 157.785 79.9723 170.328C79.9723 171.201 80.1937 171.463 81.0835 171.442C83.6359 171.38 86.1884 171.367 88.7408 171.442C89.7601 171.471 90.0233 171.185 90.0149 170.17C89.969 163.977 89.994 157.809 89.994 151.641V151.675Z" fill="#691D1C"/>
<path d="M159.457 79.0761C155.931 79.0761 152.618 79.0761 149.31 79.0761C148.717 79.0761 148.529 79.3296 148.399 79.8783C148.04 81.4369 147.626 82.9872 147.188 84.5292C146.699 86.2624 145.425 87.1228 144.009 86.7321C142.593 86.3414 141.92 84.9781 142.371 83.2449C142.722 81.9024 143.077 80.5599 143.453 79.1385H126.547L127.633 83.2449C128.088 84.9781 127.453 86.3289 125.991 86.7321C124.529 87.1352 123.305 86.2582 122.812 84.5292C122.395 83.087 121.956 81.6489 121.684 80.1775C121.509 79.2424 121.091 79.0512 120.222 79.0637C117.097 79.1135 113.956 79.0637 110.702 79.0637C111.191 80.348 112.13 81.2208 112.974 82.1352C113.818 83.0496 114.683 83.7977 115.552 84.629C116.859 85.8759 117.047 87.3555 116.028 88.4445C115.009 89.5334 113.643 89.5334 112.289 88.3821C106.569 83.6293 102.583 77.1331 100.947 69.899C96.3522 49.9486 109.269 30.8295 129.622 27.4546C148.896 24.2376 167.687 38.4855 169.725 57.8622C170.907 69.0178 167.503 78.5774 159.666 86.5949C158.312 87.979 156.792 88.087 155.706 86.969C154.678 85.9174 154.757 84.5084 155.956 83.2491C157.155 81.9897 158.421 80.776 159.457 79.0761ZM134.994 59.4209C138.11 59.4209 141.231 59.3918 144.347 59.4209C145.183 59.4209 145.387 59.2006 145.35 58.3818C145.164 54.7691 144.745 51.172 144.096 47.6127C143.967 46.8812 143.679 46.6942 142.973 46.6984C137.681 46.7178 132.38 46.7178 127.069 46.6984C126.397 46.6984 126.058 46.848 125.929 47.5961C125.294 51.1044 124.875 54.6481 124.675 58.2072C124.629 59.1341 124.801 59.4541 125.812 59.425C128.857 59.3751 131.923 59.4209 134.994 59.4209ZM135.031 64.4085C131.907 64.4085 128.765 64.4375 125.661 64.4085C124.826 64.4085 124.617 64.6163 124.646 65.4392C124.738 68.0328 125.097 70.5972 125.373 73.17C125.461 73.9763 125.87 74.1384 126.626 74.1343C132.196 74.1038 137.766 74.1038 143.336 74.1343C144.172 74.1343 144.564 73.9348 144.652 73.0661C144.911 70.5432 145.254 68.0328 145.371 65.4932C145.412 64.5622 145.099 64.3918 144.255 64.4043C141.172 64.4292 138.102 64.4001 135.031 64.4001V64.4085ZM112.41 59.4209C114.382 59.4209 116.358 59.3751 118.33 59.4209C119.291 59.4541 119.683 59.2546 119.696 58.174C119.768 54.7116 120.147 51.2624 120.828 47.8663C120.987 47.035 120.937 46.6609 119.921 46.6776C116.646 46.7357 113.375 46.715 110.1 46.6776C109.824 46.6412 109.543 46.6944 109.299 46.8291C109.056 46.9638 108.862 47.173 108.747 47.4257C106.871 50.8358 105.67 54.5718 105.208 58.4317C105.1 59.346 105.417 59.4416 106.173 59.425C108.25 59.3959 110.33 59.4209 112.41 59.4209ZM164.871 59.4209C164.538 55.2547 163.318 51.2068 161.291 47.5462C161.193 47.2872 161.013 47.0665 160.779 46.9168C160.545 46.7671 160.269 46.6963 159.992 46.715C156.65 46.7565 153.341 46.7482 150.016 46.715C149.297 46.715 148.963 46.8397 149.126 47.6543C149.838 51.2548 150.243 54.9087 150.338 58.5771C150.338 59.1216 150.459 59.4333 151.11 59.4084C155.676 59.4125 160.242 59.4209 164.871 59.4209ZM164.871 64.4085C160.276 64.4085 155.681 64.4085 151.127 64.4085C150.467 64.4085 150.367 64.7285 150.363 65.2688C150.301 67.8513 150.068 70.4269 149.665 72.9788C149.54 73.8558 149.736 74.1301 150.668 74.1176C154.306 74.0677 157.949 74.0636 161.592 74.1176C162.36 74.1176 162.577 73.7727 162.791 73.224C163.947 70.4112 164.644 67.4322 164.854 64.4001L164.871 64.4085ZM112.331 64.4085C110.242 64.4085 108.154 64.4334 106.09 64.4085C105.359 64.4085 105.117 64.5248 105.213 65.3436C105.55 68.1136 106.253 70.8274 107.301 73.4152C107.369 73.6569 107.524 73.865 107.737 73.9993C107.95 74.1336 108.206 74.1847 108.454 74.1426C112.093 74.0968 115.736 74.0844 119.374 74.1426C120.36 74.1426 120.456 73.7976 120.339 72.9746C119.935 70.5146 119.722 68.0274 119.7 65.5348C119.7 64.5124 119.282 64.3586 118.413 64.3835C116.358 64.4417 114.345 64.4001 112.314 64.4001L112.331 64.4085ZM134.948 41.7565C136.201 41.7565 137.454 41.798 138.707 41.7565C139.961 41.7149 141.795 42.3425 142.4 41.503C143.006 40.6634 141.945 39.1048 141.531 37.8953C140.901 36.0499 140.746 33.4771 139.267 32.6209C137.308 31.4821 134.622 31.985 132.237 32.2053C131.982 32.2593 131.724 32.2954 131.464 32.3133C130.77 32.2759 130.511 32.6583 130.265 33.2568C129.266 35.6966 128.427 38.182 127.641 40.6925C127.403 41.4614 127.462 41.8064 128.423 41.7773C130.561 41.7024 132.75 41.7482 134.931 41.7482L134.948 41.7565ZM124.462 34.0257C120.054 35.6529 116.1 38.3032 112.928 41.7565C115.965 41.7565 118.61 41.7232 121.254 41.7565C122.002 41.7565 122.232 41.4614 122.411 40.8504C123.042 38.6933 123.69 36.532 124.446 34.0174L124.462 34.0257ZM157.122 41.7565C153.7 38.2111 150.091 35.6592 145.575 34.0424C146.336 36.5361 147.008 38.7141 147.631 40.892C147.646 41.0287 147.689 41.1609 147.757 41.2804C147.825 41.4 147.917 41.5044 148.028 41.5873C148.138 41.6702 148.264 41.7298 148.398 41.7625C148.533 41.7951 148.672 41.8002 148.809 41.7773C151.449 41.7191 154.081 41.7482 157.105 41.7482L157.122 41.7565Z" fill="#691D1C"/>
<path d="M196.147 64.4503C195.629 64.4585 195.111 64.4265 194.598 64.3547C193.277 64.0305 192.484 63.191 192.546 61.8111C192.609 60.4312 193.432 59.5209 194.79 59.4669C197.442 59.363 200.103 59.3754 202.76 59.4669C204.16 59.5126 204.991 60.5891 205.012 62.1394C205.045 64.4725 205.045 66.8056 205.012 69.1387C204.991 70.8012 203.934 71.8943 202.46 71.861C200.985 71.8278 200.095 70.7804 200.02 69.1761C200.02 68.7604 200.02 68.3864 200.02 67.6881C197.213 70.3191 194.618 72.7588 192.008 75.1695C191.847 75.2912 191.738 75.4692 191.704 75.6675C191.67 75.8658 191.713 76.0696 191.824 76.2377C193.165 79.4505 192.659 82.3932 190.098 84.7581C187.538 87.1231 184.668 87.4389 181.585 85.9177C181.004 85.6309 180.678 85.7598 180.244 86.1671C176.013 90.1599 171.766 94.1376 167.503 98.0999C166.993 98.5737 167.001 98.9312 167.164 99.563C168.321 103.96 165.957 107.963 161.646 108.989C157.589 109.962 153.646 107.41 152.664 103.121C152.501 102.406 152.297 101.969 151.52 101.749C148.374 100.86 145.253 99.9121 142.12 98.952C141.82 98.827 141.487 98.8024 141.171 98.8818C140.856 98.9613 140.574 99.1405 140.37 99.3925C137.4 102.352 133.302 102.531 130.114 99.8497C129.893 99.6134 129.599 99.4568 129.278 99.4041C128.958 99.3515 128.629 99.4059 128.343 99.5588C125.085 100.901 121.814 102.223 118.522 103.487C118.208 103.57 117.931 103.755 117.735 104.012C117.539 104.27 117.435 104.585 117.44 104.908C117.097 107.871 115.535 110.02 112.719 111.142C109.904 112.265 107.372 111.749 105.146 109.837C104.456 109.243 103.98 109.276 103.241 109.58C100.074 110.885 96.8938 112.154 93.6994 113.387C92.8973 113.694 92.5214 114.027 92.4127 114.987C92.3068 116.341 91.8111 117.635 90.9851 118.716C90.159 119.796 89.0376 120.617 87.7549 121.08C86.5295 121.616 85.1755 121.791 83.8532 121.585C82.5309 121.379 81.2957 120.8 80.2939 119.916C79.6005 119.351 79.0992 119.38 78.3598 119.704C75.3228 121.039 72.2565 122.315 69.1986 123.607C67.2143 124.439 65.9026 124.118 65.2258 122.635C64.5491 121.151 65.2258 119.912 67.1851 119.081C70.2806 117.751 73.3761 116.404 76.4883 115.116C76.8001 115.027 77.0733 114.838 77.2648 114.577C77.4562 114.317 77.5549 114 77.5452 113.678C77.7958 110.635 79.3624 108.428 82.2239 107.273C85.0855 106.117 87.6546 106.662 89.9272 108.62C90.1273 108.843 90.3977 108.993 90.6943 109.044C90.9909 109.096 91.2962 109.046 91.5605 108.902C94.8663 107.536 98.1888 106.208 101.528 104.916C101.82 104.848 102.081 104.683 102.267 104.448C102.452 104.213 102.553 103.923 102.551 103.624C102.856 100.581 104.448 98.395 107.326 97.2853C110.205 96.1755 112.757 96.7408 115.013 98.7317C115.198 98.9353 115.449 99.0692 115.722 99.1108C115.995 99.1525 116.274 99.0993 116.513 98.9603C119.877 97.5748 123.249 96.2323 126.63 94.9328C126.896 94.8588 127.129 94.6997 127.295 94.4803C127.46 94.2609 127.548 93.9934 127.545 93.7192C128.001 89.8164 130.858 87.069 134.563 86.8321C138.269 86.5952 141.473 89.0391 142.329 92.863C142.368 93.2062 142.517 93.5281 142.753 93.7815C142.989 94.035 143.3 94.2068 143.641 94.2719C146.732 95.1572 149.811 96.0883 152.89 97.0359C153.19 97.1629 153.523 97.1881 153.839 97.1078C154.154 97.0274 154.434 96.8458 154.636 96.5912C156.838 94.3384 159.515 93.7067 162.498 94.7208C162.792 94.8607 163.125 94.8995 163.444 94.8311C163.763 94.7626 164.05 94.5908 164.261 94.3426C168.53 90.311 172.818 86.2932 177.123 82.2893C177.365 82.1104 177.547 81.8635 177.646 81.5804C177.745 81.2973 177.757 80.9911 177.679 80.7016C177.441 79.4909 177.51 78.2402 177.882 77.0631C178.253 75.8861 178.914 74.82 179.805 73.9619C180.696 73.1037 181.788 72.4807 182.982 72.1493C184.176 71.818 185.435 71.7889 186.644 72.0647C187.266 72.1977 187.792 72.3349 188.356 71.7904C190.846 69.3922 193.394 67.0355 196.147 64.4503ZM187.508 79.3715C187.52 78.876 187.383 78.3882 187.115 77.9705C186.846 77.5529 186.459 77.2242 186.002 77.0265C185.545 76.8288 185.04 76.771 184.55 76.8606C184.06 76.9501 183.608 77.1829 183.251 77.5293C182.895 77.8756 182.65 78.3198 182.549 78.805C182.447 79.2903 182.493 79.7946 182.681 80.2537C182.869 80.7128 183.19 81.1058 183.604 81.3825C184.017 81.6591 184.504 81.807 185.002 81.8071C185.656 81.8062 186.284 81.551 186.751 81.096C187.219 80.6409 187.489 80.0221 187.504 79.3715H187.508ZM137.492 94.2013C137.483 93.7054 137.326 93.2234 137.04 92.8169C136.755 92.4103 136.354 92.0977 135.889 91.919C135.424 91.7402 134.916 91.7035 134.43 91.8134C133.944 91.9234 133.502 92.175 133.16 92.5362C132.819 92.8974 132.593 93.3517 132.512 93.8411C132.431 94.3305 132.499 94.8327 132.707 95.2836C132.914 95.7345 133.252 96.1136 133.678 96.3724C134.103 96.6312 134.596 96.758 135.094 96.7366C135.747 96.7085 136.363 96.4278 136.811 95.9541C137.259 95.4805 137.503 94.8515 137.492 94.2013ZM162.498 101.753C162.507 101.257 162.367 100.77 162.097 100.353C161.826 99.9369 161.436 99.6102 160.978 99.415C160.52 99.2199 160.013 99.1651 159.524 99.2578C159.034 99.3505 158.583 99.5864 158.229 99.9354C157.874 100.284 157.633 100.731 157.534 101.217C157.436 101.703 157.486 102.208 157.678 102.666C157.869 103.124 158.194 103.514 158.61 103.788C159.025 104.061 159.514 104.205 160.012 104.201C160.666 104.196 161.291 103.937 161.755 103.48C162.22 103.023 162.486 102.403 162.498 101.753ZM109.971 101.733C109.471 101.733 108.984 101.881 108.57 102.159C108.156 102.437 107.835 102.832 107.648 103.292C107.461 103.753 107.416 104.258 107.52 104.744C107.624 105.23 107.871 105.674 108.23 106.019C108.589 106.365 109.043 106.595 109.535 106.682C110.026 106.769 110.533 106.707 110.989 106.506C111.445 106.304 111.831 105.971 112.096 105.551C112.361 105.13 112.494 104.64 112.477 104.143C112.455 103.496 112.182 102.883 111.714 102.433C111.246 101.983 110.621 101.732 109.971 101.733ZM84.8683 116.641C85.3661 116.668 85.8607 116.547 86.2889 116.293C86.7171 116.039 87.0594 115.664 87.2721 115.215C87.4848 114.766 87.5581 114.265 87.4828 113.774C87.4075 113.284 87.1869 112.827 86.8493 112.462C86.5117 112.097 86.0723 111.841 85.5874 111.726C85.1024 111.61 84.594 111.642 84.127 111.815C83.6601 111.989 83.2558 112.298 82.9659 112.701C82.676 113.105 82.5137 113.585 82.4996 114.081C82.4812 114.731 82.7185 115.362 83.1609 115.84C83.6034 116.318 84.216 116.606 84.8683 116.641Z" fill="#691D1C"/>
<path d="M180.01 135.324C180.01 123.765 180.031 112.206 179.981 100.648C179.981 99.4964 180.235 99.1639 181.418 99.2096C183.924 99.3135 186.431 99.2803 188.937 99.2096C189.819 99.2096 190.057 99.4382 190.052 100.319C190.027 123.645 190.027 146.969 190.052 170.291C190.052 171.164 189.835 171.43 188.941 171.409C186.393 171.347 183.836 171.309 181.288 171.409C180.035 171.463 180.01 170.935 180.014 169.975C180.028 158.429 180.027 146.878 180.01 135.324Z" fill="#BE4E1E"/>
<path d="M130.002 141.533C130.002 132.048 130.002 122.564 129.972 113.079C129.972 111.919 130.231 111.595 131.409 111.645C133.916 111.745 136.422 111.711 138.929 111.645C139.815 111.645 140.044 111.882 140.044 112.759C140.019 131.936 140.019 151.113 140.044 170.291C140.044 171.168 139.815 171.425 138.929 171.405C136.376 171.342 133.824 171.33 131.272 171.405C130.248 171.434 129.993 171.143 130.018 170.133C130.018 160.606 130.002 151.068 130.002 141.533Z" fill="#FFB727"/>
<path d="M155.008 145.266C155.008 137.028 155.033 128.786 154.974 120.544C154.974 119.388 155.229 119.06 156.411 119.106C158.918 119.21 161.424 119.176 163.91 119.106C164.796 119.106 165.03 119.338 165.03 120.215C164.999 136.907 164.999 153.596 165.03 170.282C165.03 171.155 164.808 171.421 163.918 171.401C161.37 171.338 158.813 171.326 156.265 171.401C155.242 171.43 154.979 171.143 154.987 170.129C155.024 161.853 155.008 153.562 155.008 145.266Z" fill="#BE4E1E"/>
<path d="M104.995 146.513C104.995 138.686 105.025 130.86 104.966 123.034C104.966 121.874 105.221 121.55 106.403 121.595C108.91 121.699 111.416 121.666 113.902 121.595C114.783 121.595 115.017 121.828 115.017 122.705C114.992 138.566 114.992 154.426 115.017 170.287C115.017 171.16 114.796 171.421 113.906 171.401C111.353 171.338 108.797 171.326 106.249 171.401C105.225 171.43 104.966 171.143 104.97 170.129C105.016 162.269 104.995 154.389 104.995 146.513Z" fill="#FFB727"/>
<path d="M89.994 151.642C89.994 157.81 89.9689 163.978 90.0148 170.146C90.0148 171.16 89.76 171.447 88.7407 171.417C86.1883 171.338 83.6359 171.351 81.0834 171.417C80.1936 171.417 79.968 171.176 79.9722 170.304C79.9973 157.76 79.9973 145.217 79.9722 132.676C79.9722 131.795 80.202 131.542 81.0876 131.562C83.6359 131.621 86.1925 131.637 88.7407 131.562C89.7684 131.533 90.0232 131.828 90.0148 132.838C89.9689 139.098 89.994 145.37 89.994 151.642Z" fill="#FFB727"/>
<path d="M187.504 79.3714C187.498 79.8673 187.343 80.3502 187.06 80.7582C186.777 81.1662 186.377 81.4809 185.913 81.662C185.449 81.8432 184.942 81.8825 184.455 81.775C183.968 81.6675 183.525 81.4181 183.181 81.0586C182.838 80.6991 182.61 80.246 182.527 79.7569C182.444 79.2679 182.509 78.7653 182.714 78.3134C182.919 77.8614 183.255 77.4807 183.679 77.2197C184.103 76.9588 184.596 76.8295 185.094 76.8485C185.747 76.8734 186.364 77.1511 186.815 77.6223C187.265 78.0936 187.512 78.7212 187.504 79.3714Z" fill="#FFB727"/>
<path d="M137.492 94.201C137.506 94.697 137.371 95.1859 137.104 95.6052C136.838 96.0245 136.451 96.3551 135.995 96.5547C135.538 96.7543 135.032 96.8139 134.541 96.7258C134.05 96.6377 133.597 96.4059 133.24 96.0602C132.882 95.7144 132.636 95.2703 132.533 94.7847C132.431 94.2991 132.476 93.7942 132.664 93.3343C132.851 92.8745 133.172 92.4808 133.586 92.2035C133.999 91.9263 134.486 91.778 134.985 91.7778C135.638 91.7776 136.265 92.0306 136.733 92.4831C137.201 92.9356 137.473 93.5519 137.492 94.201Z" fill="#FFB727"/>
<path d="M162.498 101.753C162.498 102.25 162.348 102.735 162.069 103.147C161.789 103.559 161.393 103.878 160.929 104.064C160.466 104.25 159.958 104.294 159.469 104.191C158.981 104.087 158.535 103.841 158.188 103.483C157.841 103.126 157.61 102.673 157.523 102.184C157.436 101.695 157.499 101.191 157.702 100.737C157.905 100.283 158.24 99.8998 158.664 99.6365C159.087 99.3733 159.58 99.242 160.079 99.2593C160.729 99.282 161.344 99.5547 161.795 100.02C162.246 100.485 162.498 101.107 162.498 101.753Z" fill="#FFB727"/>
<path d="M109.971 101.732C110.469 101.724 110.959 101.864 111.377 102.134C111.796 102.405 112.123 102.793 112.319 103.249C112.514 103.706 112.568 104.21 112.473 104.697C112.379 105.185 112.141 105.633 111.789 105.985C111.437 106.336 110.988 106.576 110.499 106.672C110.01 106.768 109.503 106.717 109.043 106.525C108.583 106.333 108.191 106.009 107.917 105.595C107.643 105.18 107.5 104.693 107.506 104.197C107.513 103.548 107.775 102.927 108.235 102.467C108.696 102.007 109.318 101.743 109.971 101.732Z" fill="#FFB727"/>
<path d="M84.8681 116.641C84.3702 116.619 83.8901 116.45 83.4892 116.155C83.0884 115.861 82.7849 115.454 82.6175 114.987C82.4502 114.52 82.4266 114.014 82.5498 113.533C82.6731 113.053 82.9374 112.62 83.3092 112.289C83.681 111.959 84.1433 111.747 84.6371 111.679C85.1309 111.611 85.6336 111.692 86.0812 111.91C86.5288 112.128 86.9008 112.474 87.1498 112.904C87.3988 113.333 87.5134 113.827 87.479 114.322C87.4339 114.971 87.1356 115.577 86.6478 116.01C86.16 116.443 85.5214 116.67 84.8681 116.641Z" fill="#FFB727"/>
</svg>
