<svg width="270" height="270" viewBox="0 0 270 270" fill="none" xmlns="http://www.w3.org/2000/svg">
<circle cx="135" cy="135" r="135" fill="#FFF4DA"/>
<path d="M134.632 207.094H128.41C128.297 206.289 128.065 205.574 127.714 204.949C127.364 204.314 126.914 203.775 126.365 203.33C125.816 202.884 125.181 202.544 124.462 202.307C123.751 202.07 122.979 201.952 122.146 201.952C120.64 201.952 119.329 202.326 118.212 203.074C117.094 203.812 116.228 204.892 115.612 206.312C114.997 207.723 114.689 209.437 114.689 211.455C114.689 213.528 114.997 215.271 115.612 216.682C116.237 218.093 117.108 219.158 118.226 219.878C119.343 220.598 120.636 220.957 122.104 220.957C122.927 220.957 123.69 220.848 124.39 220.631C125.101 220.413 125.73 220.096 126.28 219.679C126.829 219.253 127.283 218.737 127.643 218.131C128.013 217.525 128.268 216.833 128.41 216.057L134.632 216.085C134.471 217.42 134.069 218.708 133.425 219.949C132.79 221.18 131.933 222.283 130.854 223.259C129.783 224.224 128.505 224.991 127.018 225.56C125.541 226.118 123.87 226.398 122.004 226.398C119.409 226.398 117.089 225.811 115.044 224.636C113.008 223.462 111.398 221.762 110.214 219.537C109.04 217.312 108.453 214.617 108.453 211.455C108.453 208.282 109.05 205.583 110.243 203.358C111.436 201.133 113.055 199.437 115.101 198.273C117.146 197.098 119.447 196.511 122.004 196.511C123.69 196.511 125.252 196.748 126.692 197.222C128.14 197.695 129.424 198.386 130.541 199.295C131.658 200.195 132.568 201.298 133.268 202.605C133.979 203.912 134.433 205.408 134.632 207.094ZM139.842 226V196.909H151.32C153.517 196.909 155.392 197.302 156.945 198.088C158.507 198.865 159.696 199.968 160.51 201.398C161.334 202.818 161.746 204.49 161.746 206.412C161.746 208.344 161.329 210.006 160.496 211.398C159.663 212.78 158.455 213.841 156.874 214.58C155.302 215.318 153.398 215.688 151.163 215.688H143.479V210.744H150.169C151.343 210.744 152.319 210.583 153.095 210.261C153.872 209.939 154.449 209.456 154.828 208.812C155.217 208.169 155.411 207.368 155.411 206.412C155.411 205.446 155.217 204.632 154.828 203.969C154.449 203.306 153.867 202.804 153.081 202.463C152.305 202.113 151.324 201.938 150.141 201.938H145.993V226H139.842ZM155.553 212.761L162.783 226H155.993L148.919 212.761H155.553Z" fill="#BE4E1E"/>
<path d="M125.831 126.493C122.665 126.493 119.756 126.493 116.848 126.493C114.588 126.493 113.805 125.702 113.781 123.514C113.781 121.84 114.319 119.782 113.544 118.607C112.843 117.538 110.675 117.459 109.167 116.901C107.257 116.245 105.426 115.379 103.706 114.321C102.725 113.68 102.195 113.925 101.514 114.673C100.588 115.698 99.5907 116.652 98.5896 117.61C97.347 118.797 96.1638 118.797 94.9569 117.61C91.4482 114.138 87.958 110.652 84.4863 107.151C83.216 105.869 83.22 104.701 84.4546 103.403C85.5072 102.295 86.5875 101.207 87.7034 100.166C88.2297 99.6758 88.2614 99.2919 87.9013 98.6786C86.1477 95.7119 84.8159 92.5154 83.9441 89.1814C83.7463 88.4335 83.4297 88.2554 82.7332 88.2712C81.2058 88.3108 79.6743 88.3108 78.1469 88.2712C76.4572 88.2316 75.5708 87.3808 75.5629 85.7109C75.5391 80.7249 75.5391 75.7415 75.5629 70.7608C75.5629 69.1027 76.4572 68.248 78.1548 68.2005C79.6862 68.1569 81.2176 68.1609 82.7451 68.2005C83.4455 68.2203 83.7542 68.0303 83.9323 67.2864C84.7991 63.9506 86.1312 60.7535 87.8894 57.7892C88.2653 57.16 88.1743 56.788 87.6678 56.3092C86.5875 55.3001 85.5468 54.2436 84.5219 53.1791C83.1923 51.798 83.1606 50.6544 84.4783 49.3248C87.9079 45.8504 91.3599 42.3945 94.8342 38.957C96.152 37.6512 97.3352 37.6789 98.6885 38.9887C99.753 40.0215 100.81 41.0583 101.819 42.1544C102.297 42.6689 102.658 42.7797 103.31 42.3879C106.276 40.6313 109.472 39.2993 112.808 38.4307C113.599 38.221 113.797 37.8807 113.769 37.1209C113.71 35.6409 113.734 34.161 113.769 32.681C113.797 30.9082 114.644 30.0218 116.397 30.0139C121.333 29.9954 126.267 29.9954 131.201 30.0139C132.855 30.0139 133.745 30.9003 133.812 32.582C133.872 34.0581 133.868 35.542 133.812 37.022C133.781 37.8134 133.951 38.2408 134.821 38.4624C138.115 39.303 141.269 40.6145 144.188 42.3562C144.877 42.752 145.276 42.653 145.795 42.0911C146.827 40.9673 147.92 39.887 149.035 38.8423C150.223 37.7382 151.41 37.6947 152.569 38.8423C156.157 42.3721 159.719 45.9335 163.254 49.5266C164.354 50.6505 164.282 51.9009 163.174 53.0643C162.066 54.2277 161.053 55.2724 159.926 56.3013C159.32 56.8474 159.332 57.2787 159.716 57.9316C160.337 58.9922 160.903 60.0922 161.414 61.2042C161.924 62.3162 162.32 63.3767 162.771 64.4689C162.858 64.4689 162.996 64.4689 163.04 64.4095C165.284 61.3862 169.902 61.5327 172.296 65.5729C184.337 85.9088 196.533 106.15 208.702 126.402C210.106 128.745 210.573 131.06 209.097 133.49C208.616 134.333 207.928 135.039 207.096 135.541C206.265 136.042 205.319 136.323 204.349 136.355C203.858 136.386 203.363 136.386 202.869 136.386C179.126 136.386 155.391 136.386 131.664 136.386C129.372 136.386 127.311 135.963 125.89 134.048C124.165 131.662 124.232 129.192 125.831 126.493ZM167.345 131.594H195.018C197.831 131.594 200.641 131.614 203.454 131.594C205.247 131.594 205.718 130.7 204.82 129.117C204.701 128.903 204.566 128.694 204.424 128.484L168.315 68.1965C167.322 66.5424 167.31 66.5424 166.309 68.1965C154.218 88.378 142.129 108.56 130.041 128.741C129.645 129.422 129.103 130.087 129.558 130.914C130.013 131.741 130.912 131.578 131.683 131.578C143.571 131.594 155.458 131.6 167.345 131.594ZM154.904 78.0024C156.515 75.3313 157.927 72.9966 159.32 70.65C159.597 70.183 159.376 69.6923 159.257 69.2175C158.284 65.3954 156.701 61.7555 154.568 58.4382C153.475 56.7326 153.574 55.9768 154.991 54.5364C155.854 53.6579 156.712 52.7715 157.611 51.9247C158.109 51.4538 158.319 51.1332 157.686 50.5476C155.581 48.5373 153.523 46.4717 151.505 44.3744C150.923 43.765 150.606 43.8916 150.112 44.4298C149.241 45.3716 148.315 46.258 147.393 47.1523C146.143 48.3711 145.189 48.4978 143.709 47.548C139.903 45.073 135.669 43.3285 131.224 42.4037C129.816 42.1069 129.103 41.2522 129.107 39.8039C129.107 38.4228 129.08 37.0339 129.107 35.6607C129.107 34.9959 128.973 34.6912 128.217 34.6991C125.257 34.7387 122.281 34.7308 119.337 34.6991C118.688 34.6991 118.482 34.8891 118.498 35.5341C118.542 36.9626 118.522 38.3951 118.498 39.8276C118.498 41.1928 117.802 42.099 116.48 42.3721C111.9 43.3331 107.54 45.1409 103.623 47.7024C102.491 48.4384 101.375 48.3118 100.398 47.3541C99.4206 46.3965 98.4194 45.427 97.4737 44.4179C96.9751 43.8837 96.6506 43.7848 96.0847 44.3744C94.0639 46.4611 92.0049 48.5202 89.9076 50.5515C89.3971 51.0501 89.3773 51.343 89.9076 51.8376C90.9483 52.815 91.9534 53.8162 92.9506 54.8569C93.8529 55.7829 94.0349 56.8751 93.3463 57.9593C90.7478 61.9199 88.9168 66.3335 87.9488 70.9705C87.6757 72.2843 86.7616 72.9491 85.3806 72.9293C83.9995 72.9095 82.6106 72.9609 81.2374 72.9095C80.5291 72.8858 80.3035 73.1034 80.3114 73.8196C80.3484 76.7216 80.3484 79.6327 80.3114 82.5531C80.3114 83.3168 80.5053 83.5899 81.3007 83.5543C82.6303 83.491 83.9639 83.5543 85.2935 83.5305C86.8289 83.491 87.7193 84.2626 88.0121 85.703C88.9405 90.1966 90.7101 94.4743 93.2276 98.3105C94.0468 99.5689 93.8964 100.713 92.8319 101.761C91.8426 102.723 90.8969 103.74 89.8957 104.682C89.4485 105.109 89.4011 105.382 89.8957 105.869C92.0062 107.934 94.0982 110.028 96.1718 112.149C96.6664 112.655 96.9632 112.679 97.4578 112.149C98.3957 111.136 99.4087 110.194 100.378 109.209C101.348 108.223 102.531 108.021 103.718 108.813C107.596 111.356 111.917 113.148 116.456 114.096C117.928 114.4 118.601 115.366 118.581 116.866C118.581 118.152 118.625 119.434 118.561 120.716C118.526 121.507 118.696 121.832 119.586 121.812C122.356 121.749 125.126 121.761 127.896 121.812C128.183 121.834 128.47 121.767 128.718 121.62C128.965 121.473 129.16 121.252 129.277 120.989C132.016 116.375 134.786 111.777 137.532 107.171C137.718 106.862 138.098 106.561 137.766 106.122C118.906 115.045 99.4641 104.199 94.2802 87.6301C93.014 83.6398 92.5683 79.4345 92.9701 75.2674C93.3719 71.1003 94.6127 67.0576 96.618 63.3827C98.6234 59.7077 101.352 56.4766 104.639 53.8839C107.925 51.2911 111.703 49.3903 115.744 48.2959C124.153 46.0324 132.225 47.1088 139.649 51.612C149.324 57.5003 154.259 66.3406 154.904 78.0024ZM150.104 78.3229C150.183 63.9228 138.379 52.0038 123.959 51.9207C109.539 51.8376 97.6082 63.5666 97.5132 77.852C97.4064 92.5291 109.104 104.484 123.631 104.547C130.616 104.57 137.325 101.823 142.288 96.9068C147.25 91.991 150.061 85.308 150.104 78.3229Z" fill="#691D1C"/>
<path d="M74.795 126.212C77.8579 124.958 80.7941 123.7 83.7738 122.556C88.8113 120.617 93.6667 120.949 98.3678 123.743C106.417 128.492 114.5 133.191 122.617 137.842C126.792 140.217 129.095 143.656 129.06 148.499C129.06 149.75 129.701 149.152 130.164 149.025C138.909 146.695 147.662 144.38 156.396 141.997C159.269 141.206 162.07 140.842 164.908 142.12C168.79 143.873 171.294 147.747 171.14 151.863C170.974 156.299 168.259 160.212 164.017 161.415C155.311 163.896 146.554 166.164 137.813 168.538C130.733 170.442 123.63 172.25 116.579 174.252C111.597 175.669 106.959 175.044 102.456 172.618C97.3865 169.895 92.2896 167.22 87.2047 164.53C83.5126 162.579 79.7059 162.357 75.7645 163.699C75.0285 163.952 74.6644 164.201 74.6367 165.095C74.5576 167.992 72.951 169.468 70.0306 169.492C67.7631 169.492 65.4917 169.523 63.2243 169.492C60.7313 169.444 59.0257 167.782 59.0178 165.297C58.9941 152.075 58.9941 138.854 59.0178 125.635C59.0178 123.149 60.7273 121.491 63.2243 121.44C65.2939 121.4 67.3674 121.44 69.441 121.44C73.0499 121.404 74.3202 122.52 74.795 126.212ZM74.6882 158.914C82.9982 157.502 84.3278 157.699 91.8425 161.609C96.508 164.035 101.142 166.532 105.823 168.938C108.464 170.347 111.547 170.684 114.43 169.88C130.259 165.659 146.079 161.419 161.892 157.161C165.291 156.247 167.06 153.204 166.178 150.038C165.331 146.999 162.248 145.385 158.889 146.279C148.529 149.049 138.173 151.819 127.813 154.589C127.198 154.743 126.645 155.083 126.23 155.563C124.528 157.507 122.202 158.799 119.651 159.217C117.1 159.635 114.484 159.153 112.25 157.854C109.29 156.192 106.377 154.443 103.445 152.733C101.66 151.693 99.8597 150.676 98.0948 149.603C96.694 148.748 96.3259 147.439 97.062 146.22C97.7505 145.08 99.0762 144.787 100.43 145.488C100.825 145.693 101.193 145.935 101.577 146.156C105.798 148.607 110.008 151.058 114.208 153.509C115.207 154.146 116.35 154.523 117.532 154.605C118.972 154.669 120.392 154.257 121.573 153.432C122.754 152.607 123.63 151.416 124.066 150.042C124.976 147.118 123.804 144.079 121.007 142.437C112.649 137.53 104.252 132.686 95.8986 127.767C92.5033 125.765 89.0289 125.563 85.424 127C82.2305 128.278 79.0925 129.663 75.8635 130.89C74.89 131.262 74.6763 131.756 74.6763 132.722C74.7238 138.392 74.7 144.067 74.7 149.738L74.6882 158.914ZM69.9396 145.428C69.9396 139.512 69.8842 133.596 69.9791 127.684C69.9989 126.311 69.5834 126.003 68.333 126.121C67.2527 126.228 66.1644 126.228 65.0841 126.121C63.9524 126.007 63.7229 126.402 63.7268 127.49C63.7743 138.286 63.7506 149.077 63.7585 159.872C63.7585 161.455 63.2084 163.556 64.0038 164.435C64.9061 165.432 67.0588 164.597 68.6535 164.755C69.6863 164.858 69.9712 164.514 69.9633 163.469C69.9079 157.454 69.9475 151.439 69.9475 145.428H69.9396Z" fill="#691D1C"/>
<path d="M167.345 131.594C155.458 131.594 143.571 131.594 131.683 131.594C130.912 131.594 130.033 131.792 129.558 130.929C129.083 130.067 129.63 129.438 130.041 128.757C142.134 108.581 154.223 88.3992 166.308 68.2124C167.31 66.5425 167.322 66.5425 168.315 68.2124L204.452 128.476C204.578 128.686 204.713 128.895 204.847 129.109C205.746 130.692 205.275 131.571 203.482 131.586C200.669 131.614 197.859 131.586 195.045 131.586L167.345 131.594ZM167.741 117.424C171.334 116.767 172.68 114.523 172.885 111.053C173.388 102.236 174.1 93.4354 174.686 84.6267C174.888 81.6034 173.178 79.0352 170.361 77.8797C165.766 75.9961 159.471 78.6712 159.969 85.1728C160.654 94.1714 161.196 103.182 161.833 112.188C162.015 114.768 163.321 116.292 165.83 117.079C166.055 117.151 166.269 117.246 166.589 117.364C162.07 119.05 160.286 121.717 161.152 125.382C161.865 128.405 164.856 130.55 167.879 130.201C171.223 129.806 173.613 127.237 173.653 123.977C173.693 120.578 171.397 118.037 167.761 117.424H167.741Z" fill="#FFB727"/>
<path d="M154.904 78.0024C154.259 66.3407 149.324 57.5004 139.649 51.6121C132.225 47.1088 124.153 46.0325 115.744 48.296C111.701 49.3826 107.919 51.2762 104.627 53.8628C101.335 56.4494 98.6009 59.6754 96.5886 63.3467C94.5762 67.0179 93.3277 71.0584 92.918 75.225C92.5084 79.3915 92.9462 83.5978 94.2051 87.5906C99.389 104.159 118.831 115.006 137.69 106.082C138.023 106.522 137.643 106.822 137.457 107.131C134.711 111.737 131.941 116.335 129.202 120.95C129.085 121.213 128.89 121.433 128.642 121.58C128.395 121.728 128.108 121.795 127.821 121.773C125.051 121.725 122.281 121.713 119.511 121.773C118.621 121.792 118.451 121.468 118.486 120.676C118.55 119.394 118.486 118.112 118.506 116.826C118.526 115.338 117.853 114.373 116.381 114.056C111.842 113.108 107.521 111.316 103.643 108.773C102.456 107.982 101.316 108.148 100.303 109.169C99.29 110.19 98.3245 111.096 97.3827 112.109C96.896 112.639 96.5912 112.616 96.0966 112.109C94.031 109.999 91.939 107.905 89.8205 105.829C89.3417 105.358 89.3892 105.085 89.8205 104.642C90.8217 103.692 91.7675 102.663 92.7568 101.722C93.8331 100.673 93.9835 99.5294 93.1525 98.271C90.635 94.4347 88.8654 90.1571 87.9369 85.6635C87.6441 84.2231 86.7498 83.4514 85.2184 83.491C83.8888 83.5227 82.5552 83.4514 81.2256 83.5148C80.4342 83.5504 80.2284 83.2773 80.2363 82.5136C80.2759 79.6117 80.2759 76.7005 80.2363 73.7801C80.2363 73.0639 80.4539 72.8462 81.1623 72.87C82.5394 72.9214 83.9323 72.87 85.3054 72.8898C86.6786 72.9096 87.6006 72.2448 87.8736 70.931C88.8416 66.294 90.6726 61.8803 93.2712 57.9198C93.9716 56.8356 93.7896 55.7434 92.8755 54.8174C91.8783 53.7925 90.8732 52.7755 89.8324 51.7981C89.314 51.3153 89.3338 51.0067 89.8324 50.512C91.9218 48.4807 93.9808 46.4216 96.0096 44.3349C96.5754 43.7453 96.8999 43.8442 97.3985 44.3784C98.3403 45.3875 99.3375 46.357 100.323 47.3146C101.308 48.2723 102.416 48.3989 103.548 47.6629C107.496 45.0997 111.891 43.301 116.504 42.3603C117.825 42.0872 118.51 41.1731 118.522 39.8158C118.522 38.3833 118.554 36.9508 118.522 35.5223C118.522 34.8773 118.712 34.6834 119.361 34.6873C122.321 34.719 125.297 34.7269 128.241 34.6873C128.996 34.6873 129.147 34.9841 129.131 35.6489C129.091 37.03 129.131 38.4189 129.131 39.7921C129.131 41.2404 129.839 42.0951 131.248 42.3919C135.693 43.3167 139.927 45.0612 143.733 47.5362C145.213 48.4939 146.167 48.3672 147.417 47.1405C148.339 46.2462 149.265 45.3598 150.136 44.418C150.63 43.8798 150.947 43.7532 151.529 44.3626C153.547 46.4599 155.604 48.5255 157.71 50.5358C158.343 51.1372 158.133 51.4419 157.634 51.9128C156.736 52.7597 155.877 53.6461 155.015 54.5246C153.598 55.965 153.499 56.7208 154.591 58.4263C156.724 61.7437 158.308 65.3836 159.281 69.2056C159.399 69.6805 159.621 70.1712 159.344 70.6381C157.927 72.9966 156.515 75.3313 154.904 78.0024Z" fill="#FFE9C0"/>
<path d="M150.104 78.323C150.061 85.3067 147.251 91.9885 142.29 96.9042C137.329 101.82 130.622 104.568 123.638 104.547C109.104 104.484 97.4063 92.5293 97.5211 77.8521C97.6279 63.5668 109.586 51.8377 123.967 51.9208C138.347 52.0039 150.183 63.9229 150.104 78.323ZM123.749 54.9758C119.146 54.9781 114.647 56.3451 110.82 58.9038C106.994 61.4626 104.012 65.0983 102.251 69.3515C100.491 73.6046 100.03 78.2843 100.929 82.7989C101.827 87.3136 104.044 91.4606 107.298 94.7158C110.553 97.971 114.7 100.188 119.214 101.087C123.729 101.986 128.408 101.527 132.662 99.7671C136.915 98.0071 140.551 95.0257 143.111 91.1997C145.67 87.3737 147.038 82.8748 147.041 78.2716C147.03 72.0966 144.572 66.1777 140.207 61.8103C135.842 57.4428 129.924 54.9825 123.749 54.9679V54.9758Z" fill="#BE4E1E"/>
<path d="M74.6884 158.915V149.738C74.6884 144.067 74.7122 138.393 74.6647 132.722C74.6647 131.756 74.8744 131.262 75.8518 130.89C79.065 129.663 82.2189 128.278 85.4123 127C89.0173 125.564 92.4917 125.765 95.8869 127.768C104.241 132.686 112.638 137.53 120.995 142.437C123.793 144.079 124.952 147.118 124.054 150.043C123.618 151.416 122.742 152.607 121.561 153.432C120.38 154.257 118.96 154.669 117.521 154.605C116.339 154.523 115.196 154.146 114.197 153.509C109.997 151.048 105.786 148.597 101.565 146.157C101.17 145.935 100.81 145.694 100.418 145.488C99.0645 144.787 97.7389 145.092 97.0503 146.22C96.3143 147.439 96.6823 148.749 98.0832 149.603C99.8481 150.676 101.645 151.693 103.433 152.733C106.366 154.443 109.278 156.192 112.238 157.854C114.474 159.156 117.094 159.638 119.647 159.218C122.201 158.799 124.528 157.504 126.23 155.555C126.645 155.075 127.198 154.735 127.813 154.581C138.173 151.831 148.529 149.041 158.889 146.271C162.249 145.377 165.331 146.992 166.178 150.031C167.06 153.196 165.292 156.235 161.892 157.154C146.064 161.414 130.243 165.654 114.43 169.872C111.547 170.677 108.464 170.339 105.823 168.93C101.142 166.524 96.5082 164.027 91.8427 161.601C84.3281 157.7 83.0064 157.514 74.6884 158.915Z" fill="#FFE9C0"/>
<path d="M69.9476 145.428C69.9476 151.439 69.9199 157.454 69.9713 163.465C69.9713 164.51 69.6943 164.854 68.6615 164.751C67.0786 164.593 64.9141 165.428 64.0118 164.431C63.2204 163.552 63.7665 161.439 63.7665 159.868C63.7665 149.073 63.7665 138.282 63.7348 127.487C63.7348 126.398 63.9604 126.003 65.0921 126.117C66.1724 126.224 67.2607 126.224 68.341 126.117C69.5835 125.999 70.0069 126.307 69.9871 127.681C69.908 133.597 69.9476 139.512 69.9476 145.428Z" fill="#FFBC3B"/>
<path d="M167.761 117.424C171.397 118.037 173.696 120.589 173.653 123.977C173.613 127.237 171.223 129.818 167.879 130.201C164.864 130.55 161.872 128.405 161.152 125.382C160.286 121.729 162.07 119.05 166.589 117.364C166.269 117.246 166.055 117.151 165.83 117.079C163.321 116.288 162.015 114.768 161.833 112.188C161.196 103.182 160.646 94.1714 159.969 85.1728C159.47 78.6633 165.766 75.9961 170.361 77.8797C173.178 79.0352 174.888 81.6034 174.686 84.6267C174.1 93.4354 173.388 102.236 172.885 111.053C172.699 114.523 171.354 116.755 167.761 117.424ZM164.718 84.6148C165.359 94.0527 165.948 102.751 166.534 111.448C166.57 111.959 166.574 112.489 167.246 112.541C168.061 112.6 168.038 111.983 168.061 111.436C168.689 102.493 169.316 93.5501 169.941 84.6069C170.044 83.1111 169.185 82.197 167.686 82.0664C165.545 81.8804 164.642 82.8895 164.718 84.6148ZM168.916 123.763C168.915 123.559 168.871 123.357 168.788 123.171C168.705 122.984 168.584 122.817 168.433 122.68C168.282 122.542 168.105 122.437 167.911 122.372C167.718 122.306 167.513 122.281 167.31 122.299C167.1 122.28 166.889 122.307 166.691 122.378C166.493 122.448 166.312 122.561 166.162 122.708C166.011 122.855 165.895 123.033 165.819 123.229C165.744 123.426 165.713 123.636 165.727 123.846C165.706 124.069 165.735 124.293 165.813 124.503C165.891 124.713 166.015 124.902 166.176 125.057C166.338 125.212 166.532 125.328 166.745 125.397C166.957 125.467 167.183 125.487 167.405 125.457C168.334 125.413 168.896 124.828 168.916 123.763Z" fill="#691D1C"/>
<path d="M123.749 54.9678C128.357 54.96 132.863 56.3197 136.698 58.8747C140.532 61.4297 143.522 65.0652 145.289 69.3206C147.056 73.5761 147.52 78.2602 146.623 82.7798C145.726 87.2993 143.508 91.4511 140.25 94.7092C136.992 97.9673 132.84 100.185 128.321 101.082C123.801 101.979 119.117 101.515 114.862 99.7481C110.606 97.9812 106.971 94.9912 104.416 91.1568C101.861 87.3223 100.501 82.8159 100.509 78.2082C100.514 72.0461 102.964 66.1378 107.321 61.7806C111.679 57.4233 117.587 54.973 123.749 54.9678ZM142.3 78.2715C142.303 74.607 141.22 71.0238 139.186 67.9752C137.153 64.9265 134.261 62.5494 130.877 61.1443C127.492 59.7392 123.767 59.3693 120.172 60.0815C116.578 60.7936 113.275 62.5558 110.682 65.145C108.089 67.7343 106.322 71.0345 105.604 74.6281C104.887 78.2217 105.251 81.9474 106.651 85.334C108.051 88.7205 110.424 91.6159 113.469 93.6538C116.515 95.6918 120.096 96.7808 123.761 96.7831C126.194 96.7852 128.603 96.308 130.852 95.3788C133.1 94.4496 135.144 93.0866 136.865 91.3675C138.587 89.6485 139.953 87.6072 140.885 85.3602C141.818 83.1131 142.299 80.7044 142.3 78.2715Z" fill="#691D1C"/>
<path d="M164.718 84.6148C164.643 82.8895 165.545 81.8804 167.686 82.0664C169.185 82.197 170.06 83.1111 169.941 84.6069C169.329 93.5501 168.703 102.493 168.062 111.436C168.026 111.983 168.062 112.6 167.246 112.54C166.574 112.489 166.57 111.959 166.534 111.448C165.948 102.75 165.359 94.0526 164.718 84.6148Z" fill="#BE4E1E"/>
<path d="M168.916 123.763C168.896 124.828 168.335 125.413 167.401 125.457C167.179 125.487 166.953 125.467 166.741 125.398C166.528 125.328 166.334 125.212 166.173 125.057C166.011 124.902 165.887 124.713 165.809 124.503C165.731 124.293 165.702 124.069 165.723 123.846C165.709 123.636 165.74 123.426 165.816 123.229C165.891 123.033 166.007 122.855 166.158 122.708C166.308 122.561 166.489 122.448 166.687 122.378C166.885 122.307 167.096 122.28 167.306 122.299C167.509 122.281 167.715 122.305 167.908 122.371C168.102 122.436 168.281 122.541 168.432 122.678C168.583 122.816 168.704 122.983 168.788 123.17C168.871 123.357 168.915 123.559 168.916 123.763Z" fill="#BE4E1E"/>
<path d="M142.3 78.2716C142.293 81.9368 141.199 85.5176 139.157 88.5609C137.114 91.6042 134.215 93.9734 130.826 95.3686C127.436 96.7637 123.709 97.1223 120.116 96.3989C116.523 95.6755 113.225 93.9026 110.64 91.3046C108.055 88.7065 106.298 85.4 105.592 81.8034C104.886 78.2067 105.263 74.4816 106.675 71.0992C108.087 67.7168 110.47 64.8292 113.524 62.8016C116.577 60.774 120.163 59.6976 123.828 59.7086C128.735 59.7337 133.433 61.7004 136.894 65.1788C140.356 68.6572 142.299 73.3645 142.3 78.2716ZM130.702 70.8757C130.306 69.1781 128.961 68.1571 127.326 67.4844C126.563 67.1718 126.199 66.8552 126.088 65.9688C125.93 64.7104 125.051 63.9586 123.714 64.0179C122.376 64.0773 121.545 64.8094 121.505 66.1271C121.478 66.9937 121.086 67.2668 120.405 67.5833C119.097 68.1855 118.014 69.1867 117.311 70.4431C116.608 71.6996 116.321 73.1466 116.491 74.5763C116.662 76.006 117.281 77.3449 118.26 78.4006C119.239 79.4563 120.528 80.1745 121.941 80.452C122.752 80.6182 123.611 80.5312 124.442 80.6222C124.714 80.6372 124.981 80.7064 125.226 80.8256C125.471 80.9448 125.69 81.1117 125.871 81.3165C126.051 81.5213 126.188 81.76 126.275 82.0185C126.362 82.2771 126.397 82.5503 126.377 82.8224C126.254 84.0095 125.585 84.7178 124.363 84.8009C123.14 84.8841 121.869 84.8801 120.88 83.7088C120.01 82.6799 118.664 82.7432 117.714 83.5821C117.259 83.9711 116.972 84.5211 116.913 85.1171C116.854 85.7131 117.028 86.3088 117.398 86.7795C118.156 87.8888 119.259 88.7166 120.536 89.134C120.817 89.1872 121.07 89.3402 121.247 89.5649C121.425 89.7896 121.515 90.0708 121.501 90.3568C121.593 91.6706 122.408 92.3947 123.718 92.4739C124.015 92.5056 124.316 92.4756 124.601 92.3857C124.886 92.2958 125.15 92.148 125.375 91.9515C125.601 91.755 125.783 91.514 125.911 91.2437C126.039 90.9734 126.11 90.6795 126.119 90.3806C126.171 89.4348 126.646 89.1934 127.33 88.8452C128.616 88.2042 129.667 87.1746 130.335 85.9025C131.002 84.6304 131.252 83.1803 131.049 81.7582C130.846 80.336 130.2 79.014 129.203 77.9797C128.205 76.9454 126.908 76.2515 125.494 75.9963C124.81 75.9117 124.122 75.8707 123.433 75.8736C122.099 75.8024 121.221 74.9832 121.209 73.804C121.197 72.6248 122.04 71.7858 123.377 71.6948C124.715 71.6038 125.862 71.7542 126.82 72.9057C127.461 73.6774 128.458 73.7288 129.4 73.246C130.275 72.783 130.678 72.0391 130.702 70.8757Z" fill="#FFE9C0"/>
<path d="M130.702 70.8755C130.678 72.0626 130.275 72.7828 129.4 73.23C128.458 73.7128 127.461 73.6613 126.82 72.8897C125.862 71.7382 124.699 71.5917 123.377 71.6788C122.056 71.7659 121.193 72.5771 121.209 73.788C121.225 74.9989 122.099 75.7863 123.433 75.8576C124.122 75.8547 124.81 75.8957 125.494 75.9802C126.908 76.236 128.205 76.9304 129.201 77.965C130.198 78.9995 130.843 80.3216 131.046 81.7436C131.249 83.1657 130.999 84.6155 130.331 85.8874C129.663 87.1592 128.612 88.1885 127.327 88.8291C126.642 89.1695 126.167 89.4188 126.116 90.3645C126.106 90.6624 126.036 90.9551 125.908 91.2246C125.781 91.494 125.6 91.7344 125.376 91.9307C125.151 92.127 124.889 92.2752 124.605 92.3659C124.321 92.4565 124.022 92.4879 123.726 92.4579C122.416 92.3787 121.601 91.6664 121.509 90.3408C121.523 90.0548 121.433 89.7735 121.255 89.5488C121.078 89.3241 120.825 89.1711 120.544 89.118C119.267 88.7005 118.164 87.8728 117.406 86.7635C117.036 86.2928 116.862 85.6971 116.921 85.1011C116.98 84.5051 117.267 83.955 117.722 83.5661C118.68 82.7272 120.026 82.6639 120.888 83.6927C121.878 84.8799 123.084 84.8522 124.371 84.7849C125.657 84.7176 126.262 83.9935 126.385 82.8063C126.405 82.5343 126.37 82.261 126.283 82.0025C126.196 81.7439 126.059 81.5053 125.879 81.3005C125.698 81.0956 125.479 80.9288 125.234 80.8095C124.989 80.6903 124.722 80.6212 124.45 80.6062C123.619 80.5151 122.76 80.6062 121.949 80.436C120.536 80.1585 119.247 79.4403 118.268 78.3846C117.289 77.3289 116.67 75.99 116.499 74.5603C116.329 73.1305 116.616 71.6835 117.319 70.4271C118.022 69.1707 119.105 68.1695 120.413 67.5673C121.094 67.2507 121.486 66.9777 121.513 66.1111C121.553 64.7973 122.412 64.0573 123.722 64.0019C125.031 63.9465 125.934 64.6944 126.096 65.9528C126.207 66.8392 126.571 67.1399 127.334 67.4684C128.961 68.1569 130.322 69.1779 130.702 70.8755Z" fill="#691D1C"/>
</svg>
