<svg width="270" height="270" viewBox="0 0 270 270" fill="none" xmlns="http://www.w3.org/2000/svg">
<circle cx="135" cy="135" r="135" fill="#FFF4DA"/>
<path d="M112.656 226V196.909H118.806V220.929H131.278V226H112.656ZM136.151 226V196.909H147.628C149.825 196.909 151.7 197.302 153.253 198.088C154.816 198.865 156.004 199.968 156.819 201.398C157.643 202.818 158.054 204.49 158.054 206.412C158.054 208.344 157.638 210.006 156.804 211.398C155.971 212.78 154.764 213.841 153.182 214.58C151.61 215.318 149.707 215.688 147.472 215.688H139.787V210.744H146.478C147.652 210.744 148.627 210.583 149.404 210.261C150.18 209.939 150.758 209.456 151.137 208.812C151.525 208.169 151.719 207.368 151.719 206.412C151.719 205.446 151.525 204.632 151.137 203.969C150.758 203.306 150.176 202.804 149.39 202.463C148.613 202.113 147.633 201.938 146.449 201.938H142.302V226H136.151ZM151.861 212.761L159.091 226H152.302L145.228 212.761H151.861Z" fill="#BE4E1E"/>
<path d="M92.5726 132.102C89.6221 128.101 87.6047 123.491 86.6683 118.609C85.7318 113.726 85.9002 108.697 87.161 103.888C88.4218 99.0798 90.743 94.6145 93.9545 90.8201C97.1659 87.0256 101.186 83.9982 105.72 81.9599C102.534 81.7718 99.364 82.5441 96.6213 84.177C95.259 84.9886 93.9962 85.9567 92.8587 87.0615C91.0548 88.7859 90.2046 88.7899 88.357 87.0258C84.7096 83.5492 80.4504 81.6421 75.3488 81.9599C70.9345 82.2301 67.3189 84.2366 64.2238 87.28C63.5563 87.9317 62.8729 88.4323 61.8756 88.2853C60.6439 88.1065 59.9844 87.2284 60.0003 85.6947C60.0797 75.7617 62.416 66.373 67.2951 57.7194C75.6031 42.9868 87.9557 33.3319 104.305 28.9296C131.347 21.6467 160.773 35.5489 172.517 61.041C176.038 68.6465 177.945 76.8986 178.12 85.2776C178.147 86.5013 177.985 87.6178 176.753 88.1422C175.521 88.6667 174.611 88.0111 173.725 87.1648C166.351 80.1283 156.954 80.1362 149.6 87.1648C147.935 88.7541 147.017 88.7541 145.309 87.1648C141.28 83.4022 137.204 81.7414 132.245 82.0275C136.136 83.7981 139.671 86.2649 142.675 89.3064C145.636 92.3858 148.001 95.9883 149.648 99.9307C151.134 97.4435 152.473 95.1152 153.891 92.8386C157.535 87.0059 165.366 86.3304 169.649 91.4678C170.145 92.086 170.591 92.7423 170.984 93.4306C183.44 114.318 195.828 135.249 208.368 156.088C212.206 162.465 208.801 169.422 203.083 170.968C201.979 171.248 200.842 171.382 199.702 171.365C164.378 171.365 129.053 171.365 93.7288 171.365C88.9967 171.365 86.0248 168.381 86.0049 163.677C86.0049 161.69 86.0446 159.704 86.0049 157.717C85.9652 155.73 86.2671 153.859 87.5306 152.27C87.8962 151.809 87.8087 151.535 87.4909 151.129C86.3426 149.659 85.9771 147.951 86.0049 146.115C86.0407 144.085 86.0049 142.051 86.0049 140.02C86.0248 135.598 88.1028 133.063 92.5726 132.102ZM104.278 33.5901C79.9418 40.2731 65.8806 62.3681 64.8595 80.9269C72.7463 76.159 80.5775 76.2822 88.4286 81.2209C88.4921 80.6766 88.5716 80.2952 88.5835 79.9098C88.739 75.8536 89.1705 71.8128 89.8748 67.8153C92.0601 55.3434 95.8346 43.539 104.472 33.8404C104.56 33.775 104.642 33.7033 104.719 33.6259C104.596 33.4392 104.433 33.5107 104.278 33.5901ZM196.611 159.541L162.282 101.929C161.885 102.573 161.647 102.998 161.385 103.415C155.556 112.685 150.232 122.228 145.889 132.201C149.938 133.028 152.004 135.547 152.012 140C152.012 142.13 151.98 144.26 152.012 146.389C152.102 148.084 151.601 149.756 150.593 151.121C150.315 151.483 150.053 151.761 150.474 152.254C151.889 153.907 152.155 155.905 151.984 157.975C151.889 159.135 152.127 159.565 153.454 159.565C167.36 159.505 181.286 159.529 195.2 159.529L196.611 159.541ZM116.837 31.7029C116.169 31.8817 115.645 32.0009 115.136 32.1677C110.281 33.7848 106.995 37.3011 104.21 41.3538C100.157 47.25 97.6663 53.8495 95.8982 60.7271C94.1968 67.3349 93.2321 74.1108 93.0216 80.9309C93.4944 81.0064 93.7368 80.7203 94.0189 80.5335C99.3549 77.2994 105.017 76.612 110.98 78.388C111.831 78.6423 112.645 79.0118 113.472 79.3376C115.593 80.1799 116.837 79.4052 116.837 77.2398V31.7029ZM145.118 81.1971C144.864 74.6346 143.961 68.1134 142.424 61.7284C140.482 53.9131 137.728 46.4355 132.829 39.9075C130.207 36.4032 127.064 33.5504 122.821 32.0724C121.692 31.675 121.259 31.7664 121.263 33.1968C121.323 47.8976 121.299 62.5985 121.299 77.3232C121.299 79.3098 122.213 80.0329 124.172 79.5482C124.497 79.4331 124.813 79.2937 125.117 79.131C127.352 78.1749 129.738 77.6182 132.166 77.4861C136.802 77.2318 141.034 78.5112 145.118 81.1971ZM173.276 80.9706C171.767 58.224 153.677 38.2745 133.469 33.6179C145.281 47.1984 148.384 63.854 149.687 81.209C157.594 76.2544 165.417 76.1749 173.276 80.9706ZM119.141 153.958H93.8758C91.4164 153.958 90.4907 154.908 90.4827 157.391C90.4827 159.326 90.4827 161.257 90.4827 163.188C90.4827 166.073 91.3091 166.907 94.1897 166.907H143.974C146.711 166.907 147.55 166.081 147.55 163.395C147.55 161.464 147.55 159.533 147.55 157.602C147.55 154.765 146.755 153.958 143.95 153.958H119.141ZM147.558 112.295C147.56 106.649 145.887 101.128 142.751 96.4327C139.615 91.737 135.157 88.0772 129.94 85.9164C124.723 83.7555 118.983 83.1907 113.445 84.2935C107.907 85.3962 102.82 88.117 98.8293 92.1114C94.8382 96.1058 92.1218 101.194 91.0236 106.733C89.9255 112.272 90.4951 118.012 92.6603 123.227C94.8255 128.442 98.4891 132.898 103.187 136.03C107.886 139.162 113.407 140.83 119.054 140.823C126.614 140.811 133.861 137.801 139.205 132.453C144.549 127.105 147.553 119.856 147.558 112.295ZM118.994 149.504C127.471 149.504 135.939 149.504 144.399 149.504C146.644 149.504 147.542 148.595 147.578 146.362C147.613 144.129 147.578 141.804 147.578 139.528C147.614 139.057 147.526 138.586 147.324 138.16C147.121 137.734 146.81 137.368 146.421 137.1C145.229 136.27 141.511 136.488 140.406 137.434C134.666 142.354 127.399 145.137 119.841 145.309C112.282 145.482 104.896 143.033 98.9377 138.379C97.253 137.052 95.6638 136.452 93.5858 136.611C91.5078 136.77 90.5105 137.632 90.4867 139.738C90.4628 141.844 90.4867 143.898 90.4867 145.976C90.4867 148.674 91.325 149.508 94.0626 149.508L118.994 149.504ZM152.071 110.273C152.326 109.876 152.469 109.629 152.624 109.391C155.008 105.399 157.385 101.407 159.756 97.4157C161.389 94.6782 163.153 94.6782 164.782 97.4157C173.411 111.894 182.039 126.375 190.663 140.859C194.456 147.216 198.251 153.586 202.046 159.97C203.417 162.282 202.467 163.975 199.813 164.003C199.118 164.003 198.427 164.003 197.731 164.003H153.295C152.135 164.003 151.571 164.797 151.706 166.422C151.797 167.424 152.655 166.891 153.1 166.891C168.56 166.927 184.016 166.891 199.472 166.935C201.752 166.935 203.707 166.391 204.907 164.301C206.107 162.211 205.67 160.232 204.478 158.277C201.605 153.545 198.804 148.769 195.967 144.013C186.32 127.84 176.673 111.658 167.026 95.4688C164.579 91.3685 159.982 91.3844 157.519 95.4688C155.631 98.6037 153.772 101.754 151.901 104.897C151.654 105.295 151.344 105.692 151.448 106.256C151.67 107.531 151.845 108.787 152.071 110.261V110.273Z" fill="#691D1C"/>
<path d="M196.611 159.529H195.22C181.314 159.529 167.408 159.505 153.474 159.565C152.147 159.565 151.908 159.128 152.004 157.975C152.175 155.905 151.908 153.907 150.494 152.254C150.073 151.761 150.335 151.483 150.613 151.122C151.622 149.754 152.124 148.078 152.032 146.382C151.988 144.252 152.032 142.122 152.032 139.993C152.032 135.539 149.958 133.02 145.909 132.193C150.244 122.22 155.568 112.677 161.404 103.407C161.667 103.01 161.913 102.565 162.302 101.921L196.611 159.529ZM159.426 145.893C155.337 148.527 154.332 152.838 156.899 156.223C157.472 156.971 158.195 157.591 159.022 158.042C159.848 158.494 160.761 158.768 161.699 158.846C162.638 158.924 163.583 158.805 164.473 158.496C165.363 158.188 166.179 157.696 166.868 157.054C167.55 156.438 168.093 155.685 168.462 154.844C168.832 154.003 169.018 153.093 169.009 152.174C169.009 149.365 167.603 147.407 165.088 145.857C167.229 145.186 167.829 143.7 167.94 141.884C168.008 140.692 168.111 139.5 168.203 138.328C168.735 131.613 169.295 124.902 169.792 118.188C169.979 115.597 168.203 113.607 165.692 113.511C163.419 113.42 161.134 113.42 158.858 113.511C158.284 113.523 157.72 113.653 157.198 113.892C156.677 114.13 156.21 114.474 155.827 114.9C155.443 115.326 155.151 115.827 154.968 116.37C154.786 116.914 154.717 117.489 154.765 118.061C155.345 125.86 156.021 133.655 156.589 141.459C156.724 143.489 157.197 145.182 159.426 145.893Z" fill="#FFB727"/>
<path d="M116.837 31.7026V77.2554C116.837 79.4208 115.593 80.1956 113.472 79.3533C112.645 79.0275 111.831 78.658 110.98 78.4037C105.021 76.6277 99.3548 77.315 94.0188 80.5492C93.7367 80.7201 93.4943 81.0061 93.0215 80.9465C93.232 74.1264 94.1967 67.3506 95.8981 60.7428C97.6662 53.8652 100.157 47.2657 104.21 41.3694C106.991 37.3168 110.281 33.8204 115.136 32.1834C115.645 32.0006 116.169 31.8973 116.837 31.7026Z" fill="#FFE9C0"/>
<path d="M145.118 81.1967C141.034 78.5108 136.802 77.2235 132.154 77.4857C129.73 77.6192 127.349 78.1759 125.117 79.1306C124.813 79.2933 124.497 79.4328 124.171 79.5478C122.213 80.0325 121.299 79.3134 121.299 77.3228C121.299 62.622 121.323 47.9211 121.263 33.1964C121.263 31.7661 121.692 31.6826 122.821 32.072C127.064 33.5302 130.207 36.4028 132.829 39.9071C137.712 46.4351 140.481 53.9127 142.424 61.728C143.961 68.113 144.864 74.6342 145.118 81.1967Z" fill="#FFE9C0"/>
<path d="M173.276 80.9708C165.417 76.1752 157.594 76.2546 149.687 81.2092C148.384 63.8543 145.281 47.1986 133.469 33.6182C153.677 38.2748 171.767 58.2242 173.276 80.9708Z" fill="#FFE9C0"/>
<path d="M104.472 33.8402C95.8228 43.5387 92.0602 55.3392 89.8749 67.815C89.1706 71.8125 88.7391 75.8534 88.5836 79.9095C88.5836 80.3068 88.4922 80.6763 88.4287 81.2206C80.5776 76.2819 72.7464 76.1588 64.8596 80.9266C65.8807 62.3678 79.9578 40.2728 104.278 33.5898L104.472 33.8402Z" fill="#FFE9C0"/>
<path d="M119.142 153.958H143.958C146.763 153.958 147.558 154.753 147.558 157.602C147.558 159.533 147.558 161.464 147.558 163.395C147.558 166.081 146.712 166.903 143.982 166.907H94.1898C91.3092 166.907 90.4828 166.073 90.4828 163.188C90.4828 161.257 90.4828 159.326 90.4828 157.391C90.4828 154.908 91.4165 153.962 93.8759 153.958H119.142Z" fill="#BE4E1E"/>
<path d="M147.558 112.295C147.556 117.942 145.879 123.462 142.74 128.155C139.6 132.849 135.138 136.506 129.92 138.663C124.701 140.82 118.96 141.38 113.422 140.273C107.885 139.165 102.8 136.44 98.8125 132.442C94.8245 128.444 92.1122 123.353 91.0188 117.813C89.9255 112.273 90.5002 106.533 92.6703 101.32C94.8403 96.1063 98.5082 91.6539 103.21 88.5259C107.911 85.398 113.435 83.7351 119.082 83.7476C126.642 83.7634 133.886 86.7784 139.225 92.1308C144.564 97.4831 147.561 104.735 147.558 112.295ZM118.987 87.7447C115.765 87.7525 112.577 88.395 109.604 89.6354C106.632 90.8758 103.932 92.6898 101.661 94.9738C99.3896 97.2577 97.5904 99.9669 96.3664 102.947C95.1424 105.926 94.5175 109.118 94.5275 112.339C94.5593 125.887 105.629 136.937 119.09 136.853C132.63 136.77 143.636 125.729 143.604 112.22C143.563 105.717 140.951 99.4941 136.339 94.9091C131.727 90.3241 125.49 87.7487 118.987 87.7447Z" fill="#FFB727"/>
<path d="M118.994 149.504H94.0427C91.321 149.504 90.4668 148.67 90.4668 145.972C90.4668 143.894 90.4668 141.812 90.4668 139.734C90.4668 137.656 91.468 136.77 93.5659 136.607C95.6637 136.445 97.2332 137.048 98.9178 138.376C104.876 143.026 112.259 145.473 119.815 145.3C127.371 145.128 134.635 142.347 140.374 137.43C141.479 136.484 145.202 136.266 146.39 137.096C146.778 137.364 147.089 137.73 147.292 138.156C147.495 138.582 147.582 139.053 147.546 139.524C147.522 141.8 147.546 144.077 147.546 146.358C147.546 148.638 146.632 149.5 144.367 149.5C135.923 149.503 127.465 149.504 118.994 149.504Z" fill="#FFE9C0"/>
<path d="M152.071 110.261C151.845 108.787 151.674 107.531 151.448 106.287C151.344 105.723 151.654 105.346 151.9 104.929C153.772 101.786 155.631 98.635 157.519 95.5001C159.982 91.4037 164.579 91.3879 167.026 95.5001C176.681 111.671 186.324 127.847 195.955 144.029C198.792 148.797 201.593 153.565 204.466 158.293C205.658 160.255 206.107 162.222 204.919 164.304C203.731 166.386 201.764 166.942 199.484 166.938C184.028 166.911 168.572 166.938 153.112 166.895C152.667 166.895 151.809 167.427 151.718 166.426C151.571 164.809 152.135 164.006 153.307 164.006H197.723C198.419 164.006 199.11 164.006 199.805 164.006C202.46 163.978 203.409 162.286 202.038 159.973C198.256 153.598 194.461 147.227 190.655 140.862C182.028 126.381 173.401 111.9 164.774 97.4192C163.145 94.6856 161.381 94.6856 159.748 97.4192C157.364 101.408 154.986 105.4 152.616 109.394C152.481 109.617 152.326 109.851 152.071 110.261Z" fill="#BE4E1E"/>
<path d="M104.278 33.5897C104.433 33.5102 104.596 33.4387 104.719 33.6255C104.642 33.7028 104.56 33.7745 104.472 33.84L104.278 33.5897Z" fill="#FBFBFB"/>
<path d="M159.426 145.892C157.201 145.181 156.724 143.489 156.577 141.466C156.009 133.663 155.333 125.867 154.753 118.068C154.705 117.497 154.774 116.921 154.957 116.378C155.139 115.834 155.431 115.334 155.815 114.907C156.198 114.481 156.665 114.138 157.186 113.899C157.708 113.66 158.272 113.531 158.846 113.519C161.122 113.427 163.407 113.427 165.68 113.519C168.207 113.614 169.967 115.605 169.78 118.195C169.295 124.91 168.735 131.621 168.191 138.335C168.099 139.527 167.996 140.719 167.928 141.891C167.817 143.699 167.217 145.185 165.076 145.865C167.591 147.398 169.009 149.373 168.997 152.182C169.006 153.098 168.821 154.006 168.454 154.846C168.087 155.685 167.546 156.438 166.868 157.053C166.178 157.695 165.361 158.185 164.47 158.493C163.58 158.8 162.635 158.918 161.696 158.838C160.757 158.758 159.845 158.483 159.019 158.03C158.193 157.577 157.471 156.956 156.899 156.207C154.332 152.838 155.337 148.527 159.426 145.892ZM162.366 117.953C161.623 117.953 160.876 117.993 160.137 117.953C159.398 117.913 159.235 118.128 159.295 118.879C159.88 126.081 160.431 133.289 160.948 140.505C161.023 141.593 161.655 141.45 162.346 141.47C163.037 141.49 163.538 141.49 163.59 140.521C164.047 133.949 164.595 127.385 165.076 120.818C165.282 117.957 165.239 117.953 162.362 117.953H162.366ZM164.539 152.031C164.518 151.587 164.366 151.159 164.103 150.8C163.84 150.441 163.478 150.167 163.061 150.012C162.644 149.857 162.191 149.828 161.758 149.928C161.324 150.028 160.93 150.253 160.623 150.576C160.316 150.898 160.111 151.303 160.032 151.741C159.954 152.178 160.005 152.63 160.181 153.038C160.356 153.447 160.648 153.796 161.019 154.04C161.391 154.285 161.826 154.415 162.271 154.415C162.577 154.409 162.879 154.343 163.159 154.22C163.439 154.096 163.692 153.919 163.903 153.697C164.114 153.475 164.279 153.214 164.388 152.928C164.497 152.642 164.549 152.337 164.539 152.031Z" fill="#691D1C"/>
<path d="M118.987 87.7446C125.495 87.7445 131.739 90.3202 136.355 94.9091C140.971 99.4979 143.583 105.727 143.62 112.235C143.652 125.717 132.646 136.77 119.106 136.869C105.645 136.953 94.5752 125.903 94.5434 112.355C94.5314 109.133 95.1542 105.942 96.3763 102.961C97.5983 99.9808 99.3957 97.2704 101.666 94.9849C103.936 92.6995 106.634 90.8837 109.606 89.6414C112.578 88.3991 115.765 87.7545 118.987 87.7446ZM119.193 92.2065C108.219 92.0516 99.1324 100.967 98.9894 112.025C98.9521 114.664 99.4356 117.285 100.412 119.737C101.389 122.189 102.839 124.425 104.681 126.316C106.522 128.206 108.719 129.716 111.144 130.757C113.569 131.798 116.176 132.351 118.816 132.384C129.758 132.606 139.011 123.543 139.143 112.478C139.274 101.412 130.334 92.3655 119.193 92.2065Z" fill="#691D1C"/>
<path d="M162.362 117.953C165.235 117.953 165.278 117.953 165.072 120.806C164.591 127.373 164.043 133.937 163.586 140.509C163.518 141.478 163.037 141.478 162.342 141.458C161.647 141.439 161.019 141.582 160.943 140.493C160.435 133.278 159.884 126.069 159.291 118.867C159.231 118.116 159.402 117.889 160.133 117.941C160.864 117.993 161.623 117.953 162.362 117.953Z" fill="#BE4E1E"/>
<path d="M164.539 152.031C164.545 152.482 164.416 152.924 164.17 153.302C163.923 153.679 163.57 153.975 163.155 154.151C162.74 154.327 162.282 154.376 161.839 154.291C161.396 154.206 160.989 153.991 160.668 153.674C160.348 153.357 160.129 152.952 160.039 152.51C159.95 152.068 159.994 151.61 160.165 151.193C160.337 150.776 160.629 150.42 161.004 150.169C161.379 149.919 161.82 149.785 162.27 149.786C162.865 149.795 163.434 150.034 163.856 150.452C164.279 150.871 164.524 151.436 164.539 152.031Z" fill="#BE4E1E"/>
<path d="M119.193 92.2066C130.318 92.3655 139.274 101.448 139.143 112.47C139.012 123.492 129.758 132.598 118.816 132.376C116.176 132.343 113.57 131.79 111.144 130.749C108.719 129.708 106.522 128.199 104.681 126.308C102.839 124.417 101.389 122.181 100.412 119.729C99.4356 117.277 98.9521 114.656 98.9894 112.017C99.1325 100.967 108.219 92.0516 119.193 92.2066ZM126.683 106.399C126.44 103.761 125.201 101.52 122.674 100.221C121.665 99.7 121.208 99.2272 121.255 98.0353C121.319 96.5135 120.357 95.6116 119.042 95.6116C117.727 95.6116 116.837 96.4937 116.861 98.0432C116.861 98.9968 116.67 99.4656 115.669 99.8471C112.347 101.111 110.504 104.488 110.981 108.084C111.422 111.393 114.159 113.984 117.707 114.397C118.546 114.496 119.396 114.52 120.218 114.679C120.888 114.789 121.499 115.125 121.951 115.631C122.403 116.137 122.668 116.783 122.702 117.46C122.76 118.157 122.583 118.853 122.199 119.437C121.815 120.021 121.247 120.46 120.584 120.683C118.224 121.541 115.951 119.971 115.816 117.73C115.721 116.09 114.624 115.347 113.253 115.549C111.994 115.736 111.306 116.741 111.449 118.33C111.704 121.167 113.106 123.281 115.657 124.525C116.535 124.95 116.901 125.383 116.849 126.396C116.781 128.081 117.62 128.979 119.002 128.987C120.385 128.994 121.267 128.085 121.247 126.436C121.247 125.494 121.525 125.105 122.408 124.755C125.805 123.404 127.573 120.071 127.024 116.364C126.524 113.046 123.742 110.535 120.186 110.181C119.396 110.135 118.608 110.046 117.826 109.915C117.156 109.814 116.542 109.48 116.094 108.971C115.645 108.463 115.391 107.812 115.375 107.134C115.312 106.438 115.488 105.741 115.872 105.157C116.257 104.573 116.828 104.137 117.493 103.92C119.809 103.081 121.827 104.353 122.213 106.892C122.447 108.433 123.301 109.196 124.656 109.073C125.908 108.95 126.707 107.956 126.683 106.399Z" fill="#FFE9C0"/>
<path d="M126.682 106.399C126.706 107.957 125.908 108.95 124.696 109.061C123.341 109.184 122.487 108.422 122.252 106.88C121.855 104.341 119.849 103.07 117.532 103.908C116.868 104.125 116.297 104.562 115.912 105.145C115.527 105.729 115.352 106.426 115.414 107.122C115.43 107.8 115.685 108.451 116.133 108.96C116.582 109.469 117.195 109.803 117.866 109.904C118.647 110.034 119.435 110.123 120.226 110.17C123.782 110.523 126.563 113.035 127.064 116.352C127.624 120.059 125.844 123.393 122.447 124.744C121.565 125.093 121.255 125.483 121.287 126.424C121.307 128.073 120.417 128.987 119.042 128.975C117.667 128.963 116.821 128.069 116.889 126.384C116.928 125.371 116.563 124.938 115.697 124.513C113.146 123.269 111.743 121.156 111.489 118.319C111.346 116.753 112.033 115.732 113.293 115.538C114.683 115.327 115.76 116.078 115.855 117.719C115.983 119.96 118.239 121.529 120.623 120.671C121.286 120.448 121.855 120.01 122.239 119.426C122.623 118.842 122.8 118.145 122.741 117.449C122.707 116.771 122.443 116.126 121.991 115.62C121.539 115.113 120.927 114.777 120.258 114.668C119.435 114.509 118.585 114.485 117.747 114.385C114.219 113.988 111.461 111.382 111.02 108.072C110.543 104.476 112.387 101.099 115.708 99.8355C116.71 99.4382 116.9 98.9853 116.9 98.0317C116.877 96.4821 117.743 95.6001 119.082 95.6001C120.421 95.6001 121.358 96.502 121.295 98.0237C121.247 99.2157 121.692 99.6885 122.713 100.209C125.2 101.52 126.44 103.761 126.682 106.399Z" fill="#691D1C"/>
</svg>
