<svg width="361" height="376" viewBox="0 0 361 376" fill="none" xmlns="http://www.w3.org/2000/svg">
<path d="M129.96 161.643L144.19 157.311L206.119 155.495L220.094 159.291L218.254 193.341L186.672 213.488L156.022 212.882L136.761 195.321L132.475 177.923L129.96 161.643Z" fill="#FFBE9D"/>
<path d="M308.076 216.657C304.375 208.77 300.193 201.125 295.557 193.766C288.056 182.068 276.58 173.584 263.318 169.93L212.939 156.054C212.939 156.054 210.337 207.193 175.775 207.193C141.214 207.193 134.385 159.264 134.385 159.264L76.0852 182.863C74.0877 183.642 60.5464 188.409 44.8217 222.674C29.8403 255.312 23.2903 272.02 23.2903 272.02L83.3553 289.625L87.0948 344.517V374.983H175.775H266.035V340.245L267.754 284.693L270.077 288.422L330.723 263.713C330.723 263.713 322.825 247.524 308.076 216.657Z" fill="#FF725E"/>
<path d="M75.4374 214.14C75.7867 214.14 77.7664 230.816 79.7461 251.405C81.7258 271.993 83.1698 288.856 82.8437 288.879C82.5176 288.902 80.5147 272.203 78.535 251.614C76.5553 231.026 75.1113 214.163 75.4374 214.14Z" fill="#263238"/>
<path d="M271.355 221.594C271.682 221.594 271.169 237.175 270.191 256.343C269.213 275.511 268.141 291.046 267.862 291.022C267.582 290.999 268.048 275.441 269.026 256.273C270.005 237.105 271.029 221.57 271.355 221.594Z" fill="#263238"/>
<path d="M223.354 158.01C223.345 158.554 223.266 159.094 223.121 159.617C222.912 160.782 222.609 162.296 222.236 164.275C221.098 169.89 219.636 175.435 217.858 180.881C215.293 189.05 211.102 196.616 205.537 203.124C202.18 206.909 198.173 210.064 193.706 212.44C188.847 215.003 183.432 216.331 177.938 216.306C167.315 216.075 157.133 212.014 149.268 204.87C142.967 199.069 137.993 191.974 134.688 184.072C132.427 178.821 130.687 173.36 129.494 167.769C129.075 165.789 128.796 164.252 128.656 163.111C128.536 162.583 128.474 162.045 128.469 161.504C128.663 162.008 128.803 162.531 128.889 163.064L129.96 167.606C131.312 173.13 133.152 178.523 135.457 183.723C138.818 191.446 143.779 198.368 150.013 204.032C157.712 210.933 167.624 214.857 177.961 215.095C183.256 215.114 188.476 213.843 193.17 211.392C197.563 209.074 201.507 205.99 204.815 202.285C210.33 195.906 214.525 188.496 217.159 180.485C219.488 173.708 220.885 168.002 221.817 164.182L222.935 159.664C223.036 159.104 223.176 158.551 223.354 158.01Z" fill="#263238"/>
<path d="M150.572 194.297C150.782 194.576 149.547 195.764 147.847 196.975C146.147 198.186 144.586 198.908 144.4 198.629C144.214 198.349 145.425 197.162 147.148 195.974C148.872 194.786 150.386 194.041 150.572 194.297Z" fill="#263238"/>
<path d="M171.3 215.585C170.899 213.972 170.899 212.284 171.3 210.671C171.332 209.047 171.738 207.453 172.488 206.013C172.838 206.013 172.838 208.342 172.488 210.927C172.461 212.551 172.054 214.146 171.3 215.585Z" fill="#263238"/>
<path d="M201.95 206.921C201.718 207.154 199.784 205.71 197.642 203.66C195.499 201.611 193.962 199.794 194.171 199.538C194.381 199.282 196.337 200.749 198.48 202.798C200.623 204.848 202.183 206.618 201.95 206.921Z" fill="#263238"/>
<path d="M214.667 186.472C214.481 186.751 212.734 185.936 210.614 184.958C208.495 183.98 206.702 183.211 206.795 182.862C206.888 182.512 208.891 182.862 211.104 183.863C213.316 184.865 214.853 186.192 214.667 186.472Z" fill="#263238"/>
<path d="M137.809 173.103C137.925 173.405 136.691 174.151 135.061 174.756C133.43 175.362 132.009 175.618 131.893 175.292C131.777 174.966 133.011 174.244 134.641 173.638C136.272 173.033 137.809 172.8 137.809 173.103Z" fill="#263238"/>
<g opacity="0.3">
<path d="M270.89 230.863L276.992 283.569L270.54 286.154L268.258 282.475L270.89 230.863Z" fill="black"/>
</g>
<path d="M63.2799 216.259C61.0344 215.867 58.9216 214.922 57.1312 213.511C53.987 211.462 51.9142 209.202 52.1471 208.853C55.9625 211.12 59.677 213.552 63.2799 216.143V216.259Z" fill="white"/>
<path d="M112.539 223.853C109.167 224.124 105.774 223.999 102.431 223.48C99.042 223.364 95.6795 222.84 92.416 221.92C95.7961 221.648 99.1963 221.773 102.547 222.292C105.93 222.394 109.286 222.918 112.539 223.853Z" fill="white"/>
<path d="M165.897 233.657C162.523 233.674 159.155 233.378 155.836 232.772C152.469 232.571 149.126 232.08 145.844 231.305C149.215 230.886 152.63 230.972 155.975 231.561C159.367 231.771 162.71 232.477 165.897 233.657Z" fill="white"/>
<path d="M233.672 226.741C229.886 227.98 225.984 228.83 222.027 229.279C218.146 230.123 214.19 230.576 210.218 230.63C217.877 228.546 225.727 227.243 233.649 226.741H233.672Z" fill="white"/>
<path d="M275.222 210.973C273.778 212.835 271.842 214.255 269.632 215.072C267.592 216.254 265.257 216.827 262.901 216.726C264.91 215.672 266.988 214.754 269.12 213.978C271.082 212.837 273.121 211.834 275.222 210.973Z" fill="white"/>
<path d="M299.327 204.824C297.125 206.577 294.601 207.882 291.898 208.667C289.328 209.84 286.547 210.482 283.723 210.554C286.231 209.328 288.842 208.323 291.525 207.549C294.03 206.386 296.643 205.473 299.327 204.824Z" fill="white"/>
<path d="M250.091 201.586C243.309 204.003 236.278 205.659 229.13 206.524C232.442 205.117 235.904 204.093 239.448 203.473C242.913 202.442 246.483 201.809 250.091 201.586Z" fill="white"/>
<path d="M283.816 186.541C281.216 188.504 278.385 190.139 275.385 191.409C272.553 193.027 269.534 194.294 266.395 195.182C271.821 191.591 277.673 188.688 283.816 186.541Z" fill="white"/>
<path d="M247.273 182.209C242.694 184.071 237.839 185.165 232.903 185.447C235.096 184.333 237.456 183.586 239.89 183.234C242.28 182.496 244.773 182.149 247.273 182.209Z" fill="white"/>
<path d="M269.749 175.222C269.888 175.548 268.421 176.433 266.488 177.225C264.555 178.017 262.901 178.389 262.761 178.087C262.622 177.784 264.112 176.876 266.045 176.107C267.978 175.338 269.632 174.919 269.749 175.222Z" fill="white"/>
<path d="M181.921 222.921C175.016 223.956 167.964 223.284 161.379 220.965C164.819 221.109 168.248 221.451 171.65 221.99C175.088 222.106 178.517 222.417 181.921 222.921Z" fill="white"/>
<path d="M215.994 213.441C215.994 213.767 214.131 214.582 211.639 215.258C209.147 215.933 206.981 216.213 206.981 215.886C206.981 215.56 208.844 214.769 211.336 214.07C213.828 213.371 215.901 213.115 215.994 213.441Z" fill="white"/>
<path d="M135.969 212.953C133.218 213.289 130.432 213.219 127.701 212.743C124.927 212.669 122.18 212.183 119.549 211.299C122.302 210.977 125.087 211.056 127.817 211.532C130.588 211.621 133.332 212.1 135.969 212.953Z" fill="white"/>
<path d="M99.403 204.149C96.3735 204.146 93.3579 203.738 90.4363 202.937C87.4407 202.559 84.5105 201.775 81.7257 200.608C84.7552 200.611 87.7708 201.018 90.6925 201.82C93.6854 202.211 96.614 202.994 99.403 204.149Z" fill="white"/>
<path d="M101.895 183.816C99.6378 184.213 97.3285 184.213 95.0711 183.816C92.7718 183.808 90.4924 183.39 88.3402 182.581C90.6054 182.185 92.9223 182.185 95.1875 182.581C97.479 182.591 99.7505 183.009 101.895 183.816Z" fill="white"/>
<path d="M126.513 192.48C124.541 193.262 122.373 193.401 120.318 192.876C118.206 192.743 116.194 191.926 114.588 190.547C116.589 190.819 118.572 191.208 120.527 191.712C122.539 191.823 124.539 192.08 126.513 192.48Z" fill="white"/>
<path d="M123.648 175.268C121.625 175.307 119.614 174.942 117.733 174.197C115.734 173.797 113.834 173.005 112.143 171.868C114.165 171.815 116.178 172.171 118.059 172.916C120.061 173.318 121.961 174.118 123.648 175.268Z" fill="white"/>
<path d="M239.401 167.024C239.401 167.35 238.004 168.072 236.094 168.654C234.184 169.236 232.531 169.423 232.437 169.097C232.344 168.771 233.812 168.049 235.745 167.49C237.678 166.931 239.308 166.768 239.401 167.024Z" fill="white"/>
<path d="M64.6074 238.712C59.8619 237.378 55.3632 235.286 51.2853 232.517C56.0402 233.825 60.543 235.919 64.6074 238.712Z" fill="white"/>
<path d="M44.6475 259.114C42.2972 259.278 39.9357 259.05 37.6604 258.438C35.3048 258.19 33.0067 257.552 30.8597 256.552C35.5855 256.591 40.2678 257.458 44.6941 259.114H44.6475Z" fill="white"/>
<path d="M72.3164 268.849C69.4403 268.21 66.6146 267.362 63.862 266.311C60.987 265.647 58.162 264.783 55.4076 263.726C61.4026 263.879 67.2447 265.649 72.3164 268.849Z" fill="white"/>
<path d="M100.544 246.211C95.6241 247.019 90.6052 247.019 85.685 246.211C90.6052 245.404 95.6241 245.404 100.544 246.211Z" fill="white"/>
<path d="M112.19 277.047C108.999 276.438 105.842 275.66 102.734 274.718C99.5287 274.104 96.3571 273.326 93.2312 272.389C99.8523 272.23 106.396 273.837 112.19 277.047Z" fill="white"/>
<path d="M166.852 263.749C165.253 263.979 163.63 263.979 162.031 263.749C158.126 263.487 154.239 263.013 150.386 262.328C146.562 261.659 142.775 260.788 139.043 259.72C137.457 259.38 135.928 258.816 134.502 258.043C134.502 257.693 141.698 259.58 150.595 261.14C159.492 262.701 166.875 263.4 166.852 263.749Z" fill="white"/>
<path d="M167.131 283.638C163.626 284.038 160.086 284.038 156.581 283.638C153.06 283.665 149.549 283.266 146.123 282.451C149.622 282.065 153.152 282.065 156.651 282.451C160.178 282.456 163.693 282.854 167.131 283.638Z" fill="white"/>
<path d="M201.461 249.449C194.674 250.427 187.794 250.599 180.966 249.961C187.754 248.984 194.633 248.812 201.461 249.449Z" fill="white"/>
<path d="M230.667 275.067C225.808 276.211 220.86 276.943 215.878 277.257C210.935 277.974 205.943 278.301 200.949 278.235C205.814 277.119 210.759 276.387 215.738 276.046C220.681 275.328 225.673 275.001 230.667 275.067Z" fill="white"/>
<path d="M254.26 246.374C249.813 248.059 245.232 249.368 240.566 250.286C235.996 251.61 231.32 252.537 226.591 253.058C231.036 251.358 235.617 250.041 240.286 249.122C244.859 247.814 249.533 246.895 254.26 246.374Z" fill="white"/>
<path d="M256.753 265.216C255.35 266.718 253.535 267.772 251.535 268.244C249.65 269.079 247.562 269.347 245.527 269.013C247.33 268.193 249.21 267.553 251.14 267.103C252.94 266.281 254.821 265.649 256.753 265.216Z" fill="white"/>
<path d="M291.106 227.323C288.849 228.6 286.404 229.512 283.862 230.024C281.438 230.939 278.882 231.458 276.293 231.562C278.555 230.296 280.998 229.385 283.536 228.86C285.969 227.973 288.52 227.455 291.106 227.323Z" fill="white"/>
<path d="M308.574 248.982C300.609 251.862 292.389 253.983 284.026 255.317C287.933 253.682 291.989 252.426 296.137 251.568C300.187 250.3 304.353 249.434 308.574 248.982Z" fill="white"/>
<path d="M314.676 230.933C312.039 232.673 309.19 234.066 306.198 235.078C303.357 236.463 300.352 237.48 297.254 238.106C302.735 234.989 308.589 232.579 314.676 230.933Z" fill="white"/>
<path d="M296.742 267.825C292.529 270.917 287.862 273.337 282.907 274.999C287.12 271.907 291.787 269.487 296.742 267.825Z" fill="white"/>
<path d="M119.969 315.616C116.713 315.956 113.429 315.902 110.187 315.453C106.913 315.394 103.659 314.932 100.498 314.079C103.753 313.739 107.038 313.793 110.28 314.242C113.553 314.301 116.807 314.763 119.969 315.616Z" fill="white"/>
<path d="M136.341 302.783C129.202 302.021 122.171 300.458 115.38 298.125C118.981 298.284 122.552 298.855 126.024 299.825C129.564 300.418 133.025 301.41 136.341 302.783Z" fill="white"/>
<path d="M195.802 302.667C190.023 303.476 184.159 303.476 178.38 302.667C184.159 301.859 190.023 301.859 195.802 302.667Z" fill="white"/>
<path d="M186.066 323.558C184.552 323.984 182.981 324.172 181.408 324.117C177.708 324.252 174.003 324.119 170.322 323.721C166.636 323.33 162.984 322.661 159.399 321.718C157.887 321.434 156.427 320.923 155.067 320.204C155.067 319.854 161.914 321.624 170.462 322.533C179.009 323.441 186.043 323.185 186.066 323.558Z" fill="white"/>
<path d="M251.139 308.792C246.711 309.914 242.152 310.431 237.585 310.329C233.029 310.625 228.455 310.311 223.983 309.398C223.983 309.048 230.085 309.281 237.561 309.118C245.037 308.955 251.093 308.443 251.139 308.792Z" fill="white"/>
<path d="M250.115 289.857C244.128 291.688 237.926 292.722 231.669 292.932C237.657 291.106 243.858 290.072 250.115 289.857Z" fill="white"/>
<path d="M220.653 167.885C220.513 168.188 218.626 167.513 216.297 166.721C213.968 165.929 212.058 165.37 212.105 165.021C213.677 164.696 215.312 164.892 216.763 165.58C219.115 166.395 220.816 167.606 220.653 167.885Z" fill="#263238"/>
<path d="M124.068 345.475C119.808 345.641 115.542 345.399 111.328 344.753C107.077 344.512 102.859 343.873 98.7277 342.843C102.98 342.663 107.24 342.905 111.444 343.565C115.702 343.807 119.929 344.446 124.068 345.475Z" fill="white"/>
<path d="M162.962 340.094C159.754 340.514 156.505 340.514 153.297 340.094C150.069 340.078 146.855 339.671 143.724 338.883C146.933 338.463 150.182 338.463 153.39 338.883C156.618 338.9 159.832 339.306 162.962 340.094Z" fill="white"/>
<path d="M224.565 335.762C224.565 336.111 219.045 336.065 212.315 336.67C205.584 337.276 200.157 338.231 200.087 337.881C203.977 336.474 208.064 335.688 212.198 335.552C216.305 334.96 220.481 335.031 224.565 335.762Z" fill="white"/>
<path d="M252.514 357.632C246.847 358.161 241.15 358.285 235.465 358.004C229.777 358.116 224.088 357.828 218.44 357.143C224.106 356.6 229.804 356.475 235.488 356.77C241.177 356.659 246.866 356.947 252.514 357.632Z" fill="white"/>
<path d="M254.703 329.614C250.848 331.752 246.382 332.523 242.033 331.803C244.086 331.168 246.203 330.762 248.345 330.592C250.423 330.038 252.555 329.71 254.703 329.614Z" fill="white"/>
<path d="M186.951 357.003C183.796 358.229 180.404 358.722 177.03 358.447C173.64 358.57 170.266 357.933 167.155 356.584C167.155 356.235 171.603 357.143 177.053 357.236C182.503 357.329 186.882 356.654 186.951 357.003Z" fill="white"/>
<path d="M151.154 361.079C144.775 361.887 138.319 361.887 131.94 361.079C138.319 360.272 144.775 360.272 151.154 361.079Z" fill="white"/>
<path d="M228.478 372.468C224.913 372.593 221.343 372.507 217.788 372.212C214.213 372.309 210.636 372.2 207.074 371.886C210.578 370.99 214.208 370.691 217.811 371.001C221.423 370.899 225.027 371.395 228.478 372.468Z" fill="white"/>
<path d="M98.2153 361.964C98.2153 362.29 96.4685 362.849 94.1627 363.199C91.857 363.548 89.9705 363.595 89.9239 363.199C89.8773 362.803 91.694 362.314 93.9764 361.941C96.2589 361.568 98.2153 361.615 98.2153 361.964Z" fill="white"/>
<path d="M102.221 291.604C102.221 291.954 100.032 292.419 97.2604 292.652C95.5787 292.998 93.8392 292.942 92.1831 292.489C95.4092 291.39 98.8528 291.087 102.221 291.604Z" fill="white"/>
<path d="M134.572 240.411C132.894 240.805 131.148 240.805 129.471 240.411C126.699 240.039 124.487 239.48 124.533 239.13C126.211 238.736 127.957 238.736 129.634 239.13C132.406 239.503 134.618 240.062 134.572 240.411Z" fill="white"/>
<path d="M256.031 235.334C252.371 236.568 248.593 237.419 244.758 237.873C240.996 238.724 237.156 239.177 233.299 239.224C236.96 237.988 240.737 237.13 244.572 236.662C248.333 235.812 252.174 235.366 256.031 235.334Z" fill="white"/>
<path d="M241.777 91.8194C238.889 93.4265 235.023 91.3303 233.718 88.3026C232.671 85.1404 232.77 81.7104 233.998 78.6138C235.246 75.5562 236.114 72.3571 236.583 69.0881C236.711 66.0766 235.861 63.1046 234.161 60.6156C232.461 58.1265 230.002 56.2538 227.15 55.2769C228.483 54.1118 229.566 52.6899 230.336 51.0963C231.106 49.5028 231.546 47.7703 231.631 46.0025C231.716 44.2348 231.443 42.4681 230.829 40.8082C230.216 39.1482 229.273 37.6292 228.059 36.3419C225.437 34.2736 222.621 32.4641 219.651 30.9385C218.051 29.8783 216.561 28.6611 215.203 27.3052C217.701 27.9364 220.306 28.0238 222.842 27.5614C224.879 27.1121 226.77 26.1547 228.337 24.7783C229.905 23.4019 231.099 21.6513 231.809 19.6893C232.471 17.7135 232.569 15.5922 232.091 13.5638C231.614 11.5355 230.581 9.68041 229.107 8.20716C227.576 6.76167 225.636 5.82298 223.553 5.51877C221.469 5.21456 219.342 5.55961 217.462 6.50698C213.852 8.41679 211.849 12.3528 210.102 16.056C209.543 17.1972 209.007 18.385 208.472 19.4797C203.371 12.7255 198.573 5.76168 190.701 3.38607C183.574 1.22007 175.912 3.61898 168.482 3.0833C163.079 2.68736 157.885 0.754262 152.482 0.148714C147.078 -0.456835 140.837 0.707675 137.786 5.10955C135.899 7.67148 135.317 11.0253 133.43 13.5872C129.517 18.8741 121.11 19.5961 117.896 25.2324C115.287 29.8904 117.29 35.7829 116.172 41.0232C114.961 46.7061 110.28 50.8518 106.437 55.2071C102.594 59.5623 99.2633 65.5712 101.406 70.9746C103.293 75.6326 108.836 78.2877 110.722 83.0622C112.026 86.5558 111.072 90.4453 111.002 94.1717C110.932 97.8982 112.446 102.323 116.079 103.162L157.419 114.085C171.673 119.884 186.369 125.73 201.671 125.73C216.973 125.73 233.439 118.347 239.518 104.21C237.272 104.113 235.148 103.164 233.579 101.555C235.581 100.641 237.355 99.2929 238.773 97.6093C240.191 95.9256 241.217 93.9481 241.777 91.8194Z" fill="#263238"/>
<path d="M207.866 104.793C211.566 94.3954 214.356 83.696 216.204 72.8153C218.04 61.8963 217.136 50.6922 213.572 40.2089C212.99 38.6484 208.029 28.1445 206.376 28.3075C205.188 28.424 208.239 38.2292 207.633 39.254C201.904 49.1058 200.343 60.9606 201.252 72.3496C202.253 83.3902 204.471 94.2863 207.866 104.84" fill="#263238"/>
<path d="M171.347 196.463C188.442 196.09 207.843 158.733 207.843 158.733L208.961 62.7067C209.869 35.0611 194.521 11.468 166.852 11.3516L164.29 11.4913C151.882 12.1595 140.179 17.4731 131.51 26.3757C122.84 35.2782 117.839 47.1175 117.5 59.5392C116.848 83.505 116.452 110.009 117.29 122.796C119.037 149.277 145.774 151.979 145.774 151.979C145.774 151.979 145.914 158.127 146.007 165.953C146.193 183.444 164.5 197.069 171.347 196.486V196.463Z" fill="#FFBE9D"/>
<path d="M145.774 151.979C158.012 151.298 169.798 147.119 179.731 139.938C179.731 139.938 172.348 159.664 145.774 158.57V151.979Z" fill="#EB996E"/>
<path d="M128.935 80.3373C128.983 81.3258 129.413 82.257 130.135 82.9347C130.856 83.6125 131.812 83.9838 132.801 83.9706C133.284 83.9799 133.764 83.8928 134.213 83.7144C134.662 83.5359 135.071 83.2698 135.416 82.9315C135.761 82.5931 136.035 82.1895 136.221 81.744C136.408 81.2986 136.505 80.8204 136.505 80.3373C136.468 79.3509 136.044 78.4187 135.325 77.7428C134.605 77.067 133.648 76.7021 132.662 76.7273C132.179 76.7149 131.698 76.799 131.248 76.9745C130.798 77.1501 130.387 77.4137 130.04 77.7498C129.693 78.086 129.417 78.4879 129.227 78.9322C129.037 79.3765 128.938 79.8542 128.935 80.3373Z" fill="#263238"/>
<path d="M123.835 70.2292C124.324 70.7183 127.072 68.4359 131.148 68.2262C135.224 68.0166 138.321 69.9032 138.74 69.3675C139.16 68.8318 138.414 68.2728 137.064 67.3878C135.235 66.2635 133.103 65.7346 130.961 65.8739C128.827 66.002 126.792 66.8193 125.162 68.203C123.835 69.2044 123.509 70.0196 123.835 70.2292Z" fill="#263238"/>
<path d="M165.757 79.359C165.794 80.3474 166.217 81.282 166.936 81.9616C167.654 82.6411 168.611 83.0112 169.6 82.9922C170.085 83.0047 170.568 82.9199 171.019 82.7429C171.471 82.5659 171.882 82.3002 172.23 81.9616C172.577 81.623 172.853 81.2182 173.041 80.7712C173.23 80.3242 173.327 79.844 173.327 79.359C173.278 78.3766 172.851 77.4514 172.134 76.778C171.417 76.1046 170.467 75.7357 169.484 75.7489C169 75.7333 168.518 75.8152 168.066 75.9896C167.615 76.164 167.203 76.4275 166.855 76.7642C166.508 77.101 166.231 77.5043 166.043 77.95C165.854 78.3958 165.757 78.8749 165.757 79.359Z" fill="#263238"/>
<path d="M163.731 69.74C164.243 70.2058 166.992 67.9466 171.067 67.737C175.143 67.5274 178.241 69.3906 178.66 68.8782C179.079 68.3658 178.334 67.7836 176.983 66.8985C175.155 65.7743 173.023 65.2453 170.881 65.3847C168.76 65.4797 166.727 66.2556 165.082 67.5972C163.871 68.622 163.428 69.5303 163.731 69.74Z" fill="#263238"/>
<path d="M150.805 101.811C148.621 101.252 146.375 100.971 144.12 100.973C143.096 100.973 142.094 100.763 141.791 100.065C141.627 98.9962 141.807 97.9034 142.304 96.9436C143.166 94.3817 144.027 91.68 144.959 88.8619C148.639 77.3565 151.224 67.9006 150.758 67.7608C150.292 67.6211 146.939 76.8441 143.282 88.3495C142.397 91.1754 141.559 93.877 140.767 96.4545C140.185 97.7498 140.07 99.2063 140.441 100.577C140.61 100.935 140.861 101.25 141.172 101.496C141.483 101.743 141.846 101.914 142.234 101.998C142.813 102.137 143.409 102.192 144.004 102.161C146.277 102.337 148.562 102.219 150.805 101.811Z" fill="#263238"/>
<path d="M162.939 104C162.287 104 162.52 108.426 158.887 111.756C155.253 115.087 150.549 114.877 150.549 115.483C150.549 116.088 151.643 116.298 153.623 116.251C156.214 116.136 158.684 115.123 160.61 113.386C162.457 111.71 163.577 109.378 163.731 106.888C163.801 105.025 163.242 103.954 162.939 104Z" fill="#263238"/>
<path d="M163.079 53.2047C163.545 54.2994 167.574 53.5541 172.395 53.8801C177.216 54.2062 181.129 55.2776 181.711 54.2528C181.967 53.7637 181.245 52.7622 179.638 51.784C177.507 50.5503 175.111 49.8473 172.651 49.7345C170.188 49.571 167.722 49.994 165.455 50.9689C163.708 51.784 162.869 52.6924 163.079 53.2047Z" fill="#263238"/>
<path d="M124.72 56.6049C125.488 57.49 128.237 56.3953 131.707 56.1624C135.177 55.9295 137.972 56.4419 138.577 55.4404C138.834 54.9513 138.344 54.0663 137.04 53.2511C135.306 52.296 133.329 51.8749 131.356 52.0406C129.384 52.2064 127.504 52.9517 125.954 54.1828C124.72 55.2308 124.37 56.1857 124.72 56.6049Z" fill="#263238"/>
<path d="M207.843 82.4567C208.285 82.2238 225.776 76.0984 226.172 94.2416C226.568 112.385 208.262 109.031 208.215 108.519C208.169 108.006 207.843 82.4567 207.843 82.4567Z" fill="#FFBE9D"/>
<path d="M213.595 101.532C213.595 101.532 213.922 101.742 214.457 101.975C215.205 102.27 216.038 102.27 216.786 101.975C218.696 101.229 220.233 98.155 220.256 94.9875C220.263 93.4357 219.929 91.9014 219.278 90.4925C219.085 89.9382 218.762 89.4379 218.337 89.033C217.911 88.628 217.396 88.33 216.833 88.1634C216.468 88.0812 216.087 88.1265 215.752 88.2918C215.417 88.4572 215.149 88.7325 214.993 89.0718C214.76 89.5841 214.876 89.9568 214.783 89.9801C214.69 90.0034 214.387 89.7006 214.527 88.932C214.614 88.4853 214.853 88.0822 215.203 87.7908C215.444 87.5925 215.724 87.4449 216.024 87.3569C216.324 87.2688 216.639 87.2421 216.949 87.2784C217.696 87.4123 218.397 87.7352 218.984 88.2162C219.571 88.6973 220.025 89.3205 220.303 90.0267C221.134 91.4933 221.598 93.1396 221.654 94.8245C221.654 98.4811 219.814 101.951 217.205 102.766C216.724 102.922 216.213 102.965 215.713 102.893C215.212 102.82 214.735 102.633 214.317 102.347C213.642 101.975 213.549 101.555 213.595 101.532Z" fill="#EB996E"/>
<path d="M128.865 29.3082C125.907 27.7244 134.595 18.1055 141.768 14.7285C152.621 9.65116 169.251 6.39051 179.359 9.11548C191.516 12.3994 201.648 18.2919 207.866 29.2383C213.873 40.3881 216.8 52.9377 216.344 65.5945C216.574 69.4393 215.77 73.2756 214.015 76.704C211.523 80.7565 206.678 83.3417 207.028 88.8848C207.107 89.8866 206.987 90.8942 206.676 91.8496C206.364 92.8049 205.866 93.6891 205.211 94.4512C201.927 98.0146 197.828 94.754 195.895 91.4468C191.819 84.4597 191.237 75.9121 190.794 67.7605C190.157 61.9879 190.472 56.1498 191.726 50.4791C192.564 47.4514 194.055 44.5634 194.637 41.489C195.082 39.9726 195.188 38.3767 194.946 36.8149C194.705 35.253 194.122 33.7636 193.24 32.4524C192.796 31.912 192.296 31.4202 191.749 30.9851C189.192 28.8071 186.101 27.3486 182.794 26.7592C179.487 26.1699 176.083 26.4708 172.931 27.6313C162.753 31.381 145.355 36.9474 140.743 33.5936C134.129 28.7027 132.522 25.4653 132.522 25.4653L128.865 29.3082Z" fill="#263238"/>
<path d="M178.357 6.64757C173.368 4.95342 168.091 4.26634 162.834 4.62616C157.577 4.98597 152.443 6.38551 147.731 8.74368C145.201 9.94049 142.94 11.6366 141.083 13.7299C139.225 15.8232 137.811 18.2705 136.924 20.9245C135.48 26.3279 137.855 32.9191 143.072 34.8987L143.422 35.1316C151.201 37.6237 156.232 36.5291 163.917 33.7575C170.392 31.4285 176.098 27.3294 182.55 25.0469C189.484 22.5851 196.999 22.2685 204.116 24.1386C197.219 16.143 188.333 10.1094 178.357 6.64757Z" fill="#263238"/>
<path d="M212.897 24.6036C212.734 24.7434 211.267 22.9966 208.239 20.9703C206.523 19.7691 204.67 18.7762 202.719 18.0125C200.381 17.0561 197.858 16.6344 195.336 16.7781C190.714 17.2947 186.331 19.1028 182.689 21.9951C179.871 24.3241 178.567 26.0942 178.404 25.9544C178.241 25.8147 178.59 25.3955 179.196 24.557C180.051 23.3796 181.035 22.3016 182.13 21.343C185.828 18.1086 190.446 16.1132 195.336 15.6368C198.041 15.4746 200.746 15.9534 203.231 17.0343C205.238 17.8686 207.126 18.965 208.844 20.2949C210.487 21.4255 211.869 22.8947 212.897 24.6036Z" fill="#455A64"/>
<path d="M214.667 31.0312C214.532 32.8322 214.066 34.5929 213.293 36.225C210.042 44.3612 204.054 51.1075 196.361 55.2998C194.829 56.2535 193.142 56.9314 191.377 57.3027C202.254 51.8986 210.606 42.4782 214.667 31.0312Z" fill="#455A64"/>
<path d="M222.097 33.9894C222.202 34.6685 222.202 35.3598 222.097 36.0389C221.984 37.9205 221.719 39.7898 221.305 41.6286C219.912 47.7369 217.029 53.4053 212.912 58.1277C208.795 62.8501 203.573 66.4796 197.712 68.692C195.948 69.3537 194.133 69.8679 192.285 70.2291C191.617 70.4083 190.925 70.4791 190.235 70.4387C190.235 70.2291 193.077 69.7167 197.385 67.8768C202.996 65.5191 207.992 61.9092 211.993 57.3234C215.993 52.7375 218.892 47.2973 220.466 41.419C221.77 36.9007 221.864 33.9661 222.097 33.9894Z" fill="#455A64"/>
<path d="M157.582 4.99365C156.012 5.69169 154.402 6.29828 152.761 6.81033C148.966 8.34094 145.425 10.4375 142.257 13.0288C139.1 15.6348 136.366 18.7147 134.152 22.1586C132.429 24.8137 131.637 26.6071 131.451 26.5372C131.787 24.8194 132.451 23.1826 133.407 21.7161C135.483 18.0375 138.223 14.776 141.489 12.0972C144.741 9.40127 148.469 7.33935 152.482 6.01843C154.106 5.37135 155.834 5.02414 157.582 4.99365Z" fill="#455A64"/>
<path d="M227.779 7.27588C227.38 11.0658 225.743 14.6184 223.121 17.3839C220.833 20.4174 217.621 22.6245 213.968 23.6723C216.953 21.6382 219.717 19.2963 222.213 16.6852C224.408 13.7626 226.275 10.6072 227.779 7.27588Z" fill="#455A64"/>
<path d="M28.4479 272.506L3.77848 322.446C1.03521 328.015 -0.251598 334.201 0.040669 340.415C0.490536 349.734 4.46976 358.522 11.1541 364.957C17.8384 371.392 26.7156 374.982 35.9469 374.983L106.381 370.851L109.465 338.361L55.874 325.303L76.1748 286.484L28.4479 272.506Z" fill="#FFBE9D"/>
<path d="M95.3739 336.322H109.115C109.115 336.322 140.138 325.119 146.519 326.19C152.272 327.145 173.303 341.119 177.426 343.891C177.881 344.207 178.23 344.654 178.427 345.172C178.828 346.267 178.791 347.475 178.322 348.543C177.853 349.61 176.99 350.456 175.912 350.901L175.469 351.064L175.656 351.693C175.906 352.507 176.016 353.358 175.982 354.209C175.935 354.854 175.683 355.467 175.262 355.958C174.842 356.45 174.275 356.793 173.645 356.939C173.014 357.085 172.354 357.025 171.761 356.768C171.167 356.512 170.671 356.072 170.345 355.513L171.137 356.934C171.457 357.509 171.611 358.162 171.58 358.82V360.101C171.542 360.787 171.301 361.447 170.886 361.994C170.471 362.542 169.901 362.954 169.251 363.175C168.623 363.386 167.949 363.409 167.308 363.244C166.667 363.079 166.088 362.731 165.641 362.244C162.962 359.309 157.21 353.417 153.297 352.765C149.077 352.265 144.829 352.055 140.58 352.136C139.712 352.131 138.863 352.392 138.148 352.883C137.432 353.374 136.883 354.073 136.575 354.884C138.904 355.047 154.997 363.455 160.703 366.529C161.597 366.972 162.366 367.629 162.943 368.442C163.52 369.255 163.887 370.198 164.011 371.187C164.22 372.957 163.335 374.844 159.795 374.005C152.538 371.843 145.447 369.158 138.577 365.97C138.577 365.97 131.59 363.967 126.932 367.181C120.527 371.7 117.616 373.353 112.073 371.537C108.734 370.414 105.531 368.922 102.524 367.088L91.6708 366.017C91.6708 366.017 81.3532 340.258 95.3739 336.322Z" fill="#FFBE9D"/>
<path d="M136.341 341.562C138.268 341.193 140.211 340.921 142.164 340.747C146.893 340.435 151.629 341.242 155.987 343.103C160.346 344.965 164.204 347.828 167.248 351.46C169.577 354.232 170.578 356.281 170.695 356.235C170.506 355.733 170.273 355.25 169.996 354.791C169.325 353.53 168.546 352.33 167.667 351.204C164.663 347.43 160.769 344.463 156.333 342.568C151.897 340.673 147.06 339.912 142.257 340.351C140.81 340.461 139.375 340.703 137.972 341.073C137.411 341.169 136.863 341.333 136.341 341.562Z" fill="#EB996E"/>
<path d="M139.625 334.039C141.591 333.427 143.625 333.067 145.681 332.967C150.67 332.942 155.563 334.331 159.795 336.973C163.988 339.668 167.809 342.902 171.161 346.592L174.281 349.9C174.633 350.331 175.031 350.721 175.469 351.064C175.166 350.593 174.823 350.149 174.444 349.737C173.769 348.921 172.768 347.734 171.463 346.313C168.171 342.497 164.342 339.178 160.098 336.461C155.772 333.77 150.75 332.409 145.658 332.548C144.129 332.628 142.617 332.91 141.163 333.387C140.65 333.526 140.278 333.736 139.998 333.829C139.719 333.922 139.602 334.016 139.625 334.039Z" fill="#EB996E"/>
<path d="M55.6872 323.442C55.6872 323.651 53.2417 323.255 49.3756 323.279C44.3318 323.387 39.3352 324.275 34.5629 325.911C29.7746 327.473 25.2859 329.835 21.2874 332.898C18.2597 335.227 16.8157 337.253 16.6294 337.137C16.443 337.02 16.8856 336.554 17.5144 335.646C18.4636 334.403 19.5409 333.263 20.7284 332.246C24.6676 328.883 29.2243 326.32 34.1437 324.7C39.0296 323.005 44.1833 322.216 49.3523 322.37C50.9166 322.427 52.474 322.606 54.0103 322.906C54.5934 322.998 55.1589 323.179 55.6872 323.442Z" fill="#EB996E"/>
<path d="M328.18 263.19C328.18 263.19 343.423 308.46 359.869 350.37C360.19 351.224 360.452 352.099 360.655 352.991C361.175 355.675 361.107 358.444 360.456 361.097C359.805 363.75 358.587 366.22 356.892 368.327C355.196 370.434 353.066 372.125 350.656 373.276C348.246 374.428 345.617 375.011 342.96 374.983H246.877V343.127L306.045 330.189L284.626 281.203L328.18 263.19Z" fill="#FFBE9D"/>
<path d="M266.534 337.3H252.793C252.793 337.3 221.77 326.097 215.389 327.168C209.636 328.123 188.605 342.097 184.483 344.869C184.021 345.169 183.67 345.61 183.481 346.127C183.08 347.222 183.118 348.429 183.587 349.497C184.055 350.565 184.919 351.41 185.997 351.856L186.439 352.042L186.229 352.671C185.986 353.486 185.884 354.337 185.927 355.187C185.974 355.832 186.226 356.445 186.646 356.936C187.067 357.428 187.634 357.771 188.264 357.917C188.894 358.063 189.554 358.003 190.148 357.746C190.742 357.49 191.237 357.05 191.563 356.491L190.771 357.888C190.442 358.46 190.289 359.116 190.329 359.775V361.056C190.362 361.746 190.601 362.411 191.016 362.963C191.432 363.515 192.004 363.93 192.658 364.153C193.287 364.358 193.963 364.376 194.603 364.207C195.243 364.038 195.821 363.688 196.268 363.199C198.946 360.264 204.699 354.395 208.588 353.743C212.814 353.231 217.072 353.021 221.328 353.114C222.195 353.116 223.041 353.379 223.755 353.87C224.47 354.36 225.02 355.054 225.334 355.862C223.005 356.025 206.911 364.433 201.205 367.507C200.311 367.952 199.54 368.609 198.96 369.421C198.379 370.233 198.006 371.176 197.875 372.165C197.665 373.959 198.573 375.822 202.113 375.007C209.371 372.844 216.462 370.159 223.331 366.972C223.331 366.972 230.318 364.945 234.976 368.159C241.404 372.701 244.292 374.355 249.835 372.515C253.184 371.408 256.395 369.924 259.408 368.089L270.261 366.995C270.261 366.995 280.555 341.236 266.534 337.3Z" fill="#FFBE9D"/>
<path d="M225.567 342.54C223.641 342.171 221.697 341.899 219.744 341.725C215.015 341.407 210.277 342.212 205.918 344.073C201.558 345.935 197.701 348.801 194.66 352.438C192.331 355.21 191.33 357.259 191.214 357.096C191.392 356.598 191.626 356.121 191.912 355.675C192.585 354.409 193.365 353.201 194.241 352.066C197.261 348.304 201.162 345.346 205.598 343.453C210.034 341.559 214.869 340.79 219.674 341.212C221.121 341.34 222.555 341.589 223.96 341.957C224.52 342.074 225.061 342.27 225.567 342.54Z" fill="#EB996E"/>
<path d="M222.283 334.994C220.306 334.401 218.265 334.049 216.204 333.946C211.227 333.925 206.344 335.305 202.113 337.928C197.913 340.624 194.085 343.858 190.724 347.547L187.627 350.878C187.259 351.294 186.862 351.683 186.439 352.042C186.727 351.567 187.063 351.122 187.44 350.715C188.139 349.9 189.141 348.712 190.422 347.268C193.725 343.46 197.561 340.15 201.811 337.439C206.124 334.74 211.141 333.378 216.227 333.527C217.765 333.595 219.286 333.878 220.746 334.365C221.138 334.479 221.52 334.627 221.887 334.808L222.283 334.994Z" fill="#EB996E"/>
<path d="M343.858 337.649C343.742 337.812 341.855 336.321 338.548 334.435C329.894 329.442 319.932 327.185 309.971 327.96C306.151 328.24 303.822 328.775 303.776 328.566C304.266 328.281 304.802 328.084 305.359 327.984C306.842 327.581 308.352 327.285 309.878 327.099C320.054 325.826 330.355 328.158 338.991 333.69C340.291 334.513 341.529 335.431 342.694 336.438C343.486 337.16 343.928 337.579 343.858 337.649Z" fill="#EB996E"/>
<path d="M246.994 374.983H102.71C100.739 374.98 98.8442 374.254 97.4181 372.957C95.992 371.659 95.1434 369.888 95.0478 368.011L90.7158 273.299C90.6718 272.313 90.8374 271.33 91.2027 270.407C91.5681 269.484 92.1255 268.642 92.8415 267.93C93.5574 267.219 94.4171 266.652 95.3687 266.266C96.3203 265.88 97.344 265.681 98.3783 265.682H251.046C252.078 265.684 253.098 265.884 254.046 266.27C254.995 266.656 255.852 267.221 256.567 267.929C257.282 268.638 257.84 269.477 258.208 270.395C258.576 271.314 258.746 272.294 258.709 273.276L254.656 367.988C254.578 369.874 253.735 371.656 252.306 372.961C250.877 374.266 248.973 374.991 246.994 374.983Z" fill="#E0E0E0"/>
<path d="M182.596 321.999C182.596 323.488 182.133 324.943 181.266 326.181C180.398 327.419 179.165 328.384 177.722 328.954C176.279 329.524 174.692 329.673 173.16 329.382C171.629 329.092 170.222 328.375 169.118 327.322C168.014 326.269 167.262 324.928 166.957 323.467C166.652 322.007 166.809 320.494 167.406 319.118C168.004 317.742 169.016 316.567 170.314 315.739C171.613 314.912 173.139 314.471 174.701 314.471C176.793 314.477 178.797 315.272 180.277 316.682C181.756 318.093 182.59 320.004 182.596 321.999Z" fill="white"/>
</svg>
