<svg width="378" height="532" viewBox="0 0 378 532" fill="none" xmlns="http://www.w3.org/2000/svg">
<path d="M185.275 354.235L217.187 522.841L246.353 468.962L301.63 501.396L242.956 337.217L185.275 354.235Z" fill="#BE4E1E"/>
<g opacity="0.3">
<path d="M196.01 410.95C199.048 411.511 202.177 411.332 205.131 410.426C208.084 409.521 210.776 407.916 212.977 405.748C215.89 402.733 217.836 398.65 221.499 396.641C224.794 394.835 228.851 395.089 232.463 396.081C236.076 397.073 239.497 398.765 243.135 399.706C246.71 400.614 250.429 400.803 254.078 400.262C257.727 399.72 261.231 398.459 264.388 396.552L255.192 370.986L212.443 365.644L192.093 390.129L196.01 410.95Z" fill="black"/>
</g>
<path d="M244.279 462.259C244.101 462.259 239.344 444.795 233.659 423.16C227.973 401.525 223.483 383.921 223.687 383.883C223.89 383.845 228.622 401.334 234.307 422.995C239.993 444.656 244.521 462.221 244.279 462.259Z" fill="#263238"/>
<path d="M189.943 363.011L158.031 531.617L128.866 477.726L73.5879 510.172L132.262 345.993L189.943 363.011Z" fill="#BE4E1E"/>
<g opacity="0.3">
<path d="M114.785 395.102C114.785 395.102 123.854 402.568 134.691 399.134C145.527 395.7 152.243 394.962 158.094 399.134C163.945 403.306 179.818 416.877 179.818 416.877L183.469 397.429L162.177 368.175L139.931 372.665L124.083 374.242L118.194 385.397L114.785 395.102Z" fill="black"/>
</g>
<path d="M377.068 210.813C377.068 222.909 361.601 233.326 359.337 244.761C357.01 256.539 367.261 272.069 362.771 282.918C358.282 293.768 339.877 297.66 333.352 307.454C326.827 317.247 330.274 335.639 321.905 344.009C313.536 352.378 295.194 348.855 285.362 355.456C275.531 362.057 271.855 380.297 260.827 384.863C249.8 389.429 234.448 379.114 222.67 381.441C211.222 383.705 200.818 399.159 188.722 399.159C176.626 399.159 166.209 383.705 154.774 381.441C142.996 379.114 127.466 389.365 116.617 384.863C105.767 380.36 101.888 361.968 92.0816 355.456C82.2751 348.944 63.9085 352.365 55.5393 344.009C47.17 335.652 50.6805 317.298 44.092 307.454C37.5034 297.609 19.2514 293.946 14.6725 282.918C10.0936 271.891 20.4343 256.551 18.1067 244.761C15.8426 233.313 0.376099 222.909 0.376099 210.813C0.376099 198.717 15.8426 188.288 18.1067 176.853C20.4343 165.075 10.1826 149.545 14.6725 138.695C19.2514 127.668 37.567 123.954 44.092 114.16C50.6169 104.366 47.17 85.987 55.5393 77.605C63.9085 69.2231 82.2496 72.759 92.0816 66.1578C101.914 59.5565 105.577 41.3172 116.604 36.8146C127.632 32.312 142.984 42.5764 154.762 40.236C166.209 37.9847 176.613 22.5182 188.709 22.5182C200.805 22.5182 211.222 37.9847 222.657 40.236C234.435 42.5764 249.965 32.312 260.814 36.8146C271.664 41.3172 275.543 59.7091 285.35 66.2214C295.156 72.7336 313.523 69.3121 321.892 77.6686C330.261 86.0251 326.738 104.379 333.339 114.224C339.941 124.068 358.18 127.731 362.759 138.759C367.249 149.596 356.997 165.126 359.325 176.917C361.601 188.287 377.068 198.717 377.068 210.813Z" fill="#BE4E1E"/>
<path d="M144.637 105.231C144.637 105.231 144.497 105.066 144.294 104.71L143.429 103.158C142.678 101.81 141.661 99.8255 140.427 97.3579C137.972 92.4229 134.793 85.4782 131.727 77.6432C128.662 69.8081 126.309 62.5328 124.77 57.2925C124.007 54.6341 123.422 52.4846 123.053 50.9329C122.887 50.246 122.76 49.6609 122.646 49.203C122.58 49.0062 122.546 48.8001 122.544 48.5925C122.65 48.7748 122.727 48.9721 122.773 49.1776L123.307 50.8693L125.228 57.1017C126.869 62.3547 129.298 69.5665 132.35 77.4524C135.403 85.3383 138.507 92.2194 140.847 97.2053L143.658 103.094C143.963 103.73 144.205 104.264 144.408 104.697C144.612 105.129 144.663 105.218 144.637 105.231Z" fill="#263238"/>
<path d="M161.401 98.8587C161.183 98.414 161.021 97.9441 160.918 97.4596C160.638 96.5438 160.282 95.2083 159.862 93.5548C159.023 90.2605 157.98 85.6562 157.038 80.543C156.097 75.4299 155.487 70.762 155.054 67.3405C154.863 65.6489 154.724 64.2752 154.647 63.3212C154.589 62.8312 154.589 62.3359 154.647 61.8458C154.811 62.3142 154.913 62.8014 154.953 63.2958C155.118 64.3769 155.321 65.6997 155.55 67.2769C156.059 70.6475 156.822 75.2773 157.725 80.3904C158.628 85.5035 159.633 90.0824 160.358 93.4149L161.198 97.3578C161.325 97.8482 161.393 98.3521 161.401 98.8587Z" fill="#263238"/>
<path d="M190.974 95.9206C190.783 95.9206 190.312 81.6497 189.918 64.1226C189.524 46.5956 189.345 32.2356 189.536 32.2356C189.727 32.2356 190.185 46.4938 190.579 64.1099C190.974 81.726 191.101 95.9079 190.974 95.9206Z" fill="#263238"/>
<path d="M220.723 66.6031C220.902 66.6031 218.854 73.7894 216.145 82.5402C213.435 91.291 211.057 98.3248 210.917 98.2739C210.777 98.223 212.799 91.0875 215.509 82.3367C218.218 73.5859 220.558 66.5522 220.723 66.6031Z" fill="#263238"/>
<path d="M232.87 103.476C232.903 103.267 232.958 103.062 233.036 102.865L233.608 101.186C234.129 99.7363 234.88 97.6504 235.91 95.0811C237.894 89.9934 240.756 82.8834 244 75.1247C247.243 67.366 250.283 60.3831 252.509 55.3463L255.192 49.3937C255.498 48.7578 255.739 48.2236 255.956 47.7911C256.172 47.3587 256.235 47.2442 256.261 47.2569C256.23 47.4612 256.166 47.659 256.07 47.842C255.905 48.2999 255.688 48.8341 255.421 49.4955L252.878 55.5371C250.715 60.7011 247.79 67.6712 244.546 75.3791C241.303 83.0869 238.429 90.0825 236.279 95.2465C235.261 97.7267 234.422 99.7618 233.735 101.288C233.468 101.937 233.239 102.471 233.048 102.916C233.014 103.11 232.954 103.298 232.87 103.476Z" fill="#263238"/>
<path d="M248.769 111.756C248.964 111.307 249.207 110.88 249.494 110.484C250.003 109.67 250.766 108.513 251.708 107.101C253.615 104.277 256.363 100.449 259.568 96.3531C262.773 92.2575 265.813 88.658 268.077 86.1142C269.222 84.8423 270.15 83.8374 270.824 83.1506C271.14 82.7711 271.498 82.4296 271.893 82.1331C271.647 82.5596 271.352 82.9565 271.015 83.3159L268.471 86.4194C266.296 89.0396 263.384 92.6646 260.128 96.7601C256.872 100.856 254.137 104.621 252.127 107.368L249.711 110.586C249.448 111.015 249.132 111.408 248.769 111.756Z" fill="#263238"/>
<path d="M271.893 130.72C271.778 130.58 281.839 121.016 294.367 109.365C306.896 97.7139 317.173 88.3526 317.262 88.4798C317.351 88.607 307.328 98.1718 294.787 109.848C282.246 121.524 272.02 130.86 271.893 130.72Z" fill="#263238"/>
<path d="M312.302 134.676C311.074 135.449 309.799 136.146 308.486 136.762C306.107 138.034 302.851 139.802 299.264 141.85C295.678 143.897 292.371 145.665 289.929 146.759C288.657 147.332 287.703 147.777 287.003 148.031C286.651 148.212 286.274 148.34 285.884 148.413C287.112 147.641 288.387 146.944 289.7 146.327C292.091 145.055 295.347 143.274 298.934 141.239C302.521 139.204 305.815 137.487 308.27 136.342C309.542 135.77 310.496 135.325 311.195 135.07C311.539 134.878 311.913 134.744 312.302 134.676Z" fill="#263238"/>
<path d="M349.696 150.181C349.696 150.359 337.778 154.734 322.986 159.949C308.193 165.164 296.072 169.273 296.008 169.094C295.945 168.916 307.926 164.554 322.719 159.326C337.511 154.099 349.632 150.016 349.696 150.181Z" fill="#263238"/>
<path d="M361.601 218.19C361.601 218.368 348.564 217.287 332.525 215.748C316.486 214.209 303.5 212.836 303.513 212.658C303.526 212.479 316.55 213.573 332.589 215.1C348.628 216.626 361.614 218.012 361.601 218.19Z" fill="#263238"/>
<path d="M352.024 279.192C351.947 279.357 339.775 273.761 324.843 266.714C309.91 259.668 297.865 253.804 297.942 253.639C298.018 253.473 310.19 259.057 325.123 266.116C340.055 273.176 352.1 279.026 352.024 279.192Z" fill="#263238"/>
<path d="M311.933 337.216C311.793 337.344 303.029 327.156 292.332 314.487C281.636 301.819 273.088 291.427 273.254 291.313C273.419 291.198 282.195 301.374 292.854 314.093C303.513 326.812 312.123 337.102 311.933 337.216Z" fill="#263238"/>
<path d="M278.57 344.886C278.167 344.448 277.81 343.971 277.502 343.462C276.853 342.521 275.95 341.134 274.844 339.417C272.63 335.97 269.667 331.15 266.551 325.744C263.434 320.338 260.738 315.352 258.919 311.753C257.978 309.934 257.24 308.459 256.744 307.428C256.457 306.905 256.218 306.355 256.032 305.788C256.397 306.258 256.712 306.766 256.973 307.301L259.275 311.549C261.259 315.123 264.007 320.059 267.123 325.464C270.239 330.87 273.127 335.716 275.238 339.214C276.243 340.88 277.069 342.279 277.782 343.373C278.092 343.851 278.356 344.358 278.57 344.886Z" fill="#263238"/>
<path d="M257.8 374.077C257.669 373.917 257.558 373.742 257.469 373.555C257.253 373.136 256.973 372.614 256.642 372.004C255.93 370.643 254.938 368.658 253.768 366.191C251.428 361.243 248.413 354.298 245.551 346.438C242.689 338.577 240.527 331.328 239.192 326.087C238.492 323.442 237.92 321.279 237.653 319.791C237.5 319.104 237.386 318.519 237.284 318.061C237.225 317.864 237.199 317.657 237.207 317.451C237.296 317.638 237.364 317.834 237.411 318.036C237.551 318.494 237.703 319.054 237.894 319.728C238.339 321.305 238.925 323.403 239.65 325.96C241.15 331.213 243.376 338.425 246.225 346.311C249.075 354.197 252.013 361.09 254.251 366.076L256.922 371.978C257.215 372.614 257.444 373.148 257.647 373.581C257.719 373.739 257.77 373.906 257.8 374.077Z" fill="#263238"/>
<path d="M215.75 353.612C215.475 352.149 215.292 350.671 215.203 349.185C214.911 346.451 214.44 342.673 213.753 338.539C213.066 334.406 212.265 330.679 211.654 328.008C211.255 326.571 210.949 325.109 210.739 323.633C210.936 323.984 211.086 324.361 211.184 324.752C211.425 325.49 211.743 326.558 212.112 327.894C212.837 330.552 213.715 334.253 214.415 338.425C215.114 342.597 215.496 346.387 215.686 349.147C215.775 350.521 215.814 351.691 215.826 352.416C215.86 352.816 215.834 353.219 215.75 353.612Z" fill="#263238"/>
<path d="M188.239 390.23C188.217 390.014 188.217 389.797 188.239 389.582C188.239 389.073 188.239 388.45 188.239 387.699C188.239 386.084 188.239 383.731 188.239 380.831C188.34 375.018 188.608 367.005 189.066 358.152C189.523 349.3 190.096 341.312 190.566 335.525C190.808 332.625 191.012 330.285 191.177 328.669C191.266 327.932 191.329 327.308 191.393 326.812C191.401 326.592 191.439 326.373 191.508 326.164C191.537 326.383 191.537 326.606 191.508 326.825C191.508 327.317 191.482 327.94 191.431 328.695C191.329 330.412 191.19 332.727 191.024 335.55C190.681 341.439 190.223 349.402 189.752 358.191C189.282 366.98 188.951 375.043 188.735 380.843C188.633 383.667 188.544 385.931 188.48 387.712C188.48 388.462 188.48 389.073 188.391 389.582C188.369 389.804 188.318 390.022 188.239 390.23Z" fill="#263238"/>
<path d="M165.878 326.164C165.869 327.26 165.741 328.351 165.496 329.42C165.166 331.404 164.632 334.139 163.932 337.128C163.232 340.117 162.495 342.813 161.91 344.759C161.653 345.822 161.282 346.854 160.803 347.837C160.915 346.75 161.132 345.677 161.452 344.632C161.986 342.444 162.597 339.862 163.283 337C163.97 334.139 164.555 331.544 165.039 329.369C165.215 328.276 165.496 327.203 165.878 326.164Z" fill="#263238"/>
<path d="M125.444 306.741C123.778 309.497 121.92 312.132 119.886 314.627C118.024 317.257 115.988 319.76 113.793 322.119C115.456 319.361 117.313 316.726 119.351 314.233C121.214 311.604 123.249 309.101 125.444 306.741Z" fill="#263238"/>
<path d="M104.241 292.47C104.381 292.585 96.4823 301.857 86.6122 313.164C76.7421 324.472 68.6146 333.515 68.4874 333.426C68.3602 333.337 76.2334 324.039 86.1162 312.732C95.999 301.425 104.101 292.369 104.241 292.47Z" fill="#263238"/>
<path d="M93.6206 276.711C90.5014 279.72 87.2282 282.564 83.8142 285.233C78.2813 289.787 73.7024 293.374 73.6388 293.234C76.7618 290.23 80.0348 287.385 83.4452 284.712C88.9272 280.158 93.5061 276.572 93.6206 276.711Z" fill="#263238"/>
<path d="M81.2065 252.914C81.2828 253.079 70.2934 258.536 56.6585 265.111C43.0235 271.687 31.8942 276.877 31.8179 276.711C31.7416 276.546 42.731 271.089 56.3659 264.514C70.0009 257.938 81.1302 252.748 81.2065 252.914Z" fill="#263238"/>
<path d="M76.2207 241.047C75.8547 241.205 75.4701 241.316 75.076 241.378C74.3383 241.556 73.2444 241.785 71.9088 242.026C69.2251 242.522 65.5492 243.095 61.3392 243.514C57.1291 243.934 53.4151 244.112 50.6805 244.15C49.3195 244.15 48.213 244.15 47.4498 244.15C47.052 244.176 46.6525 244.137 46.267 244.036C47.7251 243.828 49.1951 243.713 50.6678 243.692C53.3897 243.527 57.1419 243.26 61.2756 242.853C65.4093 242.446 69.1361 241.95 71.8325 241.581C73.2808 241.299 74.7472 241.121 76.2207 241.047Z" fill="#263238"/>
<path d="M72.1885 213.612C71.4478 213.673 70.7033 213.673 69.9626 213.612L63.921 213.306C58.8333 213.052 51.7487 212.823 43.9518 212.861C36.155 212.899 29.0958 213.217 23.9827 213.522L17.9411 213.891C17.2023 213.976 16.458 214.001 15.7152 213.968C16.4378 213.794 17.1741 213.684 17.9157 213.637C19.3402 213.459 21.4007 213.255 23.9573 213.052C29.045 212.632 36.1295 212.251 43.9518 212.2C51.7742 212.149 58.8333 212.467 63.9465 212.836C66.4903 213.014 68.5635 213.205 69.9881 213.357C70.7267 213.389 71.4621 213.474 72.1885 213.612Z" fill="#263238"/>
<path d="M74.6942 189.572C74.6942 189.75 66.4013 187.601 56.2896 184.777C46.1778 181.953 38.0248 179.537 38.0757 179.359C38.1266 179.18 46.3559 181.317 56.4677 184.141C66.5794 186.965 74.7324 189.445 74.6942 189.572Z" fill="#263238"/>
<path d="M80.0108 169.387C79.8064 169.374 79.6051 169.331 79.413 169.26L77.7341 168.751C76.2714 168.293 74.1854 167.581 71.6161 166.652C64.9369 164.197 58.3904 161.395 52.0032 158.257C45.6209 155.111 39.4094 151.63 33.395 147.828C31.0928 146.365 29.2612 145.144 28.0148 144.266L26.5775 143.236C26.2595 142.994 26.0942 142.867 26.1069 142.842C26.3008 142.91 26.4847 143.005 26.6538 143.122L28.1547 144.05C29.4266 144.864 31.3217 146.022 33.6494 147.433C38.3046 150.257 44.8422 153.984 52.2957 157.609C59.7491 161.234 66.7065 164.185 71.7815 166.156C74.3253 167.148 76.3858 167.924 77.8104 168.446L79.4511 169.082C79.6494 169.16 79.8373 169.263 80.0108 169.387Z" fill="#263238"/>
<path d="M91.9796 149.1C91.8778 149.252 85.4419 144.902 77.6069 139.382C69.7719 133.862 63.5013 129.271 63.6158 129.118C63.7303 128.965 70.1662 133.328 78.0012 138.848C85.8362 144.368 92.0941 148.96 91.9796 149.1Z" fill="#263238"/>
<path d="M66.681 87.2843C66.681 87.2843 66.8591 87.3861 67.1644 87.6277L68.4363 88.7343L73.1169 92.8935L88.5199 106.643L103.986 120.316L108.667 124.475L109.939 125.633C110.232 125.9 110.372 126.052 110.346 126.065C110.321 126.078 110.168 125.976 109.863 125.734L108.591 124.679C107.433 123.75 105.793 122.377 103.77 120.672C99.7383 117.263 94.2054 112.494 88.1765 107.139C82.1476 101.784 76.7292 96.8491 72.9135 93.2369C70.9802 91.4308 69.4284 89.9553 68.3727 88.9251L67.1008 87.7295C66.9402 87.602 66.7989 87.4521 66.681 87.2843Z" fill="#263238"/>
<path d="M106.352 88.4419C106.352 88.4419 106.696 88.7217 107.217 89.3195C107.739 89.9173 108.489 90.7949 109.367 91.8634C111.135 94.0765 113.488 97.1927 115.93 100.767C118.372 104.341 120.42 107.661 121.844 110.103C122.544 111.375 123.116 112.341 123.46 113.041C123.68 113.389 123.851 113.765 123.968 114.16C123.042 112.943 122.192 111.668 121.425 110.344C119.911 107.953 117.8 104.684 115.37 101.123C112.941 97.5616 110.652 94.4199 109.011 92.1432C108.055 90.9607 107.168 89.7249 106.352 88.4419Z" fill="#263238"/>
<g opacity="0.2">
<path d="M55.5265 77.6177L110.855 126.065L124.604 115.063L92.5012 65.8651C92.5012 65.8651 90.0464 67.6712 83.5978 69.5028C77.4544 71.2708 59.2151 71.7414 55.5265 77.6177Z" fill="black"/>
</g>
<g opacity="0.2">
<path d="M117.113 36.6365L144.141 104.226L161.401 98.8207L155.652 40.1597C155.652 40.1597 152.676 40.8593 146.075 40.0198C139.69 39.2439 124.172 33.1769 117.113 36.6365Z" fill="black"/>
</g>
<g opacity="0.3">
<path d="M189.154 22.4801L190.973 95.9207L207.152 96.6966L223.547 40.3251C220.143 39.6515 216.905 38.3115 214.02 36.3822C208.411 32.7953 197.002 21.895 189.154 22.4801Z" fill="black"/>
</g>
<g opacity="0.2">
<path d="M259.784 36.344L232.934 104.061L247.561 111.044L284.447 65.4328C281.664 63.0907 279.291 60.3008 277.426 57.178C273.902 51.5434 267.899 38.608 259.784 36.344Z" fill="black"/>
</g>
<g opacity="0.2">
<path d="M322.782 78.5972L272.771 130.746L283.951 145.742L332.78 113.13C331.171 110.167 330.087 106.948 329.574 103.616C328.392 97.2817 328.226 85.7326 322.782 78.5972Z" fill="black"/>
</g>
<g opacity="0.2">
<path d="M362.263 137.436L294.851 165.151L300.486 182.36L359.083 176.001C359.083 176.001 358.714 174.195 359.49 167.593C360.266 161.196 366.969 146.899 362.263 137.436Z" fill="black"/>
</g>
<g opacity="0.2">
<path d="M377.17 210.813L303.742 213.357L303.131 229.549L359.096 245.931C359.469 243.595 360.221 241.335 361.322 239.241C365.493 231.418 377.17 220.48 377.17 210.813Z" fill="black"/>
</g>
<g opacity="0.2">
<path d="M363.649 280.235L296.047 253.88L289.204 268.571L335.196 305.05C337.614 302.728 340.295 300.696 343.184 298.995C348.819 295.409 362.085 289.634 363.649 280.235Z" fill="black"/>
</g>
<g opacity="0.2">
<path d="M264.21 279.192L247.485 293.183C248.757 294.455 271.053 332.409 284.79 355.838C284.981 355.698 285.159 355.532 285.35 355.405C294.393 349.351 310.496 351.78 319.577 345.777L264.21 279.192Z" fill="black"/>
<path d="M233.468 305.749L208.475 314.271L220.304 382.09C221.072 381.821 221.858 381.604 222.657 381.441C234.435 379.114 249.965 389.365 260.814 384.863C262.3 384.234 263.678 383.376 264.897 382.319L233.468 305.749Z" fill="black"/>
<path d="M187.844 399.134L191.838 310.532L170.215 305.05L154.138 381.365L154.736 381.467C165.916 383.642 176.117 398.421 187.844 399.134Z" fill="black"/>
<path d="M133.533 295.485C133.533 295.485 104.991 333.719 90.0718 354.298C90.7571 354.649 91.4237 355.035 92.0687 355.456C101.875 362.019 105.576 380.297 116.604 384.863C117.11 385.071 117.629 385.249 118.156 385.397L158.03 309.921L133.533 295.485Z" fill="black"/>
<path d="M104.241 264.705L43.3668 306.538C43.5958 306.843 43.8502 307.136 44.0664 307.441C50.6677 317.324 47.1445 335.614 55.5137 343.996C56.2852 344.754 57.1384 345.423 58.0576 345.993C79.6039 321.725 118.219 278.225 119.618 276.711L104.241 264.705Z" fill="black"/>
<path d="M90.2881 234.827L18.3229 246.452C19.4676 258.001 10.3607 272.578 14.6471 282.906C14.9156 283.532 15.2258 284.14 15.5756 284.724C40.7596 272.183 93.3916 246.096 95.5793 245.956L90.2881 234.827Z" fill="black"/>
<path d="M86.3578 194.736L18.3227 175.11C18.2743 175.695 18.1936 176.277 18.0811 176.853C15.8171 188.3 0.350586 198.717 0.350586 210.813C0.354887 211.618 0.422901 212.422 0.554059 213.217H83.6104L86.3578 194.736Z" fill="black"/>
<path d="M14.9268 138.174C40.3652 151.796 90.0718 179.359 90.0718 179.359L102.308 156.121L44.8296 112.875C44.5879 113.321 44.3463 113.779 44.0665 114.147C37.6051 123.801 19.8745 127.566 14.9268 138.174Z" fill="black"/>
</g>
<path d="M377.068 210.813C377.068 210.813 377.068 210.533 376.979 209.999C376.948 209.202 376.838 208.409 376.648 207.633C375.913 204.582 374.619 201.692 372.832 199.112C370.657 195.601 367.338 191.671 363.929 186.698C362.008 184.051 360.534 181.108 359.566 177.985C358.726 174.34 358.726 170.552 359.566 166.907C360.266 163.027 361.423 159.033 362.428 154.798C363.433 150.562 364.374 145.983 363.433 141.29C362.902 138.927 361.821 136.722 360.278 134.854C358.615 132.947 356.713 131.263 354.618 129.843C350.396 126.841 345.55 124.45 340.894 121.321C338.493 119.772 336.311 117.907 334.408 115.775C332.539 113.464 331.186 110.78 330.439 107.902C328.798 102.115 328.442 95.9334 327.196 89.7519C326.655 86.6065 325.598 83.5723 324.067 80.7721C322.386 77.9576 319.844 75.759 316.817 74.5016C313.694 73.2469 310.424 72.3922 307.087 71.9577C303.716 71.4108 300.269 71.0165 296.797 70.406C293.252 69.8949 289.815 68.8079 286.622 67.188C283.458 65.2807 280.776 62.6692 278.787 59.5565C276.675 56.5293 274.856 53.2732 272.923 50.0553C271.068 46.7608 268.85 43.6847 266.309 40.8847C263.688 38.0677 260.118 36.3191 256.286 35.9751C252.319 35.8087 248.35 36.2592 244.521 37.3106C240.705 38.2391 236.788 39.3711 232.781 40.1216C228.731 41.0761 224.506 40.9973 220.494 39.8926C216.585 38.3557 212.928 36.2421 209.645 33.6221C206.262 31.0782 202.955 28.5344 199.317 26.2704C195.679 24.0064 191.596 22.3656 187.31 22.8489H186.509C186.254 22.8489 185.987 22.9634 185.733 23.0143C185.211 23.1415 184.69 23.2305 184.168 23.3831C183.143 23.7055 182.14 24.0965 181.167 24.5533C179.211 25.5145 177.339 26.6378 175.57 27.9112C171.945 30.3787 168.524 33.2151 164.823 35.7462C162.967 37.0306 161.01 38.1621 158.972 39.1295C156.876 40.0637 154.634 40.6274 152.345 40.7957C147.75 40.8271 143.177 40.1756 138.774 38.8624C134.356 37.5856 129.85 36.6417 125.291 36.0387C123.005 35.8142 120.697 35.9689 118.461 36.4966C116.241 37.1121 114.194 38.2356 112.483 39.7782C108.973 42.8435 106.518 46.9645 104.076 51.0092C101.794 55.2415 99.1245 59.2526 96.1007 62.9907C94.4879 64.8378 92.5528 66.3764 90.3898 67.5315C88.1703 68.5765 85.8409 69.37 83.4451 69.8972C78.6626 70.9402 73.7785 71.3981 68.9706 72.263C64.1627 73.1279 59.2532 74.4889 55.7172 77.9103C54.0524 79.7037 52.7751 81.821 51.965 84.13C51.1187 86.4609 50.497 88.8673 50.1081 91.3164C49.2177 96.226 48.8362 101.263 47.5642 106.211C47.0288 108.725 46.1154 111.144 44.855 113.384C43.5385 115.609 41.8122 117.564 39.7674 119.146C35.7608 122.377 31.1819 124.768 26.8192 127.439C24.6027 128.752 22.478 130.213 20.4596 131.814C18.472 133.408 16.7984 135.357 15.5246 137.563C14.311 139.811 13.7017 142.336 13.7566 144.89C13.7911 147.457 14.0895 150.015 14.647 152.521C15.7154 157.609 17.3307 162.607 18.1956 167.784C18.6789 170.41 18.769 173.094 18.4627 175.746C18.0533 178.404 17.1517 180.962 15.8044 183.289C13.1461 187.931 9.69919 192.014 6.62114 196.339C5.05149 198.473 3.68053 200.747 2.52552 203.131C1.27307 205.461 0.617561 208.066 0.617561 210.712C0.617561 213.357 1.27307 215.962 2.52552 218.292C3.67864 220.677 5.0497 222.951 6.62114 225.084C9.68647 229.409 13.1461 233.492 15.8044 238.134C17.1562 240.46 18.0621 243.018 18.4754 245.677C18.7964 248.328 18.715 251.012 18.2338 253.639C17.3689 258.866 15.7535 263.878 14.6851 268.902C14.1234 271.408 13.8208 273.965 13.7821 276.533C13.7228 279.09 14.3275 281.619 15.5372 283.872C16.806 286.082 18.4753 288.036 20.4596 289.634C22.4811 291.231 24.6056 292.692 26.8192 294.01C31.1819 296.681 35.7227 299.097 39.7801 302.302C41.8213 303.888 43.5471 305.842 44.8678 308.064C46.1249 310.303 47.0422 312.717 47.5896 315.225C48.7725 320.186 49.1922 325.222 50.1335 330.132C50.5181 332.581 51.1356 334.987 51.9778 337.318C52.8078 339.636 54.1068 341.758 55.7935 343.551C59.3167 346.972 64.2646 348.333 69.0343 349.198C73.804 350.063 78.7262 350.47 83.5086 351.564C85.9045 352.091 88.2339 352.885 90.4533 353.93C92.6223 355.081 94.5622 356.62 96.177 358.47C99.2008 362.209 101.871 366.22 104.152 370.452C106.594 374.497 109.049 378.618 112.547 381.683C114.264 383.223 116.314 384.346 118.537 384.965C120.773 385.492 123.081 385.647 125.368 385.422C129.926 384.819 134.433 383.876 138.85 382.599C143.253 381.286 147.827 380.634 152.421 380.665C154.711 380.836 156.953 381.405 159.048 382.344C161.091 383.304 163.048 384.436 164.899 385.728C168.613 388.272 172.022 391.082 175.647 393.55C177.435 394.795 179.324 395.888 181.294 396.819C182.266 397.282 183.269 397.677 184.296 398.002C184.804 398.142 185.339 398.243 185.847 398.358L186.636 398.536H187.424C191.711 399.019 195.832 397.264 199.444 395.102C203.056 392.939 206.376 390.243 209.772 387.763C213.054 385.14 216.711 383.026 220.622 381.492C224.634 380.394 228.858 380.315 232.908 381.263C236.915 382.026 240.782 383.146 244.648 384.074C248.436 385.119 252.36 385.582 256.286 385.448C260.121 385.094 263.69 383.336 266.309 380.513C268.853 377.715 271.071 374.639 272.923 371.342C274.856 368.137 276.662 364.881 278.787 361.841C280.776 358.728 283.458 356.117 286.622 354.21C289.815 352.594 293.253 351.515 296.797 351.017C300.269 350.394 303.716 349.999 307.099 349.452C310.404 349.094 313.652 348.325 316.766 347.163C319.789 345.903 322.326 343.705 324.003 340.893C325.562 338.094 326.641 335.055 327.196 331.9C328.468 325.706 328.798 319.524 330.439 313.737C331.193 310.864 332.55 308.184 334.42 305.877C336.321 303.742 338.503 301.876 340.907 300.331C345.562 297.202 350.408 294.811 354.631 291.809C356.717 290.368 358.611 288.667 360.266 286.747C361.813 284.882 362.894 282.676 363.42 280.311C363.86 278.026 363.929 275.686 363.624 273.379C363.33 271.168 362.905 268.977 362.352 266.816C361.347 262.58 360.189 258.587 359.49 254.707C358.649 251.062 358.649 247.274 359.49 243.629C360.458 240.506 361.932 237.562 363.853 234.916C367.312 229.943 370.619 226.013 372.756 222.502C374.543 219.921 375.836 217.032 376.572 213.98C376.762 213.205 376.873 212.412 376.902 211.615C376.902 211.08 376.991 210.813 376.991 210.813C376.991 210.813 376.991 211.08 376.991 211.615C376.973 212.416 376.871 213.213 376.686 213.993C375.965 217.069 374.671 219.982 372.87 222.579C370.708 226.114 367.401 230.045 363.967 235.031C362.068 237.664 360.612 240.59 359.655 243.692C358.828 247.3 358.828 251.049 359.655 254.656C360.355 258.472 361.525 262.504 362.542 266.74C363.096 268.913 363.52 271.117 363.814 273.341C364.136 275.68 364.075 278.055 363.636 280.375C363.095 282.793 361.993 285.05 360.418 286.963C358.743 288.899 356.823 290.609 354.707 292.051C350.472 295.078 345.613 297.482 341.009 300.598C338.649 302.128 336.51 303.972 334.649 306.08C332.812 308.349 331.485 310.986 330.757 313.813C329.142 319.537 328.786 325.719 327.552 331.938C327.009 335.132 325.938 338.214 324.385 341.058C322.665 343.956 320.055 346.222 316.944 347.519C313.79 348.809 310.487 349.698 307.112 350.165C303.729 350.724 300.282 351.119 296.835 351.742C293.337 352.243 289.944 353.308 286.787 354.896C283.71 356.77 281.101 359.318 279.155 362.35C277.069 365.364 275.263 368.608 273.33 371.838C271.45 375.16 269.21 378.265 266.652 381.098C263.947 384.012 260.259 385.824 256.299 386.186C252.322 386.342 248.345 385.883 244.508 384.825C240.616 383.896 236.75 382.777 232.781 382.026C228.823 381.099 224.696 381.173 220.774 382.243C216.917 383.757 213.311 385.845 210.077 388.437C206.694 390.917 203.387 393.588 199.711 395.827C198.77 396.335 197.867 396.921 196.862 397.353C196.366 397.582 195.883 397.824 195.387 398.027L193.848 398.574C191.761 399.291 189.544 399.551 187.348 399.337H186.521C186.254 399.337 185.987 399.223 185.72 399.172C185.173 399.045 184.639 398.943 184.105 398.79C183.054 398.458 182.026 398.059 181.027 397.595C179.027 396.648 177.108 395.537 175.29 394.275C171.64 391.795 168.219 388.946 164.543 386.453C162.718 385.183 160.791 384.069 158.781 383.12C156.769 382.223 154.618 381.677 152.421 381.505C147.864 381.448 143.324 382.074 138.952 383.362C134.501 384.65 129.96 385.602 125.368 386.211C123.009 386.441 120.628 386.282 118.321 385.74C116.013 385.099 113.884 383.932 112.101 382.332C108.476 379.165 106.022 375.005 103.567 370.948C101.304 366.751 98.6554 362.774 95.6555 359.068C94.0924 357.274 92.2126 355.782 90.1099 354.667C87.9396 353.647 85.6612 352.875 83.3179 352.365C78.5991 351.322 73.7149 350.877 68.8689 349.999C66.4149 349.596 64.0045 348.961 61.6698 348.104C59.2531 347.317 57.059 345.964 55.2695 344.159C53.48 342.354 52.1467 340.149 51.38 337.725C50.5254 335.356 49.8951 332.912 49.4975 330.425C48.5944 325.477 48.2256 320.44 46.9537 315.556C46.4255 313.109 45.5338 310.755 44.3081 308.573C43.025 306.417 41.3464 304.522 39.3603 302.989C35.4047 299.809 30.8512 297.431 26.4631 294.747C24.2512 293.409 22.127 291.93 20.1035 290.321C18.0527 288.665 16.3276 286.642 15.0158 284.356C13.7673 282.009 13.1369 279.382 13.1842 276.724C13.2271 274.093 13.5339 271.472 14.1 268.902C15.1812 263.814 16.7965 258.726 17.6359 253.639C18.1142 251.08 18.2 248.464 17.8903 245.88C17.4828 243.301 16.5986 240.821 15.2829 238.567C12.7391 234 9.22857 229.943 6.1378 225.58C4.55008 223.412 3.16223 221.105 1.99133 218.686C0.684409 216.27 0 213.567 0 210.82C0 208.073 0.684409 205.369 1.99133 202.953C3.159 200.534 4.55154 198.23 6.15054 196.072C9.2413 191.709 12.6882 187.652 15.2829 183.085C16.5774 180.827 17.4401 178.346 17.8268 175.772C18.1363 173.183 18.0505 170.563 17.5724 168C16.7202 162.849 15.1176 157.825 14.0237 152.737C13.4563 150.172 13.1537 147.555 13.1206 144.928C13.0703 142.266 13.7101 139.637 14.9777 137.296C16.2893 135.017 18.0148 133.003 20.0653 131.356C22.0879 129.746 24.2122 128.267 26.4249 126.93C30.8131 124.246 35.3283 121.842 39.3094 118.688C41.2958 117.155 42.9746 115.261 44.2572 113.104C45.4823 110.918 46.37 108.56 46.8901 106.109C48.073 101.225 48.48 96.2005 49.4339 91.2528C49.8376 88.7669 50.4676 86.3231 51.3163 83.9519C52.0889 81.5297 53.4259 79.3255 55.217 77.5211C57.0082 75.7166 59.2024 74.3635 61.6189 73.5731C63.952 72.7278 66.3574 72.0977 68.8052 71.6906C73.664 70.813 78.5354 70.4187 83.267 69.3249C85.6124 68.8167 87.8915 68.0399 90.0591 67.01C92.1618 65.9009 94.0418 64.4133 95.6046 62.6218C98.6004 58.9156 101.245 54.9386 103.503 50.7421C105.958 46.6847 108.426 42.5255 112.038 39.3712C113.822 37.7695 115.95 36.599 118.257 35.9497C120.565 35.4131 122.945 35.2542 125.304 35.4791C129.915 36.0657 134.477 36.9925 138.952 38.2519C143.293 39.5506 147.801 40.2021 152.332 40.1852C154.529 40.0088 156.68 39.4581 158.692 38.5571C160.704 37.6128 162.632 36.4979 164.454 35.2247C168.129 32.6809 171.551 29.8953 175.201 27.4024C177.015 26.1442 178.929 25.0381 180.925 24.0954C181.923 23.6076 182.951 23.1828 184.003 22.8235C184.537 22.6708 185.084 22.5691 185.618 22.4546L186.432 22.2765L187.259 22.2129C189.451 22.0054 191.662 22.2655 193.746 22.9761L195.285 23.523C195.794 23.7265 196.277 23.9682 196.76 24.1971C197.735 24.6578 198.686 25.1672 199.61 25.7234C203.285 27.962 206.605 30.6203 209.976 33.1133C213.222 35.7193 216.841 37.8243 220.711 39.3584C224.632 40.4342 228.76 40.5085 232.718 39.5747C236.686 38.8369 240.553 37.7177 244.445 36.7764C248.283 35.7242 252.259 35.2653 256.235 35.4155C260.196 35.7757 263.884 37.5878 266.589 40.5032C269.158 43.3313 271.398 46.442 273.266 49.7755C275.2 52.9934 277.006 56.2495 279.104 59.2513C281.042 62.2892 283.653 64.8397 286.736 66.7047C289.883 68.3078 293.274 69.378 296.771 69.8718C300.231 70.495 303.678 70.8893 307.061 71.449C310.436 71.917 313.739 72.8058 316.893 74.0946C320.001 75.3904 322.61 77.6512 324.334 80.5432C325.893 83.3844 326.963 86.4671 327.501 89.6629C328.773 95.8826 329.104 102.064 330.719 107.788C331.446 110.613 332.768 113.25 334.598 115.521C336.459 117.633 338.598 119.482 340.958 121.016C345.562 124.132 350.421 126.536 354.669 129.563C356.782 131.008 358.702 132.718 360.38 134.651C361.951 136.56 363.049 138.813 363.585 141.226C364.035 143.545 364.1 145.921 363.776 148.26C363.491 150.485 363.066 152.69 362.504 154.861C361.487 159.11 360.317 163.091 359.617 166.945C358.79 170.557 358.79 174.309 359.617 177.921C360.573 181.024 362.03 183.95 363.929 186.583C367.35 191.569 370.657 195.487 372.832 199.035C374.633 201.632 375.927 204.544 376.648 207.621C376.833 208.401 376.935 209.198 376.953 209.999C377.055 210.533 377.068 210.813 377.068 210.813Z" fill="#263238"/>
<path d="M153.375 385.601C153.553 385.601 148.86 404.679 142.895 428.108C136.929 451.537 131.943 470.501 131.765 470.463C131.587 470.425 136.281 451.384 142.259 427.943C148.237 404.501 153.21 385.55 153.375 385.601Z" fill="#263238"/>
<path d="M188.709 326.265C252.479 326.265 304.174 274.57 304.174 210.8C304.174 147.031 252.479 95.3356 188.709 95.3356C124.94 95.3356 73.2444 147.031 73.2444 210.8C73.2444 274.57 124.94 326.265 188.709 326.265Z" fill="white"/>
<path d="M117.609 170.799C116.019 172.388 107.268 188.313 106.467 201.452C105.666 214.591 107.561 288.337 107.561 288.337L107.904 293.234C128.687 317.54 204.239 353.713 272.287 293.106L276.103 247.737L264.872 151.694L225.875 142.142L216.73 127.324L155.766 141.595L150.399 154.442L117.609 170.799Z" fill="#691D1C"/>
<path d="M212.494 88.7089C215.178 78.7243 217.824 68.6762 218.752 58.3863C219.681 48.0965 218.752 37.4632 214.72 27.9747C214.097 26.5375 208.946 16.9344 207.406 17.1761C206.3 17.3415 209.632 26.3721 209.111 27.3515C204.227 36.8527 203.336 48.0075 204.735 58.6025C206.198 68.8904 208.8 78.9836 212.494 88.6962" fill="#263238"/>
<path d="M211.451 49.2794C210.955 23.3704 195.463 2.06577 169.58 3.27409L167.188 3.52847C155.611 4.74625 144.917 10.2794 137.236 19.0262C129.554 27.7731 125.449 39.092 125.736 50.7294C126.283 73.1788 127.174 97.9812 128.586 109.912C131.498 134.6 156.568 135.846 156.568 135.846L157.725 152.089L168.346 163.625L217.582 133.099L211.451 49.2794Z" fill="#FFBF9D"/>
<path d="M156.669 136.024C156.669 136.024 172.352 135.287 187.87 123.114C187.87 123.114 182.667 145.513 157.763 145.882L156.669 136.024Z" fill="#FF9A6C"/>
<path d="M139.995 70.8638C140.082 71.7923 140.531 72.6491 141.245 73.2489C141.959 73.8487 142.881 74.1433 143.81 74.069C144.263 74.0577 144.709 73.956 145.122 73.7698C145.535 73.5836 145.906 73.3167 146.214 72.9849C146.522 72.6531 146.761 72.263 146.916 71.8375C147.071 71.4121 147.14 70.96 147.117 70.5077C147.033 69.5779 146.585 68.7191 145.87 68.1186C145.155 67.5182 144.232 67.2248 143.302 67.3024C142.848 67.312 142.402 67.4126 141.988 67.5982C141.575 67.7838 141.202 68.0506 140.894 68.3828C140.586 68.715 140.347 69.1058 140.193 69.532C140.038 69.9582 139.971 70.4111 139.995 70.8638Z" fill="#263238"/>
<path d="M132.134 60.434C132.617 60.8411 135.085 58.577 138.888 58.1955C142.691 57.8139 145.68 59.4674 146.036 58.895C146.214 58.6788 145.68 57.8902 144.383 57.1271C142.615 56.1673 140.595 55.7722 138.595 55.995C136.62 56.2021 134.76 57.0253 133.279 58.3481C132.21 59.3783 131.892 60.2433 132.134 60.434Z" fill="#263238"/>
<path d="M173.561 68.015C173.651 68.9422 174.101 69.797 174.815 70.3962C175.528 70.9953 176.447 71.2912 177.376 71.2202C177.831 71.2107 178.279 71.1097 178.693 70.9234C179.107 70.737 179.48 70.469 179.789 70.1354C180.097 69.8018 180.336 69.4095 180.489 68.9818C180.643 68.5541 180.709 68.0999 180.683 67.6461C180.593 66.719 180.143 65.8641 179.429 65.265C178.716 64.6658 177.796 64.3699 176.868 64.4409C176.414 64.4539 175.968 64.5572 175.555 64.7447C175.142 64.9323 174.771 65.2004 174.463 65.5332C174.155 65.866 173.917 66.257 173.762 66.6831C173.607 67.1093 173.538 67.5621 173.561 68.015Z" fill="#263238"/>
<path d="M169.478 58.043C169.974 58.4627 172.442 56.1987 176.232 55.8044C180.022 55.4101 183.024 57.0763 183.393 56.5167C183.571 56.2877 183.037 55.4991 181.727 54.7487C179.96 53.783 177.94 53.3833 175.939 53.604C173.961 53.8086 172.099 54.6371 170.623 55.9697C169.592 56.9873 169.287 57.8649 169.478 58.043Z" fill="#263238"/>
<path d="M158.972 88.6834C158.972 88.4671 156.555 88.3018 152.612 88.2127C151.633 88.2127 150.691 88.1237 150.463 87.475C150.271 86.4837 150.391 85.4572 150.806 84.5369L152.892 76.9054C155.766 65.9669 157.751 57.0126 157.305 56.8981C156.86 56.7836 154.177 65.5598 151.302 76.4984C150.615 79.1948 149.954 81.7641 149.331 84.2316C148.852 85.4525 148.816 86.8027 149.229 88.0474C149.404 88.3775 149.652 88.6635 149.954 88.8839C150.256 89.1042 150.604 89.2531 150.971 89.3193C151.529 89.3871 152.093 89.3871 152.65 89.3193C156.581 89.1285 158.972 88.9632 158.972 88.6834Z" fill="#263238"/>
<path d="M170.432 90.1335C169.808 90.1335 170.228 94.28 167.01 97.587C163.792 100.894 159.379 100.894 159.379 101.479C159.379 101.733 160.447 102.166 162.304 102.026C164.712 101.8 166.964 100.733 168.664 99.0115C170.282 97.3442 171.194 95.1156 171.208 92.7918C171.271 91.0493 170.75 90.0826 170.432 90.1335Z" fill="#263238"/>
<path d="M168.104 42.6018C168.587 43.5939 172.327 42.7036 176.842 42.7672C181.357 42.8308 185.097 43.6703 185.593 42.6909C185.809 42.2203 185.071 41.3045 183.52 40.465C181.452 39.4388 179.177 38.8995 176.869 38.8885C174.56 38.8775 172.28 39.395 170.203 40.4014C168.626 41.2282 167.888 42.1312 168.104 42.6018Z" fill="#263238"/>
<path d="M132.376 47.6386C133.139 48.4272 135.658 47.2571 138.736 46.8755C141.814 46.4939 144.612 46.8755 145.095 45.8834C145.311 45.4128 144.803 44.6115 143.556 43.8992C141.897 43.0557 140.016 42.7532 138.176 43.0343C136.328 43.2527 134.596 44.0496 133.228 45.311C132.312 46.3158 132.033 47.2443 132.376 47.6386Z" fill="#263238"/>
<path d="M211.451 67.7987C211.845 67.5825 227.91 60.9939 229.143 77.9741C230.377 94.9542 213.105 92.6902 213.041 92.2069C212.977 91.7235 211.451 67.7987 211.451 67.7987Z" fill="#FFBF9D"/>
<path d="M217.696 85.3766C217.773 85.313 218.014 85.5547 218.523 85.7455C219.248 85.9963 220.041 85.9552 220.736 85.631C222.479 84.8424 223.789 81.8915 223.636 78.8262C223.577 77.3682 223.19 75.9422 222.504 74.6543C222.305 74.1358 221.984 73.673 221.567 73.3054C221.151 72.9377 220.652 72.6762 220.113 72.5429C219.767 72.4756 219.408 72.5332 219.101 72.7056C218.793 72.8779 218.557 73.1538 218.434 73.4841C218.243 73.9802 218.434 74.3109 218.281 74.3491C218.129 74.3872 217.9 74.0819 217.989 73.3697C218.053 72.9452 218.259 72.5551 218.574 72.2631C219.016 71.878 219.591 71.6816 220.176 71.7162C220.884 71.8012 221.558 72.067 222.132 72.4881C222.707 72.9091 223.164 73.4712 223.458 74.1201C224.282 75.5395 224.753 77.136 224.832 78.7753C224.972 82.1968 223.445 85.5165 221.016 86.4068C220.571 86.5743 220.094 86.6395 219.621 86.5977C219.148 86.5559 218.69 86.4081 218.281 86.1652C217.811 85.7836 217.645 85.402 217.696 85.3766Z" fill="#FF9A6C"/>
<path d="M134.945 21.8949C132.096 20.623 139.766 11.1345 146.316 7.63672C156.224 2.35825 171.614 -1.49566 181.205 0.564846C192.728 3.10869 202.497 8.06917 208.856 18.0156C215.216 27.962 218.116 39.829 218.536 51.6197C218.663 55.2192 218.536 58.9841 216.818 62.1385C214.682 66.0433 210.294 68.7016 210.828 73.8656C210.95 74.7988 210.885 75.7468 210.639 76.655C210.392 77.5632 209.968 78.4135 209.391 79.1568C206.503 82.6673 202.497 79.8055 200.487 76.8037C196.328 70.4441 195.399 62.4946 194.585 54.8885C194 49.4956 193.428 43.9755 194.585 38.6843C195.234 35.797 196.391 33.037 196.875 30.1243C197.358 27.2116 197.066 23.9555 195.132 21.7296C194.681 21.266 194.191 20.8406 193.67 20.4577C191.162 18.5476 188.192 17.3374 185.064 16.9508C181.935 16.5642 178.76 17.015 175.863 18.2573C166.527 22.2511 150.526 28.3436 146.049 25.38C139.689 21.1064 137.959 18.1555 137.959 18.1555L134.945 21.8949Z" fill="#263238"/>
<path d="M117.609 170.799C116.629 172.16 102.727 176.777 97.4488 185.566C92.1704 194.355 86.9682 233.81 86.9682 233.81L83.6104 259.782C90.2243 270.237 99.0896 284.088 108.502 293.857L117.609 170.799Z" fill="#691D1C"/>
<g opacity="0.3">
<path d="M222.072 208.893C222.448 214.212 223.456 219.468 225.074 224.55C226.892 229.549 230.085 234.255 234.753 236.837C236.699 237.905 238.899 238.617 240.54 240.144C242.181 241.67 243.173 244.137 244.763 245.931C246.754 247.901 249.207 249.34 251.898 250.116C259.475 252.894 267.515 254.189 275.581 253.931C275.836 251.197 275.849 241.212 276.103 238.477L222.072 208.893Z" fill="black"/>
</g>
<path d="M264.872 151.694C264.872 151.694 282.399 156.884 287.537 164.414C292.676 171.943 301.77 200.816 303.64 206.196C305.51 211.576 303.882 224.003 300.371 232.907C296.861 241.81 290.806 249.556 280.3 250.713C269.794 251.871 253.221 245.817 249.494 241.81C245.768 237.803 244.203 228.938 244.203 228.938C248.867 228.12 253.466 226.968 257.965 225.491" fill="#691D1C"/>
<path d="M257.965 225.517L257.749 225.606L257.088 225.847L254.468 226.687C251.102 227.69 247.684 228.505 244.229 229.129L244.368 228.938C244.805 231.1 245.405 233.226 246.162 235.298C246.586 236.48 247.092 237.632 247.675 238.745C248.279 239.931 249.074 241.009 250.029 241.937C251.11 242.861 252.302 243.648 253.577 244.278C254.915 244.985 256.29 245.618 257.698 246.173C260.725 247.383 263.837 248.369 267.009 249.124C270.439 249.942 273.95 250.369 277.477 250.395C278.39 250.404 279.303 250.361 280.211 250.268C281.132 250.163 282.045 250.001 282.946 249.785C284.794 249.369 286.569 248.679 288.212 247.737C291.633 245.759 294.506 242.956 296.568 239.584C298.754 236.085 300.425 232.29 301.529 228.315C302.435 225.258 303.111 222.137 303.551 218.979C304.024 215.93 304.178 212.839 304.009 209.758C303.908 208.273 303.604 206.809 303.106 205.408C302.639 203.983 302.169 202.571 301.694 201.172L298.959 192.994C297.153 187.677 295.372 182.653 293.592 177.985C292.029 173.641 290.145 169.42 287.957 165.355C286.942 163.63 285.598 162.122 284.001 160.916C282.593 159.805 281.1 158.806 279.537 157.927C277.024 156.521 274.429 155.268 271.766 154.175C269.578 153.272 267.848 152.636 266.678 152.216L265.406 151.745C265.247 151.703 265.094 151.643 264.948 151.567C265.109 151.588 265.267 151.626 265.419 151.682L266.792 152.089C267.988 152.47 269.731 153.068 271.88 153.933C274.575 154.992 277.2 156.22 279.741 157.609C281.327 158.484 282.841 159.483 284.269 160.598C285.929 161.806 287.323 163.343 288.364 165.113C290.602 169.2 292.524 173.452 294.113 177.832C295.932 182.488 297.738 187.524 299.557 192.841C300.447 195.499 301.376 198.221 302.317 201.02C302.775 202.406 303.246 203.818 303.729 205.242C304.242 206.695 304.558 208.209 304.67 209.745C304.851 212.877 304.702 216.019 304.225 219.119C303.775 222.307 303.091 225.457 302.177 228.544C301.041 232.585 299.328 236.44 297.09 239.991C294.97 243.449 292.018 246.322 288.504 248.348C286.804 249.315 284.969 250.022 283.06 250.446C282.133 250.662 281.195 250.828 280.249 250.942C279.308 250.942 278.38 251.108 277.451 251.07C273.878 251.005 270.324 250.535 266.856 249.67C263.667 248.902 260.539 247.903 257.495 246.681C256.075 246.107 254.686 245.457 253.335 244.735C252.025 244.077 250.803 243.257 249.698 242.293C248.715 241.323 247.898 240.197 247.281 238.961C246.694 237.828 246.188 236.655 245.768 235.45C245.02 233.328 244.438 231.15 244.025 228.938V228.773H244.19C248.668 228.01 252.114 227.132 254.442 226.496L257.075 225.746L257.749 225.555C257.876 225.517 257.965 225.504 257.965 225.517Z" fill="#263238"/>
<path d="M290.12 216.155C289.992 216.155 289.598 213.993 288.123 210.762C286.21 206.557 283.527 202.748 280.211 199.531C278.389 197.78 276.319 196.306 274.068 195.156L272.516 194.469C272.017 194.277 271.507 194.111 270.99 193.973C270.079 193.686 269.141 193.49 268.192 193.388L267.556 193.299H265.813C265.216 193.283 264.618 193.334 264.032 193.452C263.523 193.563 263.002 193.614 262.481 193.604C262.967 193.421 263.469 193.285 263.982 193.197C264.574 193.029 265.185 192.939 265.8 192.93H266.945H267.581L268.23 193.006C269.217 193.068 270.193 193.238 271.142 193.515C271.676 193.649 272.203 193.81 272.72 193.998L274.335 194.685C276.672 195.832 278.817 197.334 280.695 199.137C284.081 202.401 286.764 206.322 288.581 210.661C288.901 211.398 289.177 212.154 289.407 212.925C289.607 213.504 289.773 214.094 289.903 214.693C290.034 215.17 290.106 215.661 290.12 216.155Z" fill="#263238"/>
<path d="M299.684 200.409C298.969 198.555 298.083 196.771 297.039 195.079C294.406 191.053 290.46 188.064 285.871 186.621C280.491 184.98 275.263 185.489 271.613 185.833L267.263 186.354C266.73 186.45 266.189 186.497 265.648 186.494C266.155 186.297 266.685 186.164 267.225 186.1C268.242 185.896 269.769 185.629 271.562 185.375C276.383 184.525 281.33 184.734 286.062 185.985C288.654 186.764 291.06 188.062 293.134 189.801C294.825 191.217 296.276 192.896 297.433 194.774C298.225 196.024 298.853 197.371 299.303 198.781C299.512 199.301 299.641 199.85 299.684 200.409Z" fill="#263238"/>
<path d="M286.494 181.597C279.638 179.981 272.471 180.262 265.762 182.411C266.651 181.861 267.621 181.454 268.637 181.203C273.464 179.706 278.6 179.504 283.531 180.618C284.562 180.792 285.562 181.123 286.494 181.597Z" fill="#263238"/>
<path d="M258.105 156.07C258.207 156.07 257.952 157.863 257.749 160.738C257.232 168.1 257.867 175.499 259.631 182.666L259.173 182.818C258.665 181.343 258.245 180.16 257.978 179.321C257.804 178.915 257.688 178.487 257.634 178.049C257.885 178.446 258.086 178.874 258.232 179.321C258.576 180.122 259.059 181.292 259.631 182.742L259.173 182.882C257.111 175.676 256.454 168.141 257.24 160.687C257.393 159.25 257.584 158.143 257.736 157.291C257.803 156.869 257.927 156.458 258.105 156.07Z" fill="#263238"/>
<path d="M233.328 123.445C233.328 123.445 224.221 123.445 223.076 134.371C222.212 142.766 223.076 150.906 223.076 154.594C223.076 158.283 221.461 171.346 221.461 171.346C221.461 171.346 215.254 176.84 215.356 183.467C215.458 190.094 220.189 192.141 220.189 192.141C219.397 194.192 219.225 196.43 219.693 198.578C220.161 200.726 221.249 202.689 222.822 204.225C222.822 204.225 220.176 210.317 222.351 214.4C223.591 216.432 225.532 217.939 227.808 218.636C227.437 219.44 227.242 220.314 227.237 221.199C227.232 222.085 227.416 222.961 227.777 223.769C228.139 224.578 228.669 225.3 229.333 225.886C229.996 226.473 230.777 226.91 231.624 227.17C234.685 228.11 237.889 228.502 241.087 228.328L247.866 228.2L253.857 231.507C253.857 231.507 264.096 227.043 264.363 221.001L264.617 214.96C264.617 214.96 261.73 204.988 261.463 201.834C261.196 198.679 263.829 191.06 262.252 187.652C260.674 184.243 255.167 182.233 255.688 177.476C256.21 172.719 255.167 170.074 252.801 167.441C250.435 164.808 239.993 159.568 239.993 159.568C239.993 159.568 237.309 151.936 237.309 146.696C237.309 141.455 242.511 125.442 233.328 123.445Z" fill="#FFBF9D"/>
<path d="M239.433 161.577C238.648 162.212 237.795 162.757 236.89 163.205C235.3 164.146 233.074 165.393 230.53 166.741C227.986 168.089 225.773 169.285 224.17 170.112C223.306 170.638 222.384 171.065 221.423 171.384C222.208 170.744 223.061 170.194 223.967 169.743C225.57 168.802 227.783 167.555 230.327 166.207C232.87 164.859 235.071 163.663 236.686 162.836C237.552 162.315 238.473 161.893 239.433 161.577Z" fill="#FF9A6C"/>
<path d="M245.424 182.132C245.424 182.132 245.17 182.424 244.635 182.844C243.872 183.439 243.078 183.996 242.257 184.51C239.573 186.234 236.717 187.675 233.735 188.809C230.755 189.967 227.666 190.819 224.514 191.353C223.305 191.544 222.326 191.658 221.639 191.696C221.285 191.754 220.924 191.754 220.571 191.696C220.571 191.595 222.059 191.391 224.386 190.895C230.583 189.612 236.526 187.317 241.977 184.103C243.092 183.388 244.242 182.73 245.424 182.132Z" fill="#FF9A6C"/>
<path d="M253.234 175.594C253.399 175.594 253.056 176.866 251.962 177.794C250.868 178.723 249.685 179.003 249.647 178.837C249.609 178.672 250.563 178.189 251.517 177.298C252.471 176.408 253.069 175.517 253.234 175.594Z" fill="#FF9A6C"/>
<path d="M249.494 200.142C248.274 200.734 246.995 201.199 245.679 201.528C239.416 203.406 232.932 204.449 226.396 204.632C225.047 204.736 223.691 204.694 222.352 204.504C223.687 204.305 225.034 204.195 226.384 204.174C228.927 203.996 232.285 203.665 236.037 203.067C239.79 202.469 243.147 201.693 245.564 201.083C246.852 200.682 248.165 200.368 249.494 200.142Z" fill="#FF9A6C"/>
<path d="M257.8 198.628C257.993 197.966 258.226 197.316 258.499 196.682C259.019 195.132 259.189 193.486 258.995 191.863C258.802 190.24 258.25 188.68 257.38 187.295C256.967 186.74 256.585 186.163 256.235 185.566C256.235 185.566 256.973 185.973 257.762 187.028C258.798 188.42 259.452 190.059 259.657 191.782C259.863 193.505 259.612 195.251 258.932 196.847C258.41 198.056 257.863 198.679 257.8 198.628Z" fill="#FF9A6C"/>
<path d="M249.965 218.547C248.923 218.944 247.832 219.201 246.722 219.31C244.081 219.739 241.409 219.951 238.734 219.946C236.053 219.935 233.378 219.709 230.734 219.272C229.632 219.151 228.551 218.89 227.516 218.496C228.62 218.514 229.721 218.617 230.81 218.801C233.44 219.105 236.086 219.262 238.734 219.272C241.385 219.276 244.035 219.135 246.671 218.852C247.761 218.675 248.861 218.573 249.965 218.547Z" fill="#FF9A6C"/>
<path d="M233.812 146.861C233.812 146.937 233.404 147.281 232.54 147.586C231.418 147.959 230.228 148.08 229.055 147.942C227.878 147.807 226.747 147.407 225.747 146.772C224.997 146.276 224.641 145.844 224.692 145.78C226.093 146.487 227.588 146.993 229.131 147.281C230.703 147.366 232.28 147.225 233.812 146.861Z" fill="#FF9A6C"/>
<path d="M259.695 199.404C259.811 199.717 259.858 200.051 259.835 200.384C259.841 201.288 259.735 202.189 259.517 203.067C259.275 204.174 258.856 205.459 258.449 206.883C257.956 208.374 257.795 209.954 257.978 211.513C258.194 213.115 259.403 214.426 259.593 216.066C259.724 217.453 259.368 218.842 258.589 219.997C258.119 220.765 257.569 221.481 256.948 222.133C256.515 222.604 256.248 222.833 256.223 222.807C256.197 222.782 257.088 221.688 258.182 219.768C258.839 218.685 259.121 217.415 258.983 216.155C258.83 214.769 257.622 213.472 257.329 211.627C257.132 209.967 257.315 208.284 257.864 206.705C258.309 205.28 258.767 204.021 259.135 202.953C259.41 201.785 259.597 200.599 259.695 199.404Z" fill="#FF9A6C"/>
<path d="M263.104 207.392C263.311 207.765 263.457 208.168 263.536 208.587C263.765 209.363 264.07 210.508 264.363 211.933C264.711 213.608 264.911 215.31 264.961 217.02C265.069 219.158 264.677 221.292 263.816 223.253C262.819 225.132 261.492 226.817 259.899 228.226C258.636 229.381 257.288 230.44 255.867 231.393C254.658 232.22 253.653 232.83 252.941 233.225C252.586 233.461 252.201 233.649 251.796 233.784C251.796 233.695 253.259 232.728 255.612 231.011C256.971 230.011 258.271 228.933 259.504 227.781C261.008 226.394 262.268 224.765 263.231 222.96C264.052 221.091 264.439 219.06 264.363 217.02C264.333 215.337 264.18 213.657 263.905 211.996C263.422 209.16 263.002 207.417 263.104 207.392Z" fill="#263238"/>
<path d="M167.137 165.05C166.613 164.751 166.119 164.401 165.662 164.007L161.846 160.814L159.213 158.588C158.759 158.168 158.255 157.805 157.712 157.507C157.448 157.373 157.156 157.303 156.86 157.303C156.564 157.303 156.272 157.373 156.008 157.507C154.901 158.092 154.176 159.491 153.235 160.661L150.437 164.477L146.049 170.341L145.235 171.435L145.489 170.086C146.218 166.304 147.278 162.593 148.656 158.995C149.165 157.723 149.623 156.629 149.928 155.93C150.071 155.556 150.259 155.202 150.488 154.874C150.409 155.264 150.285 155.644 150.119 156.006C149.852 156.731 149.458 157.787 149 159.122C147.758 162.743 146.784 166.45 146.087 170.214L145.527 169.959L149.877 164.083L152.688 160.267L154.037 158.474C154.471 157.842 155.046 157.32 155.715 156.947C156.069 156.793 156.453 156.72 156.839 156.735C157.224 156.751 157.601 156.854 157.941 157.037C158.521 157.365 159.059 157.762 159.544 158.219L162.088 160.509L165.802 163.854C166.284 164.209 166.731 164.609 167.137 165.05Z" fill="#263238"/>
<path d="M220.838 154.302C220.692 154.467 220.525 154.612 220.342 154.734L218.841 155.917L213.244 160.127L194.522 173.902L194.242 174.105L194.051 173.813L193.593 173.088C190.146 167.644 186.928 162.556 184.194 158.257L184.537 158.372C180.924 159.808 177.439 161.549 174.12 163.574C172.912 164.299 171.983 164.846 171.36 165.304C171.048 165.536 170.716 165.741 170.368 165.914C170.63 165.625 170.929 165.373 171.258 165.164C171.856 164.719 172.759 164.07 173.942 163.294C177.227 161.156 180.706 159.333 184.334 157.85L184.55 157.761L184.677 157.952C187.424 162.238 190.668 167.313 194.153 172.732L194.611 173.457L194.14 173.368L212.965 159.758L218.701 155.701L220.265 154.632C220.634 154.391 220.825 154.276 220.838 154.302Z" fill="#263238"/>
<path d="M106.696 204.873C106.744 205.172 106.765 205.474 106.759 205.776C106.759 206.438 106.759 207.29 106.836 208.32C106.836 210.635 106.937 213.853 107.014 217.796C107.166 225.784 107.484 236.875 107.891 249.022C108.298 261.169 108.553 272.26 108.591 280.26C108.591 284.254 108.591 287.497 108.591 289.736C108.591 290.792 108.591 291.657 108.591 292.28C108.609 292.58 108.609 292.882 108.591 293.183C108.533 292.885 108.508 292.583 108.515 292.28C108.515 291.631 108.515 290.766 108.451 289.736C108.451 287.421 108.349 284.203 108.273 280.26C108.12 272.272 107.802 261.181 107.383 249.034C106.963 236.888 106.721 225.796 106.696 217.796C106.696 213.802 106.696 210.559 106.696 208.333C106.696 207.265 106.696 206.412 106.759 205.789C106.702 205.487 106.681 205.18 106.696 204.873Z" fill="#263238"/>
<path d="M167.557 319.766C167.538 319.648 167.538 319.528 167.557 319.41C167.557 319.13 167.481 318.774 167.43 318.329C167.328 317.324 167.201 315.937 167.023 314.169C166.667 310.557 166.26 305.266 165.853 298.83C165.446 292.394 165.102 284.635 164.886 276.05C164.67 267.464 164.644 258.04 164.886 248.131C165.128 238.223 165.573 228.798 166.158 220.238C166.743 211.678 167.43 203.97 168.129 197.522C168.829 191.073 169.401 185.845 169.961 182.259C170.203 180.491 170.406 179.117 170.546 178.112C170.546 177.68 170.673 177.323 170.711 177.044C170.721 176.918 170.747 176.794 170.788 176.675C170.807 176.801 170.807 176.93 170.788 177.056C170.788 177.336 170.788 177.692 170.686 178.138C170.572 179.13 170.419 180.516 170.228 182.284C169.796 185.883 169.223 191.111 168.6 197.547C167.977 203.983 167.328 211.703 166.781 220.263C166.234 228.824 165.815 238.236 165.586 248.131C165.357 258.027 165.42 267.452 165.586 276.024C165.751 284.597 166.056 292.318 166.412 298.792C166.769 305.266 167.099 310.519 167.366 314.131C167.494 315.899 167.583 317.298 167.659 318.303C167.659 318.748 167.659 319.104 167.659 319.384C167.644 319.516 167.609 319.644 167.557 319.766Z" fill="#263238"/>
<path d="M129.654 111.578L128.318 112.468L124.337 115.012C122.595 116.144 120.522 117.76 118.105 119.54C116.833 120.456 115.676 121.563 114.289 122.682L112.241 124.475C111.542 125.086 110.868 125.747 110.143 126.447C103.094 133 96.9096 140.424 91.738 148.54C91.0003 149.723 90.2498 150.944 89.474 152.178C88.6981 153.411 88.0621 154.722 87.3244 155.993C86.5867 157.265 85.8617 158.639 85.2003 160.038L83.2543 164.325C82.9236 165.05 82.5675 165.762 82.2749 166.512C81.9824 167.263 81.6898 168.026 81.41 168.789C80.8249 170.328 80.2144 171.867 79.6548 173.457C78.7135 176.675 77.518 179.931 76.8184 183.391C73.1969 198.419 72.5873 214.016 75.025 229.282C78.2235 248.923 86.4574 267.401 98.9238 282.913C111.39 298.425 127.664 310.441 146.157 317.791C164.651 325.14 184.733 327.572 204.447 324.848C224.16 322.125 242.831 314.34 258.639 302.252C262.634 299.186 266.432 295.873 270.01 292.331L272.554 289.634C273.432 288.744 274.271 287.841 275.098 286.887L277.515 284.101L279.791 281.214C291.302 266.405 298.986 248.988 302.164 230.503C302.909 226.209 303.414 221.878 303.678 217.529C303.805 215.379 303.805 213.255 303.882 211.169C303.958 209.083 303.729 206.959 303.653 204.886C303.653 203.843 303.576 202.813 303.525 201.783C303.475 200.752 303.296 199.748 303.195 198.73C302.957 196.703 302.716 194.694 302.47 192.701C302.152 190.73 301.694 188.796 301.325 186.863C301.001 184.947 300.577 183.049 300.053 181.178L298.476 175.67C298.227 174.763 297.925 173.871 297.573 172.999C297.242 172.134 296.924 171.257 296.593 170.392C295.919 168.675 295.322 166.919 294.609 165.304L292.333 160.445C286.796 148.963 279.38 138.487 270.392 129.449C263.568 122.672 255.954 116.74 247.714 111.782L242.855 108.996C242.126 108.566 241.374 108.176 240.603 107.826L238.454 106.808L234.638 105.002C233.493 104.417 232.361 104.086 231.408 103.73L226.981 102.013C225.989 101.632 225.48 101.415 225.48 101.415C225.48 101.415 226.002 101.581 227.007 101.95L231.458 103.603C232.425 103.997 233.557 104.328 234.702 104.875L238.518 106.656L240.667 107.661C241.446 108.006 242.206 108.392 242.944 108.818L247.815 111.591C256.11 116.512 263.769 122.433 270.621 129.22C279.655 138.238 287.114 148.707 292.689 160.191C293.452 161.806 294.215 163.422 294.978 165.062C295.741 166.703 296.314 168.471 296.988 170.15L297.98 172.77C298.34 173.64 298.641 174.532 298.883 175.441C299.417 177.273 299.951 179.104 300.486 180.974C301.042 182.851 301.492 184.757 301.834 186.685C302.203 188.618 302.673 190.501 302.991 192.548C303.309 194.596 303.487 196.568 303.729 198.603C303.843 199.62 304.009 200.638 304.072 201.668C304.136 202.698 304.161 203.741 304.199 204.784C304.276 206.87 304.39 208.969 304.441 211.144C304.492 213.319 304.378 215.405 304.238 217.504C303.985 221.878 303.483 226.235 302.737 230.553C299.565 249.139 291.853 266.654 280.287 281.545L278.011 284.445C277.197 285.386 276.383 286.314 275.581 287.256C274.78 288.197 273.941 289.125 273.037 290.016L270.494 292.725C266.894 296.293 263.07 299.627 259.046 302.709C243.157 314.861 224.389 322.688 204.574 325.425C184.759 328.163 164.572 325.719 145.983 318.33C127.394 310.942 111.037 298.862 98.5074 283.269C85.9778 267.676 77.7032 249.102 74.4908 229.358C72.0713 214.028 72.711 198.37 76.3732 183.289C77.0982 179.804 78.2938 176.548 79.2477 173.304C79.8074 171.727 80.4306 170.175 81.0157 168.636L81.8934 166.347C82.1859 165.596 82.5547 164.884 82.8727 164.147L84.8569 159.86C85.5183 158.461 86.2942 157.138 86.9938 155.803C87.6933 154.467 88.3547 153.144 89.156 151.923L91.4455 148.286C96.6506 140.165 102.879 132.748 109.977 126.218C110.702 125.544 111.389 124.857 112.089 124.246L114.187 122.504C115.548 121.397 116.731 120.303 118.003 119.388C120.547 117.607 122.518 116.017 124.274 114.898L128.293 112.354C129.183 111.858 129.654 111.578 129.654 111.578Z" fill="#263238"/>
</svg>
