<svg width="531" height="445" viewBox="0 0 531 445" fill="none" xmlns="http://www.w3.org/2000/svg">
<path d="M208.654 423.4L308.98 391.191C309.248 391.108 309.529 391.074 309.809 391.091L386.972 396.807C400.532 363.941 417.523 322.859 425.253 304.097C426.541 301.021 428.617 298.339 431.271 296.32C433.924 294.3 437.063 293.016 440.371 292.594L523.936 281.677C524.929 281.557 525.937 281.699 526.858 282.09C527.78 282.481 528.582 283.107 529.185 283.906C529.789 284.705 530.172 285.648 530.296 286.641C530.421 287.634 530.282 288.642 529.894 289.565L482.839 399.294C482.217 400.75 481.298 402.06 480.142 403.143C478.986 404.225 477.617 405.055 476.123 405.581L380.542 443.719C378.357 444.59 375.99 444.904 373.654 444.634L367.538 443.962C346.361 441.747 241.791 431.102 209.083 427.672C208.564 427.645 208.073 427.434 207.697 427.076C207.321 426.717 207.086 426.237 207.034 425.72C206.983 425.204 207.117 424.686 207.415 424.26C207.712 423.834 208.151 423.529 208.654 423.4Z" fill="#E0E0E0"/>
<path d="M208.654 423.4C208.32 423.507 208.016 423.693 207.767 423.942C207.519 424.19 207.333 424.494 207.225 424.829C207.096 425.251 207.093 425.703 207.217 426.127C207.342 426.551 207.588 426.929 207.925 427.215C208.376 427.563 208.928 427.754 209.497 427.758L211.383 427.958L234.861 430.444L321.226 439.432L349.805 442.405L365.023 443.976L372.84 444.82C375.547 445.241 378.317 444.92 380.856 443.891L444.787 418.427L461.863 411.611L470.565 408.153L474.952 406.41C475.68 406.095 476.381 405.838 477.167 405.509C477.914 405.178 478.624 404.766 479.281 404.28C480.605 403.301 481.713 402.061 482.539 400.637C483.34 399.208 483.854 397.707 484.511 396.236L488.327 387.362C490.889 381.417 493.466 375.411 496.057 369.343C506.446 345.051 517.22 320.016 528.237 294.323L529.752 290.794C530.392 289.62 530.722 288.302 530.709 286.964C530.627 285.602 530.091 284.306 529.187 283.284C528.284 282.261 527.064 281.57 525.722 281.32C525.393 281.249 525.05 281.32 524.707 281.22L523.721 281.292L521.835 281.549L518.077 282.035L510.59 283.006L481.039 286.879L452.174 290.651L445.03 291.58C442.672 291.937 440.314 292.094 437.885 292.652C433.191 293.861 429.116 296.775 426.453 300.825C425.263 302.842 424.263 304.966 423.467 307.17C422.591 309.304 421.714 311.428 420.838 313.543L415.651 326.132L405.534 350.652C398.932 366.685 392.573 382.089 386.529 396.75L386.843 396.55L311.652 390.991L309.566 390.834C309.19 390.83 308.816 390.898 308.466 391.034L307.48 391.363L303.707 392.62L296.105 395.064L281.773 399.765L256.481 407.924L221.115 419.356L211.826 422.399C209.726 423.085 208.654 423.457 208.654 423.457C208.654 423.457 209.74 423.143 211.855 422.485L221.172 419.542L256.552 408.196L281.859 400.108L296.291 395.478L303.893 393.049L307.794 391.806C308.407 391.555 309.051 391.387 309.709 391.306L311.795 391.463L386.972 397.179H387.186L387.286 396.964C393.345 382.318 399.704 366.957 406.334 350.895L416.465 326.375C418.18 322.221 419.914 318.025 421.667 313.786C422.538 311.671 423.424 309.499 424.296 307.413C425.08 305.255 426.06 303.175 427.225 301.197C429.777 297.308 433.683 294.507 438.185 293.337C440.414 292.794 442.815 292.623 445.158 292.28L452.303 291.351L481.182 287.593L510.732 283.735L518.234 282.763L521.992 282.263C523.196 282.02 524.426 281.943 525.651 282.035C526.827 282.258 527.895 282.866 528.687 283.764C529.479 284.662 529.949 285.798 530.023 286.993C530.032 288.218 529.722 289.425 529.123 290.494L527.565 294.023L495.4 369.057C492.799 375.116 490.227 381.122 487.684 387.076C486.398 390.048 485.14 393.006 483.868 395.95C483.225 397.379 482.668 398.951 481.925 400.237C481.155 401.576 480.113 402.739 478.867 403.652C478.249 404.108 477.583 404.497 476.881 404.809C476.195 405.109 475.452 405.381 474.709 405.681L470.322 407.438L461.634 410.911L444.487 417.727L380.584 443.262C378.143 444.262 375.474 444.574 372.868 444.162L365.038 443.319L349.819 441.776L321.24 438.918L234.847 430.159L211.355 427.801L209.469 427.629C208.923 427.628 208.393 427.453 207.954 427.129C207.629 426.86 207.39 426.501 207.265 426.098C207.141 425.694 207.137 425.263 207.254 424.857C207.39 424.353 207.719 423.922 208.168 423.657C208.483 423.471 208.654 423.414 208.654 423.4Z" fill="#263238"/>
<path d="M337.773 403.552L300.149 419.284L253.266 414.412L292.69 398.122L337.773 403.552Z" fill="#F5F5F5"/>
<path d="M366.138 433.302L292.69 426.672L362.823 398.865L385.371 400.565L373.454 429.315L366.138 433.302Z" fill="#F5F5F5"/>
<path d="M215.927 423.357L216.428 423.443L217.928 423.628L223.644 424.214L244.878 426.286L314.896 432.816L369.939 437.789H370.167L370.253 437.575L382.442 407.839L385.786 399.522C386.157 398.569 386.443 397.841 386.643 397.336C386.748 397.084 386.838 396.826 386.915 396.564C386.915 396.564 386.786 396.807 386.557 397.293L385.614 399.451L382.113 407.696C379.113 414.84 374.826 425.057 369.682 437.346L369.996 437.146L314.967 432.045L244.878 425.729L223.687 423.928L217.971 423.471L216.47 423.371L215.927 423.357Z" fill="black"/>
<path d="M527.465 285.65H526.837L524.979 285.864L517.834 286.793L491.627 290.365C480.567 291.909 467.335 293.766 452.775 295.924L441.572 297.653L438.714 298.139C438.242 298.21 437.742 298.325 437.285 298.439C437.042 298.439 436.785 298.539 436.542 298.61C435.337 299.094 434.243 299.819 433.327 300.74C432.955 301.135 432.66 301.595 432.455 302.097L431.898 303.526C428.911 310.985 425.825 318.716 422.652 326.618C410.021 358.269 398.603 386.933 390.316 407.71C386.214 418.07 382.899 426.472 380.584 432.302C379.47 435.16 378.598 437.446 377.984 439.018C377.698 439.761 377.484 440.333 377.326 440.761C377.245 440.956 377.179 441.157 377.126 441.362C377.227 441.176 377.318 440.985 377.398 440.79L378.127 439.061L380.856 432.416C383.214 426.586 386.572 418.227 390.859 407.896L423.267 326.889C426.439 318.987 429.526 311.257 432.512 303.797L433.069 302.368C433.242 301.947 433.488 301.559 433.798 301.225C434.437 300.53 435.21 299.971 436.07 299.582C436.284 299.479 436.504 299.389 436.728 299.311L437.413 299.139C437.871 299.039 438.328 298.939 438.842 298.868L441.7 298.367L452.903 296.61L491.713 290.894L517.891 287.079L525.036 286.021L526.879 285.721L527.465 285.65Z" fill="black"/>
<path d="M453.603 351.338C450.031 356.125 449.317 361.627 451.989 363.627C454.661 365.628 459.748 363.384 463.32 358.597C466.892 353.81 467.607 348.323 464.935 346.308C462.263 344.293 457.176 346.565 453.603 351.338Z" fill="white"/>
<path d="M1.51487 269.731C6.30182 242.581 36.3239 226.22 46.2408 217.189L31.3369 237.123C23.7087 268.583 20.819 301.006 22.7633 333.319C22.9633 336.849 22.5775 341.607 20.0625 342.107C19.1539 342.183 18.2516 341.901 17.5476 341.321C8.74532 335.677 3.02957 322.745 1.75781 309.427C0.48605 296.11 -0.65712 282.292 1.51487 269.731Z" fill="#691D1C"/>
<path d="M23.492 239.324C24.921 236.594 24.3351 227.892 32.0657 236.98L32.5658 233.579L80.3353 196.855L186.806 202.385C197.023 203.028 212.369 220.719 216.199 228.106C219.343 255.585 219.971 279.977 219.971 279.977C219.971 279.977 223.63 310.528 219.971 324.974C216.313 339.421 211.984 344.637 206.325 355.868C202.184 363.541 197.022 370.617 190.978 376.902L186.006 415.483L74.7767 425.486L23.8636 422.628C23.8636 422.628 28.4219 346.537 28.4219 345.194C28.4219 344.565 22.0631 329.876 15.2328 314.286C3.62976 287.607 10.1743 265.073 23.492 239.324Z" fill="#BE4E1E"/>
<path d="M302.821 377.717C302.264 377.717 296.706 340.15 293.062 331.619C289.632 323.574 216.199 228.092 216.199 228.092L198.909 283.821L206.325 313.629L246.335 361.77L257.638 396.664L302.821 377.717Z" fill="#BE4E1E"/>
<path d="M8.68817 267.874C13.961 234.451 39.9963 235.909 39.9963 235.909L65.8744 280.934V374.044L190.721 384.847L193.036 416.198C193.036 416.198 68.6466 444.634 39.9106 435.103C20.8913 428.801 4.83 412.897 3.0724 386.905C1.3148 360.912 3.40109 301.311 8.68817 267.874Z" fill="#BE4E1E"/>
<path d="M246.207 361.712C246.57 359.583 247.047 357.475 247.636 355.397C249.202 350.404 252.028 345.899 255.843 342.317C259.658 338.735 264.331 336.197 269.413 334.948C271.526 334.474 273.663 334.111 275.814 333.862C275.226 333.792 274.631 333.792 274.043 333.862C272.441 333.928 270.848 334.138 269.284 334.491C264.07 335.646 259.265 338.189 255.379 341.851C251.492 345.514 248.668 350.16 247.207 355.296C246.757 356.837 246.451 358.415 246.293 360.012C246.194 360.573 246.165 361.144 246.207 361.712Z" fill="black"/>
<path d="M186.448 383.561C186.27 383.513 186.089 383.48 185.905 383.461L184.319 383.233L178.203 382.418L155.669 379.56L81.3641 370.529L64.8456 368.557L65.1742 368.915C64.2168 343.594 63.7453 321.274 63.9167 305.284C63.9167 297.296 64.0882 290.88 64.1882 286.465C64.1882 284.293 64.2883 282.592 64.3168 281.406V280.092C64.3168 279.791 64.3168 279.649 64.3168 279.634C64.3019 279.786 64.3019 279.939 64.3168 280.092C64.3168 280.42 64.3168 280.849 64.2311 281.392C64.2311 282.592 64.0882 284.25 63.9882 286.465C63.8024 290.866 63.6024 297.282 63.4881 305.284C63.2309 321.274 63.5738 343.622 64.5026 368.929V369.243H64.817L81.3355 371.229L155.712 380.046L178.261 382.632L184.405 383.29L186.005 383.447L186.448 383.561Z" fill="black"/>
<path d="M1.37198 383.561C1.35287 383.751 1.35287 383.942 1.37198 384.132C1.37198 384.533 1.37196 385.09 1.4577 385.79C1.58713 387.921 1.83037 390.044 2.18643 392.149C2.74788 395.488 3.5648 398.78 4.62996 401.994C6.08911 406.24 8.0461 410.298 10.46 414.083C13.3971 418.692 17.1044 422.762 21.42 426.115C26.3794 429.965 32.1113 432.699 38.2243 434.131C41.5152 434.922 44.8576 435.481 48.2269 435.803C51.7329 436.117 55.2528 436.251 58.7725 436.203C66.1528 436.054 73.5124 435.366 80.7925 434.145L122.961 427.215L141.351 424.157L157.369 421.199C167.129 419.37 175.045 417.984 180.533 417.155L186.863 416.226L188.506 415.998C188.696 415.981 188.883 415.943 189.063 415.884H188.506L186.849 416.055C185.42 416.212 183.248 416.455 180.49 416.841C174.988 417.584 167.058 418.899 157.269 420.656L141.28 423.514L122.875 426.501L80.7068 433.388C73.4517 434.623 66.1159 435.325 58.7582 435.489C55.1859 435.489 51.6993 435.389 48.2841 435.117C44.9534 434.81 41.649 434.266 38.3958 433.488C32.3607 432.092 26.6974 429.411 21.7915 425.629C17.5164 422.338 13.8341 418.341 10.903 413.812C8.48584 410.072 6.51479 406.063 5.03006 401.866C3.93871 398.685 3.08376 395.427 2.47224 392.12C2.00069 389.391 1.71489 387.248 1.61487 385.79L1.44341 384.132C1.43269 383.941 1.40884 383.75 1.37198 383.561Z" fill="black"/>
<path d="M189.821 385.862C189.879 385.671 189.917 385.474 189.935 385.276C190.006 384.833 190.107 384.247 190.207 383.532C190.435 381.932 190.764 379.703 191.164 376.874V376.974L200.623 366.499C202.467 363.87 204.133 361.12 205.611 358.269C207.262 355.022 208.722 351.683 209.983 348.266C212.771 340.544 214.688 332.536 215.699 324.389C216.696 315.57 216.902 306.68 216.313 297.824C215.87 289.68 215.027 282.363 214.227 276.247C213.427 270.132 212.669 265.202 212.126 261.787L211.483 257.871C211.412 257.457 211.355 257.128 211.298 256.857C211.287 256.739 211.258 256.623 211.212 256.514C211.199 256.628 211.199 256.743 211.212 256.857C211.212 257.143 211.212 257.471 211.326 257.886C211.455 258.857 211.612 260.172 211.826 261.829C212.284 265.245 212.955 270.189 213.698 276.319C214.441 282.449 215.113 289.737 215.556 297.882C216.102 306.691 215.882 315.531 214.899 324.303C213.903 332.4 212.025 340.363 209.297 348.052C208.063 351.434 206.632 354.74 205.01 357.954C203.564 360.79 201.937 363.53 200.138 366.156L190.807 376.759L190.035 383.432C189.964 384.161 189.906 384.747 189.849 385.19C189.8 385.41 189.79 385.638 189.821 385.862Z" fill="black"/>
<path d="M46.8552 389.334C47.7973 388.288 48.6617 387.176 49.4416 386.004C50.9991 383.904 53.1854 381.046 55.7432 378.002C58.301 374.959 60.7159 372.286 62.5021 370.4C63.5281 369.421 64.4831 368.371 65.36 367.257C64.1972 368.064 63.1242 368.993 62.1591 370.029C59.703 372.399 57.3799 374.904 55.2002 377.531C53.0052 380.14 50.9495 382.864 49.0415 385.69C48.1916 386.828 47.4591 388.048 46.8552 389.334Z" fill="black"/>
<path d="M272.271 382.303C273.328 376.202 278.887 371.444 278.887 371.444C278.887 371.444 281.544 364.013 285.517 362.055C289.489 360.098 292.662 364.013 296.12 362.956C299.578 361.898 306.994 361.627 309.38 362.956C311.767 364.285 314.682 371.701 314.682 371.701C317.087 371.798 319.441 372.433 321.569 373.558C323.373 374.49 324.934 375.831 326.127 377.474C327.163 377.07 328.297 376.991 329.379 377.246C330.461 377.501 331.44 378.079 332.186 378.903C333.636 380.597 334.721 382.572 335.373 384.704L337.259 389.763C337.622 390.534 337.789 391.383 337.745 392.235C337.599 392.935 337.22 393.565 336.67 394.022C336.12 394.479 335.43 394.735 334.715 394.75C333.989 394.753 333.27 394.603 332.605 394.31C331.94 394.017 331.345 393.588 330.857 393.049C329.885 392.089 329.027 391.02 328.299 389.863L327.828 393.178C327.828 393.178 327.042 398.422 322.798 398.736C319.869 398.965 316.696 395.564 316.696 395.564L309.28 394.764L308.223 402.18C307.734 403.609 306.8 404.844 305.558 405.703C304.316 406.562 302.831 407 301.321 406.953C298.663 406.953 295.234 402.452 295.234 402.452L288.332 405.095C288.332 405.095 280.387 410.668 276.672 408.81C275.633 408.284 274.804 407.421 274.321 406.361C273.838 405.302 273.73 404.109 274.014 402.98C272.428 401.182 271.174 399.116 270.313 396.879C269.313 393.706 271.156 388.405 272.271 382.303Z" fill="#FFBE9D"/>
<path d="M327.999 391.906C328.302 389.283 328.21 386.629 327.728 384.033C327.48 381.407 326.835 378.834 325.813 376.402C325.613 376.402 326.399 379.874 326.999 384.147C327.599 388.419 327.728 391.906 327.999 391.906Z" fill="#EB996E"/>
<path d="M316.411 384.933C315.96 386.736 315.749 388.59 315.782 390.448C315.63 391.791 315.766 393.15 316.182 394.435C316.596 395.435 317.182 395.864 317.225 395.75C317.268 395.635 316.925 395.192 316.682 394.321C316.437 393.074 316.384 391.797 316.525 390.534C316.743 388.67 316.704 386.786 316.411 384.933Z" fill="#EB996E"/>
<path d="M311.466 381.775C311.324 381.918 312.295 383.204 313.653 384.518C315.01 385.833 316.211 386.89 316.368 386.748C316.525 386.605 315.539 385.319 314.181 384.004C312.824 382.689 311.609 381.632 311.466 381.775Z" fill="#EB996E"/>
<path d="M310.481 367.514C310.32 368.851 310.263 370.198 310.309 371.544C310.309 374.044 310.209 377.474 310.009 381.26C309.809 385.047 309.509 388.476 309.295 390.963C309.092 392.296 309.005 393.644 309.037 394.992C309.432 393.699 309.691 392.367 309.809 391.02C310.166 388.548 310.538 385.118 310.752 381.303C310.966 377.488 310.938 374.044 310.838 371.544C310.859 370.192 310.739 368.841 310.481 367.514Z" fill="#EB996E"/>
<path d="M282.673 370.358C282.673 370.358 282.988 371.072 283.488 372.358C284.185 374.179 284.739 376.052 285.145 377.959C285.403 379.188 285.674 380.517 285.974 381.932C286.258 383.481 286.679 385.001 287.232 386.476C287.849 388.142 288.887 389.619 290.247 390.763C290.989 391.407 291.873 391.865 292.827 392.101C293.781 392.337 294.777 392.344 295.734 392.12C296.728 391.896 297.627 391.366 298.306 390.606C298.932 389.85 299.333 388.934 299.463 387.962C299.666 386.226 299.7 384.475 299.563 382.732C299.401 379.808 298.952 376.908 298.22 374.073C297.729 372.162 297.099 370.29 296.334 368.471C296.062 367.828 295.848 367.342 295.677 367.042C295.604 366.868 295.508 366.705 295.391 366.557C295.569 367.252 295.793 367.934 296.062 368.6C296.719 370.438 297.267 372.313 297.706 374.216C298.356 377.032 298.748 379.902 298.877 382.789C298.991 384.476 298.948 386.169 298.749 387.848C298.632 388.687 298.286 389.479 297.749 390.134C297.166 390.773 296.404 391.222 295.562 391.42C294.714 391.615 293.832 391.607 292.987 391.396C292.143 391.185 291.36 390.777 290.704 390.205C289.429 389.134 288.446 387.758 287.846 386.204C286.948 383.453 286.209 380.653 285.631 377.817C285.183 375.898 284.551 374.027 283.745 372.229C283.522 371.738 283.269 371.261 282.988 370.8C282.816 370.5 282.702 370.343 282.673 370.358Z" fill="#EB996E"/>
<path d="M279.873 373.573C280.073 375.157 280.773 376.637 281.869 377.798C282.966 378.959 284.404 379.741 285.974 380.031C284.723 379.205 283.533 378.288 282.416 377.288C281.477 376.114 280.627 374.872 279.873 373.573Z" fill="#EB996E"/>
<path d="M295.219 392.049C294.75 394.033 294.63 396.083 294.862 398.108C294.938 399.91 295.192 401.7 295.62 403.452V403.552C295.673 403.58 295.732 403.595 295.792 403.597C295.853 403.598 295.912 403.586 295.967 403.561C296.022 403.537 296.071 403.5 296.11 403.454C296.149 403.408 296.176 403.353 296.191 403.295C296.191 403.152 296.191 403.095 296.191 403.095C296.191 403.095 296.191 403.166 296.091 403.223C295.991 403.281 295.891 403.338 295.848 403.223L295.934 403.338C295.934 402.366 295.72 400.337 295.591 397.993C295.607 396.006 295.483 394.019 295.219 392.049Z" fill="#EB996E"/>
<path d="M278.401 386.133C278.952 387.042 279.604 387.886 280.344 388.648C281.982 390.552 283.418 392.621 284.631 394.821C285.837 397.017 286.522 399.462 286.632 401.966C286.632 403.895 286.303 405.066 286.431 405.095C286.932 404.129 287.183 403.053 287.16 401.966C287.203 399.344 286.558 396.757 285.288 394.464C284.029 392.207 282.472 390.131 280.659 388.291C280.001 387.478 279.242 386.753 278.401 386.133Z" fill="#EB996E"/>
<path d="M281.33 399.308C281.777 397.701 281.702 395.994 281.117 394.433C280.531 392.871 279.465 391.536 278.072 390.62C273.085 387.076 258.153 377.759 257.838 377.759C257.524 377.759 240.305 372.043 233.061 371.3C225.816 370.557 194.108 386.304 194.108 386.304C194.108 386.304 186.749 396.907 187.935 407.081C189.121 417.255 195.751 417.841 195.751 417.841L204.953 415.598L214.441 413.783C214.441 413.783 235.433 419.627 238.733 418.555C242.034 417.484 243.177 413.897 239.605 411.954C236.033 410.01 225.759 406.967 225.759 406.967L217.857 403.623L243.578 407.295C243.578 407.295 265.326 411.582 267.87 410.982C270.413 410.382 270.799 408.481 271.013 406.695C271.013 406.695 279.773 410.982 282.373 408.639C284.974 406.295 286.117 401.194 281.33 399.308Z" fill="#FFBE9D"/>
<path d="M225.816 393.049C226.453 393.152 227.1 393.185 227.745 393.149C228.974 393.149 230.76 393.149 232.96 393.292C235.527 393.408 238.077 393.767 240.577 394.364C242.05 394.739 243.485 395.251 244.864 395.893C246.292 396.55 247.721 397.322 249.15 398.179C250.608 399.013 252.127 399.734 253.694 400.337C255.16 400.878 256.694 401.21 258.253 401.323C260.82 401.324 263.38 401.611 265.883 402.18C267.517 402.7 268.96 403.695 270.027 405.038C270.389 405.56 270.709 406.109 270.985 406.681C270.985 406.681 270.985 406.495 270.899 406.181C270.751 405.72 270.539 405.283 270.27 404.881C269.241 403.396 267.764 402.28 266.055 401.694C263.525 401.033 260.924 400.682 258.31 400.651C255.199 400.287 252.21 399.228 249.565 397.55C248.136 396.736 246.707 395.907 245.192 395.235C243.782 394.591 242.313 394.084 240.805 393.721C238.261 393.126 235.659 392.815 233.046 392.792C230.817 392.792 229.031 392.792 227.788 392.877C227.126 392.873 226.466 392.93 225.816 393.049Z" fill="#EB996E"/>
<path d="M233.589 382.203C233.737 382.301 233.895 382.383 234.061 382.446C234.361 382.589 234.832 382.775 235.49 382.989C237.243 383.53 239.034 383.94 240.848 384.218C243.12 384.618 245.864 384.918 248.779 385.647C251.92 386.596 254.937 387.915 257.767 389.577C263.04 392.511 268.546 395.005 274.228 397.036C276.4 397.807 278.187 398.379 279.43 398.75C280.06 398.979 280.711 399.146 281.373 399.251C280.781 398.933 280.159 398.674 279.515 398.479L274.414 396.536C268.814 394.377 263.371 391.832 258.124 388.919C255.241 387.23 252.16 385.906 248.95 384.975C246.301 384.377 243.62 383.928 240.92 383.632C239.121 383.404 237.337 383.075 235.576 382.646C234.922 382.462 234.259 382.314 233.589 382.203Z" fill="#EB996E"/>
<path d="M212.712 388.334C212.901 387.776 213.04 387.202 213.127 386.619C213.468 385.282 214.127 384.048 215.048 383.021C215.968 381.993 217.123 381.203 218.414 380.717C218.982 380.564 219.537 380.363 220.071 380.117C220.071 380.031 219.357 379.946 218.242 380.217C216.795 380.607 215.49 381.406 214.484 382.518C213.486 383.637 212.836 385.022 212.612 386.505C212.463 387.111 212.497 387.748 212.712 388.334Z" fill="#EB996E"/>
<path d="M200.824 404.381C200.85 403.577 200.921 402.776 201.038 401.98C201.525 400.122 202.622 398.482 204.153 397.322C205.729 396.177 207.468 395.277 209.311 394.65C210.114 394.437 210.883 394.115 211.598 393.692C210.763 393.703 209.937 393.858 209.154 394.149C207.182 394.656 205.325 395.534 203.681 396.736C202.014 397.994 200.886 399.837 200.523 401.894C200.316 402.732 200.423 403.616 200.824 404.381Z" fill="#EB996E"/>
<path d="M270.928 406.667C271.291 406.991 271.713 407.243 272.171 407.41C273.364 407.972 274.596 408.45 275.857 408.839C276.726 409.142 277.614 409.386 278.515 409.568C279.603 409.711 280.708 409.598 281.745 409.239C282.33 409.025 282.864 408.69 283.311 408.257C283.759 407.824 284.112 407.302 284.345 406.724C284.936 405.55 285.175 404.23 285.031 402.923C284.882 401.937 284.373 401.041 283.602 400.408C282.945 399.83 282.209 399.349 281.416 398.979L281.602 399.408C282.183 397.637 282.05 395.709 281.23 394.035C280.55 392.78 279.633 391.669 278.529 390.763C277.822 390.173 277.067 389.642 276.272 389.177C275.998 388.98 275.694 388.83 275.372 388.734C275.3 388.834 276.529 389.548 278.229 391.091C279.233 392.008 280.066 393.097 280.687 394.307C281.392 395.85 281.474 397.606 280.916 399.208L280.83 399.479L281.102 399.622C282.445 400.322 284.059 401.351 284.217 403.037C284.336 404.2 284.128 405.373 283.617 406.424C283.427 406.918 283.136 407.367 282.762 407.741C282.387 408.115 281.939 408.406 281.445 408.596C280.531 408.931 279.555 409.058 278.587 408.967C277.709 408.809 276.841 408.604 275.986 408.353C274.4 407.91 273.128 407.467 272.271 407.153C271.841 406.944 271.391 406.781 270.928 406.667Z" fill="#EB996E"/>
<path d="M160.213 117.606C163.314 86.6555 169.873 55.8476 168.515 24.7252L193.965 40.6151C192.693 52.9325 203.767 62.4779 210.183 73.052C214.023 79.5119 216.275 86.7905 216.754 94.29C217.234 101.789 215.927 109.296 212.941 116.192C210.655 121.336 207.411 126.194 206.568 131.767C205.139 141.17 210.955 150.729 208.811 160.003C206.354 170.677 193.293 176.536 182.762 173.535C172.23 170.534 164.686 160.675 161.585 150.229C158.484 139.784 159.127 128.509 160.213 117.606Z" fill="#263238"/>
<path d="M192.593 35.3851C191.185 27.8331 187.794 20.7912 182.768 14.9812C177.743 9.17111 171.262 4.80185 163.992 2.32113C156.721 -0.159591 148.922 -0.662554 141.393 0.863799C133.864 2.39015 126.876 5.89093 121.146 11.0073C116.502 15.1656 112.701 20.3526 107.328 23.5106C101.255 27.0686 100.469 25.8683 93.7815 28.026C87.0941 30.1837 73.9907 47.6454 73.7764 54.6758L68.575 85.2551C68.4036 92.4713 77.4059 97.1153 84.3791 95.2577C91.3524 93.4001 96.2679 87.2414 100.269 81.2112C104.27 75.1811 108.071 68.6508 114.23 64.8641C124.447 58.5911 137.564 61.7919 149.139 64.8641C160.713 67.9364 174.159 70.5799 183.791 63.4352C192.021 57.2193 194.479 45.502 192.593 35.3851Z" fill="#263238"/>
<path d="M196.28 79.6822C196.28 59.5628 184.434 34.1705 164.343 35.085L101.041 47.0881C98.094 47.2185 95.3039 48.4513 93.2236 50.5422C91.1433 52.6331 89.9246 55.4295 89.8092 58.3767L87.4229 209.13H86.9942C86.9942 209.13 108.986 264.43 150.996 254.056C159.327 251.998 153.168 231.264 155.369 222.176L155.783 222.262C155.869 221.162 155.941 220.147 156.026 219.104C157.256 212.303 157.768 205.392 157.555 198.484C158.427 186.353 158.727 181.337 158.727 181.494C158.727 181.651 184.591 178.779 191.907 145.699C195.537 129.324 196.351 102.045 196.28 79.6822Z" fill="#FFBE9D"/>
<path d="M185.105 106.003C185.05 107.12 184.56 108.171 183.74 108.932C182.921 109.693 181.836 110.103 180.718 110.076C180.17 110.087 179.625 109.989 179.116 109.786C178.607 109.583 178.143 109.28 177.753 108.895C177.362 108.51 177.053 108.051 176.843 107.545C176.634 107.038 176.528 106.494 176.532 105.946C176.587 104.829 177.077 103.778 177.897 103.018C178.716 102.257 179.801 101.846 180.918 101.874C181.467 101.862 182.011 101.961 182.521 102.164C183.03 102.366 183.494 102.669 183.884 103.054C184.275 103.439 184.584 103.899 184.793 104.405C185.003 104.912 185.109 105.455 185.105 106.003Z" fill="#263238"/>
<path d="M189.521 93.5001C188.963 94.0288 185.863 91.4281 181.247 91.1709C176.632 90.9137 173.116 93 172.673 92.4141C172.43 92.1426 173.045 91.1709 174.574 90.185C176.654 88.919 179.075 88.3299 181.504 88.4988C183.879 88.6685 186.139 89.5837 187.963 91.1138C189.392 92.2283 189.806 93.2715 189.521 93.5001Z" fill="#263238"/>
<path d="M143.523 103.674C143.467 104.791 142.978 105.842 142.158 106.603C141.339 107.364 140.254 107.774 139.136 107.747C138.588 107.758 138.043 107.66 137.534 107.457C137.024 107.254 136.561 106.951 136.17 106.566C135.78 106.181 135.471 105.722 135.261 105.215C135.052 104.709 134.945 104.165 134.949 103.617C135.005 102.492 135.501 101.435 136.33 100.673C137.159 99.9109 138.254 99.5056 139.379 99.5445C139.924 99.5388 140.464 99.6416 140.968 99.8469C141.473 100.052 141.931 100.356 142.317 100.74C142.703 101.125 143.008 101.582 143.215 102.086C143.422 102.59 143.527 103.13 143.523 103.674Z" fill="#263238"/>
<path d="M144.152 91.6425C143.594 92.1569 140.494 89.5706 135.878 89.2991C131.263 89.0276 127.748 91.1424 127.305 90.5423C127.076 90.2708 127.662 89.2991 129.205 88.3131C131.287 87.0533 133.707 86.4646 136.135 86.6269C138.531 86.7713 140.821 87.6662 142.68 89.1847C144.009 90.3565 144.438 91.3996 144.152 91.6425Z" fill="#263238"/>
<path d="M158.827 126.837C158.827 126.566 161.685 126.251 166.4 125.937C167.586 125.937 168.715 125.708 168.958 124.923C169.131 123.711 168.932 122.475 168.387 121.379C167.443 118.521 166.472 115.42 165.443 112.219C161.37 99.1588 158.513 88.456 159.041 88.2988C159.57 88.1416 163.328 98.5872 167.358 111.633L170.144 120.864C170.804 122.324 170.921 123.971 170.473 125.508C170.279 125.916 169.994 126.274 169.639 126.554C169.285 126.834 168.871 127.029 168.429 127.123C167.767 127.261 167.09 127.314 166.415 127.28C161.728 127.252 158.827 127.095 158.827 126.837Z" fill="#263238"/>
<path d="M158.727 181.58C142.986 180.867 127.751 175.802 114.716 166.948C114.716 166.948 124.604 190.883 158.213 189.811L158.727 181.58Z" fill="#EB996E"/>
<path d="M156.212 137.826C155.403 136.668 154.312 135.735 153.041 135.118C151.771 134.5 150.363 134.217 148.953 134.296C147.931 134.322 146.925 134.555 145.996 134.983C145.067 135.41 144.236 136.023 143.552 136.783C142.888 137.513 142.465 138.43 142.34 139.409C142.215 140.388 142.393 141.381 142.851 142.256C143.541 143.128 144.475 143.775 145.534 144.113C146.592 144.452 147.728 144.467 148.796 144.156C151.021 143.517 153.096 142.438 154.897 140.984C155.452 140.651 155.937 140.214 156.326 139.698C156.511 139.454 156.619 139.161 156.637 138.856C156.655 138.55 156.581 138.247 156.426 137.983" fill="#EB996E"/>
<path d="M145.095 129.209C145.852 129.209 145.566 134.211 149.625 138.012C153.683 141.813 159.056 141.598 159.056 142.299C159.056 142.613 157.812 143.199 155.555 143.127C152.621 142.995 149.827 141.831 147.667 139.841C145.595 137.928 144.35 135.283 144.195 132.467C144.095 130.367 144.738 129.152 145.095 129.209Z" fill="#263238"/>
<path d="M146.367 74.1666C145.838 75.3955 141.265 74.5239 135.821 74.8525C130.377 75.1812 125.904 76.3815 125.261 75.2098C124.975 74.6525 125.804 73.5236 127.633 72.3519C130.078 71.0052 132.798 70.2333 135.586 70.0946C138.374 69.956 141.157 70.4543 143.723 71.5517C145.652 72.5376 146.524 73.5808 146.367 74.1666Z" fill="#263238"/>
<path d="M188.635 80.0539C187.763 81.0541 184.648 79.7824 180.833 79.4966C177.017 79.2108 173.688 79.7824 173.059 78.6392C172.759 78.0819 173.331 77.0674 174.817 76.1671C176.784 75.0873 179.029 74.6192 181.264 74.8229C183.5 75.0265 185.623 75.8926 187.363 77.3103C188.649 78.4677 189.021 79.568 188.635 80.0539Z" fill="#263238"/>
<path d="M163.771 26.4829L161.17 22.6819C141.739 23.6889 122.534 27.3327 104.084 33.5133C96.7109 35.9853 89.2233 39.029 83.9362 44.7304C76.6486 52.561 74.8624 63.8783 73.4335 74.481C67.9749 114.82 62.945 156.417 73.2906 195.798C76.6629 191.054 82.8073 189.211 88.5803 188.453C94.3532 187.696 100.369 187.725 105.728 185.395C108.638 184.063 111.237 182.136 113.358 179.739C115.48 177.342 117.076 174.528 118.045 171.478C119.954 165.321 119.635 158.689 117.145 152.744C114.444 146.128 109.314 139.584 111.1 132.739C112.972 125.494 121.646 121.822 124.075 114.749C128.262 102.517 111.5 90.2565 115.802 78.0676C117.402 73.5665 121.603 70.48 126.004 68.6223C130.405 66.7647 135.149 65.8645 139.593 64.1355C146.983 61.0744 153.259 55.8268 157.581 49.0967C161.902 42.3665 164.062 34.4758 163.771 26.4829Z" fill="#263238"/>
<path d="M64.917 46.4166C85.6938 17.2947 99.7689 13.7653 119.317 12.6793L92.1669 73.5522C88.0944 83.3547 82.4929 95.2435 81.6213 105.803C80.5925 118.335 84.9365 128.824 90.7522 139.955C97.7255 153.33 105.385 166.076 117.373 175.221C129.362 184.367 156.055 195.87 169.916 189.939L150.582 200.757L104.399 200.928L50.599 201.142C50.599 201.142 44.3117 195.627 38.7817 181.394C24.9066 145.742 41.7396 78.8964 64.917 46.4166Z" fill="#691D1C"/>
<path d="M26.607 236.094C26.607 236.094 38.1815 212.345 53.2854 199.285C68.3893 186.224 77.6631 186.353 99.2116 188.182C120.76 190.011 150.911 193.412 158.055 191.597L158.727 181.594C162.271 181.237 176.803 174.164 179.632 169.891C185.034 175.421 187.391 181.323 186.163 187.596L189.692 188.925C194.899 190.83 199.222 194.585 201.836 199.474C204.451 204.363 205.174 210.044 203.867 215.432C202.524 220.576 199.28 223.734 192.764 224.863C166.9 229.335 97.754 210.645 76.9343 210.573C56.1147 210.502 26.607 236.094 26.607 236.094Z" fill="#691D1C"/>
<path d="M195.108 224.591C194.501 224.573 193.894 224.607 193.293 224.691C192.121 224.806 190.435 224.991 188.163 225.148C181.86 225.64 175.532 225.745 169.215 225.463C159.858 224.981 150.556 223.719 141.408 221.69C136.235 220.562 130.848 219.19 125.318 217.589L108.257 212.317C96.5537 208.759 84.8221 206.329 74.0908 207.387C64.636 208.251 55.4856 211.178 47.2838 215.96C41.7775 219.187 36.7993 223.24 32.5229 227.978C31.3609 229.258 30.2731 230.603 29.2649 232.007C28.8913 232.458 28.5522 232.935 28.2504 233.436C28.7011 233.037 29.1039 232.586 29.4507 232.093C30.1794 231.164 31.3369 229.864 32.8658 228.235C43.7702 216.813 58.4602 209.753 74.1908 208.373C84.7078 207.401 96.2537 209.802 107.914 213.345C113.758 215.103 119.431 216.975 124.99 218.59C130.548 220.204 135.964 221.548 141.18 222.648C150.394 224.647 159.765 225.833 169.187 226.192C175.535 226.404 181.891 226.17 188.206 225.491C190.435 225.263 192.164 225.006 193.322 224.82C193.922 224.795 194.52 224.719 195.108 224.591Z" fill="#263238"/>
<path d="M25.3639 228.292C51.4563 194.369 101.484 181.409 140.779 198.384L182.219 207.172C193.15 209.059 210.683 212.617 211.512 222.748C212.269 233.477 209.933 244.199 204.782 253.642C195.151 270.417 200.381 292.895 190.75 309.67C186.206 317.601 181.561 325.646 174.931 331.948C168.301 338.249 159.299 342.665 150.21 341.679C140.094 340.593 131.806 333.205 125.375 325.317C111.529 308.327 102.884 287.693 89.9235 270.031C76.963 252.37 61.6733 239.366 34.4377 237.695C29.4935 237.38 15.3899 243.968 15.3899 243.968C14.9898 241.967 24.1207 229.878 25.3639 228.292Z" fill="#691D1C"/>
<g opacity="0.3">
<path d="M81.1354 208.116C99.1544 208.116 116.859 216.775 134.321 220.633C204.567 236.094 204.567 209.602 204.567 209.602C206.768 222.048 195.079 227.764 182.776 230.621C159.284 236.051 134.192 238.966 117.245 233.551C103.584 229.264 89.3233 226.077 75.534 222.119C61.7447 218.161 41.8824 219.676 31.4369 229.478C40.7821 214.117 63.1165 208.073 81.1354 208.116Z" fill="black"/>
</g>
<g opacity="0.3">
<path d="M172.431 206.215C171.591 208.055 170.365 209.693 168.837 211.017C167.308 212.341 165.512 213.32 163.571 213.888C159.68 215.01 155.607 215.359 151.582 214.917C136.893 213.917 122.775 209.016 108.871 204.157C119.988 203.771 130.748 207.644 141.651 209.873C152.554 212.102 164.843 212.245 173.702 205.586" fill="black"/>
</g>
<path d="M21.8343 239.166C21.8343 239.166 21.9629 239.066 22.163 238.852L23.0346 237.852C23.792 236.951 24.9494 235.694 26.4784 234.094C30.783 229.567 35.986 225.99 41.7538 223.591C45.7791 222.072 50.0068 221.157 54.2999 220.876C59.2222 220.477 64.174 220.635 69.0609 221.347C79.435 222.776 90.3949 226.42 102.026 229.735C113.658 233.05 124.761 236.509 135.321 237.066C144.631 237.467 153.956 236.801 163.114 235.08C170.916 233.651 177.132 231.993 181.433 230.921L186.377 229.664L187.649 229.321L188.092 229.178C187.94 229.156 187.786 229.156 187.634 229.178L186.334 229.45L181.361 230.578C177.075 231.564 170.816 233.122 163.014 234.494C153.895 236.14 144.62 236.754 135.364 236.323C124.918 235.737 113.801 232.436 102.227 228.964C90.6521 225.491 79.6207 221.99 69.1609 220.604C64.2193 219.907 59.2146 219.773 54.2427 220.204C48.9109 220.511 43.6931 221.874 38.8924 224.214C34.0918 226.554 29.8041 229.825 26.2784 233.836C24.7637 235.48 23.6348 236.766 22.9203 237.695L22.1058 238.738L21.8343 239.166Z" fill="black"/>
<path d="M48.0697 204.214C48.1776 204.144 48.2781 204.062 48.3698 203.972L49.1986 203.214C49.8988 202.528 50.999 201.571 52.428 200.356C56.5433 197.03 61.0551 194.227 65.86 192.011C72.9914 188.744 80.5732 186.567 88.3516 185.552C97.8856 184.369 107.531 184.393 117.059 185.624C126.596 186.885 136.059 188.649 145.409 190.911C149.54 191.881 153.794 192.219 158.027 191.911C161.748 191.633 165.322 190.338 168.358 188.167C170.794 186.317 172.876 184.042 174.502 181.451C175.73 179.518 176.796 177.487 177.689 175.378C178.418 173.649 178.904 172.263 179.218 171.32L179.547 170.248C179.594 170.13 179.623 170.004 179.632 169.877C179.632 169.877 179.561 169.991 179.475 170.22C179.389 170.449 179.232 170.849 179.075 171.277C178.718 172.192 178.189 173.549 177.417 175.264C176.485 177.333 175.39 179.325 174.145 181.223C172.517 183.742 170.45 185.949 168.044 187.739C165.066 189.819 161.579 191.048 157.955 191.297C153.791 191.567 149.61 191.211 145.552 190.239C136.19 187.931 126.706 186.147 117.145 184.895C107.553 183.658 97.8428 183.658 88.2515 184.895C80.4164 185.958 72.7888 188.208 65.6314 191.568C60.812 193.827 56.3104 196.71 52.2422 200.142C51.1394 201.078 50.0853 202.07 49.0843 203.114L48.3126 203.914C48.1411 204.114 48.0554 204.2 48.0697 204.214Z" fill="black"/>
<path d="M56.5005 203.514H56.8577L57.9151 203.343L61.9876 202.671C66.9783 201.903 72.0054 201.393 77.0487 201.142C84.5338 200.774 92.0365 201.013 99.483 201.857C108.593 203.079 117.621 204.85 126.519 207.158C136.007 209.444 145.238 211.445 153.797 211.316C157.837 211.342 161.865 210.862 165.786 209.887C169.205 208.921 172.368 207.208 175.045 204.872C178.888 201.514 182.009 197.411 184.219 192.812C185.06 191.146 185.726 189.399 186.205 187.596C186.137 187.697 186.084 187.808 186.048 187.925L185.663 188.925C185.305 189.811 184.762 191.083 183.962 192.669C181.678 197.171 178.532 201.181 174.703 204.472C172.065 206.719 168.968 208.363 165.629 209.287C161.757 210.229 157.782 210.685 153.797 210.645C145.338 210.645 136.178 208.744 126.647 206.444C117.716 204.117 108.649 202.352 99.4973 201.157C92.014 200.351 84.477 200.164 76.963 200.599C71.9034 200.893 66.865 201.48 61.8733 202.357C60.1014 202.686 58.744 202.957 57.8152 203.171L56.772 203.414C56.6005 203.457 56.5005 203.5 56.5005 203.514Z" fill="black"/>
<path d="M55.1859 139.383C55.3136 140.195 55.495 140.997 55.7289 141.784C55.9519 142.723 56.2287 143.649 56.5577 144.556C56.9292 145.628 57.2865 146.857 57.8581 148.157C58.4296 149.457 58.9869 150.915 59.7442 152.444C60.5016 153.973 61.3447 155.502 62.2735 157.145C66.4459 164.169 71.8758 170.364 78.2919 175.421C79.7923 176.564 81.1498 177.665 82.5787 178.551C84.0077 179.437 85.2937 180.28 86.5369 180.98C87.78 181.68 88.9232 182.252 89.9235 182.752C90.7799 183.2 91.6626 183.596 92.567 183.938C93.3114 184.281 94.0804 184.567 94.8676 184.795C94.1703 184.365 93.4391 183.992 92.6813 183.681C91.9669 183.352 91.0952 182.938 90.1092 182.38C89.1232 181.823 87.9801 181.294 86.7941 180.523C85.6081 179.751 84.2648 179.008 82.9216 178.036C81.5784 177.065 80.1638 176.021 78.6348 174.893C72.341 169.814 66.9746 163.684 62.7736 156.774C61.8448 155.159 60.9303 153.644 60.2158 152.158C59.5013 150.672 58.7869 149.3 58.2582 147.986C57.7294 146.671 57.2722 145.499 56.8292 144.456C56.3862 143.413 56.129 142.484 55.9004 141.741C55.7298 140.936 55.4908 140.148 55.1859 139.383Z" fill="black"/>
<path d="M57.3436 224.563C57.7315 224.562 58.1187 224.529 58.501 224.463L59.93 224.277C60.473 224.205 61.116 224.277 61.8162 224.177C65.8572 224.08 69.8831 224.704 73.705 226.02C76.3403 226.925 78.9051 228.023 81.3784 229.307C84.2111 230.799 86.9633 232.44 89.6234 234.222C95.2534 237.98 101.141 242.582 107.457 247.226L139.693 271.16L149.539 278.305L152.24 280.163C152.54 280.406 152.866 280.617 153.211 280.791C152.939 280.523 152.648 280.275 152.34 280.048L149.725 278.019L140.022 270.66L107.871 246.625C101.555 241.996 95.6678 237.395 89.9663 233.651C87.2793 231.869 84.4984 230.233 81.6356 228.749C79.1183 227.482 76.5105 226.402 73.8336 225.52C69.9493 224.234 65.8596 223.681 61.7733 223.891C61.0588 223.891 60.4158 223.962 59.8728 224.048L58.4438 224.305C58.0702 224.358 57.702 224.445 57.3436 224.563Z" fill="black"/>
<path d="M11.2317 268.374C11.5088 267.725 11.7194 267.05 11.8604 266.359C12.2034 265.059 12.6892 263.158 13.3751 260.843C14.1466 258.129 15.1259 255.477 16.3044 252.913C17.7369 249.792 19.6944 246.94 22.0917 244.482C24.4763 242.015 27.4598 240.208 30.751 239.238C33.4596 238.512 36.274 238.266 39.0674 238.509C41.6531 238.799 44.2199 239.238 46.7552 239.824C46.6016 239.721 46.4328 239.644 46.255 239.595C45.9121 239.466 45.4119 239.295 44.8261 239.109C42.9609 238.556 41.0469 238.182 39.1103 237.995C36.2408 237.66 33.334 237.858 30.5367 238.58C27.1157 239.549 24.0106 241.402 21.5344 243.953C19.0738 246.473 17.0804 249.41 15.6471 252.627C14.4758 255.236 13.52 257.936 12.7892 260.7C12.1748 263.044 11.7604 264.987 11.5032 266.302C11.353 266.983 11.2622 267.677 11.2317 268.374Z" fill="black"/>
<path d="M356.575 303.425C387.185 302.003 410.847 276.035 409.425 245.425C408.003 214.815 382.035 191.153 351.425 192.575C320.815 193.997 297.153 219.965 298.575 250.575C299.997 281.185 325.965 304.847 356.575 303.425Z" fill="white"/>
<path d="M307.8 279.57L307.349 278.776L305.979 276.504C305.683 275.99 305.341 275.429 304.967 274.822C304.593 274.215 304.313 273.468 303.94 272.689C303.566 271.911 303.177 271.133 302.756 270.198C302.527 269.748 302.334 269.279 302.18 268.797C302.009 268.299 301.822 267.801 301.635 267.241C299.75 262.191 298.642 256.884 298.351 251.501C297.92 244.372 298.861 237.227 301.122 230.453L302.103 227.62C302.492 226.67 302.943 225.751 303.364 224.802C303.566 224.335 303.784 223.868 304.002 223.385C304.2 222.898 304.439 222.43 304.718 221.984L306.275 219.197C306.539 218.73 306.804 218.263 307.084 217.796L308.049 216.457L309.996 213.748C310.665 212.861 311.459 212.036 312.206 211.164L313.343 209.872C313.53 209.67 313.716 209.436 313.919 209.234L314.557 208.642C316.227 206.964 318.011 205.404 319.897 203.972C320.862 203.271 321.796 202.415 322.824 201.808L325.937 199.893C326.467 199.581 326.98 199.223 327.494 198.943L329.191 198.134C330.328 197.604 331.448 197.013 332.616 196.577C335.017 195.622 337.477 194.821 339.98 194.179L341.879 193.697L342.844 193.463L343.825 193.323L347.764 192.731C349.103 192.591 350.442 192.56 351.796 192.482C352.465 192.482 353.15 192.373 353.835 192.482L355.875 192.576C358.636 192.677 361.387 192.963 364.11 193.432L368.205 194.413L369.232 194.662C369.575 194.755 369.902 194.88 370.244 194.989L372.252 195.689L374.276 196.374L376.238 197.246L378.199 198.149L379.18 198.585C379.507 198.756 379.803 198.943 380.13 199.13L383.897 201.294L387.478 203.847C397.087 211.048 404.083 221.187 407.405 232.726C407.779 234.143 408.137 235.575 408.495 236.976L409.149 241.288L409.305 242.363V243.437L409.414 245.585L409.523 247.734L409.429 249.866L409.336 251.999V253.058L409.196 254.101C408.993 255.502 408.806 256.888 408.62 258.273C408.068 260.987 407.334 263.66 406.424 266.275L405.771 268.206C405.553 268.86 405.226 269.451 404.961 270.074C404.385 271.304 403.887 272.549 403.264 273.732C402.641 274.916 401.941 276.052 401.287 277.204L400.789 278.06C400.602 278.341 400.4 278.605 400.213 278.87L399.076 280.427C397.573 282.524 395.935 284.521 394.172 286.405C393.285 287.323 392.335 288.148 391.432 289.02L390.047 290.297C389.595 290.717 389.066 291.075 388.583 291.449L385.657 293.691C384.66 294.391 383.586 294.983 382.543 295.621C380.547 296.865 378.466 297.968 376.316 298.922L375.537 299.295L374.728 299.607L373.171 300.183C372.081 300.556 371.038 301.008 369.964 301.319L366.726 302.144L365.169 302.549L363.612 302.798L360.499 303.281C359.984 303.371 359.464 303.423 358.942 303.436H357.385C356.357 303.436 355.33 303.577 354.271 303.592L351.267 303.468C344.134 303.117 337.135 301.393 330.654 298.392C329.938 298.065 329.222 297.77 328.537 297.443L326.607 296.322L324.739 295.263C324.427 295.076 324.116 294.921 323.836 294.734L323.01 294.142L319.897 291.9C318.916 291.153 318.075 290.344 317.219 289.627L316.005 288.569C315.615 288.245 315.245 287.897 314.9 287.526L312.798 285.658C312.222 285.035 311.661 284.474 311.241 283.93L310.042 282.373L308.485 280.271C308.127 279.804 307.925 279.57 307.925 279.57L308.454 280.302C308.812 280.8 309.342 281.501 310.011 282.435L311.179 283.992C311.646 284.552 312.206 285.113 312.736 285.735L314.604 287.775C314.945 288.155 315.315 288.509 315.709 288.833L316.923 289.908C317.764 290.624 318.605 291.465 319.585 292.196L322.699 294.469L323.524 295.061C323.82 295.263 324.131 295.419 324.427 295.606L326.295 296.68L328.241 297.816L330.359 298.782C336.867 301.828 343.904 303.583 351.08 303.95L354.1 304.09C355.112 304.09 356.155 303.997 357.214 303.95L358.77 303.857C359.292 303.855 359.813 303.808 360.327 303.717L363.519 303.234L365.076 302.985L366.632 302.58L369.902 301.755C370.976 301.444 372.035 301.008 373.124 300.634L374.759 300.043C375.024 299.934 375.304 299.856 375.568 299.731L376.362 299.358C378.548 298.398 380.665 297.29 382.699 296.042C383.726 295.403 384.8 294.812 385.812 294.111L388.77 291.854C389.268 291.465 389.782 291.122 390.327 290.702L391.713 289.41C392.616 288.538 393.596 287.697 394.484 286.779C396.262 284.879 397.916 282.867 399.434 280.754C399.808 280.209 400.197 279.679 400.586 279.197C400.773 278.932 400.976 278.668 401.162 278.387L401.661 277.515L403.669 274.028C404.292 272.829 404.805 271.568 405.381 270.339C405.646 269.7 405.989 269.093 406.207 268.455L406.86 266.493C407.783 263.859 408.521 261.165 409.071 258.429C409.273 257.043 409.476 255.627 409.663 254.226L409.818 253.167V252.093L409.912 249.96L410.005 247.796L409.896 245.632L409.772 243.468V242.363L409.6 241.288L408.946 236.945C408.588 235.513 408.23 234.08 407.857 232.648C404.572 220.974 397.55 210.698 387.867 203.396L384.255 200.811L380.441 198.632C380.13 198.445 379.819 198.258 379.492 198.087L378.495 197.635L376.518 196.732L374.541 195.861L372.502 195.16L370.462 194.46L369.45 194.117L368.407 193.884C367.037 193.541 365.652 193.214 364.282 192.903C361.534 192.421 358.756 192.129 355.968 192.031L353.913 191.938C353.228 191.938 352.543 191.938 351.858 191.938C350.488 192.031 349.134 192.046 347.795 192.187L343.809 192.794L342.829 192.949C342.502 192.949 342.175 193.105 341.863 193.183L339.933 193.681C337.412 194.319 334.936 195.125 332.523 196.094C331.339 196.592 330.203 197.2 329.051 197.729L327.354 198.554C326.794 198.834 326.28 199.192 325.797 199.519L322.684 201.45C321.656 202.135 320.706 202.929 319.741 203.645C317.841 205.077 316.041 206.637 314.355 208.315L313.716 208.922C313.514 209.125 313.327 209.358 313.14 209.576C312.953 209.794 312.377 210.448 311.988 210.868C311.241 211.756 310.431 212.581 309.778 213.468L307.816 216.208L306.851 217.563C306.571 218.03 306.306 218.512 306.041 218.979L304.484 221.782C304.214 222.235 303.98 222.708 303.784 223.198L303.13 224.631C302.71 225.58 302.258 226.514 301.885 227.464C301.511 228.414 301.231 229.379 300.904 230.328C298.645 237.146 297.725 244.335 298.195 251.501C298.506 256.91 299.645 262.24 301.573 267.303L302.134 268.86C302.288 269.341 302.48 269.81 302.71 270.261L303.924 272.752C304.313 273.514 304.625 274.231 304.983 274.869L306.01 276.535L307.427 278.792C307.614 279.306 307.8 279.57 307.8 279.57Z" fill="#263238"/>
<path d="M325.999 249.4L334.204 241.18L350.052 255.269L381.157 225.347L388.786 233.551L348.885 271.117L325.999 249.4Z" fill="#691D1C"/>
</svg>
