<svg width="270" height="270" viewBox="0 0 270 270" fill="none" xmlns="http://www.w3.org/2000/svg">
<circle cx="135" cy="135" r="135" fill="#FFF4DA"/>
<path d="M105.703 226V196.909H117.18C119.377 196.909 121.252 197.302 122.805 198.088C124.367 198.865 125.556 199.968 126.37 201.398C127.194 202.818 127.606 204.49 127.606 206.412C127.606 208.344 127.189 210.006 126.356 211.398C125.523 212.78 124.315 213.841 122.734 214.58C121.162 215.318 119.258 215.688 117.024 215.688H109.339V210.744H116.029C117.204 210.744 118.179 210.583 118.955 210.261C119.732 209.939 120.31 209.456 120.688 208.812C121.077 208.169 121.271 207.368 121.271 206.412C121.271 205.446 121.077 204.632 120.688 203.969C120.31 203.306 119.727 202.804 118.941 202.463C118.165 202.113 117.185 201.938 116.001 201.938H111.853V226H105.703ZM121.413 212.761L128.643 226H121.853L114.779 212.761H121.413ZM132.753 196.909H140.338L148.349 216.455H148.69L156.701 196.909H164.287V226H158.321V207.065H158.079L150.551 225.858H146.488L138.96 206.994H138.719V226H132.753V196.909Z" fill="#BE4E1E"/>
<path d="M105.05 136.324C105.322 136.306 105.592 136.266 105.856 136.202C107.335 135.71 109.285 135.605 110.145 134.586C111.005 133.567 109.285 132.081 109.018 130.686C108.813 129.625 108.696 128.18 107.994 127.683C107.197 127.149 105.79 127.508 104.654 127.487C103.927 127.487 103.196 127.516 102.47 127.487C100.987 127.391 100.001 126.372 100.001 124.981C99.9947 124.655 100.054 124.331 100.175 124.027C100.296 123.724 100.477 123.449 100.707 123.217C100.937 122.985 101.211 122.802 101.513 122.678C101.815 122.554 102.139 122.493 102.465 122.497C103.869 122.442 105.28 122.451 106.683 122.497C107.356 122.517 107.56 122.321 107.552 121.624C107.431 110.436 111.657 100.877 118.618 92.3661C120.498 90.0734 122.431 87.8225 124.302 85.5215C125.087 84.5527 125.801 83.5253 126.499 82.4938C127.263 81.3663 127.547 80.4392 126.403 79.1112C124.415 76.806 124.482 73.5487 126.265 70.9971C126.506 70.7071 126.657 70.3529 126.699 69.9782C126.741 69.6035 126.673 69.2246 126.503 68.8882C125.392 66.2071 124.031 63.6221 123.229 60.8158C122.636 58.7486 122.247 56.6397 122.594 54.4974C122.781 53.3782 123.191 52.3082 123.801 51.3514C124.411 50.3946 125.208 49.5707 126.144 48.929C127.079 48.2872 128.135 47.8409 129.247 47.6166C130.359 47.3922 131.505 47.3946 132.617 47.6235C134.007 47.844 135.342 48.3319 136.546 49.0601C137.666 49.7826 138.735 50.5802 139.996 51.4614C139.996 49.4318 139.996 47.5317 139.996 45.6148C139.996 44.575 139.223 45.001 138.764 44.9843C136.691 44.9275 134.656 44.4162 132.802 43.4865C130.949 42.5567 129.322 41.2312 128.037 39.6037C126.752 37.9761 125.84 36.0861 125.365 34.0674C124.891 32.0486 124.866 29.9503 125.292 27.9208C125.373 27.2451 125.68 26.6168 126.164 26.1382C126.648 25.6597 127.28 25.3592 127.956 25.2857C133.506 24.2792 138.121 25.9371 141.787 30.18C142.405 30.8983 142.581 30.8983 143.199 30.18C146.853 25.9163 151.48 24.2876 157.026 25.2857C158.546 25.5571 159.381 26.4049 159.69 27.9208C160.126 29.949 160.108 32.0485 159.637 34.0688C159.166 36.0892 158.254 37.9802 156.965 39.6064C155.677 41.2326 154.045 42.5536 152.187 43.4747C150.328 44.3958 148.288 44.8942 146.214 44.9341C145.141 44.9592 144.961 45.2891 144.961 46.2454C145.032 47.991 144.982 49.7408 144.982 51.6743C146.235 50.7681 147.275 49.9246 148.402 49.2397C150.582 47.9159 152.938 47.1182 155.531 47.5693C160.342 48.4421 163.081 52.5012 162.384 57.6253C162.082 59.8472 161.479 62.0178 160.592 64.0773C159.983 65.5097 159.402 66.9588 158.721 68.3536C158.199 69.4185 158.183 70.2203 158.926 71.2978C160.667 73.8326 160.383 77.1025 158.312 79.5414C157.648 80.3223 157.581 80.9111 158.091 81.7004C158.6 82.4897 159.018 83.3332 159.586 84.0682C163.165 88.7162 167.295 92.9257 170.481 98.0331C174.087 93.2539 176.673 87.7861 178.082 81.9677C179.332 76.8058 179.989 71.5181 180.04 66.2071C180.04 65.1297 179.71 64.9251 178.737 64.9543C176.762 65.0253 174.783 64.9543 172.803 64.9794C172.282 65.0171 171.762 64.8934 171.314 64.6252C170.865 64.3569 170.511 63.9571 170.297 63.4801C169.771 62.3818 170.105 61.4589 170.84 60.6153C176.514 54.1146 182.198 47.6124 187.891 41.1089C189.257 39.5595 190.781 39.5637 192.151 41.1089C197.816 47.5595 203.472 54.0227 209.118 60.4984C209.899 61.3879 210.296 62.3275 209.741 63.4885C209.185 64.6494 208.25 64.9835 207.06 64.971C205.184 64.9459 203.301 65.0378 201.439 64.9376C200.298 64.8749 199.977 65.1589 199.973 66.3575C199.935 73.9412 198.916 81.3914 196.465 88.5993C192.953 98.8975 186.893 107.329 177.869 113.526C177.159 114.011 176.866 114.453 177.013 115.41C177.752 120.241 177.643 125.052 176.265 129.784C176.119 130.285 175.726 130.782 176.511 131.225C179.944 133.154 181.038 138.186 178.842 142.308C178.3 143.374 177.596 144.349 176.754 145.198C168.226 153.454 159.661 161.672 150.369 169.089C148.249 170.767 146.035 172.321 143.738 173.745C141.65 175.048 139.424 175.053 137.114 174.81C128.762 173.938 120.585 172.175 112.346 170.726C110.258 170.359 108.17 169.866 106.011 169.929C105.355 169.929 105 170.058 104.783 170.764C104.395 172.017 103.405 172.476 102.127 172.472C95.6667 172.472 89.2105 172.472 82.7542 172.472C80.9042 172.472 79.9939 171.545 79.9939 169.661C79.9771 158.205 79.9771 146.75 79.9939 135.296C79.9939 133.35 80.9042 132.477 82.9171 132.473C89.1645 132.473 95.4133 132.473 101.664 132.473C104.144 132.473 104.896 133.204 105.004 135.689C104.992 135.877 105.05 136.077 105.05 136.324ZM142.635 82.4813C139.979 82.4813 137.319 82.5899 134.671 82.4437C132.942 82.3435 131.99 82.7695 131.143 84.4608C129.409 87.9186 126.578 90.6289 124.081 93.5521C117.879 100.818 113.265 108.786 112.647 118.609C112.367 123.09 112.81 127.424 114.768 131.554C115.278 132.619 115.841 133.141 117.128 132.807C118.957 132.31 120.84 132.448 122.711 132.703C128.503 133.484 134.066 135.209 139.578 137.038C141.376 137.643 143.321 137.652 145.124 137.063C153.146 134.741 161.185 132.469 169.266 130.339C170.723 129.959 171.283 129.354 171.609 128.017C173.279 121.039 172.406 114.286 169.876 107.684C167.487 101.462 163.353 96.3835 159.072 91.3973C156.938 88.9167 154.662 86.5196 153.322 83.4627C152.946 82.6275 152.486 82.473 151.689 82.4855C148.661 82.5064 145.642 82.4813 142.635 82.4813ZM104.975 153.262C104.975 156.803 105.004 160.34 104.95 163.882C104.95 164.784 105.213 165.051 106.082 164.98C107.752 164.842 109.398 165.151 111.043 165.435C119.078 166.834 127.079 168.429 135.16 169.611C138.388 170.083 141.19 169.824 143.93 167.749C154.545 159.718 164.088 150.501 173.609 141.256C175.163 139.744 175.534 137.589 174.561 136.286C173.392 134.72 171.68 134.737 170.014 135.2C162.559 137.263 155.126 139.376 147.671 141.464C146.936 141.669 146.836 141.857 147.033 142.613C148.703 148.877 143.796 153.759 137.503 152.109C132.984 150.923 128.482 149.67 123.976 148.443C122.197 147.958 121.383 146.772 121.796 145.285C122.21 143.799 123.467 143.168 125.254 143.64C129.773 144.83 134.287 146.046 138.801 147.24C140.697 147.741 141.95 147.148 142.385 145.569C142.777 144.162 142.055 143.064 140.296 142.475C135.738 140.885 131.093 139.551 126.386 138.478C123.396 137.827 120.414 137.063 117.295 137.785C113.235 138.725 109.477 140.592 105.422 141.544C104.691 141.715 104.975 142.279 104.975 142.68C104.963 146.183 104.975 149.72 104.975 153.262ZM175.735 108.966C184.634 102.598 190.126 94.0449 192.836 83.6047C194.586 76.8519 195.062 69.9739 195.012 63.0333C195.012 60.8826 195.901 59.9973 198.027 59.9722C199.254 59.9722 200.478 59.9722 201.994 59.9722C198.173 55.5999 194.519 51.4948 190.961 47.3103C190.126 46.3039 189.708 46.5586 189.006 47.3897C185.665 51.2609 182.304 55.0779 178.959 58.9282C178.712 59.208 178.265 59.4043 178.366 59.9764C179.723 59.9764 181.072 59.9388 182.416 59.9764C183.995 60.0307 184.968 60.9536 184.993 62.5113C185.223 76.8645 182.867 90.491 173.638 102.126C173.465 102.279 173.349 102.486 173.308 102.713C173.267 102.94 173.304 103.175 173.413 103.378C174.21 105.17 174.929 107.003 175.735 108.966ZM85.0052 152.431C85.0052 157.024 85.0469 161.581 84.9759 166.158C84.9759 167.281 85.285 167.511 86.3499 167.494C90.5259 167.427 94.6686 167.448 98.8322 167.494C99.6674 167.494 99.9889 167.323 99.9848 166.396C99.9514 157.141 99.9514 147.887 99.9848 138.633C99.9848 137.627 99.6674 137.439 98.7319 137.451C94.5224 137.501 90.3088 137.522 86.0993 137.451C85.0344 137.451 84.9592 137.869 84.9676 138.704C85.0302 143.277 85.0052 147.854 85.0052 152.431ZM155.556 62.9999C148.728 63.3423 143.145 61.1248 138.321 56.8109C136.931 55.5581 135.561 54.3053 133.932 53.3322C132.178 52.3091 130.362 52.0794 128.658 53.3072C127.075 54.4347 127.43 56.1428 127.685 57.7422C128.215 61.0831 129.982 63.9437 131.122 67.0465C131.314 67.5727 131.673 67.5268 132.107 67.5226C139.023 67.5226 145.937 67.5226 152.85 67.5226C153.267 67.5226 153.622 67.556 153.827 67.0298C154.328 65.7477 154.917 64.4699 155.556 62.9999ZM142.556 72.4879C139.332 72.4879 136.108 72.4545 132.884 72.4879C131.193 72.513 130.023 73.5821 130.011 74.9477C129.998 76.3132 131.172 77.3573 132.846 77.4533C133.105 77.4533 133.368 77.4533 133.627 77.4533C139.555 77.4533 145.48 77.4533 151.405 77.4533C151.967 77.4703 152.529 77.4099 153.075 77.2737C154.22 76.9271 154.984 76.1545 154.955 74.9017C154.929 73.7282 154.203 72.9849 153.113 72.6675C152.567 72.5283 152.006 72.4623 151.442 72.4712C148.482 72.4712 145.517 72.4838 142.556 72.4879ZM139.996 38.8997C139.879 34.0596 135.87 30.0923 131.201 29.9838C130.199 29.9587 129.982 30.2719 130.007 31.2032C130.124 35.8428 134.183 39.8686 138.831 40.0022C139.82 40.0272 140.18 39.7307 139.996 38.8997ZM154.955 31.1447C154.955 30.5976 155.159 30.0589 154.186 30.0297C149.288 29.8752 144.878 34.2058 144.999 39.1169C144.999 39.9813 145.391 39.9897 146.039 39.9771C148.376 39.936 150.608 38.9948 152.268 37.3496C153.929 35.7043 154.891 33.4817 154.955 31.1447ZM147.124 56.7191C150.048 57.7004 152.737 58.3436 155.568 57.8048C157.239 57.4875 157.815 56.481 157.406 54.8523C156.963 53.0859 155.063 52.1087 153.075 52.6557C150.737 53.2947 149.112 54.986 147.124 56.7191Z" fill="#691D1C"/>
<path d="M89.8536 79.9839H63.774C63.3059 79.9965 62.8375 79.9839 62.3708 79.9463C61.7894 79.932 61.2332 79.7061 60.8065 79.3109C60.3797 78.9157 60.1119 78.3784 60.0531 77.7998C59.9314 77.2554 60.0206 76.6852 60.3027 76.2039C60.5848 75.7227 61.0388 75.3663 61.5732 75.2064C62.3792 74.935 62.5253 74.5425 62.517 73.7699C62.471 70.1784 62.4877 66.587 62.517 62.9956C62.517 60.8407 63.3939 59.9804 65.5446 59.9721C68.5152 59.9721 71.483 59.9721 74.448 59.9721C76.5904 59.9721 77.5008 60.8616 77.5133 62.9789C77.5133 66.5703 77.5467 70.1659 77.5133 73.7532C77.5133 74.651 77.6386 75.006 78.6701 75.006C82.5329 75.006 82.5329 75.0561 82.5329 71.1765C82.5329 65.2437 82.5329 59.3095 82.5329 53.3739C82.5329 50.7388 83.3097 49.9829 85.9949 49.9787C88.8597 49.9787 91.7203 49.9787 94.5851 49.9787C96.7358 49.9787 97.6044 50.8515 97.6086 53.0147C97.6086 59.8343 97.6504 66.6496 97.5835 73.4775C97.5835 74.7053 97.8884 75.0394 99.1203 75.0102C102.536 74.935 102.536 75.0102 102.536 71.519V43.4097C102.536 40.7496 103.301 39.9895 105.965 39.9854C108.724 39.9854 111.483 39.9854 114.242 39.9854C116.693 39.9854 117.537 40.8206 117.537 43.2469C117.537 53.289 117.537 63.3338 117.537 73.3815C117.537 74.2919 117.537 74.9684 118.66 75.3484C119.784 75.7285 120.164 76.7725 119.942 77.9126C119.863 78.4318 119.616 78.9109 119.239 79.2767C118.862 79.6424 118.376 79.8746 117.854 79.938C117.39 79.9917 116.922 80.0056 116.455 79.9797L89.8536 79.9839ZM107.506 59.8259V71.3812C107.506 74.9976 107.506 74.9392 111.093 75.0102C112.267 75.0352 112.542 74.7346 112.534 73.5694C112.475 65.2924 112.501 57.0154 112.501 48.7426C112.501 44.9424 112.501 44.9841 108.742 44.9591C107.715 44.9591 107.456 45.2305 107.468 46.2411C107.556 50.768 107.506 55.3074 107.506 59.8259ZM92.5764 65.0586C92.5764 62.9705 92.6015 60.8825 92.5764 58.8153C92.5555 57.5625 93.1068 55.9714 92.3593 55.2197C91.6117 54.468 89.9831 55.1111 88.7553 54.9691C87.7155 54.8522 87.4774 55.2406 87.5025 56.222C87.5568 61.1665 87.5275 66.1068 87.5275 71.0512C87.5275 75.1104 87.5275 75.0853 91.5867 74.9809C92.4219 74.9809 92.6349 74.7471 92.6224 73.9327C92.5472 70.9886 92.5764 68.0236 92.5764 65.0586ZM67.5199 69.8402V71.2433C67.5199 75.4194 67.5199 75.3818 71.7461 75.0018C72.3558 74.9475 72.5354 74.7763 72.5312 74.1666C72.5062 71.3603 72.5312 68.5498 72.5312 65.7434C72.5312 65.2715 72.4853 64.9416 71.8839 64.9667C70.4891 65.0168 68.8604 64.6034 67.7747 65.1964C67.0104 65.614 67.6118 67.4055 67.5324 68.579C67.4656 69.005 67.499 69.4226 67.499 69.8402H67.5199Z" fill="#691D1C"/>
<path d="M182.521 34.8446C182.543 35.3304 182.423 35.8122 182.177 36.2311C181.93 36.6501 181.566 36.9882 181.13 37.2041C180.725 37.45 180.251 37.5589 179.778 37.5145C179.306 37.4701 178.86 37.2749 178.508 36.9577C177.452 36.0353 176.466 35.0374 175.555 33.9718C175.179 33.5612 174.972 33.0234 174.976 32.4664C174.98 31.9094 175.194 31.3745 175.576 30.9692C176.336 30.0254 177.393 29.6036 178.474 30.2551C180.025 31.2096 181.337 32.5067 182.308 34.0469C182.422 34.2995 182.494 34.5689 182.521 34.8446Z" fill="#691D1C"/>
<path d="M200.09 37.4881C198.215 37.5424 196.857 35.5296 197.814 33.9176C198.708 32.4479 199.941 31.2136 201.409 30.3178C202.996 29.3281 205.043 30.677 204.997 32.5478C204.959 34.0512 201.589 37.4422 200.09 37.4881Z" fill="#691D1C"/>
<path d="M192.477 28.8895C192.527 29.4047 192.527 29.9236 192.477 30.4388C192.222 31.7584 191.42 32.5561 190.025 32.5561C189.42 32.5985 188.823 32.3989 188.365 32.0011C187.907 31.6033 187.625 31.0398 187.582 30.4346C187.473 29.4638 187.46 28.4846 187.545 27.5113C187.571 26.8705 187.844 26.2647 188.307 25.8205C188.77 25.3764 189.386 25.1284 190.027 25.1284C190.669 25.1284 191.285 25.3764 191.748 25.8205C192.211 26.2647 192.484 26.8705 192.51 27.5113C192.548 27.9749 192.51 28.4426 192.51 28.9062L192.477 28.8895Z" fill="#691D1C"/>
<path d="M142.635 82.4813C145.654 82.4813 148.674 82.5063 151.689 82.4813C152.499 82.4813 152.942 82.6107 153.322 83.4585C154.662 86.4987 156.938 88.8874 159.072 91.393C163.353 96.3709 167.487 101.449 169.876 107.68C172.406 114.282 173.296 121.043 171.609 128.013C171.283 129.349 170.723 129.955 169.266 130.335C161.185 132.452 153.146 134.737 145.124 137.059C143.321 137.648 141.376 137.639 139.578 137.033C134.066 135.2 128.503 133.48 122.711 132.699C120.84 132.444 118.953 132.306 117.128 132.803C115.841 133.158 115.278 132.636 114.768 131.55C112.81 127.437 112.367 123.102 112.647 118.604C113.265 108.791 117.879 100.823 124.081 93.5479C126.586 90.6246 129.41 87.9144 131.143 84.4566C131.978 82.7653 132.942 82.3393 134.671 82.4395C137.306 82.5899 139.967 82.4813 142.635 82.4813ZM145.016 102.585C145.016 101.182 145.016 99.7744 145.016 98.3713C145.016 98.0706 144.915 97.724 145.241 97.5152C146.724 96.5589 149.668 97.9328 149.993 99.7369C150.365 101.825 151.434 102.769 153.004 102.451C154.575 102.134 155.285 100.676 154.905 98.7429C154.161 94.9469 151.146 92.4454 147.091 92.5331C145.467 92.5707 144.794 92.3034 144.965 90.4952C145.137 88.6869 144.03 87.5343 142.531 87.5176C141.032 87.5009 139.9 88.6577 140.054 90.4409C140.201 92.1531 139.695 92.5665 137.966 92.5289C133.143 92.4287 130.032 95.6861 129.998 100.543C129.998 102.05 129.973 103.562 129.998 105.07C130.021 106.83 130.66 108.526 131.805 109.863C132.949 111.2 134.527 112.093 136.262 112.386C137.191 112.512 138.13 112.54 139.065 112.47C139.837 112.432 140.025 112.72 140.017 113.451C139.979 116.157 140.017 118.88 139.992 121.569C139.992 121.887 140.171 122.271 139.662 122.48C137.653 123.315 135.323 122.087 135.001 120.003C134.747 118.333 133.611 117.327 132.203 117.498C130.796 117.669 129.915 118.876 130.015 120.576C130.228 124.192 133.389 127.278 137.081 127.454C137.962 127.495 139.056 127.17 139.683 127.579C140.468 128.101 139.866 129.304 140.013 130.197C140.238 131.55 140.994 132.36 142.38 132.456C143.012 132.501 143.637 132.298 144.121 131.89C144.606 131.483 144.913 130.902 144.978 130.272C145.034 129.911 145.034 129.544 144.978 129.182C144.711 127.708 145.396 127.249 146.74 127.47C147 127.495 147.261 127.495 147.521 127.47C149.493 127.459 151.382 126.674 152.78 125.284C154.179 123.893 154.974 122.009 154.996 120.037C155.03 118.266 155.046 116.495 154.996 114.725C154.931 113.103 154.342 111.546 153.318 110.287C152.295 109.028 150.891 108.134 149.317 107.738C148.249 107.498 147.151 107.42 146.06 107.504C145.283 107.538 144.949 107.354 145.003 106.49C145.061 105.191 145.003 103.888 145.003 102.585H145.016Z" fill="#FFB727"/>
<path d="M104.975 153.262C104.975 149.72 104.975 146.183 104.975 142.642C104.975 142.224 104.691 141.677 105.422 141.506C109.477 140.575 113.235 138.708 117.295 137.748C120.414 137.025 123.396 137.789 126.386 138.441C131.094 139.513 135.738 140.848 140.297 142.437C142.046 143.035 142.769 144.108 142.385 145.532C141.967 147.11 140.714 147.703 138.801 147.202C134.287 146.008 129.773 144.793 125.254 143.602C123.467 143.131 122.214 143.74 121.796 145.248C121.379 146.755 122.214 147.921 123.976 148.405C128.482 149.633 132.984 150.886 137.503 152.072C143.796 153.721 148.711 148.827 147.033 142.575C146.828 141.819 146.936 141.631 147.671 141.427C155.126 139.36 162.559 137.251 170.014 135.163C171.684 134.699 173.392 134.682 174.561 136.248C175.534 137.551 175.163 139.706 173.609 141.218C164.088 150.464 154.545 159.68 143.93 167.711C141.186 169.799 138.384 170.045 135.16 169.574C127.079 168.4 119.078 166.805 111.043 165.397C109.398 165.113 107.756 164.804 106.082 164.942C105.213 165.013 104.938 164.746 104.95 163.844C105.004 160.34 104.975 156.786 104.975 153.262Z" fill="#FFE9C0"/>
<path d="M175.735 108.966C174.929 107.003 174.211 105.17 173.413 103.37C173.304 103.166 173.267 102.932 173.308 102.704C173.349 102.477 173.465 102.27 173.638 102.117C182.868 90.4743 185.223 76.8561 184.993 62.5029C184.968 60.9452 183.995 60.0223 182.417 59.968C181.072 59.9221 179.723 59.968 178.366 59.968C178.266 59.3959 178.712 59.1996 178.959 58.9198C182.3 55.0695 185.686 51.2525 189.006 47.3813C189.721 46.5461 190.109 46.2955 190.961 47.3019C194.519 51.478 198.173 55.5915 201.994 59.9638C200.478 59.9638 199.255 59.9638 198.027 59.9638C195.901 59.9889 194.999 60.8742 195.012 63.0249C195.062 69.9655 194.594 76.8436 192.836 83.5963C190.126 94.0448 184.634 102.597 175.735 108.966Z" fill="#BE4E1E"/>
<path d="M85.0051 152.431C85.0051 147.837 85.0051 143.277 85.0051 138.704C85.0051 137.844 85.0719 137.426 86.1368 137.451C90.3463 137.522 94.56 137.501 98.7695 137.451C99.6882 137.451 100.022 137.627 100.022 138.633C99.9806 147.887 99.9806 157.141 100.022 166.396C100.022 167.323 99.7133 167.502 98.8697 167.494C94.6936 167.456 90.5468 167.436 86.3874 167.494C85.3225 167.494 84.9926 167.281 85.0135 166.158C85.0552 161.581 85.0051 157.008 85.0051 152.431ZM92.4427 142.463C92.1196 142.463 91.7998 142.528 91.5017 142.652C91.2036 142.777 90.9332 142.96 90.7061 143.19C90.479 143.419 90.2996 143.692 90.1784 143.992C90.0571 144.291 89.9964 144.612 89.9997 144.935C89.9995 145.588 90.2543 146.215 90.7098 146.683C91.1654 147.151 91.7857 147.423 92.4386 147.44C93.1161 147.433 93.7631 147.158 94.2387 146.675C94.7143 146.192 94.9799 145.541 94.9776 144.864C94.9505 144.214 94.6718 143.6 94.2003 143.152C93.7288 142.704 93.1015 142.457 92.4511 142.463H92.4427Z" fill="#FFB727"/>
<path d="M155.556 62.9998C154.917 64.4698 154.332 65.731 153.827 67.0256C153.622 67.5517 153.284 67.5183 152.85 67.5183C145.94 67.5183 139.026 67.5183 132.107 67.5183C131.69 67.5183 131.314 67.5684 131.122 67.0423C129.982 63.9394 128.198 61.0621 127.685 57.7379C127.43 56.1385 127.075 54.4305 128.658 53.3029C130.362 52.0877 132.178 52.3049 133.932 53.328C135.561 54.2801 136.931 55.558 138.321 56.8067C143.145 61.1247 148.728 63.3422 155.556 62.9998Z" fill="#FFB727"/>
<path d="M142.556 72.4839C145.517 72.4839 148.482 72.4839 151.442 72.4839C152.005 72.475 152.567 72.541 153.113 72.6802C154.203 72.9976 154.929 73.7409 154.955 74.9144C154.984 76.1672 154.22 76.9398 153.075 77.2864C152.529 77.4226 151.967 77.483 151.405 77.466C145.48 77.466 139.555 77.466 133.627 77.466C133.368 77.466 133.105 77.466 132.846 77.466C131.176 77.3616 130.002 76.3217 130.011 74.9603C130.019 73.5989 131.193 72.5257 132.884 72.5006C136.108 72.4547 139.332 72.4881 142.556 72.4839Z" fill="#BE4E1E"/>
<path d="M139.996 38.8997C140.18 39.7349 139.82 40.0273 138.831 40.0022C134.174 39.8686 130.124 35.8261 130.007 31.2032C129.982 30.2719 130.199 29.9504 131.201 29.9838C135.87 30.0924 139.879 34.0596 139.996 38.8997Z" fill="#FFE9C0"/>
<path d="M154.955 31.1444C154.891 33.4835 153.928 35.7079 152.264 37.3535C150.601 38.9991 148.366 39.9389 146.026 39.9768C145.379 39.9768 145.003 39.9768 144.986 39.1165C144.878 34.2263 149.288 29.8749 154.174 30.0294C155.163 30.0586 154.959 30.5973 154.955 31.1444Z" fill="#FFE9C0"/>
<path d="M147.124 56.7192C149.112 54.9861 150.737 53.2948 153.075 52.6558C155.063 52.1088 156.963 53.0734 157.406 54.8524C157.824 56.4811 157.222 57.4876 155.568 57.8049C152.737 58.3436 150.043 57.7005 147.124 56.7192Z" fill="#FFB727"/>
<path d="M107.506 59.8259C107.506 55.299 107.539 50.768 107.481 46.2411C107.481 45.2305 107.727 44.9549 108.755 44.959C112.513 44.9841 112.513 44.959 112.513 48.7426C112.513 57.0154 112.488 65.2924 112.546 73.5694C112.546 74.7345 112.279 75.0352 111.106 75.0101C107.518 74.9391 107.518 75.0101 107.518 71.3811L107.506 59.8259Z" fill="#BE4E1E"/>
<path d="M92.5764 65.0589C92.5764 68.0239 92.5472 70.9889 92.5973 73.9539C92.5973 74.7683 92.3843 74.9812 91.5616 75.0021C87.5025 75.1065 87.5025 75.1316 87.5025 71.0724C87.5025 66.1279 87.5317 61.1876 87.4774 56.2432C87.4774 55.2409 87.7071 54.8525 88.7302 54.9903C89.958 55.1323 91.5783 54.485 92.3342 55.2409C93.0901 55.9968 92.5305 57.6046 92.5514 58.8365C92.6015 60.8953 92.5764 62.9792 92.5764 65.0589Z" fill="#BE4E1E"/>
<path d="M67.4991 69.8404C67.4991 69.4228 67.4991 69.0052 67.4991 68.5876C67.5784 67.4141 66.9771 65.6267 67.7413 65.2049C68.8271 64.6119 70.4558 65.0254 71.8506 64.9752C72.4519 64.9502 72.502 65.2801 72.4979 65.752C72.4979 68.5583 72.4979 71.3688 72.4979 74.1752C72.4979 74.7682 72.3225 74.9394 71.7128 75.0104C67.4866 75.3946 67.4866 75.428 67.4866 71.2519L67.4991 69.8404Z" fill="#BE4E1E"/>
<path d="M145.003 102.585C145.003 103.888 145.061 105.191 145.003 106.49C144.949 107.354 145.283 107.538 146.06 107.504C147.151 107.42 148.249 107.498 149.317 107.738C150.892 108.133 152.298 109.027 153.322 110.288C154.347 111.548 154.936 113.106 155.001 114.729C155.063 116.5 155.046 118.27 155.001 120.041C154.983 122.013 154.191 123.899 152.796 125.293C151.401 126.686 149.514 127.476 147.542 127.491C147.282 127.516 147.021 127.516 146.761 127.491C145.396 127.27 144.732 127.729 144.999 129.203C145.055 129.564 145.055 129.932 144.999 130.293C144.934 130.923 144.627 131.504 144.142 131.911C143.657 132.319 143.033 132.522 142.401 132.477C141.015 132.381 140.259 131.571 140.033 130.218C139.887 129.324 140.489 128.13 139.704 127.6C139.077 127.182 137.983 127.516 137.102 127.474C133.41 127.299 130.249 124.213 130.036 120.596C129.936 118.897 130.783 117.702 132.224 117.519C133.665 117.335 134.767 118.354 135.022 120.024C135.344 122.112 137.674 123.328 139.683 122.501C140.192 122.292 140.013 121.908 140.013 121.59C140.013 118.884 140.013 116.161 140.038 113.472C140.038 112.741 139.858 112.453 139.085 112.491C138.151 112.561 137.212 112.533 136.283 112.407C134.548 112.114 132.97 111.221 131.826 109.884C130.681 108.547 130.042 106.851 130.019 105.091C129.99 103.583 130.019 102.071 130.019 100.564C130.04 95.7069 133.164 92.4496 137.987 92.5498C139.704 92.5832 140.209 92.1698 140.075 90.4617C139.921 88.6702 141.052 87.5134 142.552 87.5385C144.051 87.5635 145.162 88.712 144.986 90.516C144.811 92.3201 145.487 92.6041 147.112 92.554C151.163 92.4663 154.182 94.9677 154.925 98.7638C155.305 100.697 154.558 102.159 153.025 102.472C151.493 102.785 150.386 101.829 150.014 99.7577C149.689 97.962 146.744 96.5797 145.262 97.536C144.936 97.7448 145.041 98.0915 145.036 98.3921C144.999 99.7744 145.003 101.182 145.003 102.585ZM139.992 102.501C139.992 101.153 139.992 99.8036 139.992 98.4548C139.992 98.129 140.15 97.7323 139.704 97.5068C137.979 96.6256 135.147 97.9244 135.035 99.7744C134.929 101.582 134.929 103.395 135.035 105.203C135.135 106.978 136.35 107.592 139.065 107.479C140.961 107.4 139.762 106.013 139.95 105.278C140.171 104.414 140.004 103.437 140.004 102.497L139.992 102.501ZM145.003 117.477C145.003 118.822 145.003 120.17 145.003 121.519C145.003 121.849 144.84 122.246 145.266 122.48C146.861 123.34 149.78 122.133 149.927 120.392C150.077 118.481 150.077 116.561 149.927 114.65C149.797 112.929 148.344 112.223 145.788 112.491C144.118 112.662 145.195 113.936 145.036 114.666C144.857 115.577 145.003 116.541 145.003 117.477Z" fill="#691D1C"/>
<path d="M92.4512 142.462C93.1031 142.454 93.7325 142.7 94.2058 143.148C94.6791 143.597 94.959 144.212 94.9861 144.863C94.9883 145.541 94.7227 146.192 94.2471 146.675C93.7716 147.157 93.1245 147.432 92.447 147.44C91.7941 147.423 91.1738 147.151 90.7183 146.683C90.2628 146.215 90.008 145.587 90.0082 144.934C90.0049 144.611 90.0656 144.291 90.1868 143.991C90.3081 143.692 90.4874 143.419 90.7146 143.189C90.9417 142.959 91.2121 142.777 91.5102 142.652C91.8082 142.527 92.1281 142.463 92.4512 142.462Z" fill="#691D1C"/>
<path d="M140.004 102.497C140.004 103.433 140.171 104.41 139.95 105.287C139.762 106.022 140.961 107.408 139.065 107.488C136.35 107.601 135.135 106.987 135.035 105.212C134.929 103.404 134.929 101.591 135.035 99.7829C135.147 97.9455 137.979 96.6342 139.704 97.5153C140.15 97.7408 139.988 98.1376 139.992 98.4633C140.013 99.8038 140.004 101.153 140.004 102.497Z" fill="#FFB727"/>
<path d="M145.003 117.477C145.003 116.541 144.857 115.577 145.053 114.687C145.212 113.956 144.147 112.683 145.805 112.511C148.361 112.244 149.814 112.95 149.943 114.671C150.094 116.582 150.094 118.502 149.943 120.413C149.797 122.133 146.878 123.336 145.283 122.501C144.865 122.267 145.028 121.87 145.02 121.54C144.995 120.17 145.003 118.822 145.003 117.477Z" fill="#FFB727"/>
</svg>
