<svg width="775" height="491" viewBox="0 0 775 491" fill="none" xmlns="http://www.w3.org/2000/svg">
<path d="M111.763 487.092C111.763 487.092 30.8579 426.779 7.57276 324.096C-15.7124 221.413 19.8226 96.9252 87.2489 34.0841C154.675 -28.7569 276.033 13.5506 329.965 66.1715L383.912 118.792C383.912 118.792 435.4 148.259 502.812 145.746C570.223 143.234 630.302 239.45 646.241 315.178C662.179 390.907 624.17 491 624.17 491L111.763 487.092Z" fill="#F9ECC7" fill-opacity="0.28"/>
<g style="mix-blend-mode:plus-lighter">
<path d="M161.474 475.215C161.474 475.215 101.27 444.529 85.5661 373.339C69.8627 302.149 137.911 237.099 144.458 201.503C151.005 165.908 136.551 121.726 196.803 87.3024C257.054 52.8789 364.321 65.263 404.9 56.6905C445.479 48.118 492.558 -10.8364 573.732 2.66007C654.906 16.1566 733.454 56.6757 737.313 145.041C741.172 233.406 711.141 235.868 741.251 283.743C771.361 331.619 783.127 364.752 768.736 413.843C754.345 462.935 724.235 476.417 724.235 476.417L161.474 475.215Z" fill="#F3EDDE" fill-opacity="0.08"/>
</g>
<g style="mix-blend-mode:multiply">
<path d="M285.992 459.038C282.497 455.364 231.039 352.39 288.333 258.006C345.627 163.622 489.454 174.643 546.733 211.421C604.012 248.2 632.096 296.014 637.947 346.213C643.797 396.412 605.197 474.917 605.197 474.917L285.992 459.038Z" fill="#FF9D8C" fill-opacity="0.28"/>
</g>
<path d="M702.735 158.438H552.613C548.523 158.438 545.207 161.753 545.207 165.844V248.481C545.207 252.572 548.523 255.887 552.613 255.887H702.735C706.826 255.887 710.141 252.572 710.141 248.481V165.844C710.141 161.753 706.826 158.438 702.735 158.438Z" fill="#BE4E1E"/>
<path d="M627.667 294.015L649.026 243.401H606.322L627.667 294.015Z" fill="#BE4E1E"/>
<path d="M627.163 190.446H665.734V196.075L684.635 185.173L665.734 174.271V179.915H627.163V190.446Z" fill="white"/>
<path d="M684.635 212.621H646.064V206.978L627.163 217.88L646.064 228.782V223.138H684.635V212.621Z" fill="white"/>
<path d="M603.478 222.545L601.642 223.212C598.126 219.086 595.205 214.489 592.962 209.555C591.068 204.493 590.027 199.153 589.881 193.75L591.229 193.187L583.067 173.68C581.478 174.896 580.136 176.404 579.112 178.123C574.491 185.929 574.95 197.898 579.586 209.585C584.222 221.271 589.199 231.699 598.25 238.261C603.597 242.142 608.189 242.809 611.744 242.246L603.478 222.545Z" fill="white"/>
<path d="M609.344 220.25L606.811 221.168L615.15 241.15C616.026 240.86 616.873 240.494 617.683 240.054C618.723 239.483 619.52 238.554 619.923 237.438C620.327 236.323 620.31 235.099 619.876 233.995L615.506 223.019C615.042 221.846 614.138 220.9 612.988 220.383C611.837 219.866 610.53 219.818 609.344 220.25Z" fill="white"/>
<path d="M589.466 170.258C588.336 170.649 587.245 171.145 586.207 171.739L594.502 191.78L597.302 190.61C598.471 190.124 599.404 189.198 599.899 188.033C600.395 186.867 600.414 185.554 599.953 184.374L595.583 173.131C595.139 171.95 594.251 170.988 593.109 170.451C591.966 169.915 590.659 169.845 589.466 170.258Z" fill="white"/>
<path d="M266.885 442.493V332.171C266.885 332.171 265.655 302.443 281.297 293.867C296.939 285.29 362.764 289.882 362.764 289.882V442.448L266.885 442.493Z" fill="#9A391D"/>
<path d="M383.398 186.596C383.398 186.596 379.413 220.012 377.873 222.767L376.392 225.522L368.763 230.736C368.763 230.736 383.472 251.577 401.543 254.939C419.614 258.302 418.103 247.533 418.103 247.533L415.333 241.697L419.021 209.836C419.021 209.836 386.153 194.876 383.398 186.596Z" fill="#FF9D8C"/>
<path d="M359.18 233.492L371.133 228.278C371.133 228.278 378.791 240.839 396.566 248.2C414.341 255.562 414.652 251.266 415.57 248.2C416.074 246.066 415.966 243.833 415.259 241.757L416.577 231.033L423.687 233.403L448.364 432.998L384.924 436.064L359.18 233.492Z" fill="white"/>
<path d="M417.718 231.24C417.718 231.24 422.014 241.149 425.998 264.449C429.983 287.749 433.656 326.957 434.574 353.93C435.493 380.903 436.056 442.492 436.056 442.492H516.042C516.96 442.492 522.485 412.157 522.485 412.157C522.485 412.157 487.587 382.221 485.78 377.318C484.551 374.06 485.173 313.477 479.959 285.586C474.745 257.694 468.006 252.081 453.875 245.104C439.314 237.95 417.718 231.24 417.718 231.24Z" fill="#6A1C1A"/>
<path d="M459.4 407.387C459.203 407.387 459.015 407.309 458.876 407.171C458.737 407.032 458.659 406.843 458.659 406.647C458.659 404.455 458.259 373.319 457.889 343.206C457.518 313.093 457.119 281.972 457.119 279.765C457.119 279.569 457.197 279.38 457.335 279.241C457.474 279.102 457.663 279.024 457.859 279.024C458.056 279.024 458.244 279.102 458.383 279.241C458.522 279.38 458.6 279.569 458.6 279.765C458.6 281.957 459 313.093 459.37 343.191C459.74 373.29 460.14 404.44 460.14 406.647C460.136 406.842 460.057 407.028 459.919 407.166C459.781 407.304 459.595 407.384 459.4 407.387Z" fill="#F9ECC7"/>
<path d="M300.034 399.893L299.427 442.493H392.581C392.581 442.493 396.566 406.336 395.04 402.959C393.515 399.582 300.034 399.893 300.034 399.893Z" fill="#6A1C1A"/>
<path d="M403.72 221.849C407.685 224.829 412.08 227.187 416.755 228.841L418.947 209.896C418.947 209.896 394.315 198.609 385.96 190.21C387.708 199.75 392.004 212.384 403.72 221.849Z" fill="#8E9BBB"/>
<path d="M447.757 124.385C451.881 131.985 454.482 140.317 455.415 148.914C456.644 162.393 455.415 197.024 444.38 211.733C433.345 226.441 410.312 222.101 399.943 213.214C390.374 205.067 380.939 196.061 378.495 178.286C376.051 160.512 383.694 126.799 405.453 119.748C427.212 112.698 447.757 124.385 447.757 124.385Z" fill="#FF9D8C"/>
<path d="M475.412 423.237C475.412 423.237 474.33 423.237 472.686 423.237H471.427L465.976 423.089H464.673C462.747 423.089 461.103 423.281 459.562 423.192C459.237 423.192 458.763 423.192 458.377 423.192C458.215 423.206 458.051 423.206 457.889 423.192C457.176 423.03 456.491 422.761 455.859 422.393C445.465 419.748 434.797 418.326 424.072 418.156C410.386 418.156 398.106 419.149 396.107 417.475C394.107 415.801 392.878 398.574 404.565 397.449L418.932 402.9C418.932 402.9 451.742 399.004 463.769 407.877C475.797 416.749 475.412 423.237 475.412 423.237Z" fill="#FF9D8C"/>
<path d="M459.503 423.088C459.177 423.088 458.703 423.088 458.318 423.088C457.942 422.494 457.521 421.93 457.059 421.4C453.356 417.622 444.41 415.178 441.166 414.393C441.023 414.358 440.9 414.269 440.823 414.144C440.745 414.02 440.72 413.87 440.751 413.727C440.768 413.655 440.8 413.587 440.843 413.527C440.887 413.467 440.942 413.417 441.006 413.378C441.069 413.339 441.139 413.314 441.212 413.302C441.286 413.291 441.36 413.294 441.432 413.312C446.157 414.453 456.245 417.371 459.029 422.199C459.118 422.333 459.355 422.851 459.503 423.088Z" fill="#223A7A"/>
<path d="M465.961 423.015C465.532 423.015 465.087 423.015 464.658 423.015C460.614 415.608 454.008 413.535 445.832 410.898L445.343 410.735C445.274 410.712 445.21 410.675 445.155 410.627C445.1 410.579 445.055 410.521 445.023 410.455C444.991 410.39 444.972 410.319 444.967 410.246C444.962 410.174 444.971 410.101 444.995 410.032C445.018 409.963 445.055 409.899 445.103 409.844C445.151 409.789 445.209 409.744 445.274 409.712C445.34 409.68 445.411 409.66 445.484 409.656C445.556 409.651 445.629 409.66 445.698 409.684L446.172 409.846C454.808 412.572 461.77 414.794 465.961 423.015Z" fill="#223A7A"/>
<path d="M472.671 423.177H471.412C469.182 419.187 466.131 415.716 462.459 412.994C458.787 410.272 454.578 408.361 450.112 407.387C450.038 407.376 449.967 407.351 449.904 407.312C449.84 407.273 449.785 407.221 449.742 407.16C449.699 407.099 449.669 407.03 449.654 406.957C449.639 406.884 449.638 406.808 449.653 406.735C449.685 406.595 449.768 406.472 449.886 406.39C450.004 406.308 450.148 406.273 450.29 406.291C461.355 408.365 470.287 417.385 472.671 423.177Z" fill="#223A7A"/>
<path d="M385.842 163.163C390.808 160.309 394.81 156.039 397.336 150.899C400.168 145.627 401.591 139.714 401.469 133.731C401.469 133.731 410.06 132.354 422.932 136.19C435.804 140.026 451.075 145.225 463.991 137.879C476.908 130.532 476.863 118.726 470.583 113.823C463.547 108.328 449.594 111.676 449.594 111.676C449.594 111.676 454.956 106.462 452.038 103.396C449.12 100.329 438.559 104.314 438.559 104.314C438.559 104.314 425.687 94.0491 401.321 95.2785C376.955 96.5079 365.312 113.512 363.935 132.531C362.557 151.55 369.445 170.525 369.445 170.525L385.842 163.163Z" fill="#202124"/>
<path d="M435.27 167.77C433.893 171.162 433.923 175.176 433.582 178.731C433.315 181.545 432.797 184.818 435.374 186.714C436.604 187.618 442.41 190.062 439.418 192.047C438.047 192.617 436.542 192.787 435.078 192.536C434.174 192.536 433.271 192.536 432.382 192.388C431.493 192.239 430.471 192.032 429.523 192.017C429.403 192.022 429.288 192.065 429.194 192.139C429.101 192.214 429.033 192.317 429.002 192.432C428.97 192.548 428.977 192.671 429.02 192.783C429.063 192.894 429.141 192.99 429.242 193.054C430.975 193.954 432.903 194.412 434.856 194.387C436.452 194.568 438.067 194.285 439.507 193.573C440.032 193.384 440.503 193.066 440.875 192.65C441.247 192.234 441.51 191.731 441.64 191.188C441.644 190.53 441.477 189.882 441.155 189.308C440.833 188.734 440.367 188.254 439.803 187.914C438.648 187.055 437.226 186.655 436.055 185.811C434.426 184.656 434.574 182.7 434.678 180.878C434.945 176.524 435.952 172.243 436.337 167.903C436.337 167.251 435.478 167.251 435.27 167.77Z" fill="#8E9BBB"/>
<path d="M447.802 177.946C447.342 180.538 445.461 182.39 443.61 182.034C441.758 181.679 440.647 179.338 441.062 176.761C441.477 174.184 443.402 172.317 445.254 172.673C447.105 173.028 448.261 175.369 447.802 177.946Z" fill="#202124"/>
<path d="M424.354 175.901C423.939 178.686 421.969 180.715 419.91 180.345C417.851 179.975 416.607 177.545 417.022 174.761C417.436 171.976 419.407 169.962 421.465 170.317C423.524 170.673 424.769 173.117 424.354 175.901Z" fill="#202124"/>
<path d="M442.336 167.31C443.817 167.547 445.224 167.31 446.661 167.399L447.698 167.503H447.579H447.802L448.35 167.606C448.646 167.68 448.942 167.799 449.253 167.873C449.54 167.941 449.833 167.981 450.127 167.992L450.601 167.917H450.305C450.502 167.929 450.7 167.929 450.897 167.917C451.294 167.797 451.63 167.528 451.834 167.167C452.038 166.805 452.095 166.379 451.993 165.977C451.932 165.751 451.826 165.54 451.682 165.355C451.682 165.266 451.549 165.192 451.49 165.118L451.668 165.311L451.475 165.059C451.394 164.926 451.282 164.814 451.149 164.733L450.794 164.466C450.389 164.213 449.942 164.033 449.475 163.933C448.613 163.717 447.728 163.603 446.839 163.592C445.966 163.602 445.095 163.671 444.232 163.8C443.43 163.892 442.663 164.176 441.995 164.629C441.746 164.78 441.548 165.001 441.424 165.265C441.3 165.528 441.257 165.822 441.299 166.11C441.338 166.391 441.456 166.654 441.64 166.869C441.824 167.085 442.065 167.243 442.336 167.325V167.31Z" fill="#202124"/>
<path d="M425.998 163.208C425.803 163.089 425.6 162.985 425.391 162.897C425.228 162.823 424.754 162.571 425.109 162.763L424.709 162.556C424.119 162.266 423.498 162.042 422.858 161.889C421.454 161.539 420 161.439 418.562 161.593C417.063 161.71 415.609 162.166 414.311 162.926C414.114 163.032 413.93 163.162 413.763 163.311L413.467 163.711V163.578C413.266 163.717 413.103 163.903 412.992 164.12C412.881 164.337 412.825 164.578 412.83 164.822C412.83 165.05 412.892 165.274 413.009 165.47C413.127 165.666 413.295 165.826 413.496 165.933C413.731 166.032 413.983 166.082 414.237 166.082C414.491 166.082 414.743 166.032 414.978 165.933H414.207C414.588 166.015 414.982 166.015 415.363 165.933C415.363 165.933 415.778 165.829 415.511 165.933C415.244 166.037 415.926 165.933 416 165.933C416.074 165.933 416.548 165.933 416 165.933H416.266L416.962 165.859C417.97 165.859 418.977 165.741 419.999 165.711C421.021 165.681 421.895 165.711 422.843 165.711H424.043C424.176 165.711 424.265 165.711 424.043 165.711H424.295L424.798 165.874C425.128 165.95 425.474 165.911 425.779 165.762C426.084 165.614 426.328 165.366 426.472 165.059C426.595 164.742 426.604 164.392 426.499 164.068C426.394 163.744 426.18 163.466 425.894 163.282L425.998 163.208Z" fill="#202124"/>
<path d="M433.271 205.807C434.79 202.994 437.234 200.792 440.188 199.571C437.626 199.304 425.509 198.193 422.413 199.926C418.992 201.867 423.05 209.688 430.13 210.073C430.824 210.11 431.519 210.071 432.204 209.954C432.264 208.512 432.628 207.099 433.271 205.807Z" fill="#202124"/>
<path d="M377.266 189.366C377.266 189.366 378.495 194.106 385.546 199.631C390.9 203.499 396.704 206.702 402.831 209.17L403.646 205.6C403.646 205.6 393.07 201.008 388.167 195.942C383.264 190.877 382.657 188.136 382.657 188.136L377.266 189.366Z" fill="#DEE1EB"/>
<path d="M404.846 202.963C406.983 202.839 409.092 203.489 410.787 204.795C412.483 206.102 413.65 207.976 414.074 210.073C414.474 213.036 411.749 216.235 405.379 213.376C397.455 209.821 399.173 203.215 404.846 202.963Z" fill="#202124"/>
<path d="M381.709 154.275C381.709 154.275 384.153 136.664 395.959 124.651C418.488 101.825 437.64 103.203 437.64 103.203C437.64 103.203 437.477 99.9884 430.234 97.5295C423.48 95.2336 420.429 96.4631 420.429 96.4631C420.429 96.4631 401.884 97.9443 386.257 115.304C370.63 132.664 368.986 154.749 368.986 154.749L381.709 154.275Z" fill="#DEE1EB"/>
<path d="M380.021 152.128C365.208 149.625 357.032 161.163 356.425 172.865C355.817 184.567 364.32 193.262 375.577 192.417C401.01 190.432 398.106 155.194 380.021 152.128Z" fill="white"/>
<path d="M372.674 181.1C370.812 181.129 368.978 180.64 367.378 179.688C365.777 178.736 364.472 177.359 363.609 175.709C362.618 173.922 362.135 171.899 362.211 169.857C362.286 167.816 362.918 165.834 364.038 164.126C364.079 164.065 364.131 164.014 364.192 163.974C364.253 163.934 364.321 163.906 364.393 163.892C364.464 163.878 364.538 163.879 364.609 163.893C364.68 163.908 364.748 163.937 364.809 163.978C364.869 164.018 364.921 164.071 364.961 164.132C365.001 164.192 365.028 164.26 365.042 164.332C365.056 164.403 365.055 164.477 365.041 164.548C365.026 164.62 364.998 164.687 364.957 164.748C363.962 166.28 363.401 168.055 363.336 169.881C363.271 171.707 363.703 173.517 364.586 175.116C365.369 176.64 366.575 177.905 368.06 178.759C369.545 179.613 371.245 180.02 372.955 179.93C374.55 179.925 376.118 179.526 377.521 178.768C378.924 178.011 380.118 176.92 380.998 175.59C382.032 173.994 382.68 172.18 382.89 170.29C383.101 168.401 382.869 166.488 382.213 164.703C381.604 163.028 380.47 161.595 378.981 160.615C377.492 159.636 375.727 159.163 373.948 159.267C373.876 159.278 373.802 159.274 373.732 159.255C373.661 159.237 373.595 159.205 373.537 159.161C373.479 159.117 373.431 159.061 373.394 158.998C373.358 158.935 373.335 158.865 373.326 158.793C373.309 158.648 373.348 158.502 373.437 158.386C373.525 158.27 373.655 158.193 373.8 158.171C375.833 158.014 377.862 158.531 379.573 159.642C381.284 160.753 382.581 162.396 383.265 164.318C383.968 166.263 384.214 168.344 383.983 170.399C383.752 172.454 383.05 174.428 381.932 176.168C380.953 177.634 379.633 178.839 378.084 179.681C376.536 180.522 374.806 180.974 373.044 180.997L372.674 181.1Z" fill="#818FB3"/>
<path d="M361.935 229.196C361.935 229.196 317.202 240.231 301.575 258.006C285.948 275.78 278.586 363.425 278.275 379.674C277.964 395.923 289.311 402.662 296.05 407.254C302.79 411.846 332.518 420.126 356.425 421.355C380.332 422.585 403.009 421.355 403.009 421.355C403.287 416.859 404.514 412.472 406.609 408.483C410.016 401.373 414.341 399.892 414.341 399.892L393.811 392.486C393.811 392.486 390.212 328.053 384.613 296.947C378.184 261.072 361.935 229.196 361.935 229.196Z" fill="#6A1C1A"/>
<path d="M436.1 382.251C436.002 382.27 435.901 382.27 435.804 382.251C435.625 382.17 435.486 382.022 435.417 381.838C435.347 381.655 435.353 381.452 435.433 381.273C439.625 371.808 443.965 353.248 446.409 340.214L446.617 339.162C447.357 335.326 448.276 330.556 446.439 327.312C445.491 325.638 443.373 321.994 441.343 318.499C439.314 315.003 437.24 311.433 436.678 310.411C435.596 308.412 439.003 303.005 443.921 295.732C445.239 293.747 446.394 292.044 447.061 290.889C448.824 287.926 447.653 285.067 446.306 281.853L445.787 280.653C444.572 277.691 443.18 274.64 441.832 271.766L440.188 268.182C439.462 266.597 438.707 264.997 438.011 263.353C433.772 253.304 428.95 243.511 423.569 234.024C423.471 233.853 423.444 233.65 423.494 233.459C423.544 233.268 423.666 233.104 423.835 233.002C423.919 232.952 424.011 232.919 424.107 232.906C424.203 232.892 424.301 232.898 424.395 232.923C424.489 232.947 424.577 232.991 424.654 233.05C424.731 233.11 424.795 233.184 424.843 233.269C430.285 242.787 435.166 252.614 439.462 262.701L441.64 267.515L443.284 271.085C444.632 274.047 446.024 277.01 447.268 280.076L447.727 281.172C449.105 284.46 450.527 287.852 448.409 291.54C447.713 292.74 446.557 294.503 445.209 296.473C442.647 300.294 437.3 308.249 438.04 309.611C438.588 310.619 440.573 314.055 442.677 317.669C444.78 321.283 446.854 324.824 447.787 326.557C449.89 330.319 448.912 335.37 448.127 339.443L447.92 340.48C447.031 345.235 442.306 369.527 436.84 381.866C436.77 381.997 436.662 382.104 436.53 382.172C436.397 382.241 436.248 382.268 436.1 382.251Z" fill="#F9ECC7"/>
<path d="M392.463 384.858C392.366 384.86 392.27 384.84 392.18 384.802C392.091 384.764 392.011 384.707 391.945 384.636C388.449 381.126 371.667 352.049 370.408 346.584C369.726 343.621 371.444 335.993 373.103 328.646C374.392 322.958 375.725 317.077 375.355 315.493C374.777 313.108 370.482 309.568 366.334 306.205C361.313 302.102 356.128 297.866 355.121 294.044C353.981 289.704 354.958 262.554 355.61 244.586C355.832 238.113 356.025 233.018 356.025 231.255C356.025 231.059 356.103 230.87 356.242 230.732C356.381 230.593 356.569 230.515 356.765 230.515C356.962 230.515 357.15 230.593 357.289 230.732C357.428 230.87 357.506 231.059 357.506 231.255C357.506 233.092 357.313 238.217 357.091 244.69C356.484 261.487 355.477 289.601 356.558 293.733C357.447 297.081 362.661 301.347 367.267 305.124C371.874 308.901 376.155 312.338 376.792 315.196C377.251 317.122 375.992 322.602 374.555 329.031C373.074 335.889 371.252 343.636 371.859 346.317C373.089 351.664 389.634 380.207 392.996 383.659C393.065 383.726 393.12 383.807 393.157 383.896C393.195 383.985 393.214 384.081 393.214 384.177C393.214 384.274 393.195 384.369 393.157 384.458C393.12 384.547 393.065 384.628 392.996 384.695C392.923 384.758 392.838 384.805 392.747 384.833C392.655 384.861 392.558 384.869 392.463 384.858Z" fill="#F9ECC7"/>
<path d="M332.221 372.134H332.118C332.02 372.121 331.926 372.089 331.841 372.04C331.756 371.99 331.681 371.924 331.622 371.846C331.563 371.767 331.52 371.677 331.495 371.582C331.471 371.487 331.466 371.387 331.481 371.29C332.029 367.439 340.531 290.711 340.916 284.831C340.93 284.634 341.021 284.451 341.17 284.322C341.318 284.193 341.512 284.128 341.709 284.142C341.905 284.156 342.088 284.247 342.217 284.395C342.346 284.544 342.411 284.738 342.397 284.934C341.998 290.859 333.51 367.646 332.947 371.497C332.922 371.673 332.836 371.833 332.702 371.95C332.569 372.067 332.399 372.132 332.221 372.134Z" fill="#F9ECC7"/>
<path d="M393.204 392.975C393.111 392.996 393.015 392.996 392.922 392.975C391.041 392.22 382.717 389.405 372.185 385.85C350.915 378.681 321.823 368.861 316.239 365.987C316.066 365.893 315.937 365.735 315.879 365.547C315.821 365.359 315.838 365.155 315.928 364.98C316.019 364.808 316.175 364.679 316.36 364.621C316.546 364.563 316.747 364.58 316.92 364.669C322.357 367.498 352.633 377.704 372.644 384.458C383.205 388.013 391.559 390.827 393.485 391.612C393.665 391.688 393.808 391.831 393.883 392.011C393.958 392.192 393.959 392.394 393.885 392.575C393.819 392.698 393.721 392.801 393.601 392.871C393.48 392.942 393.343 392.978 393.204 392.975Z" fill="#F9ECC7"/>
<path d="M382.968 423.533C364.26 423.533 327.97 420.156 300.405 410.409C300.308 410.377 300.218 410.326 300.14 410.259C300.062 410.192 299.999 410.111 299.953 410.019C299.907 409.928 299.879 409.828 299.871 409.726C299.864 409.624 299.876 409.521 299.909 409.424C299.941 409.327 299.992 409.237 300.058 409.159C300.125 409.082 300.207 409.018 300.298 408.972C300.39 408.926 300.489 408.898 300.592 408.891C300.694 408.883 300.796 408.896 300.894 408.928C335.717 421.252 384.435 423.355 393.5 421.326C393.597 421.304 393.698 421.302 393.796 421.32C393.894 421.337 393.987 421.374 394.071 421.428C394.155 421.481 394.228 421.551 394.285 421.632C394.342 421.714 394.382 421.806 394.403 421.903C394.425 422.001 394.427 422.101 394.409 422.199C394.392 422.297 394.355 422.391 394.302 422.475C394.248 422.559 394.178 422.631 394.097 422.688C394.015 422.745 393.923 422.786 393.826 422.807C390.237 423.385 386.602 423.628 382.968 423.533Z" fill="#F9ECC7"/>
<path d="M168.798 239.535C174.604 244.645 181.966 247.919 187.061 253.829C189.076 256.154 190.868 258.628 192.734 261.072C194.097 262.849 197.711 265.782 198.304 268.019C198.556 268.997 198.496 267.663 198.304 266.686V266.567C197.8 262.05 197.43 257.517 197.267 252.97C197.104 248.422 197.4 243.89 197.119 239.357C196.704 232.988 194.719 226.796 189.505 222.797C186.958 220.857 183.669 219.657 181.329 217.494C178.989 215.332 179.996 213.051 181.329 210.784C182.743 208.722 183.819 206.447 184.514 204.045C184.861 201.199 184.172 198.323 182.573 195.942C179.537 190.847 172.797 185.159 166.428 185.929C161.11 186.566 160.503 192.699 160.592 196.964C160.681 201.23 161.066 205.259 161.11 209.422C161.155 213.584 160.429 217.865 160.37 222.116C160.088 229.344 163.421 234.854 168.798 239.535Z" fill="#CEAA5A"/>
<path d="M222.729 305.834C224.309 302.01 226.233 298.336 228.476 294.859C231.617 290.045 235.083 285.349 237.186 279.972C239.289 274.595 239.023 268.567 239.23 262.775C239.393 258.524 240.711 254.273 240.311 249.992C240.148 247.948 238.964 244.645 236.327 244.971C234.253 245.238 233.039 247.8 232.239 249.415C230.938 252.306 229.816 255.274 228.876 258.302C228.476 259.472 228.091 260.657 227.588 261.783C227.291 262.435 226.343 264.034 225.47 263.827C223.988 263.442 225.321 257.295 225.47 256.213C226.595 250.748 228.299 245.667 228.521 240.038C228.862 231.877 228.239 222.16 220.256 217.702C218.167 216.531 215.531 215.835 213.546 217.583C211.561 219.331 211.028 222.293 210.746 224.737C209.857 232.277 211.62 239.416 214.049 246.497C216.034 252.421 218.404 258.346 218.582 264.656C218.745 270.685 215.619 276.017 214.138 281.72C212.638 287.192 212.008 292.865 212.272 298.532C212.272 302.205 212.39 305.849 212.657 309.523C212.909 312.9 213.205 316.262 213.62 319.625C213.62 320.306 213.768 321.017 213.872 321.728C212.568 318.603 212.109 315.033 211.042 311.893C209.132 306.323 206.925 300.858 205.118 295.259C203.719 290.592 202.073 286.004 200.185 281.513C198.304 277.35 196.052 272.936 192.557 269.87C190.513 267.987 187.841 266.931 185.062 266.908C183.304 267.05 181.571 267.419 179.907 268.004C178.974 268.326 177.975 268.406 177.003 268.235C176.031 268.064 175.119 267.648 174.352 267.026C168.635 262.583 166.946 254.747 162.666 249.252C159.555 245.104 152.06 238.039 146.579 242.557C143.617 244.956 142.847 249.607 143.01 253.162C143.408 257.57 144.938 261.8 147.453 265.441C149.927 269.411 153.112 272.966 155.393 277.039C156.599 279.308 157.066 281.898 156.726 284.446C156.336 286.952 156.488 289.513 157.17 291.955C159.792 299.362 167.983 298.339 174.352 298.532C178.925 298.629 183.459 299.382 187.817 300.769C190.108 301.473 192.197 302.718 193.906 304.399C195.615 306.08 196.895 308.147 197.637 310.426C198.896 313.922 199.578 317.832 201.962 320.869C203.097 322.244 204.544 323.326 206.184 324.024C208.672 325.12 216.242 325.594 216.301 324.913C216.705 322.528 217.365 320.194 218.271 317.951C219.545 313.863 221.056 309.849 222.729 305.834Z" fill="#CEAA5A"/>
<path d="M257.879 304.472C257.227 300.22 257.346 295.584 255.331 291.659C255.294 291.595 255.245 291.538 255.186 291.493C255.128 291.448 255.061 291.415 254.989 291.395C254.917 291.376 254.843 291.371 254.769 291.381C254.696 291.39 254.625 291.415 254.561 291.452C253.08 292.252 253.08 294.577 252.932 295.999C252.739 298.369 252.932 300.739 252.591 303.094C252.094 307.3 251.1 311.432 249.628 315.403C248.878 317.43 247.646 319.245 246.038 320.69C244.431 322.135 242.496 323.167 240.4 323.698C237.514 324.363 234.78 325.57 232.342 327.253C230.262 329.02 228.637 331.26 227.603 333.785C224.64 340.465 223.159 347.916 221.841 355.056C220.907 359.855 220.152 364.683 218.982 369.438C217.704 374.155 216.676 378.936 215.901 383.762C215.782 384.013 215.664 384.25 215.56 384.502C215.249 385.228 216.39 385.613 216.775 385.021C221.381 377.926 226.995 371.571 234.638 367.676C238.09 365.913 242.681 365.543 245.57 362.773C247.762 360.669 248.058 357.455 247.732 354.582C247.303 350.819 245.496 347.723 243.615 344.524C242.578 342.761 241.363 340.865 241.778 338.732C242.058 337.758 242.535 336.852 243.18 336.07C243.825 335.288 244.623 334.646 245.525 334.185C248.695 332.215 252.413 331.326 255.02 328.482C257.403 325.867 258.824 322.518 259.049 318.988C259.2 314.121 258.807 309.252 257.879 304.472Z" fill="#CEAA5A"/>
<path d="M195.119 328.927C191.048 323.73 186.16 319.228 180.648 315.596C177.685 313.64 170.768 309.789 169.361 315.596C168.546 318.973 171.849 322.291 174.027 324.409C177.3 327.594 181.077 330.334 183.832 334.007C180.425 335.103 176.856 335.311 173.878 337.681C170.368 340.48 168.783 345.872 172.279 349.308C174.088 350.861 176.133 352.116 178.337 353.026C181.092 354.345 183.892 355.559 186.706 356.729C192.794 359.277 198.956 361.854 204.14 366.017C209.324 370.179 214.405 377.437 214.82 384.354C214.82 385.021 214.612 384.354 214.997 384.117C215.219 384.31 215.945 383.954 215.945 383.569C215.956 373.428 213.858 363.395 209.783 354.108C205.915 345.16 200.992 336.706 195.119 328.927Z" fill="#CEAA5A"/>
<path d="M181.092 233.255C183.344 237.906 185.684 242.438 188.172 246.971C190.655 251.265 192.852 255.718 194.749 260.302C196.956 266.034 199.193 271.678 201.592 277.365C204.046 283.263 206.158 289.296 207.917 295.436C211.369 307.454 213.763 319.751 215.071 332.186C215.73 338.498 215.982 344.845 215.827 351.19C215.693 356.137 215.131 361.04 214.671 366.002C214.074 371.134 213.935 376.309 214.257 381.466C214.627 385.762 215.308 390.872 218.7 393.938C218.834 394.056 219.005 394.123 219.183 394.129C219.361 394.135 219.536 394.079 219.677 393.971C219.819 393.863 219.918 393.709 219.959 393.535C220 393.362 219.979 393.179 219.9 393.02C215.93 384.888 216.153 376.015 216.938 367.187C217.367 362.329 217.945 357.485 218.108 352.597C218.301 346.374 218.093 340.145 217.486 333.948C216.248 321.775 213.998 309.725 210.761 297.925C209.133 291.89 207.154 285.955 204.836 280.15C202.54 274.314 199.874 268.626 197.637 262.761C193.594 252.14 187.417 242.734 181.966 232.84C181.685 232.321 180.944 232.84 181.181 233.299L181.092 233.255Z" fill="#43588E"/>
<path d="M215.264 320.114C215.901 312.382 216.582 304.946 219.189 297.569C220.404 294.133 221.885 290.785 223.055 287.334C224.018 284.475 225.47 280.565 224.729 277.528C224.713 277.452 224.671 277.383 224.61 277.334C224.549 277.285 224.474 277.258 224.396 277.258C224.318 277.258 224.242 277.285 224.181 277.334C224.12 277.383 224.079 277.452 224.062 277.528C223.559 279.261 223.618 281.157 223.248 282.935C222.896 284.663 222.446 286.369 221.9 288.045C220.759 291.615 219.263 295.036 217.96 298.562C215.372 305.437 214.266 312.781 214.716 320.114C214.716 320.184 214.744 320.252 214.794 320.302C214.844 320.352 214.912 320.38 214.982 320.38C215.053 320.38 215.121 320.352 215.171 320.302C215.221 320.252 215.249 320.184 215.249 320.114H215.264Z" fill="#43588E"/>
<path d="M170.457 275.691C173.523 283.098 182.751 283.527 189.476 285.186C191.77 285.81 193.915 286.888 195.785 288.356C197.655 289.824 199.212 291.652 200.363 293.733C203.049 298.441 205.134 303.467 206.569 308.693C206.569 308.693 206.673 308.693 206.658 308.693C204.777 299.806 202.096 289.111 192.927 284.994C185.521 281.676 175.923 283.335 171.227 275.41C170.99 275.025 170.279 275.277 170.457 275.736V275.691Z" fill="#43588E"/>
<path d="M210.405 318.944C210.776 319.432 211.102 319.951 211.487 320.425C211.661 320.666 211.865 320.885 212.094 321.077C212.325 321.311 212.627 321.462 212.953 321.506C212.985 321.508 213.017 321.501 213.045 321.486C213.074 321.471 213.097 321.449 213.114 321.421C213.131 321.394 213.14 321.363 213.14 321.331C213.14 321.299 213.132 321.267 213.116 321.239C212.928 321.012 212.709 320.813 212.464 320.647L211.813 320.069C211.383 319.655 210.998 319.21 210.568 318.795C210.568 318.721 210.331 318.795 210.405 318.929V318.944Z" fill="#43588E"/>
<path d="M191.224 342.465C196.585 346.827 201.316 351.912 205.28 357.574C207.134 360.289 208.839 363.103 210.391 366.002C211.958 369.174 213.343 372.433 214.538 375.763C214.627 376.015 215.086 376.015 215.057 375.763C214.316 368.786 209.902 362.817 206.362 357.011C204.482 354.116 202.275 351.447 199.785 349.056C197.317 346.43 194.61 344.04 191.698 341.917C191.342 341.665 190.868 342.243 191.224 342.539V342.465Z" fill="#43588E"/>
<path d="M233.364 334.244C230.817 335.725 230.743 339.724 230.683 342.287C230.595 347.234 231.809 351.87 229.647 356.581C227.691 360.832 224.566 364.387 222.092 368.327C219.796 372.03 217.53 376.755 217.649 381.199C217.649 381.465 218.049 381.599 218.167 381.347C218.941 379.246 219.584 377.099 220.093 374.918C220.828 372.572 221.885 370.339 223.233 368.282C225.603 364.609 228.506 361.276 230.432 357.321C232.357 353.367 232.15 349.056 232.017 344.553C231.928 341.68 231.646 337.058 233.957 334.925C234.327 334.585 233.868 334.022 233.439 334.244H233.364Z" fill="#43588E"/>
<path d="M216.316 381.658C206.051 381.525 186.573 381.377 186.573 381.377L191.401 417.312C191.929 421.222 193.858 424.809 196.83 427.405C199.802 430.001 203.615 431.431 207.562 431.428H225.233C229.176 431.427 232.986 429.996 235.955 427.4C238.924 424.805 240.851 421.22 241.378 417.312L246.148 381.377C246.148 381.377 226.566 381.525 216.316 381.658Z" fill="white"/>
<path d="M712.689 315.611L654.107 431.665L483.307 432.894L536.009 313.981L712.689 315.611Z" fill="#F6F7FA"/>
<path d="M369.948 432.168V422.881H480.507L531.387 311.33H708.246L712.689 315.625H539.949L487.084 432.079C487.084 432.079 369.948 431.857 369.948 432.168Z" fill="#D9DEE8"/>
<path d="M623.993 379.658C622.068 385.45 611.595 389.908 600.605 389.642C589.614 389.375 582.267 384.458 584.193 378.666C586.118 372.874 596.605 368.401 607.596 368.683C618.587 368.964 625.919 373.867 623.993 379.658Z" fill="#D9DEE8"/>
<path d="M487.084 432.82C486.976 432.817 486.87 432.792 486.773 432.746C486.594 432.666 486.455 432.517 486.386 432.334C486.316 432.151 486.322 431.948 486.402 431.769L539.46 314.885H712.763C712.96 314.885 713.148 314.963 713.287 315.102C713.426 315.241 713.504 315.429 713.504 315.626C713.5 315.821 713.421 316.007 713.283 316.145C713.145 316.283 712.959 316.363 712.763 316.366H540.423L487.75 432.391C487.693 432.519 487.599 432.629 487.481 432.705C487.363 432.781 487.225 432.821 487.084 432.82Z" fill="white"/>
<path d="M362.246 441.463H159.066V486.507H362.246V441.463Z" fill="#9B7159"/>
<path d="M726.657 440.952H361.091V485.996H726.657V440.952Z" fill="#B18871"/>
<g style="mix-blend-mode:multiply">
<path d="M362.246 440.952H361.091H159.066V449.232H361.091H362.246H726.657V440.952H362.246Z" fill="#BDC4D7"/>
</g>
<path d="M371.133 432.065H149.26V443.1H371.133V432.065Z" fill="#9B7159"/>
<path d="M735.544 432.065H369.978V443.1H735.544V432.065Z" fill="#B18871"/>
<path d="M310.951 143.833H239.23C234.788 143.833 231.187 147.434 231.187 151.876V187.677C231.187 192.119 234.788 195.72 239.23 195.72H310.951C315.393 195.72 318.994 192.119 318.994 187.677V151.876C318.994 147.434 315.393 143.833 310.951 143.833Z" fill="white"/>
<path d="M339.435 169.769L312.492 158.408V181.13L339.435 169.769Z" fill="white"/>
<path d="M258.071 174.731C260.812 174.731 263.033 172.509 263.033 169.769C263.033 167.028 260.812 164.807 258.071 164.807C255.331 164.807 253.109 167.028 253.109 169.769C253.109 172.509 255.331 174.731 258.071 174.731Z" fill="#BE4E1E"/>
<path d="M275.091 174.731C277.831 174.731 280.053 172.509 280.053 169.769C280.053 167.028 277.831 164.807 275.091 164.807C272.35 164.807 270.129 167.028 270.129 169.769C270.129 172.509 272.35 174.731 275.091 174.731Z" fill="#BE4E1E"/>
<path d="M292.11 174.731C294.85 174.731 297.072 172.509 297.072 169.769C297.072 167.028 294.85 164.807 292.11 164.807C289.369 164.807 287.148 167.028 287.148 169.769C287.148 172.509 289.369 174.731 292.11 174.731Z" fill="#BE4E1E"/>
</svg>
