<svg width="285" height="99" viewBox="0 0 285 99" fill="none" xmlns="http://www.w3.org/2000/svg">
<path d="M277.787 17.4617C276.402 17.4594 275.048 17.0464 273.897 16.275C272.747 15.5036 271.85 14.4083 271.322 13.1277C270.793 11.8471 270.656 10.4385 270.928 9.08C271.2 7.72149 271.868 6.47402 272.848 5.49522C273.829 4.51641 275.078 3.85021 276.437 3.5808C277.796 3.31138 279.204 3.45085 280.484 3.98157C281.763 4.51229 282.857 5.41044 283.626 6.56253C284.396 7.71463 284.807 9.06896 284.807 10.4544C284.803 12.3139 284.062 14.0963 282.746 15.41C281.43 16.7238 279.647 17.4617 277.787 17.4617ZM277.787 4.43783C276.607 4.43783 275.453 4.7879 274.471 5.44375C273.49 6.09961 272.725 7.03181 272.273 8.12246C271.821 9.21312 271.703 10.4132 271.933 11.5711C272.163 12.7289 272.732 13.7924 273.567 14.6272C274.401 15.4619 275.465 16.0304 276.623 16.2607C277.781 16.491 278.981 16.3728 280.071 15.9211C281.162 15.4693 282.094 14.7043 282.75 13.7227C283.406 12.7411 283.756 11.5871 283.756 10.4066C283.756 8.8236 283.127 7.30541 282.008 6.18605C280.888 5.06668 279.37 4.43783 277.787 4.43783Z" fill="#6A1C1A"/>
<path d="M281.154 14.2862H279.566L277.608 11.2063H275.889V14.2862H274.433V6.62231H277.716C279.96 6.62231 280.664 7.66088 280.664 8.73527C280.674 9.23242 280.512 9.71764 280.205 10.1091C279.898 10.5005 279.466 10.7742 278.981 10.884L281.154 14.2862ZM277.286 10.2155C278.348 10.2155 279.136 9.91708 279.136 8.81883C279.136 7.91157 278.432 7.62507 277.25 7.62507H275.877V10.2036L277.286 10.2155Z" fill="#6A1C1A"/>
<path d="M93.3399 15.8384H6.41052V23.562H93.3399V15.8384Z" fill="#CA9F6F"/>
<path d="M24.0184 91.2843H20.4132L17.6079 23.5505H6.41048L3.59321 91.2843H0V98.1484H24.0184V91.2843Z" fill="#6A1C1A"/>
<path d="M61.9918 91.2843H58.2673L55.462 23.5505H44.2645L41.4472 91.2843H37.9854V98.1484H61.9918V91.2843Z" fill="#6A1C1A"/>
<path d="M99.7145 91.2843H96.1213L93.316 23.5505H82.1185L79.3013 91.2843H75.7081V98.1484H99.7145V91.2843Z" fill="#6A1C1A"/>
<path d="M47.5593 0.438969L6.45825 15.8384H93.4473L52.3463 0.438969C50.8043 -0.146323 49.1013 -0.146323 47.5593 0.438969Z" fill="#D9B77E"/>
<path d="M137.509 14.2625H149.327V18.5122H145.209V44.1303H149.327V48.392H136.482V44.1303H140.517V18.5122L128.783 48.7262H127.768L116.129 18.5122V44.1303H119.889V48.392H107.773V44.1303H111.927V18.5122H107.773V14.2625H119.483L128.484 37.6362L137.509 14.2625Z" fill="#6A1C1A"/>
<path d="M161.133 18.5122V44.1303H164.846V48.392H152.276V44.1303H155.964V18.5122H152.276V14.2625H164.846V18.5122H161.133Z" fill="#6A1C1A"/>
<path d="M200.694 30.8199C200.694 36.6613 198.932 41.0384 195.406 43.9512C191.88 46.864 186.64 48.3323 179.684 48.3562H166.923V44.1303H171.507V18.5122H166.923V14.2625H179.911C186.89 14.2625 192.103 15.5835 195.549 18.2257C198.995 20.8679 200.71 25.066 200.694 30.8199ZM195.084 31.0467C195.183 28.5918 194.657 26.152 193.556 23.9558C192.462 22.0715 190.749 20.6244 188.709 19.8612C185.899 18.8662 182.926 18.4086 179.947 18.5122H176.664V44.1303H179.911C185.164 44.1303 189.003 43.0798 191.431 40.9787C193.858 38.8777 195.076 35.567 195.084 31.0467Z" fill="#6A1C1A"/>
<path d="M213.313 18.5122V28.1697H228.151V18.5122H224.164V14.2625H237.295V18.5122H233.356V44.1303H237.295V48.392H224.164V44.1303H228.151V32.4195H213.313V44.1303H217.347V48.392H204.3V44.1303H208.144V18.5122H204.3V14.2625H217.347V18.5122H213.313Z" fill="#6A1C1A"/>
<path d="M262.101 18.3809L271.317 44.1303H275.125V48.392H261.695V44.1303H266.16L263.51 36.3828H251.119L248.469 44.1303H252.79V48.392H239.253V44.1303H243.371L252.563 18.3809H248.469V14.2625H266.196V18.3809H262.101ZM257.434 18.3809H257.279L252.504 32.3837H262.197L257.434 18.3809Z" fill="#6A1C1A"/>
<path d="M168.762 67.0266V59.6969H152.335V72.6969H166.493V78.1643H152.335V92.5969H157.91V98.0643H140.171V92.5969H145.698V59.6969H140.171V54.2295H174.181V67.0266H168.762Z" fill="#CA9F6F"/>
<path d="M188.781 59.6969V92.5969H193.556V98.0643H177.404V92.5969H182.179V59.6969H177.404V54.2295H193.556V59.6969H188.781Z" fill="#CA9F6F"/>
<path d="M231.016 59.6969H224.761V54.2295H242.739V59.6969H236.316V98.5298H229.536L208.478 61.0578V92.5968H214.757V98.0643H196.851V92.5968H203.106V59.6969H196.851V54.2295H211.808L231.064 88.2874L231.016 59.6969Z" fill="#CA9F6F"/>
</svg>
