<svg width="437" height="115" viewBox="0 0 437 115" fill="none" xmlns="http://www.w3.org/2000/svg">
<path d="M89.0617 84.1961V115" stroke="white" stroke-miterlimit="10"/>
<path d="M80.1922 92.5551C79.8255 92.5603 79.4616 92.4897 79.1234 92.3478C78.8069 92.2045 78.516 92.0104 78.262 91.7734C78.0066 91.5344 77.8101 91.2396 77.6877 90.912C77.5533 90.5716 77.483 90.2092 77.4803 89.8432C77.4815 89.4771 77.5518 89.1144 77.6877 88.7744C77.8101 88.4467 78.0066 88.1519 78.262 87.913C78.5069 87.6647 78.8001 87.4693 79.1234 87.3387C79.4616 87.1967 79.8255 87.1261 80.1922 87.1313C80.5643 87.1244 80.9337 87.195 81.277 87.3387C81.6003 87.4693 81.8935 87.6647 82.1384 87.913C82.3835 88.1573 82.5738 88.4509 82.6967 88.7744C82.8405 89.112 82.9112 89.4763 82.9041 89.8432C82.9093 90.21 82.8387 90.5738 82.6967 90.912C82.5738 91.2355 82.3835 91.5291 82.1384 91.7734C81.8845 92.0104 81.5935 92.2045 81.277 92.3478C80.9337 92.4914 80.5643 92.5621 80.1922 92.5551ZM80.1922 92.1882C80.5148 92.1964 80.8355 92.1367 81.1334 92.0127C81.411 91.903 81.6614 91.7343 81.8672 91.5182C82.0767 91.3008 82.2444 91.0466 82.3617 90.7684C82.4778 90.4737 82.5374 90.1599 82.5372 89.8432C82.5389 89.4252 82.4347 89.0136 82.2341 88.6468C82.0394 88.295 81.7527 88.0027 81.4046 87.8013C81.0342 87.5954 80.616 87.4908 80.1922 87.4982C79.8799 87.4885 79.5693 87.5485 79.283 87.6737C78.9987 87.7794 78.7423 87.9485 78.5332 88.1683C78.3224 88.3785 78.1544 88.6277 78.0387 88.902C77.9224 89.2022 77.8629 89.5213 77.8632 89.8432C77.863 90.1599 77.9226 90.4737 78.0387 90.7684C78.1502 91.0496 78.3186 91.3049 78.5332 91.5182C78.7423 91.7379 78.9987 91.907 79.283 92.0127C79.5693 92.138 79.8799 92.1979 80.1922 92.1882ZM79.0756 91.4225V88.232H80.4156C80.6966 88.2132 80.9748 88.2984 81.1972 88.4714C81.2912 88.5553 81.3655 88.6587 81.4152 88.7745C81.4648 88.8902 81.4884 89.0154 81.4844 89.1413C81.4957 89.3426 81.4333 89.541 81.3089 89.6996C81.1762 89.8456 81.0047 89.9508 80.8144 90.0027C80.9048 90.029 80.9835 90.0853 81.0377 90.1623C81.1098 90.2581 81.1638 90.3661 81.1972 90.4813L81.5163 91.3906H80.9101L80.5751 90.4335C80.5382 90.3354 80.4712 90.2516 80.3837 90.1941C80.2835 90.1759 80.1808 90.1759 80.0806 90.1941H79.6818V91.4544L79.0756 91.4225ZM79.6818 89.6996H80.3358C80.7187 89.6996 80.9101 89.5401 80.9101 89.2051C80.9101 88.8701 80.7187 88.7106 80.3358 88.7106H79.6818V89.6996Z" fill="#00ADEF"/>
<path d="M8.93341 110.358V87.4185H24.3912V91.3588H13.9584V96.9421H23.6733V100.866H13.9584V110.358H8.93341Z" fill="#00ADEF"/>
<path d="M28.7141 110.358V87.4185H39.1628C41.2967 87.2808 43.4058 87.9403 45.0811 89.269C45.7832 89.9268 46.3327 90.7304 46.691 91.6233C47.0493 92.5162 47.2076 93.4769 47.1549 94.4375C47.2136 95.9694 46.7526 97.476 45.8469 98.7127C44.8954 99.8862 43.5736 100.702 42.0981 101.026C42.7139 101.234 43.2821 101.563 43.7697 101.993C44.2572 102.423 44.6542 102.945 44.9376 103.53L48.6385 110.31H43.0871L39.115 103.004C38.8549 102.483 38.4359 102.058 37.9186 101.792C37.3866 101.556 36.8091 101.442 36.2276 101.456H33.771V110.358H28.7141ZM33.7391 97.8672H38.2536C40.9655 97.8672 42.3214 96.8037 42.3214 94.6768C42.3214 92.5498 40.9655 91.4863 38.2536 91.4863H33.771L33.7391 97.8672Z" fill="#00ADEF"/>
<path d="M51.0633 110.358V87.4185H55.2588L62.9797 101.488L70.6846 87.4185H74.8003V110.358H70.222V96.3996L64.3196 106.928H61.4961L55.6097 96.4953V110.358H51.0633Z" fill="#00ADEF"/>
<path d="M48.3995 36.5148C48.3995 38.6698 47.5445 40.7367 46.0222 42.262C44.4999 43.7873 42.4347 44.6462 40.2798 44.6504C38.1233 44.6462 36.0565 43.7878 34.5316 42.2629C33.0068 40.7381 32.1483 38.6712 32.1441 36.5148C32.1441 34.3571 33.0012 32.2877 34.527 30.762C36.0527 29.2363 38.1221 28.3791 40.2798 28.3791C41.3474 28.3791 42.4046 28.5897 43.3907 28.9987C44.3769 29.4078 45.2727 30.0073 46.0269 30.763C46.7811 31.5186 47.3789 32.4157 47.786 33.4026C48.1931 34.3896 48.4016 35.4472 48.3995 36.5148Z" fill="#00ADEF"/>
<path d="M50.138 72.4872C29.4958 70.1103 11.4378 57.7154 11.4378 41.9545C11.4378 28.1239 25.7948 17.1009 42.6564 12.7938C42.6564 12.7938 43.2147 12.6661 43.1988 12.2673C43.1828 11.8685 42.6564 11.8685 42.6564 11.8685C21.2006 14.054 0 26.066 0 42.449C0 60.2996 25.0291 73.3646 48.8778 73.3646H50.0742C50.6964 73.3646 50.6485 72.902 50.6485 72.902C50.7123 72.5032 50.138 72.4872 50.138 72.4872Z" fill="white"/>
<path d="M30.389 0.877356C51.0312 3.25425 69.0254 15.6013 69.0254 31.3941C69.0254 45.2407 54.6684 56.2637 37.8068 60.5549C37.8068 60.5549 37.2325 60.6825 37.2485 61.0972C37.2644 61.512 37.8068 61.496 37.8068 61.496C59.2945 59.3106 80.4472 47.2826 80.4472 30.9155C80.4472 13.0649 55.4341 0 31.5854 0C31.1866 0 30.7878 0 30.389 0C29.9902 0 29.8147 0.462581 29.8147 0.462581C29.8147 0.845436 30.389 0.877356 30.389 0.877356Z" fill="white"/>
<path d="M119.913 59.4223C115.287 59.5737 110.697 58.5646 106.561 56.487C103.016 54.6318 100.121 51.7376 98.2661 48.1919C96.293 44.2332 95.3182 39.8519 95.4266 35.4301C95.3178 30.9837 96.3212 26.5805 98.3459 22.6204C100.237 19.0539 103.154 16.1365 106.721 14.2454C110.798 12.1577 115.334 11.1265 119.913 11.2464C123.1 11.2269 126.27 11.706 129.309 12.6662C131.983 13.4862 134.467 14.8311 136.615 16.6223L133.712 23.2744C131.767 21.7335 129.571 20.5408 127.22 19.749C124.853 19.0201 122.389 18.6596 119.913 18.6802C114.856 18.6802 111.044 20.1318 108.444 23.0032C105.843 25.8746 104.551 30.0223 104.551 35.4301C104.551 40.8379 105.891 45.0014 108.555 47.8569C111.219 50.7123 115.16 52.1161 120.376 52.1161C121.909 52.1103 123.44 51.9877 124.954 51.7492C126.522 51.4979 128.068 51.13 129.58 50.6485V39.7531H118.621V33.3722H136.823V55.9607C134.322 57.1244 131.685 57.9711 128.974 58.4811C125.994 59.1035 122.958 59.419 119.913 59.4223Z" fill="white"/>
<path d="M142.502 58.7523L164.085 11.9163H171.184L192.752 58.7523H183.962L179.176 47.9206H155.966L151.292 58.7523H142.502ZM167.531 21.1528L158.933 41.1409H176.257L167.659 21.1528H167.531Z" fill="white"/>
<path d="M198.798 58.7523V11.9163H219.536C224.768 11.9163 228.804 13.1446 231.643 15.6013C233.08 16.8937 234.208 18.4919 234.945 20.2781C235.682 22.0643 236.01 23.9931 235.903 25.9225C236.026 29.0515 235.043 32.124 233.127 34.6005C231.075 37.0056 228.259 38.6331 225.151 39.2108C227.646 40.0996 229.688 41.9407 230.83 44.3314L238.806 58.6884H229.235L220.987 43.7411C220.361 42.4701 219.358 41.4228 218.116 40.7421C216.781 40.1737 215.338 39.9069 213.888 39.9605H207.507V58.6884L198.798 58.7523ZM207.444 33.7869H218.004C224.385 33.7869 227.464 31.2505 227.464 26.2096C227.464 21.1687 224.273 18.696 218.004 18.696H207.444V33.7869Z" fill="white"/>
<path d="M249.685 58.7523V11.9163H270.423C275.655 11.9163 279.691 13.1979 282.531 15.7609C285.268 18.6843 286.792 22.5395 286.792 26.5446C286.792 30.5497 285.268 34.4048 282.531 37.3283C279.691 39.9126 275.655 41.2048 270.423 41.2048H258.347V58.7523H249.685ZM258.347 34.5048H269.035C275.257 34.5048 278.367 31.8461 278.367 26.5287C278.367 21.2112 275.257 18.5525 269.035 18.5525H258.347V34.5048Z" fill="white"/>
<path d="M298.228 22.0938C297.534 22.101 296.846 21.9709 296.202 21.711C295.604 21.458 295.062 21.0894 294.607 20.6262C294.144 20.1742 293.78 19.631 293.538 19.031C293.278 18.3875 293.148 17.699 293.155 17.005C293.148 16.3214 293.278 15.6433 293.538 15.011C293.783 14.4013 294.147 13.847 294.61 13.3811C295.074 12.9152 295.626 12.5473 296.234 12.2992C297.535 11.8094 298.969 11.8094 300.27 12.2992C300.867 12.5547 301.408 12.923 301.865 13.3839C302.328 13.839 302.697 14.3812 302.95 14.9792C303.21 15.6115 303.34 16.2896 303.333 16.9732C303.34 17.6672 303.21 18.3556 302.95 18.9991C302.7 19.5989 302.331 20.1417 301.865 20.5943C301.408 21.0552 300.867 21.4235 300.27 21.679C299.624 21.9524 298.93 22.0934 298.228 22.0938ZM298.228 21.4239C298.824 21.4285 299.415 21.3146 299.967 21.0888C300.489 20.8737 300.962 20.5533 301.355 20.1477C301.749 19.7423 302.063 19.266 302.28 18.7439C302.495 18.1841 302.603 17.5888 302.599 16.9891C302.607 16.204 302.415 15.4298 302.041 14.7398C301.663 14.0739 301.111 13.5227 300.445 13.1446C299.76 12.7576 298.983 12.5594 298.196 12.5704C297.6 12.5627 297.008 12.6766 296.457 12.9053C295.932 13.1155 295.454 13.4304 295.054 13.8307C294.653 14.2311 294.338 14.7086 294.128 15.2344C293.688 16.3573 293.688 17.605 294.128 18.7279C294.34 19.2531 294.654 19.7305 295.054 20.1317C295.45 20.541 295.928 20.8618 296.457 21.073C297.017 21.3114 297.62 21.4309 298.228 21.4239ZM296.122 19.9722V14.022H298.579C299.121 13.985 299.658 14.1561 300.078 14.5005C300.381 14.8001 300.566 15.1977 300.601 15.6218C300.636 16.0458 300.519 16.4684 300.27 16.8136C300.023 17.0912 299.693 17.2815 299.329 17.356C299.504 17.4017 299.657 17.5093 299.759 17.6591C299.89 17.8372 299.987 18.0371 300.047 18.2494L300.669 19.9722H299.52L298.898 18.1696C298.869 18.0746 298.822 17.9861 298.759 17.9095C298.696 17.8328 298.619 17.7694 298.531 17.7229C298.355 17.6475 298.165 17.6095 297.973 17.6112H297.223V19.9722H296.122ZM297.239 16.7818H298.467C299.185 16.7818 299.552 16.4627 299.552 15.8406C299.552 15.2184 299.185 14.9153 298.467 14.9153H297.239V16.7818Z" fill="white"/>
<path d="M99.9413 107.167L107.71 89.6199H109.449L117.218 107.167H115.128L113.182 102.669H103.961L102.063 107.167H99.9413ZM108.556 91.949L104.743 100.946H112.432L108.603 91.949H108.556Z" fill="white"/>
<path d="M119.578 111.698V95.0596H121.508V97.2291C121.853 96.4982 122.409 95.8871 123.104 95.4743C123.874 95.0303 124.752 94.8094 125.64 94.8363C126.64 94.8139 127.626 95.0797 128.48 95.602C129.296 96.1317 129.944 96.8846 130.346 97.7715C130.812 98.8307 131.035 99.9807 131 101.137C131.032 102.284 130.809 103.422 130.346 104.471C129.94 105.36 129.294 106.117 128.48 106.657C127.626 107.179 126.64 107.445 125.64 107.423C124.765 107.438 123.902 107.224 123.136 106.801C122.438 106.406 121.88 105.804 121.54 105.078V111.698H119.578ZM125.289 105.796C125.806 105.816 126.321 105.717 126.794 105.507C127.267 105.296 127.685 104.98 128.017 104.583C128.759 103.594 129.121 102.371 129.038 101.137C129.126 99.8933 128.763 98.6591 128.017 97.6598C127.682 97.2672 127.263 96.9557 126.79 96.7485C126.318 96.5412 125.805 96.4437 125.289 96.4634C124.776 96.4426 124.264 96.5396 123.794 96.747C123.324 96.9544 122.908 97.2666 122.577 97.6598C121.825 98.6569 121.457 99.8913 121.54 101.137C121.462 102.373 121.83 103.596 122.577 104.583C122.905 104.981 123.32 105.298 123.791 105.508C124.261 105.718 124.774 105.817 125.289 105.796Z" fill="white"/>
<path d="M134.127 111.698V95.0596H136.105V97.2291C136.45 96.4982 137.005 95.8871 137.7 95.4743C138.47 95.0303 139.348 94.8094 140.237 94.8363C141.232 94.8115 142.214 95.0776 143.06 95.602C143.885 96.1266 144.54 96.8806 144.943 97.7715C145.402 98.8328 145.625 99.9813 145.597 101.137C145.621 102.283 145.398 103.42 144.943 104.471C144.536 105.364 143.883 106.122 143.06 106.657C142.214 107.181 141.232 107.447 140.237 107.423C139.362 107.438 138.498 107.224 137.732 106.801C137.034 106.406 136.477 105.804 136.137 105.078V111.698H134.127ZM139.854 105.796C140.371 105.816 140.886 105.717 141.359 105.507C141.832 105.296 142.25 104.98 142.582 104.583C143.323 103.594 143.685 102.371 143.603 101.137C143.69 99.8933 143.328 98.6591 142.582 97.6598C142.247 97.2672 141.828 96.9557 141.355 96.7485C140.883 96.5412 140.369 96.4437 139.854 96.4634C139.338 96.4437 138.825 96.5412 138.353 96.7485C137.88 96.9557 137.461 97.2672 137.126 97.6598C136.386 98.6622 136.024 99.894 136.105 101.137C136.029 102.37 136.391 103.59 137.126 104.583C137.458 104.98 137.876 105.296 138.349 105.507C138.822 105.717 139.337 105.816 139.854 105.796Z" fill="white"/>
<path d="M148.627 107.167V95.0277H150.605V97.1972C150.968 96.45 151.539 95.8236 152.249 95.3934C152.96 94.9632 153.779 94.7476 154.609 94.7724H155.327L155.471 96.5113L154.211 96.6708C153.23 96.6977 152.293 97.0837 151.578 97.7555C150.956 98.4555 150.635 99.3727 150.685 100.308V107.167H148.627Z" fill="white"/>
<path d="M162.538 107.423C161.462 107.448 160.398 107.184 159.459 106.657C158.596 106.134 157.899 105.376 157.449 104.471C156.955 103.431 156.715 102.289 156.747 101.137C156.715 99.9811 156.955 98.8334 157.449 97.7874C157.903 96.8862 158.599 96.1293 159.459 95.602C160.398 95.075 161.462 94.8106 162.538 94.8363C163.609 94.8127 164.667 95.0771 165.601 95.602C166.469 96.1243 167.172 96.8821 167.627 97.7874C168.114 98.8358 168.354 99.9818 168.329 101.137C168.354 102.288 168.114 103.429 167.627 104.471C167.176 105.38 166.473 106.139 165.601 106.657C164.667 107.182 163.609 107.446 162.538 107.423ZM162.538 105.827C163.055 105.847 163.57 105.749 164.043 105.538C164.516 105.328 164.934 105.012 165.266 104.615C166.001 103.622 166.363 102.402 166.287 101.169C166.367 99.926 166.006 98.6942 165.266 97.6917C164.931 97.2991 164.512 96.9875 164.039 96.7803C163.567 96.5731 163.054 96.4756 162.538 96.4953C162.028 96.4626 161.516 96.5444 161.041 96.7348C160.567 96.9253 160.141 97.2196 159.794 97.596C159.06 98.6006 158.704 99.8322 158.789 101.074C158.709 102.305 159.065 103.525 159.794 104.519C160.122 104.93 160.54 105.258 161.016 105.48C161.492 105.701 162.013 105.809 162.538 105.796V105.827Z" fill="white"/>
<path d="M174.773 107.167L169.557 95.0278H171.758L175.746 104.902L179.814 95.0596H181.888L176.672 107.167H174.773Z" fill="white"/>
<path d="M189.37 107.423C188.536 107.467 187.703 107.34 186.921 107.049C186.139 106.758 185.425 106.31 184.823 105.732C184.263 105.115 183.833 104.392 183.559 103.605C183.285 102.819 183.172 101.985 183.228 101.153C183.2 100.008 183.458 98.8727 183.978 97.8513C184.439 96.9276 185.153 96.1534 186.036 95.618C186.954 95.0826 188.003 94.8121 189.067 94.8364C189.79 94.801 190.513 94.9257 191.183 95.2014C191.853 95.4771 192.454 95.8972 192.943 96.4316C193.899 97.6734 194.365 99.2235 194.251 100.787V101.552H185.11C185.091 102.732 185.525 103.873 186.323 104.743C186.729 105.122 187.21 105.414 187.734 105.601C188.258 105.788 188.815 105.865 189.37 105.827C190.08 105.83 190.786 105.717 191.459 105.492C192.138 105.237 192.761 104.852 193.294 104.36L193.996 105.78C193.388 106.329 192.67 106.742 191.89 106.992C191.079 107.27 190.227 107.416 189.37 107.423ZM189.035 96.3359C188.532 96.3083 188.03 96.3895 187.562 96.5739C187.094 96.7584 186.671 97.0418 186.323 97.4047C185.622 98.186 185.207 99.181 185.142 100.228H192.512C192.531 99.1899 192.193 98.1765 191.555 97.3568C191.236 97.0114 190.845 96.7408 190.409 96.5643C189.973 96.3878 189.504 96.3099 189.035 96.3359Z" fill="white"/>
<path d="M201.797 107.423C200.807 107.456 199.83 107.193 198.992 106.667C198.153 106.142 197.491 105.377 197.091 104.471C196.218 102.323 196.218 99.9196 197.091 97.7715C197.494 96.8806 198.148 96.1266 198.973 95.602C199.82 95.0776 200.801 94.8116 201.797 94.8363C202.677 94.8186 203.546 95.0331 204.317 95.4584C205.013 95.8556 205.57 96.4571 205.912 97.1813V89.6199H207.938V107.167H206.056V104.95C205.723 105.697 205.166 106.322 204.461 106.737C203.659 107.221 202.733 107.46 201.797 107.423ZM202.227 105.827C202.744 105.847 203.259 105.749 203.732 105.538C204.205 105.328 204.624 105.012 204.955 104.615C205.621 103.583 205.976 102.381 205.976 101.153C205.976 99.9253 205.621 98.7234 204.955 97.6918C204.62 97.2992 204.201 96.9875 203.729 96.7803C203.256 96.5731 202.743 96.4757 202.227 96.4953C201.709 96.4744 201.193 96.5712 200.718 96.7785C200.243 96.9857 199.821 97.2979 199.483 97.6918C198.827 98.7269 198.478 99.9274 198.478 101.153C198.478 102.379 198.827 103.58 199.483 104.615C199.821 105.008 200.243 105.318 200.719 105.523C201.194 105.728 201.71 105.821 202.227 105.796V105.827Z" fill="white"/>
<path d="M218.435 107.167V89.6199H229.601V91.3428H220.413V97.4366H229.027V99.1913H220.413V105.572H229.537V107.167H218.435Z" fill="white"/>
<path d="M231.18 107.167L236.221 100.898L231.436 95.0278H233.844L237.37 99.4944L240.911 95.0278H243.288L238.502 100.898L243.607 107.167H241.151L237.306 102.382L233.509 107.167H231.18Z" fill="white"/>
<path d="M249.558 107.423C248.786 107.436 248.022 107.272 247.324 106.944C246.687 106.64 246.138 106.179 245.729 105.604C245.349 105.045 245.148 104.382 245.155 103.706C245.125 102.945 245.368 102.198 245.841 101.6C246.467 101.003 247.265 100.618 248.122 100.499C249.548 100.245 250.996 100.133 252.445 100.164H253.258V99.3827C253.326 98.5853 253.099 97.7907 252.62 97.1494C252.346 96.9 252.023 96.7103 251.671 96.5923C251.32 96.4742 250.948 96.4303 250.578 96.4634C249.86 96.4589 249.145 96.5611 248.457 96.7665C247.711 97.008 247.003 97.3516 246.351 97.7875L245.665 96.304C246.366 95.8229 247.143 95.4617 247.962 95.2352C248.81 94.9763 249.692 94.8419 250.578 94.8364C251.206 94.7848 251.837 94.8598 252.434 95.0571C253.031 95.2544 253.583 95.57 254.056 95.9849C254.474 96.4753 254.79 97.0435 254.988 97.6567C255.185 98.27 255.258 98.9162 255.205 99.5582V107.167H253.338V105.078C253.026 105.773 252.516 106.362 251.871 106.769C251.18 107.207 250.376 107.434 249.558 107.423ZM249.893 105.907C250.35 105.92 250.805 105.833 251.226 105.654C251.647 105.475 252.025 105.208 252.333 104.87C252.981 104.144 253.324 103.195 253.29 102.222V101.488H252.509C251.442 101.466 250.376 101.525 249.318 101.664C248.734 101.72 248.179 101.948 247.723 102.318C247.559 102.482 247.433 102.679 247.353 102.897C247.273 103.115 247.241 103.347 247.26 103.578C247.262 103.878 247.325 104.174 247.445 104.449C247.566 104.723 247.742 104.97 247.962 105.173C248.488 105.656 249.179 105.918 249.893 105.907Z" fill="white"/>
<path d="M259.033 107.167V95.0278H260.995V97.0696C261.346 96.3631 261.902 95.7792 262.591 95.3947C263.275 94.9894 264.06 94.7849 264.856 94.8044C265.658 94.7243 266.463 94.9278 267.13 95.3796C267.797 95.8313 268.285 96.5027 268.509 97.277C268.855 96.5299 269.408 95.8984 270.104 95.4584C270.852 95.0156 271.708 94.7892 272.577 94.8044C275.273 94.8044 276.613 96.3997 276.613 99.5901V107.167H274.651V99.7018C274.714 98.8415 274.508 97.9828 274.06 97.2452C273.826 96.9671 273.529 96.7494 273.193 96.6106C272.857 96.4717 272.492 96.4159 272.13 96.4476C271.682 96.43 271.236 96.5158 270.827 96.6984C270.417 96.881 270.055 97.1554 269.769 97.5004C269.162 98.3003 268.857 99.289 268.908 100.292V107.167H266.802V99.7018C266.866 98.8415 266.659 97.9828 266.212 97.2452C265.978 96.9671 265.68 96.7494 265.344 96.6106C265.008 96.4717 264.644 96.4159 264.282 96.4476C263.82 96.4324 263.361 96.5288 262.945 96.7288C262.528 96.9287 262.166 97.2262 261.889 97.5961C261.281 98.396 260.976 99.3847 261.027 100.388V107.167H259.033Z" fill="white"/>
<path d="M287.061 107.167V89.6199H294.017C295.593 89.5204 297.151 90.0092 298.388 90.9918C299.352 92.0684 299.885 93.4629 299.885 94.9081C299.885 96.3533 299.352 97.7478 298.388 98.8244C297.157 99.821 295.596 100.317 294.017 100.212H289.103V107.167H287.061ZM289.103 98.4256H293.793C296.521 98.4256 297.893 97.2292 297.893 94.8523C297.893 92.4754 296.521 91.2631 293.793 91.2631H289.103V98.4256Z" fill="white"/>
<path d="M302.344 107.167V95.0278H304.322V97.1973C304.682 96.4514 305.25 95.8255 305.957 95.3952C306.665 94.965 307.482 94.7487 308.31 94.7725H309.028L309.187 96.5113L307.911 96.6708C306.934 96.6941 306.001 97.0809 305.295 97.7556C304.981 98.099 304.739 98.5017 304.583 98.94C304.427 99.3783 304.359 99.8434 304.386 100.308V107.167H302.344Z" fill="white"/>
<path d="M316.605 107.423C315.772 107.467 314.938 107.34 314.156 107.049C313.374 106.758 312.66 106.31 312.059 105.732C311.498 105.115 311.068 104.392 310.794 103.605C310.52 102.819 310.408 101.985 310.463 101.153C310.443 100.008 310.701 98.8754 311.213 97.8513C311.675 96.9276 312.388 96.1534 313.271 95.618C314.19 95.0826 315.239 94.8121 316.302 94.8364C317.026 94.7977 317.75 94.9208 318.42 95.1967C319.091 95.4727 319.691 95.8945 320.178 96.4316C321.172 97.664 321.673 99.2219 321.582 100.803V101.568H312.362C312.33 102.747 312.759 103.891 313.558 104.759C313.966 105.137 314.446 105.428 314.97 105.614C315.494 105.801 316.05 105.879 316.605 105.843C317.315 105.849 318.022 105.736 318.695 105.508C319.397 105.267 320.047 104.893 320.609 104.408L321.295 105.827C320.693 106.376 319.981 106.79 319.205 107.04C318.365 107.308 317.487 107.438 316.605 107.423ZM316.286 96.3359C315.781 96.3091 315.277 96.3906 314.806 96.5749C314.336 96.7593 313.91 97.0422 313.558 97.4047C312.866 98.1913 312.452 99.1833 312.378 100.228H319.748C319.766 99.1899 319.428 98.1765 318.791 97.3568C318.473 97.0136 318.085 96.7443 317.652 96.5678C317.219 96.3914 316.753 96.3123 316.286 96.3359Z" fill="white"/>
<path d="M324.422 111.698V95.0596H326.4V97.2292C326.748 96.5005 327.302 95.8902 327.995 95.4744C328.767 95.0365 329.644 94.816 330.531 94.8364C331.532 94.814 332.517 95.0798 333.371 95.6021C334.208 96.1176 334.869 96.8738 335.269 97.7716C335.711 98.833 335.939 99.9717 335.939 101.122C335.939 102.272 335.711 103.41 335.269 104.472C334.874 105.367 334.225 106.126 333.403 106.657C332.549 107.179 331.564 107.445 330.563 107.423C329.693 107.437 328.835 107.223 328.075 106.801C327.377 106.406 326.819 105.804 326.479 105.078V111.698H324.422ZM330.148 105.796C330.663 105.816 331.176 105.717 331.646 105.506C332.116 105.296 332.532 104.98 332.86 104.583C333.527 103.552 333.881 102.35 333.881 101.122C333.881 99.8935 333.527 98.6915 332.86 97.6599C332.515 97.2822 332.095 96.9805 331.627 96.7741C331.158 96.5678 330.652 96.4612 330.14 96.4612C329.629 96.4612 329.123 96.5678 328.654 96.7741C328.186 96.9805 327.766 97.2822 327.421 97.6599C326.754 98.6915 326.4 99.8935 326.4 101.122C326.4 102.35 326.754 103.552 327.421 104.583C327.752 104.981 328.171 105.296 328.644 105.507C329.116 105.717 329.631 105.816 330.148 105.796Z" fill="white"/>
<path d="M345.67 107.167V89.6199H352.641C354.218 89.5204 355.775 90.0092 357.012 90.9918C357.976 92.0684 358.509 93.4629 358.509 94.9081C358.509 96.3533 357.976 97.7478 357.012 98.8244C355.782 99.821 354.221 100.317 352.641 100.212H347.728V107.167H345.67ZM347.728 98.4256H352.402C355.13 98.4256 356.502 97.2292 356.502 94.8523C356.502 92.4754 355.13 91.2631 352.402 91.2631H347.728V98.4256Z" fill="white"/>
<path d="M360.968 107.167V95.0278H362.946V97.1973C363.306 96.4514 363.874 95.8255 364.582 95.3952C365.29 94.965 366.107 94.7487 366.934 94.7725H367.668L367.812 96.5113L366.536 96.6708C365.559 96.6941 364.626 97.0809 363.919 97.7556C363.606 98.099 363.363 98.5017 363.207 98.94C363.051 99.3783 362.984 99.8434 363.01 100.308V107.167H360.968Z" fill="white"/>
<path d="M374.799 107.423C373.727 107.45 372.669 107.186 371.736 106.657C370.865 106.143 370.166 105.383 369.726 104.472C369.253 103.421 369.008 102.282 369.008 101.13C369.008 99.9773 369.253 98.8381 369.726 97.7875C370.17 96.8797 370.868 96.1204 371.736 95.602C372.669 95.0734 373.727 94.8088 374.799 94.8364C375.87 94.8127 376.928 95.0772 377.862 95.602C378.73 96.1244 379.433 96.8822 379.888 97.7875C380.361 98.8381 380.606 99.9773 380.606 101.13C380.606 102.282 380.361 103.421 379.888 104.472C379.437 105.38 378.733 106.139 377.862 106.657C376.928 107.182 375.87 107.446 374.799 107.423ZM374.799 105.827C375.316 105.848 375.831 105.749 376.304 105.539C376.777 105.328 377.195 105.012 377.527 104.615C378.193 103.583 378.547 102.381 378.547 101.153C378.547 99.9254 378.193 98.7234 377.527 97.6918C377.192 97.2992 376.773 96.9876 376.3 96.7804C375.828 96.5731 375.314 96.4757 374.799 96.4954C374.283 96.4733 373.769 96.5697 373.296 96.7771C372.823 96.9844 372.404 97.2974 372.071 97.6918C371.414 98.7269 371.065 99.9275 371.065 101.153C371.065 102.379 371.414 103.58 372.071 104.615C372.403 105.009 372.823 105.321 373.296 105.526C373.769 105.731 374.284 105.823 374.799 105.796V105.827Z" fill="white"/>
<path d="M387.05 107.167L381.818 95.0278H384.019L388.039 104.87L392.107 95.0278H394.181L388.949 107.167H387.05Z" fill="white"/>
<path d="M396.079 92.0447V89.7635H398.584V92.0447H396.079ZM396.335 107.199V95.0596H398.36V107.167L396.335 107.199Z" fill="white"/>
<path d="M406.751 107.423C405.751 107.445 404.765 107.179 403.912 106.657C403.094 106.122 402.446 105.363 402.046 104.471C401.603 103.41 401.376 102.271 401.376 101.122C401.376 99.9716 401.603 98.833 402.046 97.7715C402.443 96.8817 403.091 96.1276 403.912 95.602C404.765 95.0797 405.751 94.814 406.751 94.8363C407.627 94.8161 408.492 95.0308 409.256 95.4584C409.955 95.8514 410.513 96.4541 410.851 97.1813V89.6199H412.877V107.167H410.899V104.95C410.574 105.702 410.014 106.329 409.304 106.737C408.534 107.2 407.65 107.438 406.751 107.423ZM407.182 105.827C407.697 105.847 408.21 105.749 408.68 105.538C409.15 105.328 409.566 105.012 409.894 104.615C410.56 103.583 410.915 102.381 410.915 101.153C410.915 99.9253 410.56 98.7234 409.894 97.6918C409.547 97.3136 409.126 97.0117 408.656 96.8051C408.187 96.5986 407.679 96.492 407.166 96.492C406.653 96.492 406.146 96.5986 405.676 96.8051C405.207 97.0117 404.785 97.3136 404.438 97.6918C403.782 98.7269 403.433 99.9274 403.433 101.153C403.433 102.379 403.782 103.58 404.438 104.615C404.774 105.01 405.196 105.322 405.672 105.526C406.148 105.731 406.665 105.823 407.182 105.796V105.827Z" fill="white"/>
<path d="M422.161 107.423C421.328 107.467 420.495 107.34 419.713 107.049C418.931 106.758 418.217 106.31 417.615 105.732C417.04 105.122 416.596 104.401 416.308 103.614C416.02 102.827 415.895 101.99 415.94 101.153C415.92 100.008 416.177 98.8754 416.69 97.8513C417.161 96.9343 417.872 96.1625 418.747 95.618C419.672 95.0829 420.726 94.8125 421.794 94.8364C422.516 94.8001 423.236 94.9243 423.904 95.2001C424.571 95.476 425.169 95.8966 425.655 96.4316C426.649 97.664 427.149 99.2218 427.059 100.803V101.568H417.918C417.886 102.747 418.316 103.891 419.114 104.759C419.523 105.136 420.003 105.426 420.527 105.613C421.05 105.799 421.606 105.878 422.161 105.843C422.877 105.846 423.588 105.733 424.267 105.508C424.963 105.263 425.606 104.889 426.165 104.408L426.867 105.827C426.257 106.373 425.54 106.786 424.761 107.04C423.921 107.308 423.043 107.438 422.161 107.423ZM421.842 96.3359C421.338 96.3091 420.833 96.3906 420.363 96.5749C419.892 96.7593 419.466 97.0422 419.114 97.4047C418.422 98.1913 418.008 99.1832 417.934 100.228H425.304C425.322 99.1899 424.984 98.1765 424.347 97.3568C424.03 97.0135 423.641 96.7442 423.208 96.5678C422.775 96.3914 422.309 96.3122 421.842 96.3359Z" fill="white"/>
<path d="M429.978 107.167V95.0278H431.956V97.1973C432.317 96.4526 432.886 95.8279 433.593 95.3979C434.3 94.9678 435.117 94.7507 435.944 94.7725H436.678L436.821 96.5113L435.545 96.6708C434.569 96.6941 433.636 97.0809 432.929 97.7556C432.617 98.0998 432.378 98.503 432.224 98.9414C432.071 99.3797 432.007 99.8444 432.036 100.308V107.167H429.978Z" fill="white"/>
</svg>
