<svg width="183" height="129" viewBox="0 0 183 129" fill="none" xmlns="http://www.w3.org/2000/svg">
<path d="M99.1919 31.9965C99.1919 33.4077 98.7733 34.7871 97.989 35.9603C97.2047 37.1335 96.0899 38.0476 94.7859 38.587C93.4819 39.1264 92.0471 39.2668 90.6633 38.9905C89.2794 38.7141 88.0086 38.0335 87.0117 37.0346C86.0148 36.0358 85.3367 34.7637 85.0631 33.3793C84.7895 31.9949 84.9327 30.5604 85.4747 29.2574C86.0166 27.9545 86.933 26.8416 88.1077 26.0596C89.2824 25.2776 90.6626 24.8616 92.0738 24.8644C93.0098 24.8644 93.9365 25.049 94.801 25.4076C95.6655 25.7662 96.4509 26.2917 97.112 26.9542C97.7732 27.6166 98.2972 28.403 98.6541 29.2682C99.011 30.1334 99.1937 31.0605 99.1919 31.9965Z" fill="#00ADEF"/>
<path d="M100.702 63.5313C82.6065 61.4476 66.832 50.6236 66.832 36.765C66.832 24.6405 79.418 14.9772 94.1996 11.2014C94.1996 11.2014 94.703 11.0895 94.6891 10.7399C94.6751 10.3903 94.1996 10.3903 94.1996 10.3903C75.4044 12.3062 56.8191 22.8365 56.8191 37.1985C56.8191 52.8472 78.7468 64.3004 99.6675 64.3004H100.702C101.262 64.3004 101.206 63.8949 101.206 63.8949C101.206 63.5453 100.702 63.5313 100.702 63.5313Z" fill="#FFFDF6"/>
<path d="M83.4036 0.769145C101.499 2.85283 117.274 13.6768 117.274 27.5354C117.274 39.66 104.688 49.3232 89.9064 53.099C89.9064 53.099 89.4029 53.2109 89.4169 53.5605C89.4309 53.9101 89.9064 53.9101 89.9064 53.9101C108.702 51.9943 127.287 41.464 127.287 27.1019C127.287 11.4533 105.359 0 84.4384 0C84.0888 0 83.7392 0 83.4036 0C82.8442 0 82.8862 0.405548 82.8862 0.405548C82.8862 0.769144 83.4036 0.769145 83.4036 0.769145Z" fill="#FFFDF6"/>
<path d="M21.8394 128.988C17.7816 129.116 13.7553 128.237 10.1204 126.429C7.02108 124.788 4.49082 122.248 2.86246 119.143C1.12736 115.674 0.272521 111.832 0.373274 107.955C0.274779 104.045 1.14938 100.172 2.91846 96.6836C4.58557 93.5592 7.1466 91.0029 10.2742 89.3418C13.8312 87.5369 17.7822 86.6477 21.7695 86.7547C24.569 86.7353 27.3538 87.1601 30.0203 88.0133C32.3647 88.7248 34.5427 89.8993 36.4252 91.4674L33.866 97.257C32.1632 95.9033 30.2371 94.8574 28.1744 94.1664C26.1 93.5293 23.9393 93.218 21.7695 93.2434C17.3504 93.2434 13.9941 94.5021 11.7287 97.0193C9.46317 99.5365 8.38635 103.214 8.38635 107.955C8.38635 112.696 9.54706 116.346 11.8825 118.849C14.2179 121.352 17.672 122.583 22.2589 122.583C24.9984 122.568 27.7196 122.134 30.328 121.296V111.745H20.7207V106.151H36.6629V125.953C34.4703 126.976 32.1592 127.723 29.7826 128.177C27.1686 128.712 24.5076 128.983 21.8394 128.988Z" fill="#FFFDF6"/>
<path d="M41.6414 128.4L60.5484 87.342H66.7715L85.6925 128.4H77.987L73.7917 118.905H53.4442L49.3468 128.4H41.6414ZM63.583 95.439L56.0454 112.962H71.2185L63.6949 95.439H63.583Z" fill="#FFFDF6"/>
<path d="M90.9786 128.4V87.342H109.158C113.745 87.342 117.283 88.4188 119.773 90.5724C121.033 91.7075 122.023 93.1109 122.669 94.6792C123.315 96.2475 123.601 97.9408 123.507 99.6344C123.611 102.37 122.755 105.057 121.087 107.228C119.286 109.336 116.819 110.767 114.095 111.283C115.18 111.661 116.18 112.252 117.034 113.02C117.889 113.789 118.582 114.719 119.073 115.758L126.066 128.344H117.675L110.473 115.297C109.928 114.184 109.048 113.269 107.956 112.682C106.789 112.173 105.522 111.934 104.25 111.983H98.6561V128.4H90.9786ZM98.5722 106.445H107.816C113.354 106.445 116.123 104.231 116.123 99.8022C116.123 95.3738 113.354 93.1782 107.816 93.2155H98.5722V106.445Z" fill="#FFFDF6"/>
<path d="M135.645 128.4V87.342H153.825C158.412 87.342 161.95 88.4654 164.439 90.7123C165.709 91.9206 166.701 93.3909 167.345 95.0209C167.99 96.6509 168.272 98.4017 168.173 100.152C168.27 101.906 167.987 103.66 167.342 105.294C166.698 106.928 165.707 108.404 164.439 109.619C161.95 111.885 158.412 113.031 153.825 113.031H143.267V128.414L135.645 128.4ZM143.225 107.144H152.594C158.048 107.144 160.775 104.813 160.775 100.152C160.775 95.5369 157.978 93.1595 152.594 93.1595H143.225V107.144Z" fill="#FFFDF6"/>
<path d="M178.144 96.2642C177.54 96.269 176.941 96.1549 176.382 95.9285C175.861 95.7066 175.387 95.3888 174.983 94.9916C174.577 94.5926 174.254 94.1174 174.032 93.5931C173.806 93.0335 173.692 92.4348 173.697 91.8311C173.689 91.2272 173.803 90.6279 174.032 90.069C174.254 89.5448 174.577 89.0696 174.983 88.6706C175.379 88.2645 175.856 87.9454 176.382 87.7336C176.941 87.5072 177.54 87.3932 178.144 87.398C178.748 87.3906 179.347 87.5047 179.906 87.7336C180.441 87.9446 180.926 88.2633 181.333 88.6698C181.739 89.0764 182.058 89.5622 182.269 90.097C182.498 90.6559 182.612 91.2551 182.605 91.8591C182.61 92.4627 182.496 93.0615 182.269 93.6211C182.057 94.1473 181.738 94.6235 181.332 95.0195C180.48 95.8494 179.333 96.3072 178.144 96.2921V96.2642ZM178.144 95.6768C178.667 95.6836 179.185 95.5836 179.668 95.3831C180.126 95.2012 180.541 94.9248 180.885 94.572C181.473 93.944 181.848 93.1461 181.956 92.2922C182.064 91.4383 181.9 90.5721 181.486 89.8173C181.159 89.2305 180.674 88.7463 180.088 88.4189C179.488 88.0764 178.806 87.9025 178.116 87.9154C177.593 87.9102 177.075 88.0101 176.591 88.2091C176.137 88.3979 175.724 88.6734 175.375 89.0202C175.02 89.3712 174.74 89.7896 174.55 90.2508C174.361 90.7416 174.266 91.2634 174.27 91.7891C174.268 92.3102 174.363 92.8271 174.55 93.3134C174.743 93.7771 175.023 94.1995 175.375 94.5581C175.724 94.9048 176.137 95.1803 176.591 95.3692C177.082 95.5767 177.611 95.6814 178.144 95.6768ZM176.312 94.4602V89.188H178.493C178.969 89.1556 179.439 89.3056 179.808 89.6076C179.959 89.7474 180.078 89.9189 180.155 90.1099C180.233 90.3009 180.267 90.5066 180.255 90.7123C180.284 91.0423 180.185 91.3707 179.98 91.6305C179.775 91.8904 179.478 92.0622 179.151 92.1108C179.298 92.163 179.429 92.2549 179.528 92.3765C179.642 92.5326 179.727 92.7078 179.78 92.8939L180.395 94.4602H179.374L178.829 92.8799C178.809 92.7983 178.77 92.7221 178.717 92.6568C178.664 92.5916 178.597 92.5388 178.521 92.5023C178.364 92.4264 178.192 92.388 178.018 92.3905H177.361V94.4602H176.312ZM177.277 91.6633H178.353C178.997 91.6633 179.304 91.3836 179.304 90.8382C179.304 90.2928 178.997 90.0271 178.353 90.0271H177.277V91.6633Z" fill="#FFFDF6"/>
</svg>
