<svg width="48" height="49" viewBox="0 0 48 49" fill="none" xmlns="http://www.w3.org/2000/svg">
<path d="M35.5541 16.8886C33.8939 16.8886 32.3072 16.9264 30.7257 16.8886C27.1898 16.7913 24.6311 15.0991 23.1232 11.7904C22.6523 10.733 22.4206 9.57962 22.4454 8.41685V3.43764C22.2615 3.43764 22.1144 3.4052 21.9673 3.4052C17.6345 3.4052 13.2999 3.4052 8.9636 3.4052C7.78276 3.35281 6.62371 3.74404 5.70248 4.50597C4.78125 5.2679 4.16069 6.34853 3.95651 7.54644C3.89497 7.98132 3.87035 8.42089 3.88294 8.86017C3.88294 15.3766 3.88294 21.893 3.88294 28.4095C3.88294 29.4907 3.40485 30.1665 2.52217 30.3449C2.3037 30.3848 2.07961 30.3783 1.86366 30.3258C1.64771 30.2734 1.44443 30.1761 1.26633 30.0399C1.08823 29.9037 0.939067 29.7316 0.82796 29.5339C0.716854 29.3363 0.646162 29.1174 0.620224 28.8906C0.612269 28.7321 0.612269 28.5733 0.620224 28.4149C0.620224 21.7975 0.620224 15.1748 0.620224 8.55201C0.58524 6.61159 1.20798 4.71921 2.38152 3.19989C3.55506 1.68058 5.20614 0.629171 7.05113 0.226281C7.72023 0.0875979 8.402 0.0241318 9.08443 0.0370395C13.813 0.0370395 18.5732 0.0370408 23.3176 0.00460282C23.7952 -0.0212889 24.2725 0.0622936 24.715 0.24928C25.1575 0.436267 25.5541 0.721992 25.8763 1.08587C29.9271 5.31362 34.02 9.49811 38.1076 13.688C38.36 13.9204 38.5586 14.2082 38.6886 14.5301C38.8186 14.852 38.8768 15.1997 38.8589 15.5478C38.8169 16.8832 38.8589 18.2185 38.8589 19.5539C38.877 19.7868 38.8481 20.021 38.774 20.2418C38.6998 20.4626 38.582 20.6652 38.428 20.8368C38.274 21.0085 38.0872 21.1455 37.8792 21.2392C37.6713 21.3329 37.4467 21.3812 37.2197 21.3812C36.9926 21.3812 36.768 21.3329 36.5601 21.2392C36.3521 21.1455 36.1653 21.0085 36.0113 20.8368C35.8573 20.6652 35.7395 20.4626 35.6653 20.2418C35.5912 20.021 35.5623 19.7868 35.5804 19.5539L35.5541 16.8886ZM25.7239 5.99482C25.7239 6.81659 25.7239 7.69242 25.7239 8.56824C25.7249 9.6757 26.093 10.7497 26.7675 11.6127C27.4419 12.4758 28.3822 13.0763 29.4332 13.315C30.6516 13.4933 31.8804 13.5855 33.111 13.5907L25.7239 5.99482Z" fill="#7C808A"/>
<path d="M39.3209 37.6218C39.4747 37.7173 39.6206 37.8258 39.757 37.9462C42.1633 40.4114 44.5591 42.8875 46.9707 45.3474C47.2173 45.5673 47.3978 45.855 47.4909 46.1769C47.584 46.4987 47.5858 46.8411 47.4961 47.164C47.4192 47.4253 47.2815 47.6635 47.0951 47.8578C46.9086 48.0521 46.679 48.1968 46.426 48.2793C46.173 48.3618 45.9043 48.3797 45.6431 48.3314C45.3819 48.283 45.1361 48.17 44.9269 48.002C44.7832 47.8784 44.648 47.7448 44.5224 47.6019C42.1686 45.1835 39.8165 42.7614 37.4662 40.3358C37.3376 40.1907 37.2183 40.0372 37.1089 39.8762C36.0049 40.6734 34.7458 41.2143 33.4186 41.4617C32.0915 41.7091 30.728 41.6569 29.4223 41.3089C27.2595 40.7662 25.3689 39.4179 24.1158 37.5245C22.8531 35.656 22.2797 33.3853 22.4988 31.1207C22.7179 28.8561 23.715 26.7462 25.3109 25.1705C26.9068 23.5949 28.9966 22.6568 31.2046 22.5251C33.4125 22.3934 35.5937 23.0767 37.3559 24.452C39.2638 25.968 40.5319 28.1809 40.8977 30.6326C41.2635 33.0842 40.6989 35.5867 39.3209 37.6218ZM31.7288 38.2327C32.9157 38.2327 34.0759 37.8708 35.063 37.1928C36.0501 36.5147 36.8199 35.5509 37.275 34.423C37.7301 33.2951 37.8503 32.0538 37.6203 30.8557C37.3903 29.6576 36.8204 28.5565 35.9826 27.6914C35.1449 26.8263 34.0768 26.2361 32.9132 25.9952C31.7497 25.7543 30.5429 25.8736 29.4452 26.338C28.3475 26.8024 27.4082 27.5911 26.7458 28.6044C26.0834 29.6178 25.7276 30.8104 25.7235 32.0316C25.7179 32.8457 25.8693 33.6529 26.1689 34.4064C26.4684 35.16 26.9102 35.8449 27.4687 36.4215C28.0272 36.9982 28.6913 37.4552 29.4225 37.7661C30.1538 38.077 30.9376 38.2356 31.7288 38.2327Z" fill="#7C808A"/>
<path d="M17.1807 48.3534C14.4328 48.3534 11.6902 48.3534 8.94239 48.3534C4.66563 48.3534 1.33458 45.461 0.698848 41.1197C0.570839 39.8987 0.54798 38.6685 0.630544 37.4434C0.68925 37.0651 0.873777 36.7194 1.15258 36.4655C1.43138 36.2115 1.78717 36.0651 2.15925 36.051C2.53134 36.037 2.89665 36.1563 3.19277 36.3885C3.4889 36.6208 3.69747 36.9516 3.78295 37.3245C3.85826 38.1456 3.88108 38.9709 3.85125 39.7952C3.81954 40.9455 4.17394 42.0719 4.85479 42.9849C5.27318 43.5889 5.82446 44.0825 6.46364 44.4255C7.10282 44.7684 7.81178 44.951 8.5326 44.9582C13.2612 44.9906 17.9898 44.9582 22.7184 44.9582C23.8743 44.9582 25.0354 44.9582 26.1966 44.9582C26.5754 44.9498 26.9456 45.0751 27.2457 45.3131C27.5457 45.551 27.7577 45.8875 27.8463 46.2665C27.9359 46.6287 27.9012 47.0116 27.748 47.3505C27.5948 47.6894 27.3326 47.9634 27.0057 48.1263C26.6726 48.2665 26.3146 48.3328 25.9549 48.3209C23.0494 48.3642 20.1177 48.3534 17.1807 48.3534Z" fill="#7C808A"/>
<path d="M14.1966 14.6179C12.3892 14.6179 10.5818 14.6179 8.77444 14.6179C8.43057 14.6204 8.09501 14.5094 7.81699 14.3011C7.53896 14.0929 7.33317 13.7984 7.22979 13.4609C7.12266 13.1344 7.11937 12.7812 7.22046 12.4527C7.32154 12.1241 7.52171 11.8372 7.79194 11.6336C8.11538 11.4119 8.49131 11.2848 8.87952 11.266C12.4575 11.266 16.0407 11.266 19.624 11.266C19.8464 11.2533 20.0689 11.2879 20.2777 11.3676C20.4866 11.4472 20.6772 11.5702 20.8379 11.7289C20.9985 11.8876 21.1257 12.0787 21.2115 12.2902C21.2974 12.5016 21.34 12.729 21.3368 12.9582C21.3444 13.1881 21.3044 13.417 21.2195 13.6298C21.1345 13.8426 21.0066 14.0343 20.8441 14.1923C20.6816 14.3503 20.4883 14.4709 20.277 14.5462C20.0658 14.6214 19.8414 14.6495 19.6187 14.6287C17.8113 14.6287 16.004 14.6287 14.1966 14.6287V14.6179Z" fill="#7C808A"/>
<path d="M14.244 33.7617C16.0881 33.7617 17.9218 33.7617 19.7712 33.7617C20.1287 33.7679 20.474 33.8961 20.753 34.1263C21.0319 34.3564 21.2287 34.6754 21.3123 35.0331C21.3959 35.3908 21.3616 35.767 21.2149 36.1024C21.0681 36.4379 20.8171 36.7138 20.5015 36.8865C20.2126 37.0347 19.8944 37.1124 19.5715 37.1136C16.0268 37.1136 12.4804 37.1136 8.93216 37.1136C8.52814 37.1427 8.12762 37.0194 7.80559 36.7666C7.48355 36.5139 7.26207 36.1491 7.18257 35.7404C7.09951 35.3478 7.16099 34.9375 7.35513 34.5889C7.54926 34.2403 7.86222 33.9783 8.23337 33.8536C8.4944 33.776 8.76568 33.7413 9.03722 33.7508C10.7763 33.7508 12.5154 33.7508 14.2545 33.7508L14.244 33.7617Z" fill="#7C808A"/>
<path d="M14.2592 25.8739H9.00517C7.90708 25.8739 7.18204 25.2035 7.17679 24.1979C7.17153 23.1923 7.89659 22.5057 8.98417 22.5057H19.5237C20.6165 22.5057 21.3468 23.1761 21.3521 24.1817C21.3532 24.4188 21.306 24.6534 21.2133 24.8705C21.1207 25.0875 20.9848 25.2821 20.8144 25.4416C20.644 25.6012 20.4429 25.7221 20.2242 25.7966C20.0055 25.871 19.774 25.8974 19.5447 25.8739H14.2592Z" fill="#7C808A"/>
</svg>
