<svg width="500" height="163" viewBox="0 0 500 163" fill="none" xmlns="http://www.w3.org/2000/svg">
<path d="M0 0H500V147C500 155.837 492.837 163 484 163H16C7.16345 163 0 155.837 0 147V0Z" fill="#FAF7ED"/>
<path d="M76.4773 92.1989C75.8286 92.1894 75.1894 92.071 74.5597 91.8438C73.9347 91.6165 73.3665 91.2377 72.8551 90.7074C72.3438 90.1771 71.9342 89.4645 71.6264 88.5696C71.3234 87.6747 71.1719 86.5573 71.1719 85.2173C71.1719 83.9484 71.2973 82.8215 71.5483 81.8366C71.804 80.8518 72.1709 80.0208 72.6491 79.3438C73.1274 78.6619 73.705 78.1435 74.3821 77.7884C75.0592 77.4332 75.8191 77.2557 76.6619 77.2557C77.5284 77.2557 78.2978 77.4261 78.9702 77.767C79.6425 78.108 80.187 78.5791 80.6037 79.1804C81.0251 79.7817 81.2926 80.4659 81.4062 81.233H79.2401C79.0933 80.6269 78.8021 80.1321 78.3665 79.7486C77.9309 79.3651 77.3627 79.1733 76.6619 79.1733C75.5966 79.1733 74.7656 79.6373 74.169 80.5653C73.5772 81.4934 73.2789 82.7836 73.2741 84.4361H73.3807C73.6316 84.0241 73.9394 83.6738 74.304 83.3849C74.6733 83.0914 75.0852 82.8665 75.5398 82.7102C75.9991 82.5492 76.482 82.4688 76.9886 82.4688C77.8314 82.4688 78.5938 82.6747 79.2756 83.0866C79.9621 83.4938 80.509 84.0573 80.9162 84.777C81.3234 85.4967 81.527 86.3205 81.527 87.2486C81.527 88.1766 81.3163 89.017 80.8949 89.7699C80.4782 90.5227 79.8911 91.1193 79.1335 91.5597C78.3759 91.9953 77.4905 92.2083 76.4773 92.1989ZM76.4702 90.3523C77.0289 90.3523 77.5284 90.215 77.9688 89.9403C78.4091 89.6657 78.7571 89.2964 79.0128 88.8324C79.2685 88.3684 79.3963 87.8499 79.3963 87.277C79.3963 86.7183 79.2708 86.2093 79.0199 85.75C78.7737 85.2907 78.4328 84.9261 77.9972 84.6562C77.5663 84.3864 77.0739 84.2514 76.5199 84.2514C76.0985 84.2514 75.7079 84.3319 75.348 84.4929C74.9929 84.6539 74.6804 84.8764 74.4105 85.1605C74.1406 85.4446 73.9276 85.7713 73.7713 86.1406C73.6198 86.5052 73.544 86.8911 73.544 87.2983C73.544 87.8428 73.6695 88.3471 73.9205 88.8111C74.1761 89.2751 74.5241 89.6491 74.9645 89.9332C75.4096 90.2126 75.9115 90.3523 76.4702 90.3523ZM89.6058 77.4545H92.2692L96.8999 88.7614H97.0703L101.701 77.4545H104.364V92H102.276V81.4744H102.141L97.8516 91.9787H96.1186L91.8288 81.4673H91.6939V92H89.6058V77.4545ZM111.98 92.2202C110.957 92.2202 110.065 91.9858 109.302 91.517C108.54 91.0483 107.948 90.3925 107.527 89.5497C107.105 88.7069 106.895 87.7221 106.895 86.5952C106.895 85.4635 107.105 84.474 107.527 83.6264C107.948 82.7789 108.54 82.1207 109.302 81.652C110.065 81.1832 110.957 80.9489 111.98 80.9489C113.002 80.9489 113.895 81.1832 114.657 81.652C115.42 82.1207 116.011 82.7789 116.433 83.6264C116.854 84.474 117.065 85.4635 117.065 86.5952C117.065 87.7221 116.854 88.7069 116.433 89.5497C116.011 90.3925 115.42 91.0483 114.657 91.517C113.895 91.9858 113.002 92.2202 111.98 92.2202ZM111.987 90.4375C112.65 90.4375 113.199 90.2623 113.635 89.9119C114.07 89.5616 114.392 89.0952 114.6 88.5128C114.814 87.9304 114.92 87.2888 114.92 86.5881C114.92 85.892 114.814 85.2528 114.6 84.6705C114.392 84.0833 114.07 83.6122 113.635 83.2571C113.199 82.902 112.65 82.7244 111.987 82.7244C111.319 82.7244 110.765 82.902 110.325 83.2571C109.889 83.6122 109.565 84.0833 109.352 84.6705C109.144 85.2528 109.039 85.892 109.039 86.5881C109.039 87.2888 109.144 87.9304 109.352 88.5128C109.565 89.0952 109.889 89.5616 110.325 89.9119C110.765 90.2623 111.319 90.4375 111.987 90.4375ZM123.519 92.2131C122.638 92.2131 121.853 91.9882 121.161 91.5384C120.475 91.0838 119.935 90.4375 119.542 89.5994C119.154 88.7566 118.96 87.7457 118.96 86.5668C118.96 85.3878 119.156 84.3793 119.549 83.5412C119.947 82.7031 120.491 82.0616 121.183 81.6165C121.874 81.1714 122.657 80.9489 123.533 80.9489C124.21 80.9489 124.755 81.0625 125.167 81.2898C125.584 81.5123 125.906 81.7727 126.133 82.071C126.365 82.3693 126.545 82.6321 126.673 82.8594H126.8V77.4545H128.924V92H126.85V90.3026H126.673C126.545 90.5346 126.36 90.7997 126.119 91.098C125.882 91.3963 125.555 91.6567 125.138 91.8793C124.722 92.1018 124.182 92.2131 123.519 92.2131ZM123.988 90.402C124.599 90.402 125.115 90.241 125.536 89.919C125.962 89.5923 126.284 89.1402 126.502 88.5625C126.725 87.9848 126.836 87.3125 126.836 86.5455C126.836 85.7879 126.727 85.125 126.509 84.5568C126.291 83.9886 125.972 83.5459 125.55 83.2287C125.129 82.9115 124.608 82.7528 123.988 82.7528C123.349 82.7528 122.816 82.9186 122.39 83.25C121.964 83.5814 121.642 84.0336 121.424 84.6065C121.211 85.1795 121.104 85.8258 121.104 86.5455C121.104 87.2746 121.213 87.9304 121.431 88.5128C121.649 89.0952 121.971 89.5568 122.397 89.8977C122.828 90.2339 123.358 90.402 123.988 90.402ZM138.865 87.4759V81.0909H140.996V92H138.908V90.1108H138.794C138.543 90.6932 138.141 91.1785 137.587 91.5668C137.038 91.9503 136.354 92.142 135.534 92.142C134.834 92.142 134.213 91.9882 133.674 91.6804C133.139 91.3679 132.717 90.9062 132.409 90.2955C132.106 89.6847 131.955 88.9295 131.955 88.0298V81.0909H134.078V87.7741C134.078 88.5175 134.284 89.1094 134.696 89.5497C135.108 89.9901 135.643 90.2102 136.301 90.2102C136.699 90.2102 137.095 90.1108 137.488 89.9119C137.885 89.7131 138.214 89.4124 138.475 89.0099C138.74 88.6075 138.87 88.0961 138.865 87.4759ZM145.973 77.4545V92H143.849V77.4545H145.973ZM153.532 92.2202C152.457 92.2202 151.531 91.9905 150.755 91.5312C149.983 91.0672 149.386 90.4162 148.965 89.5781C148.548 88.7353 148.34 87.7481 148.34 86.6165C148.34 85.4991 148.548 84.5142 148.965 83.6619C149.386 82.8097 149.973 82.1444 150.726 81.6662C151.484 81.188 152.369 80.9489 153.382 80.9489C153.998 80.9489 154.595 81.0507 155.172 81.2543C155.75 81.4579 156.268 81.7775 156.728 82.2131C157.187 82.6487 157.549 83.2145 157.814 83.9105C158.079 84.6018 158.212 85.4422 158.212 86.4318V87.1847H149.54V85.5938H156.131C156.131 85.035 156.017 84.5402 155.79 84.1094C155.563 83.6738 155.243 83.3305 154.831 83.0795C154.424 82.8286 153.946 82.7031 153.397 82.7031C152.8 82.7031 152.279 82.8499 151.834 83.1435C151.394 83.4323 151.053 83.8111 150.811 84.2798C150.575 84.7438 150.456 85.2481 150.456 85.7926V87.0355C150.456 87.7647 150.584 88.3849 150.84 88.8963C151.1 89.4077 151.462 89.7983 151.926 90.0682C152.391 90.3333 152.933 90.4659 153.553 90.4659C153.955 90.4659 154.322 90.4091 154.654 90.2955C154.985 90.1771 155.272 90.0019 155.513 89.7699C155.755 89.5379 155.939 89.2514 156.067 88.9105L158.077 89.2727C157.916 89.8646 157.627 90.383 157.211 90.8281C156.799 91.2685 156.28 91.6117 155.655 91.858C155.035 92.0994 154.327 92.2202 153.532 92.2202ZM168.743 83.7543L166.818 84.0952C166.738 83.849 166.61 83.6146 166.435 83.392C166.264 83.1695 166.032 82.9872 165.739 82.8452C165.445 82.7031 165.078 82.6321 164.638 82.6321C164.036 82.6321 163.535 82.767 163.132 83.0369C162.73 83.3021 162.528 83.6454 162.528 84.0668C162.528 84.4313 162.663 84.7249 162.933 84.9474C163.203 85.17 163.639 85.3523 164.24 85.4943L165.973 85.892C166.977 86.1241 167.725 86.4815 168.217 86.9645C168.71 87.4474 168.956 88.0748 168.956 88.8466C168.956 89.5 168.767 90.0824 168.388 90.5938C168.014 91.1004 167.491 91.4981 166.818 91.7869C166.151 92.0758 165.376 92.2202 164.496 92.2202C163.274 92.2202 162.277 91.9598 161.506 91.4389C160.734 90.9134 160.26 90.1676 160.085 89.2017L162.138 88.8892C162.266 89.4242 162.528 89.8291 162.926 90.1037C163.324 90.3736 163.842 90.5085 164.482 90.5085C165.178 90.5085 165.734 90.3641 166.151 90.0753C166.567 89.7817 166.776 89.4242 166.776 89.0028C166.776 88.6619 166.648 88.3755 166.392 88.1435C166.141 87.9115 165.755 87.7363 165.234 87.6179L163.388 87.2131C162.37 86.9811 161.617 86.6117 161.129 86.1051C160.646 85.5985 160.405 84.9569 160.405 84.1804C160.405 83.5365 160.585 82.973 160.945 82.4901C161.304 82.0071 161.802 81.6307 162.436 81.3608C163.071 81.0862 163.797 80.9489 164.616 80.9489C165.795 80.9489 166.723 81.2045 167.401 81.7159C168.078 82.2225 168.525 82.902 168.743 83.7543Z" fill="#6A1C1A"/>
<path d="M71.3991 131V129.409L76.321 124.31C76.8466 123.756 77.2798 123.27 77.6207 122.854C77.9664 122.432 78.2244 122.032 78.3949 121.653C78.5653 121.275 78.6506 120.872 78.6506 120.446C78.6506 119.963 78.5369 119.546 78.3097 119.196C78.0824 118.841 77.7723 118.569 77.3793 118.379C76.9863 118.185 76.5436 118.088 76.0511 118.088C75.5303 118.088 75.0758 118.195 74.6875 118.408C74.2992 118.621 74.0009 118.921 73.7926 119.31C73.5843 119.698 73.4801 120.152 73.4801 120.673H71.3849C71.3849 119.788 71.5885 119.014 71.9957 118.351C72.4029 117.688 72.9616 117.174 73.6719 116.81C74.3821 116.44 75.1894 116.256 76.0938 116.256C77.0076 116.256 77.8125 116.438 78.5085 116.803C79.2093 117.162 79.7562 117.655 80.1491 118.28C80.5421 118.9 80.7386 119.601 80.7386 120.382C80.7386 120.922 80.6368 121.45 80.4332 121.966C80.2344 122.482 79.8864 123.057 79.3892 123.692C78.892 124.321 78.2008 125.086 77.3153 125.986L74.4247 129.011V129.118H80.973V131H71.3991ZM88.7287 131.241C87.6065 131.237 86.6477 130.941 85.8523 130.354C85.0568 129.767 84.4484 128.912 84.027 127.79C83.6056 126.668 83.3949 125.316 83.3949 123.734C83.3949 122.158 83.6056 120.811 84.027 119.693C84.4531 118.576 85.0639 117.723 85.8594 117.136C86.6596 116.549 87.616 116.256 88.7287 116.256C89.8414 116.256 90.7955 116.552 91.5909 117.143C92.3864 117.731 92.9948 118.583 93.4162 119.7C93.8423 120.813 94.0554 122.158 94.0554 123.734C94.0554 125.321 93.8447 126.675 93.4233 127.797C93.0019 128.914 92.3935 129.769 91.598 130.361C90.8026 130.948 89.8461 131.241 88.7287 131.241ZM88.7287 129.345C89.7135 129.345 90.483 128.865 91.0369 127.903C91.5956 126.942 91.875 125.553 91.875 123.734C91.875 122.527 91.7472 121.507 91.4915 120.673C91.2405 119.835 90.8783 119.201 90.4048 118.77C89.9361 118.334 89.3774 118.116 88.7287 118.116C87.7486 118.116 86.9792 118.599 86.4205 119.565C85.8617 120.531 85.58 121.921 85.5753 123.734C85.5753 124.946 85.7008 125.972 85.9517 126.81C86.2074 127.643 86.5696 128.275 87.0384 128.706C87.5071 129.132 88.0705 129.345 88.7287 129.345ZM104.915 131L100.881 116.455H103.189L106.023 127.719H106.158L109.105 116.455H111.392L114.339 127.726H114.474L117.301 116.455H119.616L115.575 131H113.366L110.305 120.105H110.192L107.131 131H104.915ZM125.075 131.22C124 131.22 123.074 130.991 122.298 130.531C121.526 130.067 120.929 129.416 120.508 128.578C120.091 127.735 119.883 126.748 119.883 125.616C119.883 124.499 120.091 123.514 120.508 122.662C120.929 121.81 121.516 121.144 122.269 120.666C123.027 120.188 123.912 119.949 124.925 119.949C125.541 119.949 126.138 120.051 126.715 120.254C127.293 120.458 127.811 120.777 128.271 121.213C128.73 121.649 129.092 122.214 129.357 122.911C129.622 123.602 129.755 124.442 129.755 125.432V126.185H121.083V124.594H127.674C127.674 124.035 127.56 123.54 127.333 123.109C127.106 122.674 126.786 122.33 126.374 122.08C125.967 121.829 125.489 121.703 124.94 121.703C124.343 121.703 123.822 121.85 123.377 122.143C122.937 122.432 122.596 122.811 122.354 123.28C122.118 123.744 121.999 124.248 121.999 124.793V126.036C121.999 126.765 122.127 127.385 122.383 127.896C122.643 128.408 123.005 128.798 123.469 129.068C123.933 129.333 124.476 129.466 125.096 129.466C125.498 129.466 125.865 129.409 126.197 129.295C126.528 129.177 126.815 129.002 127.056 128.77C127.298 128.538 127.482 128.251 127.61 127.911L129.62 128.273C129.459 128.865 129.17 129.383 128.754 129.828C128.342 130.268 127.823 130.612 127.198 130.858C126.578 131.099 125.87 131.22 125.075 131.22ZM136.813 131.22C135.738 131.22 134.812 130.991 134.036 130.531C133.264 130.067 132.667 129.416 132.246 128.578C131.829 127.735 131.621 126.748 131.621 125.616C131.621 124.499 131.829 123.514 132.246 122.662C132.667 121.81 133.255 121.144 134.007 120.666C134.765 120.188 135.65 119.949 136.664 119.949C137.279 119.949 137.876 120.051 138.453 120.254C139.031 120.458 139.55 120.777 140.009 121.213C140.468 121.649 140.83 122.214 141.096 122.911C141.361 123.602 141.493 124.442 141.493 125.432V126.185H132.821V124.594H139.412C139.412 124.035 139.299 123.54 139.071 123.109C138.844 122.674 138.525 122.33 138.113 122.08C137.705 121.829 137.227 121.703 136.678 121.703C136.081 121.703 135.56 121.85 135.115 122.143C134.675 122.432 134.334 122.811 134.093 123.28C133.856 123.744 133.738 124.248 133.738 124.793V126.036C133.738 126.765 133.865 127.385 134.121 127.896C134.382 128.408 134.744 128.798 135.208 129.068C135.672 129.333 136.214 129.466 136.834 129.466C137.237 129.466 137.604 129.409 137.935 129.295C138.266 129.177 138.553 129.002 138.794 128.77C139.036 128.538 139.221 128.251 139.348 127.911L141.358 128.273C141.197 128.865 140.908 129.383 140.492 129.828C140.08 130.268 139.561 130.612 138.936 130.858C138.316 131.099 137.608 131.22 136.813 131.22ZM145.803 127.3L145.788 124.707H146.158L150.504 120.091H153.047L148.089 125.347H147.756L145.803 127.3ZM143.849 131V116.455H145.973V131H143.849ZM150.739 131L146.832 125.815L148.295 124.331L153.345 131H150.739ZM163.157 122.754L161.232 123.095C161.152 122.849 161.024 122.615 160.849 122.392C160.678 122.17 160.446 121.987 160.153 121.845C159.859 121.703 159.492 121.632 159.052 121.632C158.451 121.632 157.949 121.767 157.546 122.037C157.144 122.302 156.942 122.645 156.942 123.067C156.942 123.431 157.077 123.725 157.347 123.947C157.617 124.17 158.053 124.352 158.654 124.494L160.387 124.892C161.391 125.124 162.139 125.482 162.631 125.964C163.124 126.447 163.37 127.075 163.37 127.847C163.37 128.5 163.181 129.082 162.802 129.594C162.428 130.1 161.905 130.498 161.232 130.787C160.565 131.076 159.79 131.22 158.91 131.22C157.688 131.22 156.692 130.96 155.92 130.439C155.148 129.913 154.674 129.168 154.499 128.202L156.552 127.889C156.68 128.424 156.942 128.829 157.34 129.104C157.738 129.374 158.256 129.509 158.896 129.509C159.592 129.509 160.148 129.364 160.565 129.075C160.981 128.782 161.19 128.424 161.19 128.003C161.19 127.662 161.062 127.375 160.806 127.143C160.555 126.911 160.169 126.736 159.648 126.618L157.802 126.213C156.784 125.981 156.031 125.612 155.543 125.105C155.06 124.598 154.819 123.957 154.819 123.18C154.819 122.536 154.999 121.973 155.359 121.49C155.719 121.007 156.216 120.631 156.85 120.361C157.485 120.086 158.211 119.949 159.031 119.949C160.21 119.949 161.138 120.205 161.815 120.716C162.492 121.223 162.939 121.902 163.157 122.754Z" fill="#6A1C1A"/>
<path d="M42.0227 51V27.7273H57.4318V31.7841H46.9432V37.3295H56.4091V41.3864H46.9432V51H42.0227ZM60.7415 51V27.7273H69.9233C71.6809 27.7273 73.1809 28.0417 74.4233 28.6705C75.6733 29.2917 76.6241 30.1742 77.2756 31.3182C77.9347 32.4545 78.2642 33.7917 78.2642 35.3295C78.2642 36.875 77.9309 38.2045 77.2642 39.3182C76.5975 40.4242 75.6316 41.2727 74.3665 41.8636C73.1089 42.4545 71.5862 42.75 69.7983 42.75H63.6506V38.7955H69.0028C69.9422 38.7955 70.7225 38.6667 71.3438 38.4091C71.965 38.1515 72.4271 37.7652 72.7301 37.25C73.0407 36.7348 73.196 36.0947 73.196 35.3295C73.196 34.5568 73.0407 33.9053 72.7301 33.375C72.4271 32.8447 71.9612 32.4432 71.3324 32.1705C70.7112 31.8902 69.9271 31.75 68.9801 31.75H65.6619V51H60.7415ZM73.3097 40.4091L79.0938 51H73.6619L68.0028 40.4091H73.3097ZM81.7415 27.7273H87.8097L94.2188 43.3636H94.4915L100.901 27.7273H106.969V51H102.196V35.8523H102.003L95.9801 50.8864H92.7301L86.7074 35.7955H86.5142V51H81.7415V27.7273Z" fill="#6A1C1A"/>
<path d="M118.429 51V27.7273H127.611C129.376 27.7273 130.88 28.0644 132.122 28.7386C133.365 29.4053 134.312 30.3333 134.963 31.5227C135.622 32.7045 135.952 34.0682 135.952 35.6136C135.952 37.1591 135.618 38.5227 134.952 39.7045C134.285 40.8864 133.319 41.8068 132.054 42.4659C130.796 43.125 129.274 43.4545 127.486 43.4545H121.634V39.5114H126.69C127.637 39.5114 128.418 39.3485 129.031 39.0227C129.652 38.6894 130.115 38.2311 130.418 37.6477C130.728 37.0568 130.884 36.3788 130.884 35.6136C130.884 34.8409 130.728 34.1667 130.418 33.5909C130.115 33.0076 129.652 32.5568 129.031 32.2386C128.41 31.9129 127.622 31.75 126.668 31.75H123.349V51H118.429ZM143.565 51.3295C142.452 51.3295 141.459 51.1364 140.588 50.75C139.717 50.3561 139.027 49.7765 138.52 49.0114C138.02 48.2386 137.77 47.2765 137.77 46.125C137.77 45.1553 137.948 44.3409 138.304 43.6818C138.66 43.0227 139.145 42.4924 139.759 42.0909C140.372 41.6894 141.069 41.3864 141.849 41.1818C142.637 40.9773 143.463 40.8333 144.327 40.75C145.342 40.6439 146.16 40.5455 146.781 40.4545C147.402 40.3561 147.853 40.2121 148.134 40.0227C148.414 39.8333 148.554 39.553 148.554 39.1818V39.1136C148.554 38.3939 148.327 37.8371 147.872 37.4432C147.425 37.0492 146.789 36.8523 145.963 36.8523C145.092 36.8523 144.399 37.0455 143.884 37.4318C143.368 37.8106 143.027 38.2879 142.861 38.8636L138.384 38.5C138.611 37.4394 139.058 36.5227 139.724 35.75C140.391 34.9697 141.251 34.3712 142.304 33.9545C143.365 33.5303 144.592 33.3182 145.986 33.3182C146.955 33.3182 147.884 33.4318 148.77 33.6591C149.664 33.8864 150.455 34.2386 151.145 34.7159C151.842 35.1932 152.391 35.8068 152.793 36.5568C153.194 37.2992 153.395 38.1894 153.395 39.2273V51H148.804V48.5795H148.668C148.387 49.125 148.012 49.6061 147.543 50.0227C147.073 50.4318 146.509 50.7538 145.849 50.9886C145.19 51.2159 144.429 51.3295 143.565 51.3295ZM144.952 47.9886C145.664 47.9886 146.293 47.8485 146.838 47.5682C147.384 47.2803 147.812 46.8939 148.122 46.4091C148.433 45.9242 148.588 45.375 148.588 44.7614V42.9091C148.437 43.0076 148.228 43.0985 147.963 43.1818C147.705 43.2576 147.414 43.3295 147.088 43.3977C146.762 43.4583 146.437 43.5152 146.111 43.5682C145.785 43.6136 145.49 43.6553 145.224 43.6932C144.656 43.7765 144.16 43.9091 143.736 44.0909C143.312 44.2727 142.982 44.5189 142.747 44.8295C142.512 45.1326 142.395 45.5114 142.395 45.9659C142.395 46.625 142.634 47.1288 143.111 47.4773C143.596 47.8182 144.209 47.9886 144.952 47.9886ZM157.151 51V33.5455H161.844V36.5909H162.026C162.344 35.5076 162.878 34.6894 163.628 34.1364C164.378 33.5758 165.241 33.2955 166.219 33.2955C166.461 33.2955 166.723 33.3106 167.003 33.3409C167.283 33.3712 167.529 33.4129 167.741 33.4659V37.7614C167.514 37.6932 167.2 37.6326 166.798 37.5795C166.397 37.5265 166.029 37.5 165.696 37.5C164.984 37.5 164.348 37.6553 163.787 37.9659C163.234 38.2689 162.795 38.6932 162.469 39.2386C162.151 39.7841 161.991 40.4129 161.991 41.125V51H157.151ZM180.403 33.5455V37.1818H169.892V33.5455H180.403ZM172.278 29.3636H177.119V45.6364C177.119 46.0833 177.188 46.4318 177.324 46.6818C177.46 46.9242 177.65 47.0947 177.892 47.1932C178.142 47.2917 178.43 47.3409 178.756 47.3409C178.983 47.3409 179.21 47.322 179.438 47.2841C179.665 47.2386 179.839 47.2045 179.96 47.1818L180.722 50.7841C180.479 50.8598 180.138 50.947 179.699 51.0455C179.259 51.1515 178.725 51.2159 178.097 51.2386C176.93 51.2841 175.907 51.1288 175.028 50.7727C174.157 50.4167 173.479 49.8636 172.994 49.1136C172.509 48.3636 172.271 47.4167 172.278 46.2727V29.3636ZM201.838 37.4432V41.2841H191.224V37.4432H201.838ZM213.324 51V47.4545L221.608 39.7841C222.313 39.1023 222.903 38.4886 223.381 37.9432C223.866 37.3977 224.233 36.8636 224.483 36.3409C224.733 35.8106 224.858 35.2386 224.858 34.625C224.858 33.9432 224.703 33.3561 224.392 32.8636C224.081 32.3636 223.657 31.9811 223.119 31.7159C222.581 31.4432 221.972 31.3068 221.29 31.3068C220.578 31.3068 219.956 31.4508 219.426 31.7386C218.896 32.0265 218.487 32.4394 218.199 32.9773C217.911 33.5152 217.767 34.1553 217.767 34.8977H213.097C213.097 33.375 213.441 32.053 214.131 30.9318C214.82 29.8106 215.786 28.9432 217.028 28.3295C218.271 27.7159 219.703 27.4091 221.324 27.4091C222.991 27.4091 224.441 27.7045 225.676 28.2955C226.919 28.8788 227.884 29.6894 228.574 30.7273C229.263 31.7652 229.608 32.9545 229.608 34.2955C229.608 35.1742 229.434 36.0417 229.085 36.8977C228.744 37.7538 228.134 38.7045 227.256 39.75C226.377 40.7879 225.138 42.0341 223.54 43.4886L220.142 46.8182V46.9773H229.915V51H213.324Z" fill="#BE4E1E"/>
<path d="M53.2074 85.0336C53.2074 85.7016 53.4844 86.3423 53.9774 86.8147C54.4704 87.2871 55.139 87.5525 55.8363 87.5525H56.9825V91.2888H52.9691V92.4811C52.9691 92.8119 52.9011 93.1395 52.769 93.4451C52.6369 93.7507 52.4432 94.0283 52.1991 94.2622C51.955 94.4961 51.6652 94.6817 51.3462 94.8083C51.0273 94.9349 50.6854 95 50.3402 95C49.995 95 49.6531 94.9349 49.3342 94.8083C49.0152 94.6817 48.7254 94.4961 48.4813 94.2622C48.2372 94.0283 48.0436 93.7507 47.9115 93.4451C47.7793 93.1395 47.7113 92.8119 47.7113 92.4811V91.2888H44.0309V87.5945H42.6289C41.9316 87.5945 41.263 87.3291 40.77 86.8567C40.277 86.3843 40 85.7436 40 85.0756C40 84.4075 40.277 83.7668 40.77 83.2944C41.263 82.8221 41.9316 82.5567 42.6289 82.5567H44.0309V78.8623H47.8866V77.5189C47.8866 76.8508 48.1636 76.2102 48.6566 75.7378C49.1496 75.2654 49.8182 75 50.5155 75C51.2127 75 51.8813 75.2654 52.3743 75.7378C52.8673 76.2102 53.1443 76.8508 53.1443 77.5189V78.8623H57V82.5013H55.8538C55.5059 82.499 55.161 82.563 54.8391 82.6894C54.5172 82.8159 54.2248 83.0022 53.9786 83.2378C53.7324 83.4733 53.5375 83.7534 53.4052 84.0616C53.2728 84.3699 53.2055 84.7003 53.2074 85.0336Z" fill="#6A1C1A" fill-opacity="0.24"/>
<circle cx="50.041" cy="124.041" r="10.041" fill="#6A1C1A" fill-opacity="0.24"/>
<path d="M49.6393 117.213V124.443H55.2623" stroke="white" stroke-width="2" stroke-linecap="round"/>
<rect x="394" y="21" width="66" height="30" rx="15" fill="white"/>
<path d="M418.139 35C417.587 35 417.139 35.4478 417.139 36C417.139 36.5523 417.587 37 418.139 37L418.139 35ZM446.915 36.7072C447.306 36.3166 447.306 35.6835 446.915 35.2929L440.551 28.929C440.161 28.5385 439.528 28.5385 439.137 28.929C438.747 29.3195 438.747 29.9527 439.137 30.3432L444.794 36L439.137 41.6569C438.747 42.0474 438.747 42.6806 439.137 43.0711C439.528 43.4616 440.161 43.4616 440.551 43.0711L446.915 36.7072ZM418.139 37L446.208 37L446.208 35L418.139 35L418.139 37Z" fill="#BE4E1E"/>
</svg>
