<svg width="141" height="140" viewBox="0 0 141 140" fill="none" xmlns="http://www.w3.org/2000/svg">
<path d="M52.353 102.394C51.8174 102.665 51.2441 102.971 50.6595 103.261C49.3206 103.925 47.8761 105.241 46.6655 105.053C45.4548 104.864 44.4553 103.167 43.3955 102.134C40.7253 99.4936 38.0927 96.797 35.3961 94.1757C34.8077 93.6062 34.6833 93.1499 35.1509 92.5087C35.251 92.3501 35.338 92.1836 35.4112 92.0109C36.1353 90.589 37.361 89.1935 37.4327 87.7415C37.5044 86.2894 36.388 84.8072 35.8373 83.3212C35.7549 83.0812 35.6108 82.867 35.4195 82.7002C35.2282 82.5334 34.9964 82.4198 34.7474 82.3708C33.2199 81.9257 31.7113 81.4053 30.1876 80.9376C30.0645 80.92 29.9461 80.8784 29.8391 80.815C29.7321 80.7517 29.6386 80.6679 29.564 80.5684C29.4894 80.469 29.4351 80.3558 29.4043 80.2353C29.3734 80.1149 29.3666 79.9895 29.3842 79.8665C29.4219 74.7874 29.4219 69.7097 29.3842 64.6332C29.365 64.5102 29.3706 64.3846 29.4006 64.2637C29.4306 64.1429 29.4844 64.0293 29.5588 63.9295C29.6333 63.8298 29.727 63.7459 29.8343 63.6828C29.9416 63.6197 30.0604 63.5786 30.1838 63.562C31.6924 63.0981 33.2199 62.5965 34.7361 62.11C35.0868 62.0006 35.4904 61.9742 35.6563 61.5593C36.2824 60.0507 36.9236 58.5421 37.5421 57.0335C37.708 56.6224 37.3724 56.3207 37.214 56.0001C36.5011 54.5744 35.7845 53.1488 35.0189 51.7533C34.9504 51.6616 34.9008 51.5572 34.8732 51.4461C34.8455 51.335 34.8403 51.2196 34.8579 51.1064C34.8755 50.9933 34.9154 50.8849 34.9755 50.7874C35.0355 50.6899 35.1144 50.6054 35.2075 50.5389C38.8458 46.9307 42.4702 43.3063 46.0809 39.6655C46.4844 39.2619 46.8352 39.1639 47.2915 39.4958C47.5324 39.6416 47.7847 39.7677 48.0459 39.8729C49.464 40.5971 50.8594 41.8228 52.3115 41.8945C53.7635 41.9661 55.2495 40.8573 56.7318 40.3029C56.9717 40.2185 57.1853 40.0728 57.3514 39.8803C57.5175 39.6877 57.6302 39.455 57.6784 39.2053C58.1197 37.6741 58.6439 36.1881 59.1078 34.6455C59.146 34.3973 59.2809 34.1742 59.483 34.0251C59.6851 33.876 59.938 33.8129 60.1865 33.8497C65.2655 33.8799 70.3445 33.8799 75.4236 33.8497C75.5467 33.8316 75.6721 33.8379 75.7928 33.8682C75.9134 33.8986 76.0269 33.9524 76.1268 34.0267C76.2266 34.101 76.3108 34.1942 76.3746 34.301C76.4384 34.4078 76.4805 34.5262 76.4985 34.6493C76.9636 36.173 77.4476 37.6917 77.9505 39.2053C78.3277 40.3368 83.0082 42.2226 84.0717 41.6946C85.4483 40.9931 86.8325 40.2991 88.1865 39.5523C88.7635 39.2393 89.1256 39.2393 89.631 39.7522C93.1511 43.3402 96.7077 46.8981 100.301 50.4257C100.806 50.9236 100.897 51.312 100.504 51.8665C100.382 52.0662 100.274 52.2741 100.18 52.4888C99.4597 53.9106 98.2301 55.3061 98.1585 56.7544C98.0868 58.2027 99.2032 59.6924 99.7576 61.1746C99.8389 61.412 99.9809 61.6239 100.169 61.7893C100.358 61.9547 100.587 62.0679 100.833 62.1175C102.364 62.5513 103.872 63.0793 105.396 63.5394C105.519 63.5587 105.638 63.6021 105.744 63.6671C105.851 63.7322 105.944 63.8176 106.017 63.9184C106.091 64.0193 106.144 64.1337 106.173 64.255C106.202 64.3764 106.207 64.5023 106.188 64.6256C106.158 69.7072 106.158 74.7849 106.188 79.8589C106.227 80.1079 106.166 80.3622 106.019 80.5664C105.871 80.7706 105.649 80.9081 105.4 80.9489C103.872 81.4053 102.36 81.9106 100.84 82.3896C100.489 82.499 100.086 82.5179 99.9198 82.9327C99.2862 84.4414 98.6488 85.95 98.034 87.4586C97.8681 87.8697 98.2 88.1752 98.3584 88.4958C99.0523 89.8762 99.7501 91.2603 100.501 92.6105C100.825 93.1951 100.806 93.5534 100.297 94.055C96.714 97.5752 93.1561 101.132 89.6235 104.725C89.1256 105.234 88.7334 105.306 88.1865 104.925C88.0356 104.819 87.8395 104.774 87.6924 104.661C84.9166 102.492 82.0351 102.232 78.999 104.129C78.5049 104.438 78.0938 104.638 77.9203 105.26C77.5055 106.75 76.9624 108.202 76.5362 109.688C76.34 110.378 76.0346 110.635 75.2802 110.627C70.2943 110.59 65.3095 110.59 60.326 110.627C59.5717 110.627 59.1946 110.412 59.0663 109.696C58.9914 109.376 58.8943 109.062 58.7759 108.757C57.3239 104.185 57.3239 104.185 52.832 102.579C52.6924 102.552 52.5566 102.488 52.353 102.394ZM67.7485 106.064V106.109H69.4419C72.923 106.109 72.923 106.109 73.9941 102.741C74.1011 102.48 74.1869 102.212 74.2506 101.938C74.3788 101.097 74.8427 100.693 75.6763 100.467C76.9397 100.127 78.3163 99.867 79.3686 99.1391C82.1181 97.208 84.6488 97.3627 87.2172 99.3541C87.8848 99.8708 88.3487 99.6218 88.888 99.0599C90.3136 97.5513 91.8034 96.1256 93.2668 94.6623C95.3638 92.5615 95.4694 92.5012 93.9871 89.9818C93.0367 88.3638 92.7576 86.9909 93.9871 85.4106C94.5086 84.7379 94.8581 83.9482 95.0055 83.11C95.5071 79.8061 97.4268 78.0825 100.663 77.6903C101.474 77.5922 101.704 77.1472 101.685 76.3438C101.632 73.9941 101.666 71.6407 101.666 69.291C101.666 67.1073 101.7 66.9451 99.5992 66.4925C97.2722 65.9871 95.6843 64.9839 95.4241 62.4419C95.3236 61.9338 95.1402 61.4458 94.881 60.9974C94.2361 59.5944 93.0405 58.1989 93.0593 56.8147C93.0782 55.4306 94.2625 54.0238 95.0055 52.666C95.0809 52.5643 95.1353 52.4485 95.1654 52.3254C95.1955 52.2024 95.2007 52.0745 95.1807 51.9494C95.1606 51.8243 95.1158 51.7045 95.0488 51.597C94.9818 51.4895 94.894 51.3964 94.7905 51.3233C93.5723 50.1466 92.3955 48.9284 91.1887 47.7441C90.1854 46.756 89.3029 45.2398 88.1148 44.9683C86.8438 44.6741 85.5276 46.0356 84.249 46.6957C83.4947 47.0728 82.9403 47.1332 82.1897 46.6957C81.0583 46.0432 79.8778 45.2587 78.6332 45.0399C75.3255 44.4667 73.6321 42.5658 73.2323 39.3449C73.1267 38.4925 72.6402 38.3454 71.8632 38.3605C69.3702 38.4058 66.8735 38.4737 64.388 38.3379C62.9888 38.2625 62.3099 38.715 62.1251 40.0653C61.7781 42.6827 60.5071 44.4139 57.6973 44.7269C57.1344 44.8047 56.6001 45.0226 56.1434 45.3605C53.5033 47.3255 50.9575 47.103 48.4381 45.1531C47.8158 44.6703 47.3066 44.7759 46.7522 45.3756C44.8664 47.3406 42.9429 49.2829 40.9591 51.1536C40.2878 51.7873 40.3406 52.2851 40.7404 52.9677C41.325 53.9823 41.8039 55.061 42.3848 56.0793C42.5363 56.3108 42.617 56.5814 42.617 56.8581C42.617 57.1348 42.5363 57.4054 42.3848 57.6369C41.721 58.874 40.8422 60.1073 40.597 61.4424C39.9936 64.7425 38.0927 66.4284 34.8831 66.8244C33.9817 66.9338 33.9176 67.4694 33.9289 68.2086C33.9667 70.4715 33.9289 72.7345 33.9289 74.9974C33.9289 77.3885 33.895 77.547 36.1919 78.0599C38.3756 78.5502 39.8276 79.4818 40.1105 81.8503C40.2427 82.4946 40.4689 83.1161 40.7818 83.6946C41.3928 85.0561 42.5469 86.4101 42.5205 87.749C42.4941 89.0879 41.3476 90.4532 40.6348 91.7619C40.2915 92.3805 40.3896 92.7501 40.8686 93.2178C42.8776 95.189 44.8664 97.1804 46.8352 99.1919C46.9154 99.3045 47.0175 99.3996 47.1355 99.4716C47.2535 99.5435 47.3849 99.5908 47.5217 99.6105C47.6585 99.6303 47.7979 99.6221 47.9314 99.5864C48.0649 99.5508 48.1898 99.4884 48.2986 99.4031C49.3961 98.777 50.5615 98.249 51.6665 97.6418C51.8779 97.5017 52.1258 97.4269 52.3794 97.4269C52.6329 97.4269 52.8809 97.5017 53.0922 97.6418C55.324 98.9463 57.7271 99.9326 60.2318 100.572C60.4786 100.632 60.7037 100.76 60.8817 100.941C61.0596 101.123 61.1833 101.35 61.2388 101.598C61.763 103.107 61.6876 105.249 62.8982 105.92C64.1089 106.592 66.1041 106.064 67.7485 106.064Z" fill="#691D1C"/>
<path d="M29.4106 139.973C20.0496 139.973 10.6924 139.955 1.33519 140C0.298013 140 0.00383278 139.785 0.0264621 138.71C0.09435 135.47 0.026462 135.421 3.29263 135.485C4.34112 135.485 4.61267 135.255 4.59758 134.188C4.53724 128.972 4.59758 123.752 4.54855 118.532C4.54855 117.619 4.7673 117.359 5.68002 117.374C9.45157 117.427 13.2143 117.427 16.9683 117.374C17.8772 117.374 18.1375 117.589 18.1261 118.506C18.0809 123.786 18.1261 129.04 18.0847 134.305C18.0847 135.214 18.2959 135.474 19.2161 135.466C22.6105 135.444 22.6105 135.466 22.6105 132.053C22.6105 124.578 22.6331 117.103 22.5841 109.624C22.5841 108.575 22.818 108.3 23.8778 108.323C27.5487 108.398 31.2172 108.398 34.8831 108.323C35.9316 108.304 36.1919 108.556 36.1881 109.616C36.1353 117.8 36.1881 125.981 36.1315 134.161C36.1315 135.206 36.3541 135.493 37.4252 135.47C40.6725 135.402 40.6725 135.47 40.6725 132.196C40.6725 129.092 40.6989 125.988 40.6536 122.884C40.6536 122.089 40.8648 121.87 41.6606 121.877C45.5202 121.92 49.3772 121.92 53.2317 121.877C54.0238 121.877 54.2501 122.085 54.2388 122.884C54.1973 126.694 54.2388 130.503 54.1973 134.309C54.1973 135.233 54.4311 135.606 55.3514 135.44C55.3976 135.432 55.4447 135.432 55.4909 135.44C56.5507 135.527 58.1649 134.965 58.5459 135.674C59.0814 136.662 58.708 138.133 58.7382 139.396C58.7571 140.226 58.1348 139.947 57.7425 139.947C54.499 139.947 51.2555 139.947 48.0082 139.947L29.4106 139.973ZM31.6208 124.31V116.133C31.6208 112.871 31.6208 112.913 28.3169 112.897C27.3627 112.897 27.1854 113.192 27.1854 114.085C27.2194 120.101 27.1854 126.12 27.1854 132.136C27.1854 135.489 27.1854 135.451 30.5609 135.44C31.4661 135.44 31.6472 135.165 31.6321 134.327C31.5944 130.99 31.6208 127.652 31.6208 124.31ZM9.13099 128.542V132.068C9.13099 135.527 9.13099 135.497 12.5782 135.436C13.4004 135.436 13.5852 135.168 13.5777 134.395C13.5362 131.378 13.5588 128.38 13.5588 125.37C13.5588 121.806 13.5588 121.836 10.0399 121.934C9.28562 121.953 9.09704 122.191 9.1159 122.903C9.15739 124.782 9.13099 126.664 9.13099 128.542ZM49.6827 130.899V129.768C49.6827 126.335 49.6827 126.373 46.194 126.449C45.4699 126.449 45.2097 126.626 45.2361 127.388C45.2926 128.934 45.2361 130.488 45.2361 132.038C45.2361 135.598 45.2361 135.58 48.7964 135.432C49.4527 135.406 49.7091 135.255 49.6789 134.565C49.6488 133.347 49.6827 132.121 49.6827 130.899Z" fill="#691D1C"/>
<path d="M0.0565724 14.0492V13.7701C0.0339431 11.3865 0.0339437 11.3865 2.37608 11.2884C5.28394 11.1715 7.36207 8.62572 6.67942 5.7782C6.35884 4.43553 6.76239 3.92637 7.93157 3.40212C17.9149 -1.08979 27.8303 -1.01814 37.7532 3.5907C38.6961 4.0282 38.8508 4.48456 38.6622 5.40105C37.938 8.92745 39.8879 11.3412 43.4898 11.2583C44.84 11.2281 45.2662 11.477 45.2549 12.9592C45.1317 26.122 40.1406 37.0393 30.2818 45.7114C29.437 46.4657 28.5997 47.22 27.7096 47.9102C26.2627 49.0651 24.4653 49.6923 22.614 49.6882C20.7627 49.6841 18.9681 49.0489 17.5264 47.8876C8.22953 40.5557 2.18373 31.2664 0.471444 19.3897C0.426185 19.0616 0.369612 18.7373 0.343211 18.4091C0.222522 16.9609 0.113147 15.5088 0 14.0568L0.0565724 14.0492ZM24.9149 44.3197L26.8007 42.7055C34.8642 35.845 39.5523 27.2157 40.5178 16.6176C40.5781 15.935 40.5668 15.539 39.7974 15.2373C36.3465 13.887 34.389 11.3073 33.9364 7.63381C33.9365 7.40669 33.8598 7.18623 33.7187 7.00821C33.5777 6.8302 33.3806 6.70509 33.1595 6.6532C30.8136 5.82255 28.3976 5.20528 25.9407 4.80891C25.1864 4.69199 24.8432 4.84663 24.8847 5.71409C24.9564 7.16613 24.8847 8.62572 24.8847 10.0853C24.8847 13.6985 24.8847 13.6683 21.2942 13.5966C20.4607 13.5966 20.291 13.3024 20.306 12.5444C20.3475 10.2814 20.2683 8.0185 20.3438 5.7782C20.3777 4.81268 20.0194 4.68068 19.2123 4.81646C16.7567 5.221 14.3439 5.8523 12.0049 6.70223C11.8063 6.74739 11.6288 6.85846 11.5015 7.01735C11.3741 7.17624 11.3042 7.37359 11.3033 7.57723C10.8658 11.3148 8.91218 13.9059 5.38955 15.2712C4.79364 15.5013 4.63524 15.7841 4.70313 16.4027C5.07199 21.0496 6.2916 25.5893 8.30119 29.7954C11.0582 35.5735 15.173 40.2238 20.3702 44.233V21.2491C20.3702 18.032 20.3702 18.0961 23.5345 18.0056C24.7602 17.9716 24.9677 18.3827 24.9601 19.4916C24.8922 27.6683 24.9149 35.8299 24.9149 44.3197Z" fill="#691D1C"/>
<path d="M115.194 139.974C111.525 139.974 107.859 139.974 104.189 139.974C100.059 139.955 97.1589 137.085 97.1438 132.985C97.1212 127.106 97.1212 121.228 97.1438 115.349C97.1438 112.566 98.3884 110.476 100.851 109.186C101.121 109.075 101.347 108.879 101.496 108.628C101.645 108.377 101.708 108.085 101.677 107.795C101.756 104.182 101.326 100.546 101.915 96.9554C103.02 90.1854 109.243 85.3729 116.198 85.8255C122.956 86.2668 128.531 91.992 128.723 98.777C128.81 101.794 128.772 104.811 128.723 107.806C128.689 108.097 128.752 108.391 128.904 108.642C129.056 108.893 129.287 109.086 129.56 109.19C132.023 110.48 133.245 112.585 133.253 115.361C133.268 121.191 133.268 127.022 133.253 132.853C133.253 137.134 130.367 139.962 126.053 139.974C122.436 139.981 118.815 139.974 115.194 139.974ZM115.349 112.894C111.728 112.894 108.112 112.894 104.491 112.894C102.454 112.894 101.673 113.671 101.67 115.7C101.67 121.34 101.67 126.979 101.67 132.619C101.67 134.652 102.45 135.437 104.48 135.437C111.623 135.437 118.766 135.437 125.909 135.437C127.946 135.437 128.727 134.656 128.731 132.63C128.731 126.991 128.731 121.351 128.731 115.711C128.731 113.678 127.95 112.901 125.921 112.894C122.398 112.886 118.872 112.894 115.349 112.894ZM115.187 108.368C117.861 108.368 120.539 108.345 123.213 108.387C123.967 108.387 124.269 108.251 124.254 107.41C124.193 104.642 124.276 101.87 124.212 99.1127C124.168 96.7543 123.201 94.5071 121.519 92.8534C119.837 91.1997 117.574 90.2713 115.215 90.2673C112.856 90.2634 110.59 91.1842 108.902 92.8323C107.214 94.4803 106.24 96.7242 106.188 99.0825C106.128 101.851 106.188 104.623 106.154 107.38C106.154 108.172 106.358 108.402 107.157 108.387C109.835 108.334 112.524 108.364 115.187 108.364V108.368Z" fill="#691D1C"/>
<path d="M140.057 24.847C140.054 29.7581 138.596 34.5582 135.866 38.6407C133.136 42.7232 129.258 45.9047 124.72 47.783C120.182 49.6614 115.19 50.1522 110.373 49.1936C105.556 48.2349 101.132 45.8698 97.6595 42.3971C94.1868 38.9245 91.8217 34.5002 90.863 29.6836C89.9044 24.8671 90.3952 19.8744 92.2736 15.3367C94.1519 10.799 97.3334 6.92012 101.416 4.19028C105.498 1.46044 110.299 0.0022379 115.21 0C121.796 0.011964 128.109 2.63361 132.766 7.29073C137.423 11.9479 140.045 18.2608 140.057 24.847ZM115.164 45.153C119.18 45.1656 123.109 43.9881 126.456 41.7691C129.802 39.5501 132.416 36.3891 133.968 32.6855C135.519 28.9818 135.938 24.9014 135.172 20.9597C134.406 17.018 132.489 13.3916 129.664 10.5386C126.838 7.6856 123.23 5.73386 119.296 4.92985C115.362 4.12585 111.278 4.50564 107.559 6.02128C103.841 7.53691 100.655 10.1204 98.4037 13.4455C96.1526 16.7707 94.9372 20.6883 94.9111 24.7037C94.889 30.0954 97.0059 35.2759 100.798 39.1093C104.589 42.9427 109.746 45.1161 115.138 45.153H115.164Z" fill="#691D1C"/>
<path d="M24.8922 79.1613C24.8922 86.9684 24.8696 94.7755 24.9186 102.583C24.9186 103.635 24.6773 103.903 23.6212 103.884C20.3739 103.816 20.3739 103.884 20.3739 100.606C20.3739 85.6031 20.3739 70.5998 20.3438 55.5966C20.3438 54.4274 20.6115 54.1181 21.7883 54.1521C24.8922 54.2426 24.8922 54.1785 24.8922 57.29V79.1613Z" fill="#691D1C"/>
<path d="M66.5113 29.354C60.5372 29.354 54.563 29.3314 48.5927 29.3766C47.6724 29.3766 47.431 29.1428 47.4348 28.2225C47.4574 24.8281 47.4348 24.8281 50.8481 24.8281C62.0911 24.8281 73.3303 24.8281 84.5733 24.8017C85.6255 24.8017 85.8933 25.0431 85.8745 26.0991C85.8103 29.3465 85.8745 29.3465 82.597 29.3465L66.5113 29.354Z" fill="#691D1C"/>
<path d="M75.6912 128.685C70.411 128.685 65.1572 128.663 59.8884 128.708C58.9681 128.708 58.7267 128.478 58.7305 127.558C58.7531 124.163 58.7305 124.163 62.1249 124.163C71.8631 124.163 81.5974 124.163 91.3318 124.137C92.3841 124.137 92.6556 124.378 92.6368 125.434C92.5689 128.682 92.6368 128.682 89.3593 128.682L75.6912 128.685Z" fill="#691D1C"/>
<path d="M117.461 67.8126C117.461 71.9613 117.431 76.0912 117.484 80.2286C117.484 81.1224 117.239 81.2997 116.39 81.2997C112.943 81.2997 112.943 81.3336 112.943 77.9468C112.943 70.4225 112.966 62.8983 112.917 55.3741C112.917 54.367 113.184 54.1445 114.154 54.1596C117.461 54.2049 117.461 54.1596 117.461 57.5125V67.8126Z" fill="#691D1C"/>
<path d="M67.7485 106.063C66.1041 106.063 64.1542 106.607 62.8982 105.905C61.6423 105.204 61.7668 103.076 61.2388 101.583C61.1833 101.335 61.0596 101.108 60.8817 100.926C60.7037 100.745 60.4786 100.617 60.2318 100.557C57.7271 99.9173 55.324 98.931 53.0922 97.6265C52.8809 97.4864 52.6329 97.4117 52.3794 97.4117C52.1258 97.4117 51.8779 97.4864 51.6666 97.6265C50.5539 98.2337 49.4036 98.758 48.2986 99.3878C48.1898 99.4731 48.0649 99.5355 47.9314 99.5712C47.7979 99.6068 47.6585 99.615 47.5217 99.5953C47.3849 99.5755 47.2535 99.5282 47.1355 99.4563C47.0176 99.3843 46.9154 99.2892 46.8352 99.1766C44.8664 97.1752 42.8763 95.1863 40.8648 93.21C40.3858 92.7424 40.2878 92.3727 40.631 91.7542C41.3627 90.4455 42.5168 89.1141 42.5168 87.7413C42.5168 86.3684 41.3853 85.0484 40.7781 83.6869C40.4664 83.1081 40.2415 82.4867 40.1105 81.8426C39.8277 79.474 38.3756 78.5425 36.1919 78.0522C33.8875 77.5392 33.9289 77.3808 33.9289 74.9897C33.9289 72.7267 33.9553 70.4638 33.9289 68.2009C33.9289 67.4466 33.9817 66.9261 34.8831 66.8167C38.0927 66.4396 39.9936 64.7348 40.597 61.4347C40.8422 60.0996 41.7285 58.8663 42.3848 57.6292C42.5363 57.3977 42.617 57.1271 42.617 56.8504C42.617 56.5737 42.5363 56.303 42.3848 56.0716C41.8039 55.0532 41.325 53.9746 40.7404 52.96C40.3406 52.2623 40.2878 51.7795 40.9591 51.1459C42.943 49.2601 44.8627 47.3329 46.7522 45.3679C47.3217 44.772 47.8158 44.6626 48.4381 45.1454C50.9575 47.0953 53.5033 47.3178 56.1434 45.3528C56.6002 45.0149 57.1344 44.797 57.6973 44.7192C60.5071 44.4061 61.7781 42.675 62.1251 40.0575C62.3061 38.7149 62.985 38.2547 64.388 38.3302C66.8735 38.4659 69.3702 38.3981 71.8632 38.3528C72.6402 38.3528 73.1267 38.4848 73.2323 39.3372C73.6321 42.5581 75.3255 44.4589 78.6332 45.0322C79.8778 45.251 81.0545 46.0354 82.1897 46.6879C82.944 47.1217 83.4985 47.0651 84.249 46.6879C85.5276 46.0279 86.8438 44.6664 88.1148 44.9606C89.2916 45.2321 90.1854 46.7483 91.1887 47.7364C92.3955 48.9207 93.5723 50.1389 94.7905 51.3156C94.894 51.3887 94.9818 51.4817 95.0488 51.5893C95.1158 51.6968 95.1606 51.8166 95.1807 51.9417C95.2007 52.0668 95.1955 52.1946 95.1654 52.3177C95.1353 52.4408 95.081 52.5566 95.0055 52.6583C94.2512 54.0123 93.0782 55.4078 93.0593 56.807C93.0405 58.2062 94.2361 59.5866 94.881 60.9897C95.1402 61.4381 95.3236 61.9261 95.4241 62.4342C95.6843 64.98 97.2722 65.9794 99.5992 66.4848C101.7 66.9374 101.666 67.0996 101.666 69.2833C101.666 71.633 101.632 73.9864 101.685 76.3361C101.685 77.1394 101.474 77.5845 100.663 77.6825C97.423 78.0597 95.5033 79.7984 95.0055 83.1023C94.8581 83.9405 94.5086 84.7302 93.9871 85.4029C92.7727 86.9832 93.0518 88.356 93.9871 89.974C95.4694 92.4934 95.3638 92.5538 93.2668 94.6545C91.8034 96.1179 90.3136 97.5549 88.888 99.0522C88.3524 99.6141 87.8848 99.8631 87.2172 99.3463C84.6526 97.355 82.1181 97.2003 79.3686 99.1314C78.3314 99.8593 76.9397 100.12 75.6763 100.459C74.8427 100.685 74.3788 101.089 74.2506 101.93C74.1869 102.204 74.1011 102.473 73.9941 102.733C72.923 106.101 72.923 106.101 69.4419 106.101H67.7485V106.063ZM67.7824 97.0796H75.2576C77.7468 97.0796 80.2398 97.0796 82.7291 97.0796C83.8117 97.0944 84.8898 96.9378 85.9236 96.6157C91.5809 94.8092 94.1795 88.6729 91.5356 83.1626C91.2639 82.6603 91.1051 82.1047 91.0706 81.5347C91.0361 80.9646 91.1266 80.3939 91.3357 79.8625C92.5894 76.3972 92.95 72.672 92.3842 69.0306C90.8077 59.0511 85.305 52.085 75.7894 48.8113C66.2738 45.5376 57.5728 47.5629 50.4295 54.5931C43.2862 61.6233 41.3061 70.2337 44.2328 79.8625C44.4286 80.3964 44.5126 80.9648 44.4795 81.5325C44.4464 82.1003 44.297 82.6551 44.0405 83.1626C40.8233 89.8986 45.3831 97.0721 52.8282 97.0796C57.8167 97.0847 62.8014 97.0847 67.7824 97.0796Z" fill="#BE4E1E"/>
<path d="M31.6208 124.31C31.6208 127.652 31.5944 130.99 31.6208 134.328C31.6208 135.165 31.4548 135.44 30.5497 135.44C27.1741 135.44 27.1741 135.489 27.1741 132.136C27.1741 126.102 27.1741 120.101 27.1741 114.086C27.1741 113.192 27.3627 112.894 28.3056 112.898C31.6095 112.898 31.6095 112.871 31.6095 116.134L31.6208 124.31Z" fill="#EFD374"/>
<path d="M9.13098 128.542C9.13098 126.656 9.15738 124.77 9.13098 122.903C9.13098 122.191 9.28939 121.953 10.055 121.934C13.5776 121.836 13.5739 121.806 13.5739 125.37C13.5739 128.387 13.5512 131.405 13.5927 134.395C13.5927 135.169 13.4155 135.425 12.5933 135.436C9.14607 135.497 9.14607 135.527 9.14607 132.068L9.13098 128.542Z" fill="#EFD374"/>
<path d="M49.6827 130.899C49.6827 132.121 49.6487 133.347 49.6827 134.565C49.7128 135.255 49.4564 135.406 48.8001 135.433C45.236 135.584 45.2398 135.602 45.2398 132.038C45.2398 130.488 45.2775 128.934 45.2398 127.388C45.2134 126.634 45.4736 126.464 46.1978 126.449C49.6902 126.358 49.6864 126.336 49.6864 129.768L49.6827 130.899Z" fill="#EFD374"/>
<path d="M24.9149 44.3195C24.9149 35.8448 24.8923 27.6681 24.9413 19.4914C24.9413 18.3599 24.7414 17.9828 23.5157 18.0054C20.3551 18.0959 20.3513 18.0318 20.3513 21.2489V44.2328C15.173 40.2236 11.0695 35.5733 8.30122 29.7953C6.29296 25.5926 5.07339 21.0569 4.70316 16.4138C4.65036 15.7839 4.79368 15.5011 5.38958 15.2823C8.91221 13.9057 10.8659 11.3146 11.3298 7.56949C11.3307 7.36585 11.4005 7.1685 11.5279 7.00961C11.6553 6.85072 11.8327 6.73965 12.0313 6.69449C14.3703 5.84456 16.7831 5.21326 19.2387 4.80872C20.0496 4.67294 20.4079 4.80872 20.3702 5.77046C20.2948 8.03339 20.3702 10.2963 20.3325 12.5366C20.3325 13.2909 20.4871 13.5738 21.3206 13.5889C24.9111 13.6606 24.9111 13.6907 24.9111 10.0776C24.9111 8.61799 24.9639 7.1584 24.9111 5.70635C24.8696 4.83889 25.2053 4.68426 25.9672 4.80117C28.424 5.19755 30.84 5.81481 33.1859 6.64546C33.407 6.69735 33.6041 6.82246 33.7452 7.00047C33.8862 7.17849 33.9629 7.39895 33.9629 7.62607C34.4154 11.2996 36.3729 13.8793 39.8239 15.2295C40.5782 15.5312 40.6046 15.9273 40.5442 16.6099C39.5787 27.208 34.8869 35.8448 26.8271 42.6977L24.9149 44.3195Z" fill="#BE4E1E"/>
<path d="M115.349 112.894C118.872 112.894 122.398 112.894 125.91 112.894C127.939 112.894 128.719 113.678 128.719 115.711C128.719 121.351 128.719 126.991 128.719 132.63C128.719 134.656 127.935 135.436 125.898 135.436C118.755 135.436 111.612 135.436 104.468 135.436C102.439 135.436 101.662 134.652 101.658 132.619C101.658 126.977 101.658 121.337 101.658 115.7C101.658 113.671 102.443 112.898 104.48 112.894C108.112 112.886 111.728 112.894 115.349 112.894ZM112.932 130.367V131.216C112.932 133.211 112.932 133.211 114.908 133.211C117.473 133.211 117.518 133.211 117.454 130.677C117.42 129.228 117.552 128.195 119.098 127.312C121.636 125.872 122.542 122.662 121.682 119.898C121.256 118.528 120.408 117.328 119.259 116.471C118.109 115.613 116.718 115.141 115.284 115.123C113.85 115.105 112.447 115.542 111.276 116.37C110.106 117.199 109.228 118.377 108.768 119.735C107.821 122.519 108.726 125.77 111.28 127.309C112.747 128.184 113.245 129.108 112.932 130.367Z" fill="#BE4E1E"/>
<path d="M115.138 45.153C111.116 45.1432 107.188 43.94 103.85 41.6957C100.513 39.4514 97.9162 36.2671 96.3899 32.546C94.8636 28.825 94.4761 24.7347 95.2763 20.7932C96.0765 16.8517 98.0286 13.2364 100.885 10.4052C103.742 7.57398 107.374 5.6543 111.323 4.88928C115.271 4.12427 119.358 4.54835 123.065 6.1078C126.773 7.66725 129.934 10.2919 132.148 13.6493C134.362 17.0067 135.53 20.9458 135.504 24.9676C135.464 30.3399 133.299 35.4778 129.483 39.2596C125.667 43.0415 120.51 45.1601 115.138 45.153ZM121.863 20.3211C122.239 20.2907 122.618 20.2907 122.994 20.3211C124.314 20.5323 124.333 19.8685 124.077 18.869C123.823 17.792 123.317 16.7907 122.601 15.948C121.884 15.1053 120.977 14.4453 119.954 14.0226C119.143 13.6454 117.891 14.0226 117.533 13.1287C117.216 12.3103 117.39 11.2656 117.48 10.334C117.574 9.31571 117.299 8.98004 116.202 9.00267C112.962 9.06678 112.928 9.00267 112.962 12.2801C112.962 13.1589 112.845 13.5097 111.83 13.6756C110.14 13.9425 108.616 14.8444 107.568 16.1971C106.52 17.5499 106.028 19.2515 106.192 20.9547C106.361 22.6308 107.145 24.1847 108.393 25.317C109.64 26.4494 111.262 27.08 112.947 27.0873C114.403 27.1174 115.862 27.0646 117.318 27.1061C118.774 27.1476 119.698 28.0565 119.702 29.3464C119.705 30.6363 118.77 31.5603 117.325 31.6094C115.881 31.6584 114.41 31.6094 112.954 31.6094C112.147 31.6094 111.268 31.3001 111.106 30.5684C110.793 29.1578 109.85 29.3426 108.888 29.3577C108.278 29.3955 107.666 29.3955 107.056 29.3577C106.252 29.2748 106.086 29.6293 106.222 30.3308C106.418 31.54 106.93 32.6761 107.705 33.6243C108.48 34.5726 109.492 35.2995 110.638 35.7317C111.393 36.0485 112.524 35.6638 112.864 36.486C113.169 37.2063 112.935 38.1492 112.939 38.9978C112.947 39.0907 112.947 39.184 112.939 39.2769C112.762 40.3367 113.12 40.7101 114.271 40.6799C117.446 40.6007 117.476 40.6611 117.435 37.4703C117.435 36.5501 117.552 36.1616 118.63 35.9617C120.296 35.6928 121.798 34.803 122.835 33.4714C123.871 32.1398 124.364 30.4652 124.216 28.7845C124.068 27.1047 123.3 25.5401 122.062 24.3953C120.824 23.2505 119.204 22.6076 117.518 22.5916C116.062 22.5539 114.602 22.5916 113.147 22.5727C111.638 22.535 110.654 21.5883 110.695 20.2532C110.737 18.9181 111.679 18.1072 113.147 18.0732C114.553 18.0431 115.964 18.0732 117.374 18.0732C118.182 18.0732 119.057 18.3297 119.26 19.0614C119.69 20.6228 120.792 20.3324 121.863 20.3211Z" fill="#EFD374"/>
<path d="M67.7823 97.0797C62.8013 97.0797 57.8179 97.0797 52.8319 97.0797C45.3868 97.0797 40.827 89.9137 44.0442 83.1627C44.3007 82.6551 44.4501 82.1003 44.4832 81.5326C44.5163 80.9649 44.4323 80.3964 44.2365 79.8626C41.3098 70.2413 43.2974 61.6309 50.4332 54.5932C57.5689 47.5554 66.3114 45.5414 75.7931 48.8114C85.2748 52.0813 90.8076 59.0511 92.3879 69.0307C92.9537 72.672 92.5931 76.3973 91.3394 79.8626C91.1303 80.394 91.0398 80.9647 91.0743 81.5347C91.1088 82.1048 91.2675 82.6604 91.5393 83.1627C94.1794 88.6729 91.5846 94.8092 85.9273 96.6158C84.8935 96.9379 83.8154 97.0944 82.7327 97.0797C80.2435 97.0608 77.7505 97.0797 75.2613 97.0797H67.7823ZM67.7823 92.5199C72.6753 92.5199 77.5657 92.5199 82.4536 92.5199C86.9795 92.5199 89.2839 88.8539 87.2775 84.8221C82.3644 74.9482 77.4387 65.0781 72.5005 55.2117C71.5162 53.2316 70.0339 51.9946 67.7823 51.9946C65.5307 51.9946 64.0485 53.2316 63.0641 55.2155C58.1485 65.0919 53.2203 74.9633 48.2796 84.8297C46.2731 88.8615 48.5813 92.5123 53.1147 92.5199C58.0077 92.5274 62.8994 92.5274 67.7899 92.5199H67.7823ZM77.1471 54.3103C80.7527 61.5253 84.1961 68.4046 87.7074 75.431C89.5178 67.6126 84.9089 58.2893 77.1471 54.3103ZM58.4402 54.3103C48.9849 59.334 46.3712 69.536 47.8798 75.4046L58.4402 54.3103Z" fill="#691D1C"/>
<path d="M112.932 130.367C113.245 129.108 112.747 128.184 111.28 127.309C108.726 125.8 107.821 122.519 108.768 119.735C109.228 118.377 110.106 117.199 111.276 116.37C112.447 115.542 113.85 115.105 115.284 115.123C116.718 115.141 118.109 115.613 119.259 116.471C120.408 117.328 121.256 118.528 121.682 119.898C122.542 122.662 121.636 125.872 119.098 127.313C117.552 128.195 117.42 129.228 117.454 130.677C117.518 133.211 117.473 133.211 114.908 133.211C112.932 133.211 112.932 133.211 112.932 131.216V130.367ZM115.255 119.664C114.805 119.65 114.361 119.771 113.98 120.012C113.599 120.252 113.298 120.601 113.117 121.013C112.935 121.425 112.88 121.882 112.96 122.325C113.039 122.768 113.249 123.178 113.563 123.501C113.876 123.825 114.279 124.047 114.72 124.14C115.161 124.233 115.619 124.192 116.037 124.023C116.454 123.854 116.812 123.564 117.063 123.191C117.315 122.817 117.45 122.377 117.45 121.927C117.45 121.338 117.221 120.773 116.811 120.35C116.402 119.928 115.843 119.681 115.255 119.664Z" fill="#691D1C"/>
<path d="M121.863 20.3211C120.791 20.3211 119.675 20.6228 119.256 19.0576C119.057 18.3259 118.182 18.0694 117.371 18.0694C115.96 18.0694 114.55 18.043 113.143 18.0694C111.676 18.1034 110.733 18.9671 110.691 20.2494C110.65 21.5317 111.623 22.5123 113.143 22.5689C114.599 22.6028 116.058 22.5689 117.514 22.5878C119.201 22.6029 120.823 23.246 122.062 24.3916C123.301 25.5373 124.069 27.1033 124.216 28.7844C124.368 30.4654 123.877 32.1414 122.843 33.4751C121.809 34.8089 120.307 35.7014 118.642 35.973C117.563 36.154 117.435 36.5425 117.446 37.4816C117.488 40.6724 117.446 40.612 114.282 40.6912C113.131 40.7214 112.773 40.348 112.95 39.2882C112.958 39.1953 112.958 39.102 112.95 39.0091C112.95 38.1605 113.18 37.2176 112.875 36.4973C112.536 35.6826 111.397 36.0673 110.65 35.7429C109.501 35.3092 108.488 34.5794 107.712 33.6276C106.936 32.6758 106.426 31.5358 106.233 30.3232C106.098 29.6217 106.263 29.2672 107.067 29.3502C107.677 29.3879 108.289 29.3879 108.9 29.3502C109.862 29.3502 110.804 29.1503 111.117 30.5608C111.28 31.2925 112.158 31.5942 112.966 31.6018C114.421 31.6018 115.881 31.6395 117.337 31.6018C118.793 31.5641 119.717 30.64 119.713 29.3388C119.709 28.0377 118.777 27.1363 117.329 27.0985C115.881 27.0608 114.414 27.0985 112.958 27.0797C111.273 27.0724 109.651 26.4418 108.404 25.3095C107.157 24.1771 106.373 22.6232 106.203 20.9471C106.039 19.2439 106.531 17.5423 107.579 16.1895C108.627 14.8368 110.151 13.9349 111.842 13.668C112.852 13.5021 112.973 13.1513 112.973 12.2726C112.939 9.0064 112.973 9.0592 116.213 8.99509C117.31 8.97246 117.586 9.30813 117.491 10.3264C117.401 11.258 117.227 12.3027 117.544 13.1212C117.921 14.0339 119.155 13.6492 119.966 14.015C120.989 14.4393 121.896 15.1012 122.612 15.946C123.328 16.7908 123.833 17.7941 124.084 18.8728C124.341 19.8722 124.322 20.536 123.002 20.3248C122.623 20.2927 122.242 20.2915 121.863 20.3211Z" fill="#691D1C"/>
<path d="M67.7899 92.5201C62.902 92.5201 58.0128 92.5201 53.1224 92.5201C48.5965 92.5201 46.2808 88.8617 48.2872 84.8299C53.2079 74.9559 58.136 65.0845 63.0717 55.2156C64.0561 53.2318 65.5383 51.9985 67.7899 51.9947C70.0415 51.991 71.5238 53.2318 72.5081 55.2119C77.4212 65.0908 82.3469 74.961 87.2851 84.8223C89.2915 88.8541 86.9871 92.5125 82.4613 92.5201C77.5733 92.5276 72.6829 92.5276 67.7899 92.5201ZM65.4893 67.7334V75.7631C65.4893 79.0933 65.4893 79.033 68.846 79.0933C69.9774 79.116 70.117 78.6973 70.1094 77.728C70.0679 71.7652 70.1094 65.8024 70.1094 59.8396C70.1094 56.332 70.1094 56.3773 66.6057 56.3735C65.6062 56.3735 65.4742 56.7507 65.4931 57.5917C65.5119 60.971 65.4893 64.3541 65.4893 67.7334ZM67.8012 88.0772C68.2527 88.0749 68.6935 87.9392 69.0681 87.6871C69.4426 87.4351 69.7343 87.0778 69.9064 86.6604C70.0785 86.243 70.1233 85.784 70.0352 85.3412C69.9471 84.8984 69.73 84.4915 69.4113 84.1717C69.0926 83.8519 68.6864 83.6336 68.2439 83.544C67.8013 83.4545 67.3422 83.4978 66.9242 83.6685C66.5063 83.8392 66.1481 84.1297 65.8948 84.5035C65.6415 84.8772 65.5043 85.3175 65.5006 85.769C65.4945 86.0731 65.5497 86.3754 65.6631 86.6577C65.7764 86.94 65.9456 87.1966 66.1603 87.4121C66.3751 87.6275 66.6311 87.7975 66.913 87.9118C67.195 88.0261 67.4971 88.0823 67.8012 88.0772Z" fill="#EFD374"/>
<path d="M115.255 119.664C115.705 119.672 116.142 119.814 116.511 120.072C116.88 120.33 117.164 120.692 117.326 121.112C117.488 121.532 117.521 121.991 117.421 122.429C117.321 122.868 117.092 123.267 116.764 123.576C116.436 123.884 116.023 124.087 115.579 124.16C115.135 124.232 114.679 124.17 114.27 123.982C113.861 123.795 113.517 123.489 113.283 123.104C113.048 122.72 112.934 122.275 112.954 121.825C112.981 121.236 113.236 120.681 113.666 120.277C114.095 119.873 114.665 119.653 115.255 119.664Z" fill="#EFD374"/>
<path d="M65.4892 67.7334C65.4892 64.339 65.5119 60.971 65.4892 57.5917C65.4892 56.7468 65.6024 56.3697 66.6019 56.3735C70.1056 56.3735 70.1056 56.332 70.1056 59.8395C70.1056 65.8023 70.083 71.7652 70.1056 77.728C70.1056 78.6973 69.9849 79.1159 68.8422 79.0933C65.4855 79.0329 65.4855 79.0933 65.4855 75.763L65.4892 67.7334Z" fill="#691D1C"/>
<path d="M67.8012 88.0771C67.3495 88.0822 66.9063 87.9535 66.5275 87.7073C66.1487 87.461 65.8513 87.1082 65.6726 86.6932C65.494 86.2782 65.4421 85.8197 65.5235 85.3753C65.6049 84.9309 65.816 84.5205 66.1302 84.1959C66.4444 83.8712 66.8476 83.6468 67.2891 83.5508C67.7306 83.4549 68.1906 83.4917 68.6112 83.6566C69.0318 83.8216 69.3942 84.1073 69.6528 84.4778C69.9113 84.8483 70.0545 85.2871 70.0642 85.7387C70.0743 86.0422 70.0232 86.3446 69.914 86.6279C69.8049 86.9112 69.6398 87.1697 69.4286 87.3879C69.2175 87.6061 68.9646 87.7795 68.685 87.8979C68.4054 88.0163 68.1049 88.0773 67.8012 88.0771Z" fill="#691D1C"/>
</svg>
