<svg width="500" height="163" viewBox="0 0 500 163" fill="none" xmlns="http://www.w3.org/2000/svg">
<path d="M0 0H500V147C500 155.837 492.837 163 484 163H16C7.16345 163 0 155.837 0 147V0Z" fill="#FAF7ED"/>
<path d="M71.0938 89.1591V87.3835L77.3793 77.4545H78.7784V80.0682H77.8906L73.3949 87.1847V87.2983H82.0099V89.1591H71.0938ZM77.9901 92V88.6193L78.0043 87.8097V77.4545H80.0852V92H77.9901ZM89.9769 77.4545H92.6403L97.271 88.7614H97.4414L102.072 77.4545H104.735V92H102.647V81.4744H102.512L98.2227 91.9787H96.4897L92.1999 81.4673H92.065V92H89.9769V77.4545ZM112.351 92.2202C111.328 92.2202 110.436 91.9858 109.673 91.517C108.911 91.0483 108.319 90.3925 107.898 89.5497C107.476 88.7069 107.266 87.7221 107.266 86.5952C107.266 85.4635 107.476 84.474 107.898 83.6264C108.319 82.7789 108.911 82.1207 109.673 81.652C110.436 81.1832 111.328 80.9489 112.351 80.9489C113.374 80.9489 114.266 81.1832 115.028 81.652C115.791 82.1207 116.383 82.7789 116.804 83.6264C117.225 84.474 117.436 85.4635 117.436 86.5952C117.436 87.7221 117.225 88.7069 116.804 89.5497C116.383 90.3925 115.791 91.0483 115.028 91.517C114.266 91.9858 113.374 92.2202 112.351 92.2202ZM112.358 90.4375C113.021 90.4375 113.57 90.2623 114.006 89.9119C114.441 89.5616 114.763 89.0952 114.972 88.5128C115.185 87.9304 115.291 87.2888 115.291 86.5881C115.291 85.892 115.185 85.2528 114.972 84.6705C114.763 84.0833 114.441 83.6122 114.006 83.2571C113.57 82.902 113.021 82.7244 112.358 82.7244C111.69 82.7244 111.136 82.902 110.696 83.2571C110.26 83.6122 109.936 84.0833 109.723 84.6705C109.515 85.2528 109.411 85.892 109.411 86.5881C109.411 87.2888 109.515 87.9304 109.723 88.5128C109.936 89.0952 110.26 89.5616 110.696 89.9119C111.136 90.2623 111.69 90.4375 112.358 90.4375ZM123.89 92.2131C123.01 92.2131 122.224 91.9882 121.532 91.5384C120.846 91.0838 120.306 90.4375 119.913 89.5994C119.525 88.7566 119.331 87.7457 119.331 86.5668C119.331 85.3878 119.527 84.3793 119.92 83.5412C120.318 82.7031 120.862 82.0616 121.554 81.6165C122.245 81.1714 123.029 80.9489 123.904 80.9489C124.582 80.9489 125.126 81.0625 125.538 81.2898C125.955 81.5123 126.277 81.7727 126.504 82.071C126.736 82.3693 126.916 82.6321 127.044 82.8594H127.172V77.4545H129.295V92H127.221V90.3026H127.044C126.916 90.5346 126.731 90.7997 126.49 91.098C126.253 91.3963 125.926 91.6567 125.51 91.8793C125.093 92.1018 124.553 92.2131 123.89 92.2131ZM124.359 90.402C124.97 90.402 125.486 90.241 125.907 89.919C126.333 89.5923 126.655 89.1402 126.873 88.5625C127.096 87.9848 127.207 87.3125 127.207 86.5455C127.207 85.7879 127.098 85.125 126.88 84.5568C126.663 83.9886 126.343 83.5459 125.922 83.2287C125.5 82.9115 124.979 82.7528 124.359 82.7528C123.72 82.7528 123.187 82.9186 122.761 83.25C122.335 83.5814 122.013 84.0336 121.795 84.6065C121.582 85.1795 121.475 85.8258 121.475 86.5455C121.475 87.2746 121.584 87.9304 121.802 88.5128C122.02 89.0952 122.342 89.5568 122.768 89.8977C123.199 90.2339 123.729 90.402 124.359 90.402ZM139.237 87.4759V81.0909H141.367V92H139.279V90.1108H139.165C138.915 90.6932 138.512 91.1785 137.958 91.5668C137.409 91.9503 136.725 92.142 135.906 92.142C135.205 92.142 134.585 91.9882 134.045 91.6804C133.51 91.3679 133.088 90.9062 132.781 90.2955C132.478 89.6847 132.326 88.9295 132.326 88.0298V81.0909H134.45V87.7741C134.45 88.5175 134.656 89.1094 135.067 89.5497C135.479 89.9901 136.014 90.2102 136.673 90.2102C137.07 90.2102 137.466 90.1108 137.859 89.9119C138.256 89.7131 138.585 89.4124 138.846 89.0099C139.111 88.6075 139.241 88.0961 139.237 87.4759ZM146.344 77.4545V92H144.221V77.4545H146.344ZM153.903 92.2202C152.828 92.2202 151.902 91.9905 151.126 91.5312C150.354 91.0672 149.757 90.4162 149.336 89.5781C148.919 88.7353 148.711 87.7481 148.711 86.6165C148.711 85.4991 148.919 84.5142 149.336 83.6619C149.757 82.8097 150.344 82.1444 151.097 81.6662C151.855 81.188 152.74 80.9489 153.754 80.9489C154.369 80.9489 154.966 81.0507 155.543 81.2543C156.121 81.4579 156.639 81.7775 157.099 82.2131C157.558 82.6487 157.92 83.2145 158.185 83.9105C158.451 84.6018 158.583 85.4422 158.583 86.4318V87.1847H149.911V85.5938H156.502C156.502 85.035 156.388 84.5402 156.161 84.1094C155.934 83.6738 155.614 83.3305 155.202 83.0795C154.795 82.8286 154.317 82.7031 153.768 82.7031C153.171 82.7031 152.65 82.8499 152.205 83.1435C151.765 83.4323 151.424 83.8111 151.183 84.2798C150.946 84.7438 150.827 85.2481 150.827 85.7926V87.0355C150.827 87.7647 150.955 88.3849 151.211 88.8963C151.471 89.4077 151.834 89.7983 152.298 90.0682C152.762 90.3333 153.304 90.4659 153.924 90.4659C154.326 90.4659 154.693 90.4091 155.025 90.2955C155.356 90.1771 155.643 90.0019 155.884 89.7699C156.126 89.5379 156.31 89.2514 156.438 88.9105L158.448 89.2727C158.287 89.8646 157.998 90.383 157.582 90.8281C157.17 91.2685 156.651 91.6117 156.026 91.858C155.406 92.0994 154.698 92.2202 153.903 92.2202ZM169.114 83.7543L167.189 84.0952C167.109 83.849 166.981 83.6146 166.806 83.392C166.635 83.1695 166.403 82.9872 166.11 82.8452C165.816 82.7031 165.449 82.6321 165.009 82.6321C164.408 82.6321 163.906 82.767 163.503 83.0369C163.101 83.3021 162.9 83.6454 162.9 84.0668C162.9 84.4313 163.034 84.7249 163.304 84.9474C163.574 85.17 164.01 85.3523 164.611 85.4943L166.344 85.892C167.348 86.1241 168.096 86.4815 168.588 86.9645C169.081 87.4474 169.327 88.0748 169.327 88.8466C169.327 89.5 169.138 90.0824 168.759 90.5938C168.385 91.1004 167.862 91.4981 167.189 91.7869C166.522 92.0758 165.748 92.2202 164.867 92.2202C163.645 92.2202 162.649 91.9598 161.877 91.4389C161.105 90.9134 160.632 90.1676 160.456 89.2017L162.509 88.8892C162.637 89.4242 162.9 89.8291 163.297 90.1037C163.695 90.3736 164.213 90.5085 164.853 90.5085C165.549 90.5085 166.105 90.3641 166.522 90.0753C166.938 89.7817 167.147 89.4242 167.147 89.0028C167.147 88.6619 167.019 88.3755 166.763 88.1435C166.512 87.9115 166.126 87.7363 165.605 87.6179L163.759 87.2131C162.741 86.9811 161.988 86.6117 161.5 86.1051C161.017 85.5985 160.776 84.9569 160.776 84.1804C160.776 83.5365 160.956 82.973 161.316 82.4901C161.676 82.0071 162.173 81.6307 162.807 81.3608C163.442 81.0862 164.168 80.9489 164.988 80.9489C166.167 80.9489 167.095 81.2045 167.772 81.7159C168.449 82.2225 168.896 82.902 169.114 83.7543Z" fill="#691D1C"/>
<path d="M76.9176 116.455V131H74.7159V118.656H74.6307L71.1506 120.929V118.827L74.7798 116.455H76.9176ZM85.9304 131.199C85.2817 131.189 84.6425 131.071 84.0128 130.844C83.3878 130.616 82.8196 130.238 82.3082 129.707C81.7969 129.177 81.3873 128.464 81.0795 127.57C80.7765 126.675 80.625 125.557 80.625 124.217C80.625 122.948 80.7505 121.821 81.0014 120.837C81.2571 119.852 81.6241 119.021 82.1023 118.344C82.5805 117.662 83.1581 117.143 83.8352 116.788C84.5123 116.433 85.2723 116.256 86.1151 116.256C86.9815 116.256 87.7509 116.426 88.4233 116.767C89.0956 117.108 89.6402 117.579 90.0568 118.18C90.4782 118.782 90.7457 119.466 90.8594 120.233H88.6932C88.5464 119.627 88.2552 119.132 87.8196 118.749C87.384 118.365 86.8158 118.173 86.1151 118.173C85.0497 118.173 84.2188 118.637 83.6222 119.565C83.0303 120.493 82.732 121.784 82.7273 123.436H82.8338C83.0848 123.024 83.3925 122.674 83.7571 122.385C84.1264 122.091 84.5384 121.866 84.9929 121.71C85.4522 121.549 85.9351 121.469 86.4418 121.469C87.2846 121.469 88.0469 121.675 88.7287 122.087C89.4152 122.494 89.9621 123.057 90.3693 123.777C90.7765 124.497 90.9801 125.321 90.9801 126.249C90.9801 127.177 90.7694 128.017 90.348 128.77C89.9313 129.523 89.3442 130.119 88.5866 130.56C87.8291 130.995 86.9437 131.208 85.9304 131.199ZM85.9233 129.352C86.482 129.352 86.9815 129.215 87.4219 128.94C87.8622 128.666 88.2102 128.296 88.4659 127.832C88.7216 127.368 88.8494 126.85 88.8494 126.277C88.8494 125.718 88.724 125.209 88.473 124.75C88.2268 124.291 87.8859 123.926 87.4503 123.656C87.0194 123.386 86.527 123.251 85.973 123.251C85.5516 123.251 85.161 123.332 84.8011 123.493C84.446 123.654 84.1335 123.876 83.8636 124.161C83.5938 124.445 83.3807 124.771 83.2244 125.141C83.0729 125.505 82.9972 125.891 82.9972 126.298C82.9972 126.843 83.1226 127.347 83.3736 127.811C83.6293 128.275 83.9773 128.649 84.4176 128.933C84.8627 129.213 85.3646 129.352 85.9233 129.352ZM101.907 131L97.8729 116.455H100.181L103.015 127.719H103.15L106.097 116.455H108.384L111.332 127.726H111.467L114.293 116.455H116.609L112.567 131H110.359L107.298 120.105H107.184L104.123 131H101.907ZM122.067 131.22C120.992 131.22 120.066 130.991 119.29 130.531C118.518 130.067 117.921 129.416 117.5 128.578C117.083 127.735 116.875 126.748 116.875 125.616C116.875 124.499 117.083 123.514 117.5 122.662C117.921 121.81 118.509 121.144 119.261 120.666C120.019 120.188 120.904 119.949 121.918 119.949C122.533 119.949 123.13 120.051 123.707 120.254C124.285 120.458 124.804 120.777 125.263 121.213C125.722 121.649 126.084 122.214 126.349 122.911C126.615 123.602 126.747 124.442 126.747 125.432V126.185H118.075V124.594H124.666C124.666 124.035 124.553 123.54 124.325 123.109C124.098 122.674 123.778 122.33 123.366 122.08C122.959 121.829 122.481 121.703 121.932 121.703C121.335 121.703 120.814 121.85 120.369 122.143C119.929 122.432 119.588 122.811 119.347 123.28C119.11 123.744 118.991 124.248 118.991 124.793V126.036C118.991 126.765 119.119 127.385 119.375 127.896C119.635 128.408 119.998 128.798 120.462 129.068C120.926 129.333 121.468 129.466 122.088 129.466C122.491 129.466 122.857 129.409 123.189 129.295C123.52 129.177 123.807 129.002 124.048 128.77C124.29 128.538 124.474 128.251 124.602 127.911L126.612 128.273C126.451 128.865 126.162 129.383 125.746 129.828C125.334 130.268 124.815 130.612 124.19 130.858C123.57 131.099 122.862 131.22 122.067 131.22ZM133.805 131.22C132.73 131.22 131.805 130.991 131.028 130.531C130.256 130.067 129.66 129.416 129.238 128.578C128.822 127.735 128.613 126.748 128.613 125.616C128.613 124.499 128.822 123.514 129.238 122.662C129.66 121.81 130.247 121.144 131 120.666C131.757 120.188 132.643 119.949 133.656 119.949C134.271 119.949 134.868 120.051 135.446 120.254C136.023 120.458 136.542 120.777 137.001 121.213C137.46 121.649 137.823 122.214 138.088 122.911C138.353 123.602 138.485 124.442 138.485 125.432V126.185H129.814V124.594H136.404C136.404 124.035 136.291 123.54 136.064 123.109C135.836 122.674 135.517 122.33 135.105 122.08C134.698 121.829 134.219 121.703 133.67 121.703C133.074 121.703 132.553 121.85 132.108 122.143C131.667 122.432 131.326 122.811 131.085 123.28C130.848 123.744 130.73 124.248 130.73 124.793V126.036C130.73 126.765 130.858 127.385 131.113 127.896C131.374 128.408 131.736 128.798 132.2 129.068C132.664 129.333 133.206 129.466 133.826 129.466C134.229 129.466 134.596 129.409 134.927 129.295C135.259 129.177 135.545 129.002 135.787 128.77C136.028 128.538 136.213 128.251 136.341 127.911L138.35 128.273C138.19 128.865 137.901 129.383 137.484 129.828C137.072 130.268 136.554 130.612 135.929 130.858C135.308 131.099 134.6 131.22 133.805 131.22ZM142.795 127.3L142.781 124.707H143.15L147.496 120.091H150.039L145.082 125.347H144.748L142.795 127.3ZM140.842 131V116.455H142.965V131H140.842ZM147.731 131L143.825 125.815L145.288 124.331L150.337 131H147.731ZM160.149 122.754L158.224 123.095C158.144 122.849 158.016 122.615 157.841 122.392C157.67 122.17 157.438 121.987 157.145 121.845C156.851 121.703 156.484 121.632 156.044 121.632C155.443 121.632 154.941 121.767 154.538 122.037C154.136 122.302 153.935 122.645 153.935 123.067C153.935 123.431 154.07 123.725 154.339 123.947C154.609 124.17 155.045 124.352 155.646 124.494L157.379 124.892C158.383 125.124 159.131 125.482 159.624 125.964C160.116 126.447 160.362 127.075 160.362 127.847C160.362 128.5 160.173 129.082 159.794 129.594C159.42 130.1 158.897 130.498 158.224 130.787C157.557 131.076 156.783 131.22 155.902 131.22C154.68 131.22 153.684 130.96 152.912 130.439C152.14 129.913 151.667 129.168 151.491 128.202L153.544 127.889C153.672 128.424 153.935 128.829 154.332 129.104C154.73 129.374 155.249 129.509 155.888 129.509C156.584 129.509 157.14 129.364 157.557 129.075C157.973 128.782 158.182 128.424 158.182 128.003C158.182 127.662 158.054 127.375 157.798 127.143C157.547 126.911 157.161 126.736 156.641 126.618L154.794 126.213C153.776 125.981 153.023 125.612 152.536 125.105C152.053 124.598 151.811 123.957 151.811 123.18C151.811 122.536 151.991 121.973 152.351 121.49C152.711 121.007 153.208 120.631 153.842 120.361C154.477 120.086 155.204 119.949 156.023 119.949C157.202 119.949 158.13 120.205 158.807 120.716C159.484 121.223 159.931 121.902 160.149 122.754Z" fill="#691D1C"/>
<path d="M42.0227 51V27.7273H57.4318V31.7841H46.9432V37.3295H56.4091V41.3864H46.9432V51H42.0227ZM60.7415 51V27.7273H69.9233C71.6809 27.7273 73.1809 28.0417 74.4233 28.6705C75.6733 29.2917 76.6241 30.1742 77.2756 31.3182C77.9347 32.4545 78.2642 33.7917 78.2642 35.3295C78.2642 36.875 77.9309 38.2045 77.2642 39.3182C76.5975 40.4242 75.6316 41.2727 74.3665 41.8636C73.1089 42.4545 71.5862 42.75 69.7983 42.75H63.6506V38.7955H69.0028C69.9422 38.7955 70.7225 38.6667 71.3438 38.4091C71.965 38.1515 72.4271 37.7652 72.7301 37.25C73.0407 36.7348 73.196 36.0947 73.196 35.3295C73.196 34.5568 73.0407 33.9053 72.7301 33.375C72.4271 32.8447 71.9612 32.4432 71.3324 32.1705C70.7112 31.8902 69.9271 31.75 68.9801 31.75H65.6619V51H60.7415ZM73.3097 40.4091L79.0938 51H73.6619L68.0028 40.4091H73.3097ZM81.7415 27.7273H87.8097L94.2188 43.3636H94.4915L100.901 27.7273H106.969V51H102.196V35.8523H102.003L95.9801 50.8864H92.7301L86.7074 35.7955H86.5142V51H81.7415V27.7273ZM118.429 51V27.7273H127.611C129.376 27.7273 130.88 28.0644 132.122 28.7386C133.365 29.4053 134.312 30.3333 134.963 31.5227C135.622 32.7045 135.952 34.0682 135.952 35.6136C135.952 37.1591 135.618 38.5227 134.952 39.7045C134.285 40.8864 133.319 41.8068 132.054 42.4659C130.796 43.125 129.274 43.4545 127.486 43.4545H121.634V39.5114H126.69C127.637 39.5114 128.418 39.3485 129.031 39.0227C129.652 38.6894 130.115 38.2311 130.418 37.6477C130.728 37.0568 130.884 36.3788 130.884 35.6136C130.884 34.8409 130.728 34.1667 130.418 33.5909C130.115 33.0076 129.652 32.5568 129.031 32.2386C128.41 31.9129 127.622 31.75 126.668 31.75H123.349V51H118.429ZM143.565 51.3295C142.452 51.3295 141.459 51.1364 140.588 50.75C139.717 50.3561 139.027 49.7765 138.52 49.0114C138.02 48.2386 137.77 47.2765 137.77 46.125C137.77 45.1553 137.948 44.3409 138.304 43.6818C138.66 43.0227 139.145 42.4924 139.759 42.0909C140.372 41.6894 141.069 41.3864 141.849 41.1818C142.637 40.9773 143.463 40.8333 144.327 40.75C145.342 40.6439 146.16 40.5455 146.781 40.4545C147.402 40.3561 147.853 40.2121 148.134 40.0227C148.414 39.8333 148.554 39.553 148.554 39.1818V39.1136C148.554 38.3939 148.327 37.8371 147.872 37.4432C147.425 37.0492 146.789 36.8523 145.963 36.8523C145.092 36.8523 144.399 37.0455 143.884 37.4318C143.368 37.8106 143.027 38.2879 142.861 38.8636L138.384 38.5C138.611 37.4394 139.058 36.5227 139.724 35.75C140.391 34.9697 141.251 34.3712 142.304 33.9545C143.365 33.5303 144.592 33.3182 145.986 33.3182C146.955 33.3182 147.884 33.4318 148.77 33.6591C149.664 33.8864 150.455 34.2386 151.145 34.7159C151.842 35.1932 152.391 35.8068 152.793 36.5568C153.194 37.2992 153.395 38.1894 153.395 39.2273V51H148.804V48.5795H148.668C148.387 49.125 148.012 49.6061 147.543 50.0227C147.073 50.4318 146.509 50.7538 145.849 50.9886C145.19 51.2159 144.429 51.3295 143.565 51.3295ZM144.952 47.9886C145.664 47.9886 146.293 47.8485 146.838 47.5682C147.384 47.2803 147.812 46.8939 148.122 46.4091C148.433 45.9242 148.588 45.375 148.588 44.7614V42.9091C148.437 43.0076 148.228 43.0985 147.963 43.1818C147.705 43.2576 147.414 43.3295 147.088 43.3977C146.762 43.4583 146.437 43.5152 146.111 43.5682C145.785 43.6136 145.49 43.6553 145.224 43.6932C144.656 43.7765 144.16 43.9091 143.736 44.0909C143.312 44.2727 142.982 44.5189 142.747 44.8295C142.512 45.1326 142.395 45.5114 142.395 45.9659C142.395 46.625 142.634 47.1288 143.111 47.4773C143.596 47.8182 144.209 47.9886 144.952 47.9886ZM157.151 51V33.5455H161.844V36.5909H162.026C162.344 35.5076 162.878 34.6894 163.628 34.1364C164.378 33.5758 165.241 33.2955 166.219 33.2955C166.461 33.2955 166.723 33.3106 167.003 33.3409C167.283 33.3712 167.529 33.4129 167.741 33.4659V37.7614C167.514 37.6932 167.2 37.6326 166.798 37.5795C166.397 37.5265 166.029 37.5 165.696 37.5C164.984 37.5 164.348 37.6553 163.787 37.9659C163.234 38.2689 162.795 38.6932 162.469 39.2386C162.151 39.7841 161.991 40.4129 161.991 41.125V51H157.151ZM180.403 33.5455V37.1818H169.892V33.5455H180.403ZM172.278 29.3636H177.119V45.6364C177.119 46.0833 177.188 46.4318 177.324 46.6818C177.46 46.9242 177.65 47.0947 177.892 47.1932C178.142 47.2917 178.43 47.3409 178.756 47.3409C178.983 47.3409 179.21 47.322 179.438 47.2841C179.665 47.2386 179.839 47.2045 179.96 47.1818L180.722 50.7841C180.479 50.8598 180.138 50.947 179.699 51.0455C179.259 51.1515 178.725 51.2159 178.097 51.2386C176.93 51.2841 175.907 51.1288 175.028 50.7727C174.157 50.4167 173.479 49.8636 172.994 49.1136C172.509 48.3636 172.271 47.4167 172.278 46.2727V29.3636ZM201.838 37.4432V41.2841H191.224V37.4432H201.838ZM223.449 27.7273V51H218.528V32.3977H218.392L213.062 35.7386V31.375L218.824 27.7273H223.449Z" fill="#6A1C1A"/>
<rect x="393" y="21" width="66" height="30" rx="15" fill="white"/>
<path d="M418.139 35C417.587 35 417.139 35.4478 417.139 36C417.139 36.5523 417.587 37 418.139 37L418.139 35ZM446.915 36.7072C447.306 36.3166 447.306 35.6835 446.915 35.2929L440.551 28.929C440.161 28.5385 439.528 28.5385 439.137 28.929C438.747 29.3195 438.747 29.9527 439.137 30.3432L444.794 36L439.137 41.6569C438.747 42.0474 438.747 42.6806 439.137 43.0711C439.528 43.4616 440.161 43.4616 440.551 43.0711L446.915 36.7072ZM418.139 37L446.208 37L446.208 35L418.139 35L418.139 37Z" fill="#BE4E1E"/>
<path d="M53.2074 85.0336C53.2074 85.7016 53.4844 86.3423 53.9774 86.8147C54.4704 87.2871 55.139 87.5525 55.8363 87.5525H56.9825V91.2888H52.9691V92.4811C52.9691 92.8119 52.9011 93.1395 52.769 93.4451C52.6369 93.7507 52.4432 94.0283 52.1991 94.2622C51.955 94.4961 51.6652 94.6817 51.3462 94.8083C51.0273 94.9349 50.6854 95 50.3402 95C49.995 95 49.6531 94.9349 49.3342 94.8083C49.0152 94.6817 48.7254 94.4961 48.4813 94.2622C48.2372 94.0283 48.0436 93.7507 47.9115 93.4451C47.7793 93.1395 47.7113 92.8119 47.7113 92.4811V91.2888H44.0309V87.5945H42.6289C41.9316 87.5945 41.263 87.3291 40.77 86.8567C40.277 86.3843 40 85.7436 40 85.0756C40 84.4075 40.277 83.7668 40.77 83.2944C41.263 82.8221 41.9316 82.5567 42.6289 82.5567H44.0309V78.8623H47.8866V77.5189C47.8866 76.8508 48.1636 76.2102 48.6566 75.7378C49.1496 75.2654 49.8182 75 50.5155 75C51.2127 75 51.8813 75.2654 52.3743 75.7378C52.8673 76.2102 53.1443 76.8508 53.1443 77.5189V78.8623H57V82.5013H55.8538C55.5059 82.499 55.161 82.563 54.8391 82.6894C54.5172 82.8159 54.2248 83.0022 53.9786 83.2378C53.7324 83.4733 53.5375 83.7534 53.4052 84.0616C53.2728 84.3699 53.2055 84.7003 53.2074 85.0336Z" fill="#6A1C1A" fill-opacity="0.24"/>
<circle cx="50.041" cy="124.041" r="10.041" fill="#6A1C1A" fill-opacity="0.24"/>
<path d="M49.6393 117.213V124.443H55.2623" stroke="white" stroke-width="2" stroke-linecap="round"/>
</svg>
