<svg width="146" height="140" viewBox="0 0 146 140" fill="none" xmlns="http://www.w3.org/2000/svg">
<path d="M64.5263 93.1661C61.4698 93.1661 58.6615 93.1661 55.8533 93.1661C53.6717 93.1661 52.9152 92.4019 52.8922 90.2891C52.8922 88.6729 53.4119 86.6861 52.663 85.5514C51.9867 84.5198 49.893 84.4434 48.4373 83.9047C46.5935 83.2706 44.8253 82.4352 43.1647 81.4136C42.2172 80.7946 41.7052 81.0315 41.048 81.7536C40.154 82.7432 39.1912 83.664 38.2245 84.5886C37.0248 85.7348 35.8824 85.7348 34.7171 84.5886C31.3294 81.2365 27.9595 77.8705 24.6075 74.4904C23.381 73.2525 23.3848 72.1254 24.5769 70.8722C25.5932 69.8024 26.6363 68.7517 27.7137 67.7469C28.2219 67.2731 28.2524 66.9025 27.9048 66.3103C26.2116 63.446 24.9257 60.3597 24.084 57.1406C23.893 56.4185 23.5873 56.2466 22.9149 56.2618C21.4401 56.3001 19.9615 56.3001 18.4867 56.2618C16.8552 56.2236 15.9994 55.4022 15.9918 53.7898C15.9688 48.9758 15.9688 44.1642 15.9918 39.3552C15.9918 37.7543 16.8552 36.9291 18.4943 36.8832C19.9729 36.8412 21.4516 36.845 22.9264 36.8832C23.6026 36.9023 23.9006 36.7189 24.0726 36.0006C24.9095 32.7799 26.1957 29.693 27.8933 26.8309C28.2563 26.2234 28.1684 25.8643 27.6793 25.402C26.6363 24.4277 25.6314 23.4076 24.6419 22.3798C23.3581 21.0464 23.3275 19.9422 24.5998 18.6584C27.9111 15.3038 31.2441 11.9671 34.5987 8.64818C35.871 7.38734 37.0133 7.41409 38.32 8.67874C39.3478 9.67595 40.3679 10.677 41.3422 11.7353C41.8045 12.232 42.1522 12.339 42.7826 11.9607C45.6455 10.2647 48.7322 8.97861 51.9524 8.14002C52.7165 7.93752 52.9075 7.60894 52.8808 6.87537C52.8235 5.44642 52.8464 4.01748 52.8808 2.58853C52.9075 0.876853 53.7252 0.0210139 55.4177 0.0133725C60.1834 -0.00445749 64.9479 -0.00445749 69.711 0.0133725C71.3081 0.0133725 72.1678 0.869212 72.2327 2.49301C72.29 3.91814 72.2862 5.3509 72.2327 6.77985C72.2021 7.54399 72.3664 7.95663 73.207 8.17059C76.3867 8.98224 79.4326 10.2485 82.2506 11.9302C82.9154 12.3122 83.3013 12.2167 83.8018 11.6742C84.799 10.5891 85.8536 9.54604 86.931 8.53737C88.0772 7.4714 89.2234 7.42937 90.3429 8.53737C93.807 11.9454 97.2457 15.3841 100.659 18.8533C101.721 19.9384 101.652 21.1457 100.582 22.269C99.5126 23.3923 98.5345 24.401 97.4456 25.3943C96.8611 25.9216 96.8725 26.3381 97.2431 26.9685C97.843 27.9924 98.3893 29.0546 98.8822 30.1282C99.3751 31.2018 99.7572 32.2258 100.193 33.2803C100.277 33.2803 100.411 33.2803 100.453 33.223C102.619 30.304 107.078 30.4453 109.389 34.3463C121.016 53.9809 132.791 73.5238 144.54 93.0782C145.896 95.3401 146.347 97.5752 144.922 99.9211C144.458 100.735 143.792 101.417 142.99 101.901C142.187 102.386 141.274 102.656 140.337 102.687C139.863 102.718 139.386 102.718 138.908 102.718C115.984 102.718 93.0671 102.718 70.1581 102.718C67.9459 102.718 65.9553 102.309 64.5836 100.46C62.9178 98.1559 62.9828 95.7718 64.5263 93.1661ZM104.609 98.091H131.328C134.044 98.091 136.757 98.1101 139.474 98.091C141.204 98.091 141.659 97.2275 140.792 95.6992C140.677 95.4929 140.547 95.2904 140.41 95.0879L105.546 36.8794C104.587 35.2823 104.575 35.2823 103.608 36.8794C91.9349 56.365 80.2626 75.8506 68.5916 95.3362C68.2095 95.9934 67.6861 96.6353 68.1254 97.4338C68.5648 98.2323 69.4321 98.0757 70.1772 98.0757C81.6546 98.091 93.132 98.0961 104.609 98.091ZM92.5971 46.3471C94.1522 43.7681 95.5162 41.5139 96.8611 39.2482C97.1285 38.7974 96.9146 38.3236 96.7999 37.8651C95.8607 34.1749 94.3318 30.6605 92.2724 27.4575C91.2179 25.8108 91.3134 25.081 92.6812 23.6903C93.5141 22.8421 94.3432 21.9863 95.2105 21.1686C95.6919 20.714 95.8944 20.4045 95.2831 19.839C93.2505 17.8981 91.2637 15.9037 89.3151 13.8787C88.7535 13.2903 88.4478 13.4126 87.9702 13.9322C87.1297 14.8415 86.2356 15.6974 85.3454 16.5609C84.1381 17.7376 83.2173 17.8599 81.7883 16.9429C78.1134 14.5533 74.0256 12.8689 69.734 11.976C68.3738 11.6895 67.6861 10.8642 67.6899 9.46581C67.6899 8.13238 67.6631 6.79131 67.6899 5.46552C67.6899 4.82364 67.56 4.52945 66.8302 4.53709C63.9723 4.5753 61.0991 4.56766 58.2565 4.53709C57.6299 4.53709 57.4313 4.72049 57.4465 5.34326C57.4886 6.72254 57.4695 8.10563 57.4465 9.48873C57.4465 10.8069 56.7741 11.6818 55.498 11.9454C51.0759 12.8733 46.8659 14.6188 43.0845 17.0919C41.9917 17.8026 40.9143 17.6803 39.9706 16.7557C39.0269 15.8311 38.0602 14.895 37.1471 13.9208C36.6657 13.405 36.3524 13.3094 35.806 13.8787C33.8549 15.8935 31.8668 17.8816 29.8419 19.8428C29.349 20.3243 29.3299 20.607 29.8419 21.0846C30.8467 22.0283 31.8172 22.9949 32.78 23.9998C33.6511 24.8938 33.8269 25.9483 33.1621 26.9952C30.6531 30.8192 28.8852 35.0807 27.9506 39.5577C27.687 40.8262 26.8044 41.4681 25.471 41.449C24.1375 41.4299 22.7965 41.4795 21.4707 41.4299C20.7868 41.4069 20.569 41.6171 20.5766 42.3086C20.6123 45.1105 20.6123 47.9212 20.5766 50.7409C20.5766 51.4783 20.7638 51.742 21.5318 51.7076C22.8156 51.6464 24.1031 51.7076 25.3869 51.6846C26.8693 51.6464 27.729 52.3915 28.0117 53.7822C28.9082 58.1209 30.6167 62.251 33.0474 65.955C33.8383 67.17 33.6931 68.2742 32.6654 69.2866C31.7102 70.2151 30.797 71.197 29.8304 72.1063C29.3987 72.519 29.3528 72.7826 29.8304 73.2525C31.8681 75.2469 33.888 77.2681 35.8901 79.316C36.3676 79.805 36.6542 79.828 37.1318 79.316C38.0373 78.3379 39.0154 77.4286 39.9515 76.4772C40.8876 75.5259 42.0299 75.331 43.1762 76.0951C46.9204 78.5502 51.0923 80.2804 55.4751 81.1958C56.8964 81.49 57.5459 82.4222 57.5268 83.8703C57.5268 85.112 57.5688 86.3499 57.5077 87.5878C57.4733 88.352 57.6376 88.6653 58.4972 88.6462C61.1717 88.585 63.8462 88.5965 66.5207 88.6462C66.7979 88.6678 67.0749 88.6029 67.3137 88.4606C67.5525 88.3183 67.7413 88.1055 67.8542 87.8515C70.4981 83.3965 73.1726 78.9569 75.8242 74.5096C76.0038 74.2115 76.3706 73.9212 76.0496 73.4971C57.8401 82.1128 39.0689 71.6402 34.0637 55.6429C32.8411 51.7901 32.4109 47.7298 32.7988 43.7064C33.1867 39.683 34.3848 35.7797 36.321 32.2315C38.2571 28.6833 40.8913 25.5636 44.0649 23.0603C47.2384 20.5569 50.8858 18.7217 54.7873 17.665C62.9063 15.4796 70.7006 16.5188 77.8683 20.8668C87.2099 26.552 91.9744 35.0875 92.5971 46.3471ZM87.9626 46.6566C88.039 32.753 76.6418 21.2451 62.7191 21.1648C48.7964 21.0846 37.277 32.4092 37.1853 46.2019C37.0821 60.3729 48.3762 71.9153 62.402 71.9764C69.1463 71.9988 75.6243 69.346 80.4158 64.5997C85.2072 59.8534 87.9212 53.4008 87.9626 46.6566Z" fill="#691D1C"/>
<path d="M15.2504 92.8947C18.2076 91.6835 21.0426 90.4685 23.9196 89.3643C28.7834 87.4922 33.4714 87.8131 38.0104 90.5105C45.7817 95.0954 53.5862 99.6331 61.4237 104.124C65.4546 106.416 67.6783 109.736 67.6439 114.413C67.6439 115.62 68.2628 115.043 68.7098 114.921C77.1536 112.671 85.6051 110.436 94.0374 108.135C96.8112 107.371 99.5163 107.02 102.256 108.254C106.004 109.946 108.422 113.687 108.273 117.66C108.113 121.944 105.492 125.722 101.396 126.884C92.9905 129.279 84.5353 131.469 76.0953 133.761C69.26 135.599 62.4018 137.345 55.5933 139.278C50.7831 140.646 46.3052 140.042 41.9572 137.7C37.0629 135.071 32.1418 132.489 27.2322 129.891C23.6674 128.007 19.9919 127.793 16.1865 129.088C15.4758 129.333 15.1243 129.573 15.0976 130.437C15.0211 133.234 13.4699 134.659 10.6502 134.682C8.46098 134.682 6.26789 134.712 4.07862 134.682C1.67157 134.636 0.0248347 133.031 0.0171932 130.632C-0.00573107 117.866 -0.00573107 105.101 0.0171932 92.3368C0.0171932 89.9374 1.66774 88.3365 4.07862 88.2869C6.07685 88.2487 8.07891 88.2869 10.081 88.2869C13.5655 88.2525 14.7919 89.3299 15.2504 92.8947ZM15.1472 124.469C23.1707 123.105 24.4545 123.296 31.71 127.071C36.2147 129.413 40.6887 131.824 45.2086 134.147C47.7586 135.507 50.7348 135.833 53.5187 135.056C68.8016 130.981 84.0768 126.888 99.3444 122.776C102.626 121.894 104.334 118.956 103.482 115.899C102.665 112.965 99.6882 111.406 96.4444 112.269C86.4418 114.944 76.443 117.618 66.4403 120.293C65.8463 120.441 65.3125 120.77 64.9121 121.233C63.2681 123.11 61.0224 124.358 58.5597 124.761C56.0971 125.165 53.5707 124.7 51.4135 123.445C48.5556 121.84 45.7435 120.152 42.9124 118.501C41.1892 117.496 39.4508 116.514 37.7468 115.479C36.3942 114.654 36.0389 113.389 36.7496 112.212C37.4144 111.112 38.6943 110.829 40.001 111.505C40.3831 111.704 40.7384 111.937 41.109 112.151C45.1844 114.517 49.2497 116.884 53.3047 119.25C54.2694 119.865 55.3727 120.229 56.5141 120.308C57.9037 120.37 59.2749 119.972 60.4152 119.175C61.5556 118.379 62.4016 117.229 62.8221 115.903C63.7009 113.079 62.57 110.145 59.8687 108.56C51.7994 103.822 43.6918 99.1453 35.6263 94.3962C32.3481 92.4629 28.9935 92.2681 25.5128 93.655C22.4295 94.8891 19.3997 96.2263 16.282 97.4107C15.3421 97.7699 15.1358 98.2475 15.1358 99.1797C15.1816 104.655 15.1587 110.134 15.1587 115.609L15.1472 124.469ZM10.5624 111.448C10.5624 105.736 10.5089 100.024 10.6006 94.316C10.6197 92.9902 10.2185 92.6922 9.01116 92.8068C7.9681 92.9099 6.91741 92.9099 5.87435 92.8068C4.78163 92.696 4.56003 93.0781 4.56385 94.1287C4.6097 104.552 4.58677 114.971 4.59442 125.394C4.59442 126.922 4.06333 128.951 4.8313 129.799C5.70242 130.762 7.78089 129.956 9.32064 130.108C10.3178 130.208 10.5929 129.875 10.5853 128.867C10.5318 123.059 10.57 117.252 10.57 111.448H10.5624Z" fill="#691D1C"/>
<path d="M104.61 98.0912C93.1322 98.0912 81.6547 98.0912 70.1773 98.0912C69.4323 98.0912 68.5841 98.2822 68.1256 97.4493C67.6671 96.6164 68.1944 96.0089 68.5917 95.3517C80.2678 75.8712 91.9401 56.3856 103.609 36.8948C104.575 35.2825 104.587 35.2825 105.546 36.8948L140.436 95.0805C140.559 95.283 140.689 95.4855 140.818 95.6918C141.686 97.2201 141.231 98.0683 139.5 98.0835C136.784 98.1103 134.071 98.0835 131.355 98.0835L104.61 98.0912ZM104.992 84.4092C108.461 83.775 109.76 81.6086 109.959 78.2579C110.444 69.7453 111.132 61.2481 111.697 52.7431C111.892 49.8241 110.241 47.3445 107.521 46.2288C103.085 44.4102 97.0064 46.993 97.4878 53.2704C98.1488 61.9587 98.6722 70.6585 99.2873 79.3544C99.4631 81.8455 100.724 83.3165 103.146 84.0768C103.364 84.1456 103.57 84.2373 103.88 84.3519C99.5166 85.9795 97.7934 88.5547 98.6302 92.0927C99.3179 95.0117 102.206 97.0825 105.125 96.7463C108.354 96.3642 110.662 93.8846 110.7 90.7363C110.738 87.4543 108.522 85.0014 105.011 84.4092H104.992Z" fill="#FFB727"/>
<path d="M92.5971 46.3469C91.9743 35.0873 87.2099 26.5518 77.8682 20.8666C70.7005 16.5186 62.9063 15.4794 54.7873 17.6648C50.8835 18.714 47.2325 20.5423 44.054 23.0397C40.8756 25.5371 38.2354 28.6519 36.2924 32.1965C34.3494 35.7412 33.1439 39.6424 32.7484 43.6652C32.3529 47.688 32.7756 51.7493 33.9911 55.6045C38.9962 71.6018 57.7674 82.0744 75.977 73.4587C76.2979 73.8828 75.9311 74.1731 75.7515 74.4711C73.1 78.9185 70.4254 83.3581 67.7815 87.8131C67.6686 88.0671 67.4798 88.2799 67.241 88.4222C67.0022 88.5645 66.7252 88.6294 66.4481 88.6078C63.7736 88.5619 61.0991 88.5505 58.4246 88.6078C57.5649 88.6269 57.4006 88.3136 57.435 87.5494C57.4962 86.3115 57.435 85.0736 57.4541 83.8319C57.4732 82.3953 56.8237 81.463 55.4024 81.1574C51.0196 80.242 46.8477 78.5118 43.1035 76.0567C41.9573 75.2926 40.8569 75.4531 39.8788 76.4388C38.9007 77.4246 37.9685 78.2995 37.0591 79.2776C36.5892 79.7896 36.295 79.7667 35.8174 79.2776C33.823 77.2399 31.8031 75.2187 29.7578 73.2141C29.2954 72.7595 29.3413 72.4958 29.7578 72.0679C30.7244 71.151 31.6375 70.1576 32.5927 69.2482C33.632 68.2357 33.7771 67.1316 32.9748 65.9166C30.5441 62.2126 28.8355 58.0825 27.9391 53.7438C27.6564 52.3531 26.7929 51.608 25.3143 51.6462C24.0305 51.6768 22.7429 51.608 21.4592 51.6691C20.695 51.7035 20.4963 51.4399 20.504 50.7025C20.5422 47.9007 20.5422 45.0899 20.504 42.2702C20.504 41.5787 20.7141 41.3685 21.398 41.3914C22.7276 41.4411 24.0725 41.3914 25.3983 41.4105C26.7241 41.4296 27.6143 40.7878 27.878 39.5193C28.8126 35.0422 30.5804 30.7808 33.0894 26.9568C33.7657 25.9099 33.5899 24.8554 32.7073 23.9614C31.7445 22.9718 30.7741 21.9899 29.7692 21.0462C29.2687 20.58 29.2878 20.282 29.7692 19.8044C31.7866 17.8431 33.7746 15.8551 35.7334 13.8403C36.2797 13.271 36.593 13.3665 37.0744 13.8823C37.9838 14.8566 38.9466 15.7927 39.8979 16.7173C40.8493 17.6419 41.9191 17.7642 43.0118 17.0535C46.8242 14.5788 51.0674 12.8421 55.5208 11.9338C56.797 11.6701 57.4579 10.7875 57.4694 9.47704C57.4694 8.09394 57.5 6.71084 57.4694 5.33157C57.4694 4.70879 57.6528 4.52158 58.2794 4.5254C61.1373 4.55596 64.0105 4.56361 66.8531 4.5254C67.5828 4.5254 67.728 4.81195 67.7127 5.45383C67.6745 6.78726 67.7127 8.12833 67.7127 9.45412C67.7127 10.8525 68.3967 11.6778 69.7568 11.9643C74.0485 12.8572 78.1363 14.5416 81.8112 16.9312C83.2401 17.8559 84.1609 17.7336 85.3683 16.5492C86.2585 15.6857 87.1525 14.8299 87.9931 13.9205C88.4707 13.4009 88.7764 13.2786 89.338 13.867C91.2866 15.892 93.2733 17.8864 95.306 19.8273C95.9173 20.4081 95.7148 20.7023 95.2334 21.157C94.3661 21.9746 93.537 22.8304 92.704 23.6786C91.3362 25.0694 91.2407 25.7991 92.2952 27.4458C94.3547 30.6488 95.8835 34.1632 96.8228 37.8535C96.9374 38.3119 97.1514 38.7857 96.8839 39.2366C95.5161 41.5137 94.1521 43.7679 92.5971 46.3469Z" fill="#FFE9C0"/>
<path d="M87.9625 46.6565C87.921 53.3994 85.2081 59.8508 80.4183 64.5969C75.6285 69.3431 69.1525 71.9967 62.4095 71.9764C48.376 71.9153 37.0819 60.3729 37.1927 46.2018C37.2959 32.409 48.8421 21.0844 62.7266 21.1647C76.6111 21.2449 88.0389 32.7529 87.9625 46.6565ZM62.5165 24.1143C58.072 24.1165 53.728 25.4364 50.0335 27.9069C46.3389 30.3774 43.4597 33.8878 41.7598 37.9943C40.0599 42.1008 39.6155 46.6191 40.4828 50.978C41.3502 55.337 43.4903 59.3411 46.6327 62.484C49.7752 65.627 53.7788 67.7678 58.1377 68.6359C62.4965 69.504 67.0149 69.0604 71.1217 67.3611C75.2285 65.6619 78.7393 62.7833 81.2105 59.0892C83.6816 55.3951 85.0022 51.0513 85.0052 46.6068C84.9941 40.6448 82.6216 34.93 78.4068 30.7131C74.1921 26.4962 68.4785 24.1208 62.5165 24.1066V24.1143Z" fill="#BE4E1E"/>
<path d="M15.1475 124.469V115.609C15.1475 110.134 15.1704 104.655 15.1245 99.1798C15.1245 98.2476 15.327 97.77 16.2708 97.4108C19.3732 96.2264 22.4183 94.8892 25.5016 93.6551C28.9823 92.2682 32.3369 92.463 35.615 94.3963C43.6806 99.1454 51.7881 103.822 59.8575 108.56C62.5587 110.145 63.6782 113.08 62.8109 115.903C62.3904 117.229 61.5444 118.379 60.404 119.176C59.2636 119.972 57.8925 120.37 56.5029 120.308C55.3615 120.229 54.2581 119.865 53.2935 119.25C49.2384 116.874 45.1732 114.507 41.0978 112.151C40.7157 111.937 40.368 111.704 39.9898 111.505C38.6831 110.829 37.4031 111.123 36.7383 112.212C36.0277 113.389 36.383 114.654 37.7355 115.479C39.4396 116.514 41.1742 117.496 42.9011 118.501C45.7323 120.152 48.5443 121.84 51.4022 123.445C53.5615 124.702 56.0908 125.168 58.5561 124.763C61.0214 124.358 63.2687 123.107 64.9123 121.225C65.3127 120.762 65.8465 120.434 66.4406 120.285C76.4432 117.63 86.442 114.936 96.4446 112.262C99.6884 111.398 102.665 112.957 103.482 115.892C104.334 118.948 102.627 121.883 99.3446 122.769C84.0617 126.883 68.7865 130.976 53.5189 135.049C50.735 135.826 47.7588 135.5 45.2089 134.139C40.6889 131.816 36.2149 129.405 31.7103 127.063C24.4547 123.296 23.1786 123.117 15.1475 124.469Z" fill="#FFE9C0"/>
<path d="M10.5699 111.448C10.5699 117.252 10.5432 123.06 10.5929 128.863C10.5929 129.872 10.3254 130.204 9.32821 130.105C7.79992 129.952 5.70999 130.758 4.83887 129.795C4.07472 128.947 4.60198 126.907 4.60198 125.39C4.60198 114.967 4.60198 104.548 4.57141 94.1253C4.57141 93.0746 4.7892 92.6925 5.88192 92.8033C6.92498 92.9065 7.97567 92.9065 9.01873 92.8033C10.2184 92.6887 10.6273 92.9867 10.6082 94.3125C10.5317 100.024 10.5699 105.736 10.5699 111.448Z" fill="#FFBC3B"/>
<path d="M105.011 84.4092C108.522 85.0014 110.742 87.4658 110.7 90.7363C110.661 93.8846 108.354 96.3757 105.125 96.7463C102.214 97.0825 99.3253 95.0117 98.6299 92.0927C97.7932 88.5662 99.5163 85.9795 103.88 84.3519C103.57 84.2373 103.364 84.1456 103.146 84.0768C100.724 83.3127 99.4628 81.8455 99.2871 79.3544C98.6719 70.6585 98.1408 61.9587 97.4875 53.2704C97.0061 46.9853 103.085 44.4101 107.521 46.2288C110.241 47.3444 111.892 49.8241 111.697 52.7431C111.131 61.248 110.444 69.7453 109.958 78.2579C109.779 81.6086 108.48 83.7635 105.011 84.4092ZM102.072 52.7316C102.691 61.8441 103.261 70.242 103.826 78.6399C103.86 79.1328 103.864 79.6448 104.514 79.6945C105.301 79.7518 105.278 79.1557 105.301 78.6285C105.907 69.9936 106.512 61.3588 107.116 52.724C107.215 51.2798 106.386 50.3972 104.938 50.2711C102.871 50.0915 102 51.0658 102.072 52.7316ZM106.126 90.53C106.125 90.3329 106.083 90.1382 106.002 89.9582C105.922 89.7781 105.805 89.6167 105.66 89.4839C105.514 89.3511 105.342 89.2499 105.156 89.1867C104.969 89.1234 104.771 89.0995 104.575 89.1163C104.373 89.0982 104.169 89.1242 103.978 89.1923C103.786 89.2605 103.612 89.3693 103.467 89.5113C103.321 89.6533 103.209 89.825 103.136 90.0147C103.064 90.2044 103.033 90.4076 103.047 90.6102C103.026 90.8252 103.055 91.042 103.13 91.2445C103.205 91.4469 103.325 91.6297 103.481 91.7793C103.637 91.9288 103.824 92.0412 104.03 92.1081C104.235 92.1749 104.453 92.1945 104.667 92.1653C105.565 92.1232 106.107 91.5578 106.126 90.53Z" fill="#691D1C"/>
<path d="M62.5166 24.107C66.9655 24.0994 71.3165 25.4122 75.0187 27.8792C78.7209 30.3461 81.6078 33.8562 83.3138 37.9649C85.0198 42.0736 85.4681 46.5962 84.6021 50.9599C83.736 55.3236 81.5945 59.3322 78.4487 62.478C75.3029 65.6238 71.2943 67.7653 66.9306 68.6314C62.5668 69.4975 58.0442 69.0491 53.9355 67.3431C49.8268 65.6372 46.3167 62.7503 43.8498 59.0481C41.3828 55.3459 40.07 50.9948 40.0776 46.546C40.0826 40.5964 42.4484 34.8919 46.6554 30.6848C50.8625 26.4778 56.567 24.1121 62.5166 24.107ZM80.4282 46.6072C80.4312 43.069 79.3849 39.6094 77.4216 36.6658C75.4583 33.7223 72.6663 31.4271 69.3985 30.0705C66.1307 28.7139 62.534 28.3568 59.0633 29.0443C55.5925 29.7319 52.4036 31.4333 49.8999 33.9333C47.3961 36.4333 45.69 39.6196 44.9972 43.0893C44.3045 46.559 44.6562 50.1563 46.0079 53.4261C47.3597 56.6958 49.6507 59.4914 52.5913 61.459C55.5319 63.4267 58.9899 64.4782 62.5281 64.4804C64.8771 64.4824 67.2035 64.0217 69.3744 63.1245C71.5453 62.2273 73.5182 60.9113 75.1804 59.2516C76.8426 57.5918 78.1616 55.6209 79.062 53.4514C79.9624 51.2818 80.4267 48.9561 80.4282 46.6072Z" fill="#691D1C"/>
<path d="M102.073 52.7318C102 51.0659 102.871 50.0916 104.938 50.2712C106.386 50.3973 107.231 51.2799 107.116 52.7241C106.525 61.3589 105.92 69.9937 105.301 78.6285C105.267 79.1558 105.301 79.7518 104.514 79.6945C103.865 79.6448 103.861 79.1329 103.826 78.64C103.261 70.2421 102.692 61.8442 102.073 52.7318Z" fill="#BE4E1E"/>
<path d="M106.126 90.5299C106.107 91.5577 105.564 92.1231 104.663 92.1652C104.449 92.1943 104.231 92.1748 104.026 92.1079C103.82 92.0411 103.633 91.9287 103.477 91.7792C103.321 91.6296 103.201 91.4468 103.126 91.2444C103.051 91.0419 103.022 90.8251 103.043 90.6101C103.029 90.4075 103.06 90.2043 103.132 90.0146C103.205 89.8249 103.318 89.6532 103.463 89.5112C103.608 89.3692 103.782 89.2604 103.974 89.1922C104.165 89.1241 104.369 89.0981 104.571 89.1162C104.768 89.0988 104.966 89.1223 105.153 89.1853C105.34 89.2483 105.512 89.3494 105.658 89.4823C105.804 89.6151 105.921 89.7768 106.002 89.9571C106.082 90.1374 106.125 90.3324 106.126 90.5299Z" fill="#BE4E1E"/>
<path d="M80.4282 46.6074C80.4214 50.1462 79.3651 53.6035 77.393 56.5419C75.4208 59.4803 72.6215 61.7677 69.3491 63.1148C66.0766 64.4619 62.4782 64.8081 59.0089 64.1096C55.5397 63.4111 52.3556 61.6994 49.8594 59.1909C47.3632 56.6825 45.6672 53.49 44.9858 50.0174C44.3044 46.5447 44.6682 42.9481 46.0314 39.6823C47.3946 36.4165 49.6957 33.6285 52.6438 31.6708C55.5918 29.7132 59.0543 28.6739 62.5931 28.6844C67.331 28.7087 71.8667 30.6076 75.2087 33.966C78.5507 37.3245 80.4273 41.8694 80.4282 46.6074ZM69.2297 39.4665C68.8476 37.8274 67.5486 36.8417 65.9706 36.1921C65.2332 35.8903 64.8817 35.5846 64.7747 34.7288C64.6219 33.5138 63.7737 32.7879 62.4823 32.8452C61.1909 32.9025 60.3885 33.6093 60.3503 34.8816C60.3236 35.7184 59.9453 35.982 59.2882 36.2877C58.0253 36.8691 56.9793 37.8357 56.3003 39.0488C55.6213 40.2619 55.3442 41.659 55.5089 43.0395C55.6736 44.4199 56.2716 45.7126 57.217 46.7319C58.1623 47.7512 59.4064 48.4446 60.7706 48.7126C61.5538 48.8731 62.3829 48.789 63.1853 48.8769C63.4482 48.8914 63.7057 48.9582 63.9426 49.0733C64.1794 49.1884 64.391 49.3495 64.5649 49.5473C64.7389 49.745 64.8717 49.9754 64.9556 50.2251C65.0395 50.4747 65.0728 50.7386 65.0536 51.0012C64.9352 52.1474 64.2895 52.8313 63.1089 52.9116C61.9283 52.9918 60.7018 52.988 59.7466 51.8571C58.9061 50.8637 57.607 50.9248 56.6901 51.7348C56.2503 52.1103 55.9729 52.6414 55.9159 53.2168C55.8589 53.7923 56.0268 54.3675 56.3844 54.8219C57.1162 55.8929 58.1813 56.6922 59.4142 57.0952C59.6859 57.1465 59.9298 57.2943 60.1011 57.5112C60.2725 57.7282 60.3596 57.9997 60.3465 58.2758C60.4344 59.5443 61.2214 60.2435 62.4861 60.3199C62.7733 60.3506 63.0637 60.3216 63.3391 60.2348C63.6146 60.148 63.8691 60.0053 64.0868 59.8155C64.3045 59.6258 64.4807 59.3931 64.6044 59.1321C64.728 58.8711 64.7964 58.5874 64.8053 58.2988C64.8549 57.3856 65.3134 57.1526 65.9744 56.8163C67.2158 56.1975 68.2307 55.2034 68.8752 53.9751C69.5196 52.7468 69.7608 51.3468 69.5646 49.9737C69.3684 48.6006 68.7447 47.3241 67.782 46.3255C66.8193 45.3269 65.5666 44.6569 64.2016 44.4105C63.5413 44.3288 62.8764 44.2893 62.211 44.292C60.9234 44.2233 60.0752 43.4324 60.0638 42.2938C60.0523 41.1552 60.8661 40.3453 62.1575 40.2574C63.4489 40.1695 64.5569 40.3147 65.4815 41.4265C66.1005 42.1716 67.0633 42.2212 67.9727 41.7551C68.817 41.3081 69.2067 40.5898 69.2297 39.4665Z" fill="#FFE9C0"/>
<path d="M69.2294 39.4662C69.2065 40.6124 68.8167 41.3078 67.9724 41.7395C67.063 42.2057 66.1002 42.156 65.4813 41.411C64.5567 40.2991 63.4334 40.1578 62.1572 40.2418C60.8811 40.3259 60.0482 41.1091 60.0635 42.2783C60.0788 43.4474 60.9232 44.2077 62.2107 44.2765C62.8761 44.2737 63.541 44.3133 64.2013 44.3949C65.5661 44.6419 66.8184 45.3124 67.7806 46.3112C68.7428 47.3101 69.366 48.5866 69.5618 49.9596C69.7576 51.3327 69.516 52.7325 68.8713 53.9605C68.2267 55.1884 67.2117 56.1822 65.9703 56.8008C65.3093 57.1294 64.8508 57.3701 64.8012 58.2832C64.7922 58.5708 64.7241 58.8535 64.6011 59.1136C64.4782 59.3738 64.3031 59.6058 64.0866 59.7954C63.8702 59.985 63.617 60.128 63.343 60.2156C63.0689 60.3031 62.7797 60.3334 62.4935 60.3044C61.2288 60.228 60.4417 59.5403 60.3539 58.2603C60.367 57.9842 60.2798 57.7126 60.1085 57.4957C59.9372 57.2787 59.6932 57.131 59.4216 57.0797C58.1887 56.6766 57.1235 55.8774 56.3918 54.8064C56.0342 54.3519 55.8663 53.7768 55.9233 53.2013C55.9803 52.6258 56.2577 52.0948 56.6974 51.7193C57.622 50.9093 58.9211 50.8481 59.754 51.8415C60.7092 52.9877 61.8745 52.961 63.1162 52.896C64.358 52.8311 64.9425 52.1319 65.061 50.9857C65.0802 50.723 65.0468 50.4592 64.9629 50.2095C64.879 49.9599 64.7462 49.7295 64.5723 49.5317C64.3984 49.334 64.1868 49.1728 63.9499 49.0577C63.713 48.9426 63.4556 48.8759 63.1926 48.8614C62.3903 48.7735 61.5612 48.8614 60.778 48.6971C59.4138 48.4291 58.1697 47.7357 57.2243 46.7164C56.279 45.6971 55.681 44.4044 55.5163 43.0239C55.3516 41.6435 55.6286 40.2464 56.3077 39.0333C56.9867 37.8202 58.0327 36.8535 59.2955 36.2721C59.9527 35.9664 60.3309 35.7028 60.3577 34.8661C60.3959 33.5976 61.225 32.8831 62.4896 32.8296C63.7543 32.7762 64.6254 33.4983 64.7821 34.7133C64.889 35.5691 65.2406 35.8595 65.978 36.1766C67.5483 36.8414 68.8626 37.8271 69.2294 39.4662Z" fill="#691D1C"/>
</svg>
