<svg width="270" height="270" viewBox="0 0 270 270" fill="none" xmlns="http://www.w3.org/2000/svg">
<circle cx="135" cy="135" r="135" fill="#FFF4DA"/>
<path d="M218.699 131.23C217.843 132.415 216.708 132.816 215.236 132.806C207.477 132.751 199.718 132.782 191.959 132.779C189.183 132.779 188.455 132.071 188.404 129.372C187.998 104.182 169.623 82.6057 144.746 78.1101C115.251 72.7775 87.2727 92.9227 82.8437 122.686C82.4891 125.046 82.2961 127.427 82.266 129.813C82.2423 131.887 81.3595 132.776 79.265 132.776C71.1802 132.794 63.0955 132.794 55.0108 132.776C52.8348 132.776 51.9683 131.868 52.0009 129.674C52.2705 111.271 57.9165 94.6982 68.9391 79.9557C69.3272 79.4373 69.7256 78.9188 70.2633 78.2212C68.2088 77.6524 66.2743 77.1087 64.3383 76.5829C60.1611 75.4482 59.2857 72.1569 62.3593 69.0729C66.3044 65.113 70.2545 61.163 74.2094 57.2228C77.0949 54.3551 80.5359 55.269 81.592 59.1647C82.1268 61.1378 82.6496 63.1153 83.2214 65.2512C87.8963 61.5925 92.6837 58.4567 97.8252 55.8808C98.6468 55.469 99.4763 55.074 100.314 54.6958C102.288 53.7937 102.971 53.9818 104.301 55.7652C104.597 57.408 103.895 58.4523 102.416 59.1144C101.137 59.6861 99.8974 60.3409 98.585 60.9852C101.785 66.5325 104.943 71.9554 108.031 77.4183C108.624 78.4552 109.068 78.6744 110.24 78.1338C127.013 70.3443 143.792 70.3601 160.574 78.1812C161.58 78.6492 162.004 78.5589 162.556 77.5768C165.316 72.6724 168.158 67.8153 170.973 62.942C172.125 60.9467 172.13 60.9393 170.05 59.9409C152.029 51.2923 133.37 49.5785 114.075 54.7995C112.349 55.2661 111.112 55.0187 110.24 53.413C110.24 51.2015 110.619 50.7008 112.747 50.1128C158.896 37.3561 205.536 64.9787 216.553 111.567C217.425 115.312 218.034 119.113 218.373 122.943C218.4 123.24 218.25 123.617 218.699 123.745V131.23ZM203.417 127.872C206.402 127.872 209.386 127.818 212.367 127.898C213.552 127.931 213.827 127.559 213.734 126.426C213.405 122.426 213.027 118.436 212.161 114.511C207.421 93.056 195.885 76.2718 177.553 64.1581C176.61 63.5374 176.219 63.5744 175.627 64.6113C172.704 69.7957 169.702 74.9476 166.687 80.0861C166.215 80.8933 166.205 81.3081 167.089 81.8636C170.205 83.8423 173.096 86.1549 175.711 88.7603C186.24 99.1766 192.019 111.807 193.204 126.544C193.288 127.581 193.566 127.919 194.623 127.892C197.558 127.826 200.488 127.872 203.417 127.872ZM67.1838 127.891C70.1671 127.891 73.1518 127.855 76.1336 127.913C77.0875 127.931 77.4371 127.7 77.5052 126.681C77.6316 124.626 77.8764 122.579 78.2384 120.553C81.276 104.104 89.737 91.2019 103.621 81.8473C104.338 81.3644 104.556 81.0311 104.075 80.206C100.982 74.9268 97.9224 69.6264 94.8967 64.3047C94.4523 63.527 94.0761 63.5507 93.3992 63.9907C90.6282 65.7978 87.954 67.7378 85.3766 69.8106C84.7575 70.3097 84.6671 70.7719 84.876 71.474C85.3204 72.979 85.7544 74.4899 86.1099 76.017C86.8935 79.3839 84.439 81.8428 81.0632 81.0726C79.582 80.7349 78.1303 80.3112 76.6802 79.8742C75.861 79.6269 75.3219 79.7543 74.7368 80.4756C63.7902 93.9551 57.9363 109.378 56.932 126.691C56.8668 127.812 57.3216 127.923 58.2311 127.912C61.2158 127.861 64.2005 127.891 67.1838 127.891ZM81.0188 75.9785C79.6856 70.9911 78.4118 66.2718 77.2593 61.9732L66.9468 72.2146L81.0188 75.9785Z" fill="#202124"/>
<path d="M110.248 53.4011C111.115 55.0067 112.358 55.2541 114.083 54.7875C133.369 49.5705 152.028 51.2843 170.059 59.929C172.132 60.9273 172.132 60.9347 170.982 62.93C168.167 67.8033 165.325 72.6604 162.565 77.5649C162.012 78.5469 161.589 78.6373 160.583 78.1692C143.821 70.3679 127.043 70.3521 110.248 78.1218C109.084 78.6625 108.628 78.4432 108.04 77.4064C104.951 71.9435 101.793 66.5206 98.5997 60.9733C99.9121 60.3289 101.152 59.6742 102.43 59.1024C103.912 58.4403 104.618 57.396 104.316 55.7533C106.166 54.6601 108.244 54.1224 110.248 53.4011Z" fill="#FFD37F"/>
<path d="M160.151 160.975C159.865 162.709 158.817 163.433 157.086 163.432C137.562 163.42 118.036 163.413 98.5094 163.41C93.5427 163.401 90.8527 158.702 93.3398 154.374C105.57 133.144 117.825 111.921 130.103 90.705C132.769 86.0924 138.086 86.2998 140.844 91.0768C151.936 110.286 163.025 129.498 174.11 148.714C175.218 150.64 176.353 152.543 177.416 154.491C179.757 158.772 177.104 163.316 172.223 163.423C171.355 163.442 170.487 163.405 169.619 163.423C167.893 163.472 166.844 162.699 166.553 160.967C166.838 159.243 167.843 158.424 169.601 158.526C170.142 158.559 170.685 158.526 171.23 158.526C173.661 158.526 173.897 158.12 172.712 156.042C161.935 137.393 151.16 118.741 140.386 100.087C139.06 97.7899 137.754 95.4806 136.387 93.2054C135.695 92.0579 135.017 92.0313 134.35 93.1254C133.618 94.3193 132.993 95.5784 132.321 96.8093C131.915 97.4433 131.484 98.064 131.106 98.7157C124.873 109.499 118.645 120.286 112.421 131.077C107.96 138.817 103.511 146.564 99.0737 154.318C98.5701 155.147 98.0502 155.968 97.5688 156.808C96.9422 157.902 97.3851 158.437 98.539 158.529C98.9701 158.563 99.407 158.536 99.8396 158.536C118.817 158.536 137.796 158.536 156.775 158.536C159.072 158.539 159.583 158.919 160.151 160.975Z" fill="#202124"/>
<path d="M160.151 160.975C159.583 158.919 159.072 158.539 156.781 158.538C137.802 158.538 118.823 158.538 99.8455 158.538C99.413 158.538 98.976 158.565 98.545 158.531C97.3911 158.437 96.9482 157.904 97.5747 156.809C98.0562 155.969 98.5761 155.149 99.0797 154.319C110.598 154.333 122.116 154.343 133.635 154.349C134 154.349 134.366 154.214 134.732 154.142H135.968C136.465 154.448 137.019 154.355 137.555 154.355C141.134 154.355 144.714 154.355 148.295 154.355C152.044 154.355 154.812 152.647 156.668 149.459C158.628 146.085 158.555 142.686 156.593 139.302C153.823 134.531 151.136 129.71 148.314 124.968C146.388 121.723 144.759 118.289 142.482 115.25C142.436 112.089 141.093 109.689 138.308 108.14C138.098 107.119 137.483 106.291 137.016 105.39C135.52 102.493 133.475 99.8979 132.327 96.8109C132.999 95.5815 133.624 94.3224 134.356 93.1285C135.026 92.0334 135.705 92.06 136.393 93.2085C137.754 95.4837 139.059 97.8004 140.392 100.09C151.166 118.744 161.938 137.399 172.707 156.055C173.907 158.129 173.664 158.535 171.226 158.539C170.684 158.539 170.14 158.568 169.597 158.539C167.838 158.437 166.834 159.256 166.548 160.981L160.151 160.975Z" fill="#FFBC3B"/>
<path d="M203.861 139.67C205.423 139.669 206.969 139.976 208.412 140.573C209.855 141.17 211.166 142.045 212.271 143.149C213.376 144.253 214.252 145.564 214.85 147.006C215.448 148.449 215.755 149.995 215.756 151.557C215.741 158.074 210.306 163.466 203.802 163.42C197.339 163.374 192.018 158.036 191.999 151.57C191.994 150.009 192.297 148.462 192.891 147.019C193.484 145.575 194.357 144.263 195.459 143.157C196.561 142.052 197.871 141.174 199.313 140.576C200.754 139.977 202.3 139.669 203.861 139.67ZM203.892 144.558C202.056 144.547 200.29 145.262 198.978 146.547C197.666 147.832 196.915 149.583 196.889 151.419C196.844 155.287 200 158.513 203.851 158.529C207.702 158.545 210.891 155.306 210.865 151.462C210.845 149.626 210.101 147.871 208.796 146.579C207.491 145.287 205.729 144.562 203.892 144.561V144.558Z" fill="#202124"/>
<path d="M62.5251 143.24C62.3192 140.961 63.0554 140.027 65.2877 139.736C72.0081 138.858 78.268 143.977 78.6783 150.686C79.1004 157.586 73.642 163.435 66.806 163.425C59.9699 163.414 54.4434 157.438 54.9648 150.65C55.1321 148.461 55.9705 147.688 58.1687 147.723C59.7981 148.35 59.9285 149.649 59.8663 151.175C59.6841 155.632 63.6183 159.174 67.8236 158.443C71.6141 157.778 74.1797 154.482 73.7842 150.785C73.3887 147.088 70.2129 144.365 66.3453 144.599C64.827 144.688 63.4139 144.782 62.5251 143.24Z" fill="#202124"/>
<path d="M62.5251 143.24C63.4138 144.781 64.821 144.688 66.3453 144.596C70.2128 144.365 73.3842 147.063 73.7841 150.782C74.1841 154.502 71.6141 157.775 67.8236 158.44C63.6183 159.181 59.6766 155.626 59.8662 151.172C59.9284 149.646 59.804 148.347 58.1687 147.72C59.1774 145.795 60.4469 144.125 62.5251 143.24Z" fill="#FFE7B9"/>
<path d="M203.417 127.872C200.488 127.872 197.558 127.826 194.63 127.895C193.574 127.922 193.297 127.592 193.211 126.547C192.026 111.81 186.249 99.1796 175.719 88.7634C173.104 86.1579 170.212 83.8454 167.096 81.8666C166.207 81.3082 166.222 80.8934 166.695 80.0891C169.708 74.9506 172.712 69.8047 175.634 64.6144C176.218 63.5775 176.61 63.5405 177.56 64.1611C195.912 76.2689 207.448 93.0531 212.168 114.514C213.034 118.439 213.412 122.429 213.741 126.429C213.834 127.562 213.553 127.934 212.374 127.901C209.386 127.818 206.401 127.872 203.417 127.872Z" fill="#FFBC3B"/>
<path d="M67.1837 127.891C64.2004 127.891 61.2157 127.866 58.2339 127.907C57.3244 127.919 56.8697 127.808 56.9349 126.687C57.9391 109.378 63.7931 93.9506 74.7396 80.4712C75.3321 79.7498 75.8639 79.6224 76.683 79.8698C78.1332 80.3068 79.5907 80.7304 81.0661 81.0681C84.4419 81.8384 86.8963 79.3795 86.1127 76.0126C85.7572 74.4854 85.3262 72.9745 84.8788 71.4696C84.67 70.7674 84.7603 70.3053 85.3795 69.8061C87.9589 67.7323 90.633 65.7924 93.402 63.9862C94.0789 63.5418 94.4567 63.5226 94.8996 64.3003C97.9292 69.6209 100.99 74.9229 104.08 80.206C104.562 81.0311 104.344 81.3644 103.627 81.8473C89.7635 91.1999 81.3026 104.102 78.2443 120.553C77.8804 122.578 77.6336 124.622 77.5051 126.676C77.437 127.695 77.0874 127.926 76.1335 127.909C73.1517 127.861 70.167 127.891 67.1837 127.891Z" fill="#FFE7B9"/>
<path d="M81.0186 75.9785L66.9467 72.2146L77.2592 61.9731C78.4116 66.2718 79.6796 70.9911 81.0186 75.9785Z" fill="#BE4E1E"/>
<path d="M134.732 154.14C134.366 154.213 134 154.348 133.635 154.348C122.116 154.348 110.598 154.338 99.0797 154.318C103.523 146.571 107.973 138.824 112.427 131.077C118.649 120.283 124.877 109.496 131.112 98.716C131.49 98.0642 131.921 97.4435 132.327 96.8096C133.475 99.895 135.52 102.49 137.016 105.388C137.483 106.288 138.098 107.116 138.308 108.137C132.18 105.974 127.966 110.714 128.289 115.302C128.635 120.218 128.866 125.142 129.145 130.061C129.339 133.52 131.974 136.104 135.325 136.115C138.675 136.125 141.355 133.549 141.546 130.108C141.678 127.783 141.694 125.445 141.943 123.135C142.23 120.51 141.922 117.851 142.479 115.25C144.753 118.289 146.378 121.723 148.311 124.968C151.133 129.708 153.82 134.531 156.59 139.302C158.552 142.686 158.625 146.085 156.665 149.459C154.815 152.647 152.041 154.36 148.292 154.355C144.711 154.355 141.131 154.355 137.552 154.355C137.016 154.355 136.462 154.448 135.965 154.142C136.594 153.994 137.244 153.897 137.847 153.677C138.769 153.336 139.611 152.811 140.323 152.133C141.034 151.455 141.599 150.639 141.984 149.735C142.368 148.83 142.564 147.857 142.558 146.874C142.553 145.892 142.346 144.921 141.952 144.021C141.558 143.121 140.984 142.311 140.265 141.641C139.546 140.971 138.698 140.455 137.772 140.124C136.847 139.794 135.864 139.656 134.883 139.72C133.903 139.783 132.945 140.047 132.07 140.493C130.716 141.196 129.617 142.306 128.926 143.666C128.235 145.026 127.988 146.568 128.219 148.076C128.684 151.234 131.11 153.487 134.732 154.14Z" fill="#FFBC3B"/>
<path d="M142.482 115.25C141.925 117.851 142.233 120.51 141.946 123.134C141.694 125.445 141.681 127.783 141.549 130.108C141.355 133.549 138.68 136.125 135.328 136.115C131.976 136.104 129.342 133.519 129.148 130.061C128.869 125.141 128.638 120.218 128.292 115.301C127.969 110.71 132.183 105.969 138.311 108.137C141.093 109.689 142.436 112.089 142.482 115.25ZM137.046 122.139C137.175 119.816 137.314 117.494 137.43 115.177C137.512 113.539 136.642 112.5 135.265 112.554C133.963 112.604 133.183 113.608 133.269 115.177C133.528 119.932 133.814 124.685 134.058 129.442C134.106 130.351 134.326 131.145 135.348 131.143C136.37 131.142 136.6 130.35 136.64 129.44C136.747 127 136.905 124.571 137.046 122.139Z" fill="#202124"/>
<path d="M134.732 154.14C131.11 153.493 128.684 151.234 128.215 148.074C127.984 146.567 128.231 145.024 128.922 143.664C129.612 142.304 130.712 141.195 132.066 140.492C132.941 140.045 133.898 139.782 134.879 139.718C135.859 139.655 136.843 139.792 137.768 140.123C138.693 140.453 139.541 140.969 140.26 141.639C140.979 142.309 141.553 143.119 141.948 144.019C142.342 144.919 142.548 145.89 142.554 146.873C142.559 147.855 142.364 148.829 141.979 149.733C141.595 150.637 141.029 151.453 140.318 152.131C139.607 152.809 138.764 153.334 137.843 153.675C137.24 153.896 136.59 153.988 135.96 154.14H134.732ZM137.594 146.987C137.608 146.69 137.563 146.392 137.462 146.112C137.36 145.833 137.204 145.576 137.002 145.357C136.8 145.138 136.557 144.961 136.286 144.837C136.015 144.713 135.723 144.644 135.425 144.635C135.127 144.625 134.831 144.674 134.552 144.78C134.274 144.886 134.02 145.046 133.804 145.251C133.588 145.456 133.415 145.702 133.295 145.975C133.175 146.248 133.111 146.541 133.106 146.839C133.09 147.134 133.135 147.429 133.237 147.705C133.34 147.982 133.497 148.236 133.7 148.45C133.903 148.664 134.148 148.835 134.419 148.951C134.69 149.068 134.982 149.129 135.277 149.129C136.566 149.169 137.557 148.249 137.594 146.987Z" fill="#202124"/>
<path d="M203.892 144.561C205.729 144.562 207.491 145.288 208.796 146.58C210.101 147.872 210.844 149.627 210.863 151.464C210.89 155.307 207.675 158.547 203.849 158.531C200.023 158.514 196.844 155.29 196.887 151.421C196.914 149.585 197.666 147.833 198.978 146.549C200.29 145.264 202.056 144.549 203.892 144.561Z" fill="#BE4E1E"/>
<path d="M137.046 122.139C136.905 124.571 136.75 127.001 136.64 129.434C136.6 130.344 136.37 131.136 135.348 131.138C134.326 131.139 134.106 130.345 134.058 129.436C133.814 124.679 133.528 119.926 133.269 115.171C133.183 113.603 133.963 112.598 135.265 112.548C136.641 112.495 137.512 113.533 137.43 115.171C137.314 117.492 137.175 119.816 137.046 122.139Z" fill="#BE4E1E"/>
<path d="M137.594 146.987C137.557 148.249 136.566 149.169 135.277 149.135C134.983 149.134 134.692 149.073 134.421 148.955C134.151 148.838 133.907 148.667 133.705 148.453C133.503 148.239 133.346 147.986 133.244 147.71C133.143 147.433 133.098 147.139 133.113 146.845C133.118 146.547 133.183 146.254 133.303 145.981C133.423 145.708 133.596 145.462 133.811 145.257C134.027 145.052 134.282 144.892 134.56 144.786C134.838 144.68 135.135 144.631 135.432 144.641C135.73 144.65 136.023 144.719 136.293 144.843C136.564 144.967 136.808 145.144 137.009 145.363C137.211 145.582 137.367 145.839 137.469 146.119C137.571 146.398 137.616 146.696 137.601 146.993L137.594 146.987Z" fill="#BE4E1E"/>
<path d="M93.6034 226V196.909H112.865V201.98H99.754V208.912H111.586V213.983H99.754V226H93.6034ZM117.802 226V196.909H129.279C131.476 196.909 133.351 197.302 134.904 198.088C136.467 198.865 137.655 199.968 138.469 201.398C139.293 202.818 139.705 204.49 139.705 206.412C139.705 208.344 139.289 210.006 138.455 211.398C137.622 212.78 136.415 213.841 134.833 214.58C133.261 215.318 131.358 215.688 129.123 215.688H121.438V210.744H128.129C129.303 210.744 130.278 210.583 131.055 210.261C131.831 209.939 132.409 209.456 132.788 208.812C133.176 208.169 133.37 207.368 133.37 206.412C133.37 205.446 133.176 204.632 132.788 203.969C132.409 203.306 131.826 202.804 131.04 202.463C130.264 202.113 129.284 201.938 128.1 201.938H123.952V226H117.802ZM133.512 212.761L140.742 226H133.952L126.879 212.761H133.512ZM144.852 196.909H152.437L160.448 216.455H160.789L168.801 196.909H176.386V226H170.42V207.065H170.179L162.65 225.858H158.588L151.059 206.994H150.818V226H144.852V196.909Z" fill="#BE4E1E"/>
</svg>
