<svg width="270" height="270" viewBox="0 0 270 270" fill="none" xmlns="http://www.w3.org/2000/svg">
<circle cx="135" cy="135" r="135" fill="#FFF4DA"/>
<path d="M96.0974 196.909L103.129 219.011H103.399L110.444 196.909H117.262L107.234 226H99.3076L89.265 196.909H96.0974ZM121.564 226V196.909H133.041C135.238 196.909 137.113 197.302 138.666 198.088C140.228 198.865 141.417 199.968 142.231 201.398C143.055 202.818 143.467 204.49 143.467 206.412C143.467 208.344 143.05 210.006 142.217 211.398C141.384 212.78 140.176 213.841 138.595 214.58C137.023 215.318 135.119 215.688 132.885 215.688H125.2V210.744H131.89C133.065 210.744 134.04 210.583 134.816 210.261C135.593 209.939 136.171 209.456 136.549 208.812C136.938 208.169 137.132 207.368 137.132 206.412C137.132 205.446 136.938 204.632 136.549 203.969C136.171 203.306 135.588 202.804 134.802 202.463C134.026 202.113 133.046 201.938 131.862 201.938H127.714V226H121.564ZM137.274 212.761L144.504 226H137.714L130.64 212.761H137.274ZM148.614 196.909H156.199L164.21 216.455H164.551L172.562 196.909H180.148V226H174.182V207.065H173.94L166.412 225.858H162.349L154.821 206.994H154.579V226H148.614V196.909Z" fill="#BE4E1E"/>
<path d="M147.204 155.041C147.204 150.395 147.166 145.747 147.23 141.102C147.247 139.95 146.9 139.859 145.891 140.067C138.953 141.506 131.794 141.514 124.853 140.09C123.813 139.88 123.432 139.915 123.44 141.182C123.503 150.326 123.475 159.471 123.474 168.615C123.474 171.317 122.784 171.996 120.041 171.996H93.4953C90.98 171.996 90.2503 171.259 90.2488 168.729C90.2488 162.006 90.2328 155.284 90.2663 148.562C90.2663 147.6 90.0434 146.992 89.1739 146.408C80.4438 140.549 76.0569 132.349 76.0132 121.808C75.9928 114.197 76.0292 106.585 76.0001 98.9738C75.987 95.7375 77.3342 93.3532 80.2501 91.9565C80.9638 91.6142 80.9943 91.2283 80.9419 90.5772C78.9363 66.0924 94.3968 42.7334 117.721 34.9238C123.199 33.07 128.933 32.0837 134.715 32.0007C136.849 31.973 137.707 32.8046 137.709 34.9136C137.719 40.8444 137.719 46.7756 137.709 52.7074C137.709 54.863 136.923 55.6655 134.797 55.7325C119.817 56.2117 107.878 66.3487 105.016 81.0198C101.944 96.7614 112.265 112.79 127.859 116.495C145.66 120.719 162.835 109.348 165.812 91.3229C166.06 89.8184 166.076 88.2745 166.179 86.7481C166.291 85.0819 167.132 84.208 168.801 84.2037C174.981 84.1823 181.16 84.1823 187.337 84.2037C188.985 84.2037 189.86 85.1518 189.907 86.8006C189.918 87.0477 189.914 87.2953 189.895 87.5419C189.679 89.8723 189.43 91.9769 192.279 93.3023C194.015 94.1092 194.642 96.2793 194.646 98.3067C194.661 106.754 194.879 115.219 194.572 123.66C194.229 133.082 189.924 140.574 182.149 145.944C180.798 146.876 180.361 147.812 180.383 149.39C180.469 155.864 180.421 162.339 180.418 168.815C180.418 171.241 179.659 172 177.235 172C168.288 172 159.341 172 150.395 172C147.956 172 147.191 171.247 147.191 168.835C147.197 164.236 147.201 159.637 147.204 155.041ZM180.432 105.876C180.432 103.334 180.402 100.869 180.441 98.4028C180.48 95.9123 181.506 93.8412 183.637 92.5667C184.692 91.9346 184.931 91.2093 185.067 90.1286C185.196 89.0901 184.882 88.9081 183.938 88.9227C180.578 88.9722 177.215 88.9416 173.853 88.9416C171.006 88.9416 171.006 88.9416 170.581 91.7205C167.212 113.769 145.105 127.433 123.985 120.233C111.087 115.832 103.012 106.617 100.457 93.2557C97.8676 79.7003 102.192 68.1955 112.676 59.1741C118.092 54.5134 124.489 51.9384 131.61 51.1854C132.307 51.1125 133.023 51.2203 132.999 50.0347C132.919 45.9333 132.95 41.8304 132.985 37.7275C132.992 36.9323 132.76 36.7648 131.981 36.8274C119.31 37.847 108.395 42.764 99.6008 51.9354C89.1987 62.7833 84.5744 75.8217 85.7323 90.8467C85.7672 91.3186 85.7002 91.789 86.2828 92.0905C89.321 93.662 90.3784 96.2909 90.2663 99.5768C90.1949 101.661 90.2532 103.75 90.2532 105.87C96.0398 104.797 99.7392 107.866 99.745 113.53C99.745 115.655 99.745 117.781 99.745 119.906C99.745 120.33 99.5702 120.83 100.004 121.15C101.652 122.365 102.638 124.249 104.248 125.464C120.097 137.419 137.209 139.621 155.585 132.071C161.363 129.707 166.499 126.008 170.571 121.275C170.959 120.827 170.929 120.401 170.93 119.916C170.939 117.44 170.897 114.973 170.949 112.503C171.021 109.229 173.218 106.596 176.393 105.761C177.731 105.413 179.021 105.612 180.432 105.876ZM163.817 133.236C163.393 133.441 163.041 133.584 162.716 133.773C160.331 135.165 157.839 136.364 155.264 137.361C154.175 137.783 152.625 137.943 152.13 138.738C151.574 139.639 152.043 141.136 151.929 142.361C151.834 143.399 152.266 143.542 153.173 143.538C160.883 143.506 168.596 143.52 176.308 143.516C176.791 143.516 177.26 143.561 177.731 143.27C184.257 139.241 188.439 133.613 189.642 125.938C190.15 122.692 189.885 119.424 189.91 116.167C189.952 110.342 189.934 104.503 189.91 98.6694C189.902 97.0673 188.89 96.0477 187.489 96.0739C186.142 96.1074 185.239 97.1022 185.176 98.633C185.163 98.9781 185.176 99.3248 185.176 99.67V120.875C185.176 124.662 185.176 124.619 181.424 124.57C180.52 124.558 180.405 124.235 180.413 123.46C180.45 120.099 180.434 116.737 180.426 113.377C180.426 111.393 179.553 110.291 178.022 110.318C176.491 110.346 175.691 111.415 175.691 113.448C175.691 116.07 175.638 118.692 175.712 121.313C175.753 122.735 175.275 123.709 174.11 124.564C170.553 127.186 168.759 130.788 168.568 135.196C168.517 136.362 169.097 138.007 168.328 138.572C167.516 139.168 165.962 138.699 164.742 138.803C163.868 138.877 163.796 138.456 163.814 137.768C163.842 136.296 163.817 134.832 163.817 133.236ZM106.861 133.202C106.861 134.222 106.861 135.086 106.861 135.954C106.861 138.773 106.861 138.773 104.042 138.773C102.113 138.773 102.055 138.773 102.125 136.842C102.316 131.574 100.494 127.286 96.1271 124.191C95.2896 123.598 94.9751 122.781 94.9838 121.763C95.01 118.85 95.01 115.934 94.9838 113.014C94.9707 111.37 94.0618 110.34 92.6709 110.307C91.2144 110.272 90.2619 111.326 90.2488 113.052C90.2299 115.72 90.2488 118.39 90.2488 121.063C90.2488 124.566 90.2488 124.517 86.7533 124.568C85.69 124.584 85.473 124.277 85.4788 123.258C85.524 115.199 85.5065 107.142 85.5021 99.0801C85.5021 97.1721 84.6778 96.106 83.2024 96.0594C81.6701 96.0128 80.7613 97.1226 80.7598 99.0845C80.7598 106.795 80.7045 114.507 80.773 122.219C80.8545 131.434 85.0768 138.325 92.8209 143.163C93.1428 143.388 93.5239 143.512 93.9162 143.52C101.925 143.508 109.935 143.506 117.948 143.511C118.34 143.511 118.755 143.589 118.737 142.958C118.701 141.526 119.029 139.972 118.548 138.712C118.295 138.041 116.685 137.886 115.693 137.483C114.919 137.168 114.157 136.82 113.381 136.504C111.151 135.606 109.09 134.369 106.861 133.202ZM106.861 167.248C110.471 167.248 114.078 167.221 117.686 167.268C118.525 167.278 118.751 167.045 118.745 166.208C118.709 160.576 118.709 154.944 118.745 149.312C118.745 148.474 118.52 148.251 117.684 148.255C110.469 148.287 103.253 148.287 96.0368 148.255C95.1994 148.255 94.9722 148.476 94.978 149.314C95.0149 154.946 95.0149 160.577 94.978 166.209C94.978 167.048 95.2008 167.278 96.0383 167.268C99.646 167.221 103.254 167.255 106.861 167.255V167.248ZM163.81 148.267C160.202 148.267 156.593 148.293 152.985 148.246C152.145 148.236 151.922 148.472 151.928 149.308C151.965 154.94 151.965 160.572 151.928 166.203C151.928 167.044 152.155 167.264 152.989 167.259C160.205 167.227 167.421 167.227 174.637 167.259C175.476 167.259 175.7 167.035 175.694 166.199C175.658 160.567 175.658 154.935 175.694 149.304C175.694 148.462 175.467 148.235 174.633 148.246C171.032 148.293 167.423 148.267 163.815 148.267H163.81Z" fill="#202124"/>
<path d="M135.293 100.806C129.264 100.806 123.236 100.806 117.208 100.806C114.707 100.806 113.983 100.066 113.982 97.5199C113.982 94.0608 113.973 90.6031 113.982 87.144C113.989 85.0248 114.815 84.2092 116.95 84.199C118.828 84.1888 120.706 84.1641 122.582 84.2121C123.299 84.2311 123.52 84.014 123.487 83.3018C123.432 82.1192 123.452 80.9307 123.477 79.7451C123.513 77.9974 124.384 77.1104 126.129 77.0841C128.056 77.0565 129.984 77.039 131.91 77.0958C132.728 77.1205 133.015 76.9137 132.985 76.0515C132.919 74.1756 132.953 72.2967 132.969 70.4193C132.985 68.472 133.832 67.6098 135.752 67.5894C137.58 67.5704 139.411 67.5398 141.237 67.6054C142.146 67.6374 142.577 67.4597 142.479 66.4271C142.377 65.3508 142.44 64.2555 142.46 63.169C142.495 61.4008 143.35 60.492 145.082 60.4759C148.092 60.4468 151.106 60.4468 154.124 60.4759C155.771 60.4934 156.686 61.4081 156.689 63.0714C156.705 74.7814 156.705 86.4915 156.689 98.2016C156.689 99.9625 155.727 100.798 153.824 100.801C147.645 100.813 141.469 100.814 135.293 100.806ZM151.951 80.6685V68.5055C151.951 65.2037 151.951 65.2605 148.722 65.1775C147.542 65.1469 147.159 65.3697 147.169 66.6601C147.238 75.3101 147.206 83.9587 147.206 92.6087C147.206 96.0897 147.206 96.0358 150.73 96.0868C151.837 96.1028 151.984 95.7226 151.974 94.7497C151.923 90.0613 151.951 85.3642 151.951 80.6685ZM137.712 84.1946V92.4966C137.712 96.0999 137.712 96.062 141.272 96.0839C142.242 96.0839 142.488 95.8333 142.481 94.8677C142.437 88.5422 142.459 82.2168 142.459 75.8913C142.459 72.2341 142.459 72.2647 138.751 72.3069C137.913 72.3156 137.683 72.5356 137.693 73.3701C137.738 76.9793 137.712 80.5942 137.712 84.1946ZM132.966 89.0899V85.3831C132.966 81.7288 132.966 81.758 129.259 81.8002C128.423 81.8089 128.187 82.0259 128.2 82.8634C128.25 86.024 128.22 89.1874 128.22 92.3494C128.22 96.2484 128.22 96.2251 132.076 96.0795C132.782 96.0533 132.998 95.88 132.982 95.1677C132.936 93.1418 132.966 91.1158 132.966 89.0899ZM118.727 92.4703C118.727 96.1392 118.727 96.1115 122.403 96.0795C123.194 96.0707 123.533 95.9338 123.494 95.0498C123.408 93.372 123.408 91.691 123.494 90.0133C123.551 89.0141 123.146 88.9238 122.311 88.9224C118.727 88.918 118.727 88.8962 118.727 92.4703Z" fill="#202124"/>
<path d="M147.134 46.2213C144.832 46.2213 144.832 46.2213 144.832 43.9259C144.832 41.4761 144.832 41.4761 147.276 41.4761C149.578 41.4761 149.578 41.4761 149.578 39.1793C149.578 36.7295 149.578 36.7295 152.022 36.7295C154.325 36.7295 154.325 36.7295 154.325 39.0263C154.325 41.4761 154.325 41.4761 156.769 41.4761C159.071 41.4761 159.072 41.4761 159.072 43.7715C159.072 46.2213 159.072 46.2213 156.626 46.2213C154.325 46.2213 154.325 46.2213 154.325 48.5182C154.325 50.968 154.325 50.968 151.879 50.968C149.578 50.968 149.578 50.968 149.578 48.6711C149.578 46.2213 149.578 46.2213 147.134 46.2213Z" fill="#202124"/>
<path d="M178.057 72.3306H179.242C183.175 72.3306 183.151 72.3306 182.821 76.3359C182.773 76.9054 182.634 77.0932 182.058 77.0874C179.389 77.0622 176.719 77.0622 174.047 77.0874C173.464 77.0874 173.221 76.9112 173.303 76.333C173.307 76.2845 173.307 76.2358 173.303 76.1873C173.113 72.3335 173.113 72.3335 177.012 72.3335L178.057 72.3306Z" fill="#202124"/>
<path d="M121.008 107.925C118.733 107.925 118.733 107.925 118.733 105.595C118.733 103.171 118.733 103.171 121.209 103.171C123.484 103.171 123.484 103.171 123.484 105.502C123.474 107.925 123.474 107.925 121.008 107.925Z" fill="#202124"/>
<path d="M130.475 107.925C128.219 107.925 128.219 107.925 128.219 105.583C128.219 103.179 128.219 103.179 130.562 103.179C132.966 103.179 132.966 103.179 132.966 105.522C132.966 107.925 132.966 107.925 130.475 107.925Z" fill="#202124"/>
<path d="M140.088 103.179C142.466 103.179 142.466 103.179 142.466 105.547C142.466 107.915 142.466 107.925 140.098 107.925C137.73 107.925 137.72 107.925 137.72 105.557C137.72 103.189 137.712 103.179 140.088 103.179Z" fill="#202124"/>
<path d="M149.721 103.179C151.951 103.179 151.951 103.179 151.951 105.4C151.951 107.925 151.951 107.925 149.434 107.925C147.204 107.925 147.204 107.925 147.204 105.706C147.204 103.179 147.204 103.179 149.721 103.179Z" fill="#202124"/>
<path d="M180.432 105.876C179.021 105.612 177.731 105.413 176.396 105.762C173.221 106.597 171.024 109.23 170.952 112.504C170.9 114.98 170.942 117.446 170.933 119.918C170.933 120.396 170.962 120.828 170.573 121.277C166.502 126.009 161.366 129.708 155.588 132.072C137.245 139.625 120.133 137.423 104.251 125.466C102.641 124.251 101.655 122.366 100.007 121.151C99.5703 120.831 99.7509 120.331 99.748 119.908C99.7349 117.783 99.748 115.656 99.748 113.531C99.748 107.867 96.0427 104.792 90.2562 105.872C90.2562 103.751 90.1979 101.662 90.2692 99.5781C90.3814 96.2923 89.324 93.6634 86.2858 92.0919C85.7032 91.7904 85.7702 91.3199 85.7353 90.848C84.5701 75.8187 89.2017 62.7847 99.6038 51.9368C108.398 42.761 119.31 37.8469 131.984 36.8288C132.763 36.7662 132.995 36.9337 132.988 37.7289C132.953 41.8318 132.922 45.9347 133.002 50.0361C133.026 51.2217 132.31 51.1139 131.613 51.1868C124.495 51.9398 118.098 54.5148 112.679 59.1755C102.192 68.1955 97.8706 79.7002 100.46 93.257C103.013 106.619 111.092 115.832 123.988 120.234C145.107 127.435 167.215 113.77 170.584 91.7219C171.009 88.943 171.009 88.943 173.856 88.943C177.218 88.943 180.581 88.9735 183.941 88.924C184.885 88.9095 185.199 89.0915 185.07 90.13C184.934 91.2107 184.695 91.936 183.64 92.5681C181.509 93.8425 180.483 95.918 180.444 98.4042C180.402 100.869 180.432 103.334 180.432 105.876Z" fill="#FFBC3B"/>
<path d="M163.817 133.235C163.817 134.838 163.842 136.294 163.807 137.751C163.789 138.438 163.856 138.859 164.734 138.785C165.955 138.681 167.509 139.15 168.32 138.555C169.089 137.989 168.51 136.345 168.561 135.178C168.751 130.762 170.546 127.168 174.102 124.546C175.268 123.691 175.745 122.717 175.705 121.295C175.63 118.674 175.68 116.052 175.684 113.43C175.684 111.391 176.494 110.324 178.014 110.3C179.535 110.277 180.416 111.38 180.419 113.359C180.426 116.719 180.442 120.081 180.406 123.442C180.397 124.217 180.512 124.54 181.417 124.552C185.169 124.602 185.169 124.638 185.169 120.857V99.6623C185.169 99.3171 185.158 98.9704 185.169 98.6253C185.231 97.0945 186.134 96.0997 187.482 96.0662C188.883 96.0327 189.895 97.0639 189.902 98.6617C189.924 104.488 189.942 110.328 189.902 116.16C189.877 119.416 190.143 122.685 189.634 125.93C188.431 133.613 184.245 139.241 177.723 143.262C177.253 143.553 176.784 143.508 176.3 143.508C168.588 143.508 160.876 143.498 153.166 143.53C152.258 143.53 151.827 143.384 151.922 142.353C152.035 141.128 151.566 139.631 152.123 138.731C152.618 137.931 154.162 137.775 155.257 137.353C157.832 136.357 160.324 135.157 162.708 133.766C163.04 133.584 163.391 133.441 163.817 133.235Z" fill="#FFE7B9"/>
<path d="M106.861 133.203C109.09 134.368 111.151 135.606 113.375 136.512C114.151 136.828 114.913 137.176 115.687 137.49C116.679 137.894 118.289 138.048 118.542 138.72C119.017 139.98 118.688 141.534 118.732 142.965C118.749 143.596 118.334 143.519 117.942 143.519C109.933 143.519 101.923 143.522 93.9102 143.528C93.5179 143.519 93.1368 143.395 92.815 143.171C85.0709 138.332 80.8486 131.442 80.767 122.227C80.6986 114.515 80.7496 106.803 80.7539 99.0919C80.7539 97.1301 81.6642 96.0202 83.1964 96.0668C84.6718 96.1134 85.4947 97.1796 85.4962 99.0876C85.4962 107.145 85.518 115.202 85.4729 123.265C85.4729 124.285 85.6841 124.586 86.7473 124.576C90.2428 124.525 90.2428 124.576 90.2428 121.07C90.2428 118.4 90.2283 115.731 90.2428 113.06C90.256 111.339 91.2143 110.279 92.6649 110.314C94.0559 110.348 94.9647 111.377 94.9778 113.022C94.9982 115.935 94.9982 118.851 94.9778 121.771C94.9691 122.79 95.2837 123.606 96.1212 124.199C100.491 127.294 102.31 131.582 102.119 136.85C102.049 138.779 102.107 138.781 104.036 138.781C106.861 138.781 106.861 138.781 106.855 135.961C106.86 135.086 106.861 134.219 106.861 133.203Z" fill="#FFE7B9"/>
<path d="M106.861 167.255C103.253 167.255 99.6458 167.228 96.0381 167.275C95.2006 167.285 94.9719 167.055 94.9778 166.216C95.0147 160.585 95.0147 154.953 94.9778 149.321C94.9778 148.484 95.1992 148.258 96.0366 148.262C103.252 148.294 110.468 148.294 117.684 148.262C118.52 148.262 118.75 148.481 118.745 149.32C118.709 154.951 118.709 160.583 118.745 166.215C118.745 167.052 118.525 167.285 117.686 167.275C114.078 167.221 110.47 167.255 106.861 167.255Z" fill="#FFBC3B"/>
<path d="M163.815 148.266C167.423 148.266 171.032 148.293 174.64 148.247C175.474 148.236 175.706 148.463 175.702 149.305C175.664 154.937 175.664 160.568 175.702 166.2C175.702 167.036 175.483 167.265 174.644 167.26C167.429 167.228 160.213 167.228 152.997 167.26C152.162 167.26 151.929 167.045 151.935 166.204C151.972 160.573 151.972 154.941 151.935 149.309C151.935 148.473 152.152 148.237 152.992 148.247C156.599 148.293 160.208 148.266 163.815 148.266Z" fill="#FFBC3B"/>
<path d="M151.951 80.669C151.951 85.3647 151.923 90.0603 151.974 94.7546C151.984 95.7275 151.837 96.1076 150.73 96.0916C147.206 96.0406 147.206 96.0916 147.206 92.6136C147.206 83.9635 147.238 75.315 147.169 66.665C147.159 65.3745 147.542 65.1517 148.722 65.1823C151.949 65.2653 151.951 65.2085 151.951 68.5103V80.669Z" fill="#BE4E1E"/>
<path d="M137.712 84.1948C137.712 80.5871 137.739 76.9794 137.693 73.3717C137.683 72.5371 137.913 72.3172 138.751 72.3085C142.459 72.2662 142.459 72.2356 142.459 75.8929C142.459 82.2183 142.437 88.5438 142.481 94.8693C142.488 95.8349 142.242 96.0913 141.272 96.0854C137.712 96.0636 137.712 96.1015 137.712 92.4981V84.1948Z" fill="#BE4E1E"/>
<path d="M132.966 89.0898C132.966 91.1157 132.937 93.1417 132.982 95.1677C132.998 95.8799 132.782 96.0532 132.076 96.0794C128.219 96.225 128.221 96.2484 128.221 92.3494C128.221 89.1874 128.25 86.0239 128.2 82.8633C128.187 82.0259 128.423 81.8089 129.259 81.8001C132.966 81.7579 132.966 81.7288 132.966 85.3831V89.0898Z" fill="#BE4E1E"/>
<path d="M118.727 92.4702C118.727 88.8917 118.727 88.9179 122.317 88.9223C123.152 88.9223 123.557 89.014 123.5 90.0132C123.414 91.6909 123.414 93.3719 123.5 95.0497C123.539 95.9396 123.2 96.0692 122.409 96.0794C118.727 96.1143 118.727 96.1391 118.727 92.4702Z" fill="#BE4E1E"/>
</svg>
