<svg width="270" height="270" viewBox="0 0 270 270" fill="none" xmlns="http://www.w3.org/2000/svg">
<circle cx="135" cy="135" r="135" fill="#FFF4DA"/>
<path d="M93.7792 226V196.909H113.041V201.98H99.9298V208.912H111.762V213.983H99.9298V226H93.7792ZM117.978 196.909H125.563L133.574 216.455H133.915L141.926 196.909H149.512V226H143.546V207.065H143.304L135.776 225.858H131.713L124.185 206.994H123.944V226H117.978V196.909ZM155.379 226V196.909H166.856C169.063 196.909 170.943 197.33 172.496 198.173C174.049 199.007 175.232 200.167 176.047 201.653C176.871 203.131 177.283 204.835 177.283 206.767C177.283 208.699 176.866 210.403 176.033 211.881C175.199 213.358 173.992 214.509 172.41 215.332C170.838 216.156 168.935 216.568 166.7 216.568H159.385V211.639H165.706C166.89 211.639 167.865 211.436 168.632 211.028C169.409 210.612 169.986 210.039 170.365 209.31C170.753 208.571 170.947 207.723 170.947 206.767C170.947 205.801 170.753 204.958 170.365 204.239C169.986 203.509 169.409 202.946 168.632 202.548C167.856 202.141 166.871 201.938 165.677 201.938H161.53V226H155.379Z" fill="#BE4E1E"/>
<path d="M112.097 93.5649C112.097 91.0105 112.097 88.6162 112.097 86.2207C112.104 83.5984 112.728 82.9796 115.355 82.9771C118.09 82.9771 120.826 82.963 123.561 82.9771C125.491 82.9899 126.308 83.8046 126.325 85.7403C126.345 88.278 126.325 90.8171 126.325 93.4573H130.04V91.9201C130.04 84.5148 130.04 77.109 130.04 69.7029C130.04 67.3868 130.792 66.6207 133.063 66.613C135.845 66.6053 138.629 66.6002 141.412 66.613C143.455 66.6245 144.239 67.3944 144.243 69.4377C144.255 76.8439 144.255 84.2496 144.243 91.6549V93.4522H148.026V91.9393C148.026 86.751 148.026 81.5624 148.026 76.3733C148.026 73.9162 148.683 73.2604 151.115 73.2527C153.757 73.245 156.398 73.245 159.039 73.2527C161.559 73.2527 162.248 73.9367 162.249 76.422C162.254 81.5624 162.254 86.7036 162.249 91.8458V93.4688H165.972V91.7676C165.972 80.2587 165.972 68.7494 165.972 57.2396C165.972 54.5814 166.644 53.9178 169.333 53.9153C171.88 53.9153 174.427 53.9153 176.973 53.9153C179.502 53.9153 180.176 54.5814 180.176 57.0833C180.176 68.6392 180.176 80.1955 180.176 91.7522V93.5662C181.047 93.5662 181.744 93.547 182.441 93.5662C186.575 93.6943 189.095 97.1198 187.888 101.063C184.674 111.599 181.43 122.129 178.154 132.652C176.064 139.326 170.637 143.285 163.635 143.296C146.798 143.317 129.961 143.32 113.125 143.305C110.394 143.305 108.737 144.971 109.065 147.36C109.247 148.695 110.027 149.609 111.257 150.078C112.398 150.514 113.435 150.519 114.519 149.617C119.301 145.634 126.244 145.674 131.113 149.539C131.723 150.012 132.464 150.284 133.235 150.318C139.744 150.377 146.252 150.377 152.759 150.318C153.529 150.281 154.269 150.009 154.88 149.539C159.558 145.898 165.922 145.643 170.706 148.98C173.051 150.604 174.803 152.946 175.7 155.653C176.597 158.36 176.59 161.285 175.68 163.988C173.807 169.564 168.597 173.169 162.676 172.987C156.911 172.81 151.762 168.665 150.442 162.995C150.171 161.842 149.74 161.509 148.58 161.533C144.761 161.611 140.94 161.586 137.12 161.546C136.207 161.536 135.853 161.802 135.637 162.75C134.975 165.685 133.326 168.304 130.966 170.169C128.605 172.034 125.676 173.033 122.668 172.999C119.66 172.965 116.755 171.9 114.437 169.981C112.12 168.063 110.531 165.407 109.936 162.458C109.763 161.594 109.407 161.259 108.56 160.993C102.45 159.071 98.7092 154.91 97.9277 148.556C97.1745 142.493 99.6738 137.712 104.757 134.337C105.486 133.853 105.759 133.507 105.526 132.565C101.705 116.918 97.9247 101.262 94.1858 85.5968C93.9296 84.5438 93.5196 84.2184 92.4897 84.2684C90.9371 84.344 89.3768 84.3183 87.8216 84.2786C84.4422 84.1915 81.9595 81.7614 82.0005 78.6215C82.0415 75.4458 84.5408 73.1002 87.9228 73.0823C90.3269 73.0695 92.7318 73.0695 95.1376 73.0823C99.6559 73.1117 103.188 75.7866 104.35 80.1972C105.405 84.2043 106.381 88.2315 107.278 92.2787C107.519 93.3676 107.992 93.6482 108.993 93.5765C109.963 93.5098 110.944 93.5649 112.097 93.5649ZM110.445 155.224C108.745 153.792 107.037 152.775 105.912 151.309C104.011 148.834 103.929 145.946 105.367 143.166C106.886 140.227 109.411 138.765 112.719 138.764C129.557 138.751 146.394 138.749 163.232 138.756C168.749 138.756 172.32 136.138 173.946 130.901C175.403 126.226 176.85 121.548 178.286 116.867C179.995 111.335 181.703 105.801 183.411 100.267C183.938 98.5572 183.625 98.1459 181.821 98.1229C181.443 98.1229 181.066 98.1229 180.688 98.1229H106.973C104.36 98.1229 103.979 97.8206 103.377 95.3379C102.267 90.7607 101.174 86.1797 100.035 81.6102C99.3779 78.9738 97.6433 77.639 94.9352 77.6249C92.719 77.6082 90.5015 77.6313 88.2853 77.6159C87.4847 77.6159 86.6289 77.6326 86.6135 78.6536C86.5982 79.6745 87.4616 79.7283 88.2571 79.7271C90.4733 79.7271 92.6908 79.695 94.907 79.7399C96.7402 79.777 97.6087 80.4739 98.0302 82.2123C102.193 99.4244 106.348 116.638 110.495 133.854C110.973 135.838 110.578 136.558 108.701 137.383C105.145 138.949 103.024 141.646 102.402 145.484C101.606 150.406 105.304 155.829 109.985 156.533C110.176 155.984 110.372 155.418 110.44 155.224H110.445ZM170.603 58.5655V93.4676H175.58V58.5655H170.603ZM139.618 93.4817V71.2683H134.695V93.4817H139.618ZM122.868 151.193C120.594 151.201 118.415 152.106 116.804 153.712C115.193 155.317 114.281 157.494 114.266 159.768C114.251 162.042 115.134 164.231 116.723 165.858C118.312 167.485 120.479 168.419 122.753 168.457C127.493 168.489 131.421 164.614 131.445 159.867C131.454 158.733 131.24 157.609 130.813 156.559C130.387 155.508 129.757 154.553 128.96 153.747C128.163 152.941 127.215 152.3 126.169 151.862C125.124 151.423 124.002 151.196 122.868 151.193ZM163.198 151.193C160.927 151.218 158.757 152.137 157.159 153.752C155.561 155.366 154.663 157.545 154.661 159.816C154.659 162.088 155.552 164.269 157.146 165.886C158.741 167.504 160.909 168.427 163.18 168.457C167.92 168.457 171.838 164.553 171.844 159.819C171.85 155.086 167.96 151.194 163.198 151.191V151.193ZM157.649 77.8747H152.683V93.4522H157.649V77.8747ZM116.709 93.4829H121.671V87.6362H116.709V93.4829ZM135.233 154.942C135.242 156.631 136.002 157.083 137.539 157.032C141.205 156.913 144.883 156.904 148.549 157.032C150.164 157.087 150.747 156.458 150.761 154.94L135.233 154.942Z" fill="#202124"/>
<path d="M149.909 52.971C152.227 50.9342 154.777 50.2872 157.7 51.2608C158.002 51.3607 158.547 51.2134 158.775 50.9803C161.252 48.4579 163.72 45.9227 166.097 43.3068C166.401 42.9725 166.318 42.1206 166.173 41.5723C165.371 38.5567 165.991 35.9267 168.351 33.8706C170.657 31.8581 173.347 31.4507 176.129 32.7395C178.947 34.0474 180.412 36.3879 180.385 39.5085C180.346 44.2484 175.685 47.6867 171.132 46.3109C170.134 46.0098 169.621 46.2327 168.981 46.9232C166.803 49.2726 164.575 51.5811 162.334 53.8729C161.812 54.4058 161.683 54.8285 161.94 55.592C162.952 58.5884 162.384 61.3106 160.019 63.4653C157.805 65.4817 155.164 65.9903 152.396 64.8194C149.427 63.5614 147.933 61.2081 147.833 57.9492C147.819 57.5149 147.421 57.0191 147.065 56.6886C146.738 56.3812 146.215 56.2928 145.818 56.0481C143.947 54.8695 142.252 54.1265 140.063 55.8034C138.495 57.005 136.332 56.7821 134.495 55.9623C133.573 55.551 133.077 55.7675 132.424 56.3619C130.645 57.9795 128.831 59.5594 126.983 61.1018C126.264 61.7013 125.99 62.1984 126.248 63.2322C126.694 65.0639 126.407 66.9973 125.448 68.6205C124.49 70.2438 122.935 71.4287 121.116 71.9228C117.273 72.9476 113.302 70.7327 112.205 66.9459C111.673 65.1389 111.863 63.1958 112.736 61.5265C113.609 59.8571 115.096 58.592 116.883 57.9978C118.663 57.3945 120.388 57.561 122.136 58.2041C122.549 58.3565 123.254 58.2886 123.577 58.0222C125.685 56.28 127.744 54.4822 129.757 52.629C130.064 52.3446 130.214 51.6477 130.122 51.2083C129.481 48.1658 130.183 45.5576 132.616 43.5874C134.9 41.7388 137.518 41.3916 140.182 42.6368C143 43.9525 144.375 46.2865 144.477 49.4071C144.491 49.8209 144.779 50.4102 145.118 50.596C146.686 51.4504 148.306 52.1921 149.909 52.971ZM137.206 46.5017C136.491 46.4971 135.803 46.7731 135.289 47.2704C134.776 47.7677 134.478 48.4466 134.459 49.1612C134.443 49.515 134.498 49.8686 134.62 50.2009C134.743 50.5333 134.931 50.8377 135.173 51.0962C135.415 51.3547 135.707 51.5621 136.03 51.7061C136.354 51.8501 136.703 51.9278 137.057 51.9347C137.423 51.9517 137.788 51.895 138.13 51.7678C138.473 51.6407 138.787 51.4457 139.053 51.1946C139.319 50.9435 139.531 50.6414 139.677 50.3063C139.824 49.9713 139.901 49.6101 139.905 49.2445C139.908 47.7905 138.66 46.5261 137.206 46.5017ZM155.121 60.8494C155.837 60.8471 156.523 60.5625 157.03 60.0574C157.538 59.5522 157.825 58.8674 157.831 58.1516C157.842 57.797 157.784 57.4436 157.658 57.1118C157.533 56.7799 157.343 56.4762 157.099 56.2181C156.856 55.9599 156.564 55.7525 156.24 55.6077C155.916 55.4629 155.567 55.3835 155.212 55.3743C154.846 55.369 154.483 55.4363 154.143 55.5723C153.803 55.7083 153.493 55.9103 153.232 56.1666C152.97 56.4229 152.762 56.7285 152.619 57.0657C152.477 57.4029 152.402 57.7649 152.4 58.1311C152.417 59.5851 153.675 60.843 155.123 60.8507L155.121 60.8494ZM121.892 64.9642C121.906 64.6004 121.847 64.2375 121.718 63.8972C121.588 63.5569 121.392 63.2462 121.139 62.9837C120.887 62.7212 120.584 62.5123 120.25 62.3694C119.915 62.2265 119.555 62.1527 119.191 62.1523C118.481 62.1656 117.803 62.4492 117.295 62.945C116.788 63.4408 116.488 64.1116 116.458 64.8207C116.417 66.3169 117.696 67.639 119.188 67.639C119.899 67.6348 120.58 67.3527 121.085 66.8531C121.591 66.3536 121.881 65.6761 121.894 64.9654L121.892 64.9642ZM170.405 39.3343C170.397 39.686 170.458 40.0358 170.586 40.3636C170.714 40.6914 170.905 40.9905 171.149 41.2435C171.394 41.4966 171.686 41.6986 172.009 41.8377C172.332 41.9768 172.68 42.0503 173.032 42.0539C173.395 42.0647 173.756 42.0031 174.095 41.8727C174.434 41.7424 174.744 41.5459 175.006 41.2947C175.268 41.0435 175.478 40.7426 175.623 40.4095C175.768 40.0765 175.845 39.7179 175.85 39.3548C175.85 37.8624 174.541 36.5724 173.052 36.6057C172.343 36.6279 171.67 36.9251 171.177 37.4343C170.683 37.9435 170.406 38.6249 170.405 39.3343Z" fill="#202124"/>
<path d="M110.44 155.224C110.372 155.418 110.176 155.984 109.985 156.532C105.304 155.827 101.606 150.405 102.402 145.483C103.024 141.64 105.145 138.95 108.701 137.382C110.574 136.557 110.969 135.837 110.495 133.852C106.348 116.637 102.194 99.423 98.0302 82.2109C97.6088 80.4725 96.7402 79.7769 94.907 79.7385C92.6908 79.6937 90.4733 79.7219 88.2571 79.7257C87.4616 79.7257 86.5918 79.6821 86.6136 78.6522C86.6353 77.6222 87.4847 77.6094 88.2853 77.6145C90.5015 77.6299 92.719 77.6068 94.9352 77.6235C97.6434 77.6427 99.3779 78.9724 100.035 81.6088C101.174 86.1783 102.267 90.7593 103.377 95.3365C103.979 97.8192 104.36 98.1215 106.973 98.1215H180.691C181.069 98.1215 181.446 98.1215 181.823 98.1215C183.627 98.1446 183.941 98.5558 183.413 100.266C181.705 105.801 179.997 111.334 178.289 116.866C176.842 121.544 175.396 126.222 173.949 130.9C172.317 136.14 168.745 138.758 163.234 138.755C146.397 138.755 129.559 138.758 112.721 138.763C109.414 138.763 106.889 140.226 105.369 143.164C103.932 145.944 104.014 148.833 105.915 151.308C107.032 152.775 108.74 153.789 110.44 155.224ZM142.786 100.253C131.237 100.253 119.688 100.253 108.138 100.253C105.683 100.253 104.82 101.342 105.399 103.749C107.85 113.957 110.309 124.162 112.778 134.366C113.198 136.107 113.832 136.643 115.657 136.644C131.639 136.656 147.62 136.652 163.601 136.631C167.968 136.618 170.639 134.499 171.927 130.344C174.622 121.62 177.312 112.895 179.998 104.169C180.859 101.375 180.047 100.254 177.155 100.254C165.698 100.252 154.242 100.251 142.786 100.253Z" fill="#FFBC3B"/>
<path d="M170.603 58.5654H175.579V93.4675H170.603V58.5654Z" fill="#BE4E1E"/>
<path d="M139.618 93.4816H134.695V71.2683H139.618V93.4816Z" fill="#BE4E1E"/>
<path d="M122.868 151.192C124.002 151.196 125.123 151.424 126.168 151.862C127.213 152.301 128.161 152.942 128.957 153.748C129.754 154.554 130.384 155.509 130.81 156.559C131.236 157.609 131.451 158.733 131.441 159.866C131.417 164.606 127.49 168.489 122.749 168.457C120.475 168.419 118.308 167.484 116.719 165.857C115.13 164.23 114.247 162.042 114.262 159.768C114.277 157.493 115.189 155.317 116.8 153.711C118.411 152.106 120.59 151.2 122.865 151.192H122.868ZM116.125 159.791C116.115 160.674 116.282 161.55 116.615 162.368C116.949 163.186 117.442 163.929 118.066 164.555C118.69 165.18 119.432 165.674 120.249 166.009C121.067 166.343 121.943 166.511 122.826 166.503C126.565 166.503 129.513 163.515 129.495 159.755C129.497 158.883 129.327 158.02 128.994 157.214C128.661 156.409 128.172 155.677 127.555 155.061C126.938 154.445 126.206 153.957 125.4 153.625C124.594 153.293 123.73 153.124 122.858 153.127C119.084 153.105 116.13 156.027 116.125 159.791Z" fill="#FFE7B9"/>
<path d="M163.198 151.191C167.96 151.191 171.85 155.076 171.844 159.818C171.838 164.56 167.916 168.461 163.18 168.456C160.909 168.426 158.741 167.502 157.146 165.885C155.552 164.267 154.659 162.086 154.661 159.815C154.663 157.543 155.561 155.364 157.159 153.75C158.757 152.136 160.927 151.217 163.198 151.191ZM163.219 166.505C164.539 166.495 165.827 166.095 166.92 165.355C168.013 164.615 168.863 163.568 169.363 162.346C169.862 161.123 169.989 159.781 169.726 158.487C169.464 157.193 168.825 156.005 167.889 155.074C166.953 154.143 165.763 153.509 164.467 153.253C163.172 152.997 161.83 153.13 160.61 153.635C159.391 154.14 158.347 154.995 157.613 156.092C156.878 157.189 156.484 158.478 156.48 159.799C156.485 161.581 157.198 163.289 158.462 164.547C159.725 165.804 161.436 166.508 163.219 166.505Z" fill="#FFE7B9"/>
<path d="M157.649 77.8733V93.4521H152.683V77.8733H157.649Z" fill="#BE4E1E"/>
<path d="M116.709 93.4829V87.6362H121.671V93.4829H116.709Z" fill="#BE4E1E"/>
<path d="M135.233 154.942H150.764C150.75 156.46 150.167 157.089 148.553 157.034C144.887 156.906 141.209 156.906 137.543 157.034C136.004 157.086 135.242 156.633 135.233 154.942Z" fill="#FFBC3B"/>
<path d="M137.206 46.5018C138.658 46.5261 139.906 47.7905 139.905 49.2381C139.901 49.6037 139.824 49.9649 139.677 50.2999C139.531 50.635 139.318 50.9371 139.053 51.1882C138.787 51.4393 138.473 51.6343 138.13 51.7614C137.787 51.8886 137.422 51.9453 137.057 51.9283C136.703 51.9215 136.354 51.8438 136.03 51.6998C135.707 51.5558 135.415 51.3484 135.173 51.0898C134.931 50.8313 134.743 50.5269 134.62 50.1946C134.498 49.8622 134.443 49.5087 134.459 49.1548C134.479 48.4413 134.778 47.7641 135.291 47.2681C135.805 46.7722 136.492 46.4971 137.206 46.5018Z" fill="#FFBC3B"/>
<path d="M155.123 60.8508C153.675 60.8431 152.417 59.5851 152.402 58.1311C152.404 57.765 152.478 57.4029 152.621 57.0657C152.763 56.7286 152.972 56.423 153.233 56.1667C153.494 55.9104 153.804 55.7084 154.144 55.5724C154.484 55.4364 154.847 55.3691 155.213 55.3743C155.568 55.3837 155.917 55.4632 156.241 55.6081C156.565 55.753 156.857 55.9605 157.1 56.2186C157.343 56.4767 157.533 56.7804 157.658 57.1121C157.784 57.4439 157.842 57.7971 157.831 58.1516C157.826 58.8675 157.538 59.5524 157.031 60.0578C156.524 60.5631 155.838 60.8481 155.123 60.8508Z" fill="#FFBC3B"/>
<path d="M121.894 64.9655C121.881 65.6759 121.591 66.3532 121.086 66.8528C120.58 67.3523 119.9 67.6345 119.189 67.6391C117.697 67.6391 116.418 66.3183 116.459 64.8208C116.49 64.1117 116.789 63.4409 117.297 62.9451C117.805 62.4492 118.482 62.1657 119.192 62.1523C119.556 62.1528 119.916 62.2266 120.251 62.3696C120.586 62.5125 120.889 62.7216 121.141 62.9842C121.393 63.2469 121.59 63.5577 121.719 63.8982C121.849 64.2386 121.908 64.6016 121.894 64.9655Z" fill="#FFBC3B"/>
<path d="M170.405 39.3342C170.406 38.6248 170.683 37.9435 171.177 37.4343C171.67 36.9251 172.343 36.6279 173.052 36.6056C174.541 36.5723 175.854 37.8623 175.85 39.3547C175.845 39.7179 175.768 40.0764 175.623 40.4095C175.478 40.7425 175.268 41.0434 175.006 41.2946C174.744 41.5458 174.434 41.7423 174.095 41.8727C173.756 42.003 173.395 42.0646 173.032 42.0539C172.68 42.0503 172.332 41.9768 172.009 41.8376C171.686 41.6985 171.394 41.4965 171.15 41.2435C170.905 40.9904 170.714 40.6913 170.586 40.3636C170.458 40.0358 170.397 39.6859 170.405 39.3342Z" fill="#FFBC3B"/>
<path d="M142.786 100.253C154.242 100.253 165.698 100.253 177.153 100.253C180.044 100.253 180.856 101.374 179.995 104.168C177.305 112.893 174.615 121.618 171.925 130.342C170.644 134.498 167.97 136.619 163.598 136.629C147.617 136.676 131.636 136.68 115.655 136.642C113.829 136.642 113.195 136.106 112.775 134.365C110.31 124.161 107.851 113.955 105.396 103.748C104.817 101.341 105.681 100.253 108.135 100.252C119.687 100.249 131.237 100.25 142.786 100.253ZM175.012 104.883H160.115V110.683H173.221C173.814 108.764 174.393 106.889 175.012 104.883ZM124.795 104.853H110.345C110.829 106.862 111.296 108.789 111.754 110.676H124.795V104.853ZM112.881 115.358C113.293 117.076 113.728 118.705 114.059 120.354C114.219 121.154 114.56 121.432 115.378 121.413C117.542 121.362 119.708 121.397 121.873 121.397H124.78V115.358H112.881ZM160.079 121.393C163.248 121.393 166.297 121.4 169.346 121.376C169.57 121.376 169.934 121.18 169.997 120.992C170.613 119.15 171.179 117.291 171.79 115.355H160.084L160.079 121.393ZM129.502 115.358V121.279H140.083V115.358H129.502ZM155.39 115.385H144.786V121.288H155.397L155.39 115.385ZM140.091 104.88H129.52V110.629H140.09L140.091 104.88ZM155.366 110.677V104.902H144.788V110.676L155.366 110.677ZM129.483 131.982H140.052V126.045H129.483V131.982ZM144.792 126.021V131.982H155.363V126.021H144.792ZM124.8 126.043H115.465C115.912 127.927 116.315 129.713 116.777 131.482C116.84 131.721 117.205 132.042 117.436 132.046C119.87 132.087 122.304 132.072 124.8 132.072V126.043ZM160.074 131.993C166.234 132.337 167.089 132.189 168.32 126.06H160.074V131.993Z" fill="#202124"/>
<path d="M116.125 159.791C116.125 156.027 119.084 153.105 122.861 153.13C123.732 153.127 124.596 153.296 125.401 153.628C126.207 153.961 126.939 154.449 127.556 155.064C128.172 155.68 128.661 156.412 128.994 157.218C129.327 158.023 129.497 158.886 129.495 159.758C129.513 163.518 126.565 166.501 122.826 166.506C121.943 166.514 121.066 166.346 120.249 166.011C119.431 165.676 118.689 165.182 118.065 164.556C117.441 163.931 116.948 163.188 116.615 162.369C116.281 161.551 116.115 160.674 116.125 159.791ZM124.95 159.791C124.946 159.224 124.716 158.681 124.312 158.283C123.908 157.885 123.362 157.663 122.795 157.668C122.227 157.672 121.685 157.901 121.287 158.306C120.888 158.71 120.667 159.256 120.671 159.823C120.673 160.104 120.731 160.382 120.84 160.64C120.95 160.899 121.109 161.134 121.309 161.331C121.509 161.528 121.746 161.684 122.007 161.79C122.267 161.895 122.546 161.948 122.827 161.946C123.108 161.944 123.385 161.887 123.644 161.777C123.903 161.668 124.138 161.509 124.335 161.308C124.532 161.108 124.688 160.871 124.793 160.611C124.899 160.351 124.952 160.072 124.95 159.791Z" fill="#202124"/>
<path d="M163.219 166.505C161.899 166.504 160.609 166.113 159.511 165.38C158.413 164.648 157.557 163.607 157.049 162.388C156.542 161.17 156.406 159.829 156.659 158.534C156.912 157.238 157.542 156.047 158.471 155.109C159.399 154.171 160.584 153.529 161.877 153.263C163.17 152.997 164.513 153.12 165.736 153.615C166.959 154.111 168.008 154.957 168.752 156.048C169.495 157.138 169.899 158.424 169.913 159.744C169.922 160.628 169.755 161.506 169.422 162.326C169.089 163.145 168.598 163.891 167.975 164.52C167.353 165.148 166.612 165.647 165.796 165.988C164.979 166.329 164.103 166.505 163.219 166.505ZM165.365 159.802C165.355 159.232 165.121 158.69 164.713 158.292C164.305 157.895 163.756 157.676 163.187 157.681C162.904 157.674 162.623 157.724 162.361 157.828C162.099 157.933 161.86 158.09 161.661 158.29C161.461 158.49 161.304 158.728 161.2 158.991C161.096 159.253 161.046 159.534 161.054 159.817C161.054 160.099 161.109 160.378 161.218 160.639C161.326 160.899 161.484 161.136 161.684 161.335C161.883 161.534 162.12 161.692 162.381 161.8C162.642 161.907 162.921 161.962 163.203 161.961C163.773 161.951 164.317 161.72 164.72 161.317C165.123 160.914 165.354 160.371 165.365 159.802Z" fill="#202124"/>
<path d="M175.012 104.883C174.393 106.889 173.814 108.764 173.219 110.683H160.115V104.883H175.012Z" fill="#FFE7B9"/>
<path d="M124.791 104.854V110.676H111.75C111.295 108.789 110.829 106.862 110.341 104.854H124.791Z" fill="#FFE7B9"/>
<path d="M112.884 115.358H124.78V121.399H121.87C119.705 121.399 117.539 121.365 115.375 121.416C114.557 121.435 114.216 121.16 114.056 120.357C113.731 118.704 113.295 117.075 112.884 115.358Z" fill="#FFE7B9"/>
<path d="M160.082 121.392V115.364H171.794C171.188 117.295 170.622 119.154 170.001 121.001C169.938 121.184 169.574 121.377 169.35 121.385C166.3 121.399 163.251 121.392 160.082 121.392Z" fill="#FFE7B9"/>
<path d="M129.502 115.358H140.083V121.279H129.502V115.358Z" fill="#FFE7B9"/>
<path d="M155.397 115.385V121.288H144.792V115.385H155.397Z" fill="#FFE7B9"/>
<path d="M140.091 104.879V110.628H129.52V104.879H140.091Z" fill="#FFE7B9"/>
<path d="M155.366 110.676H144.788V104.902H155.366V110.676Z" fill="#FFE7B9"/>
<path d="M129.482 131.982V126.046H140.052V131.982H129.482Z" fill="#FFE7B9"/>
<path d="M144.792 126.021H155.363V131.982H144.792V126.021Z" fill="#FFE7B9"/>
<path d="M124.8 126.043V132.072C122.302 132.072 119.868 132.087 117.435 132.046C117.205 132.046 116.84 131.721 116.777 131.482C116.314 129.713 115.912 127.927 115.465 126.043H124.8Z" fill="#FFE7B9"/>
<path d="M160.074 131.994V126.06H168.32C167.089 132.19 166.234 132.337 160.074 131.994Z" fill="#FFE7B9"/>
<path d="M124.95 159.794C124.952 160.075 124.899 160.353 124.793 160.614C124.688 160.874 124.532 161.111 124.335 161.311C124.138 161.511 123.903 161.671 123.644 161.78C123.385 161.89 123.108 161.947 122.827 161.949C122.546 161.951 122.267 161.898 122.007 161.792C121.746 161.687 121.509 161.531 121.309 161.334C121.109 161.137 120.95 160.902 120.84 160.643C120.731 160.385 120.673 160.107 120.671 159.826C120.667 159.258 120.888 158.713 121.287 158.308C121.685 157.904 122.227 157.675 122.795 157.67C123.362 157.666 123.908 157.888 124.312 158.286C124.716 158.684 124.946 159.226 124.95 159.794Z" fill="#FFBC3B"/>
<path d="M165.364 159.801C165.354 160.37 165.123 160.914 164.72 161.316C164.317 161.719 163.774 161.95 163.205 161.961C162.923 161.962 162.643 161.907 162.382 161.799C162.122 161.692 161.885 161.534 161.685 161.335C161.485 161.135 161.327 160.899 161.219 160.638C161.111 160.378 161.055 160.098 161.055 159.816C161.047 159.534 161.097 159.253 161.201 158.991C161.305 158.728 161.462 158.49 161.662 158.29C161.862 158.09 162.1 157.933 162.362 157.828C162.625 157.723 162.906 157.673 163.188 157.681C163.757 157.675 164.305 157.895 164.713 158.292C165.121 158.69 165.355 159.232 165.364 159.801Z" fill="#FFBC3B"/>
</svg>
