<svg width="270" height="270" viewBox="0 0 270 270" fill="none" xmlns="http://www.w3.org/2000/svg">
<circle cx="135" cy="135" r="135" fill="#FFF4DA"/>
<path d="M106.685 215.886H111.912L114.54 219.267L117.125 222.278L121.998 228.386H116.259L112.907 224.267L111.188 221.824L106.685 215.886ZM122.438 211.455C122.438 214.627 121.837 217.326 120.634 219.551C119.441 221.777 117.812 223.476 115.748 224.651C113.693 225.815 111.382 226.398 108.816 226.398C106.231 226.398 103.91 225.811 101.856 224.636C99.8006 223.462 98.1766 221.762 96.9834 219.537C95.7902 217.312 95.1936 214.617 95.1936 211.455C95.1936 208.282 95.7902 205.583 96.9834 203.358C98.1766 201.133 99.8006 199.437 101.856 198.273C103.91 197.098 106.231 196.511 108.816 196.511C111.382 196.511 113.693 197.098 115.748 198.273C117.812 199.437 119.441 201.133 120.634 203.358C121.837 205.583 122.438 208.282 122.438 211.455ZM116.202 211.455C116.202 209.4 115.894 207.667 115.279 206.256C114.673 204.845 113.816 203.775 112.708 203.045C111.6 202.316 110.303 201.952 108.816 201.952C107.329 201.952 106.032 202.316 104.924 203.045C103.816 203.775 102.954 204.845 102.338 206.256C101.732 207.667 101.429 209.4 101.429 211.455C101.429 213.509 101.732 215.242 102.338 216.653C102.954 218.064 103.816 219.134 104.924 219.864C106.032 220.593 107.329 220.957 108.816 220.957C110.303 220.957 111.6 220.593 112.708 219.864C113.816 219.134 114.673 218.064 115.279 216.653C115.894 215.242 116.202 213.509 116.202 211.455ZM125.358 201.98V196.909H149.25V201.98H140.344V226H134.264V201.98H125.358ZM155.444 226H148.853L158.896 196.909H166.822L176.85 226H170.26L162.973 203.557H162.745L155.444 226ZM155.032 214.565H170.6V219.366H155.032V214.565Z" fill="#BE4E1E"/>
<path d="M203.078 143.363C202.26 145.04 202.281 146.918 201.827 148.687C198.216 162.551 185.89 173.39 171.689 175.281C156.375 177.324 141.94 169.848 134.681 156.688C131.36 150.664 129.899 144.16 130.298 137.28C130.367 136.113 130.107 135.82 128.911 135.82C111.326 135.863 93.7423 135.845 76.1585 135.853C72.497 135.853 69.6216 134.502 67.8805 131.161C67.2165 129.88 67 128.486 67 127.044C67 100.203 67 73.3627 67 46.523C67 44.1165 68.0718 43.0341 70.4796 43.0155C73.6245 42.9916 76.7694 42.9983 79.909 43.0155C82.4935 43.0275 83.4948 44.0514 83.4948 46.6585C83.4948 70.3542 83.486 94.0499 83.4683 117.746C83.4683 118.986 83.7073 119.371 85.0327 119.367C101.644 119.317 118.253 119.313 134.863 119.355C135.805 119.355 136.377 119.067 136.934 118.302C143.244 109.636 151.664 104.357 162.353 103.123C172.956 101.9 182.42 104.838 190.508 111.844C196.807 117.297 200.708 124.195 202.384 132.353C202.61 133.452 202.494 134.619 203.056 135.648L203.078 143.363ZM135.735 139.207C135.831 156.458 149.696 170.34 166.864 170.16C184.063 169.978 197.737 155.931 197.543 138.749C197.349 122.191 183.346 108.239 166.8 108.336C149.483 108.433 135.637 122.197 135.732 139.207H135.735ZM72.5448 88.4892C72.5448 101.285 72.5448 114.081 72.5448 126.879C72.5448 129.211 73.57 130.332 75.7654 130.332C93.9637 130.342 112.162 130.351 130.362 130.357C131.159 130.357 131.424 130.045 131.613 129.353C131.902 128.291 132.277 127.247 132.655 126.212C133.177 124.8 133.196 124.807 131.623 124.807H82.0778C81.5905 124.821 81.1029 124.809 80.6169 124.773C79.2768 124.63 78.4016 123.913 78.1573 122.569C78.0379 121.873 77.9815 121.168 77.9886 120.462C77.9788 97.2165 77.9762 73.9706 77.9806 50.7237C77.9606 50.4142 77.9606 50.1036 77.9806 49.7941C78.1134 48.8418 77.8013 48.4009 76.7548 48.5005C75.8276 48.5964 74.893 48.5964 73.9658 48.5005C72.7705 48.3677 72.5049 48.8113 72.5049 49.9681C72.5607 62.808 72.5448 75.6493 72.5448 88.4892Z" fill="#202124"/>
<path d="M169.372 89.4814C169.483 96.6796 163.752 102.195 156.788 101.833C150.191 101.493 144.848 95.3887 145.781 88.8001C146.072 86.7456 145.459 85.7721 144.028 84.699C142.044 83.2155 140.158 81.5992 138.265 79.9989C137.713 79.5301 137.443 79.4676 136.964 80.1317C132.647 86.0616 125.194 87.0457 119.535 82.4266C118.849 81.8662 118.546 81.9073 118.016 82.5833C115.285 86.0682 112.52 89.5252 109.721 92.9544C109.189 93.6011 109.26 94.0049 109.658 94.6649C112.224 98.9241 112.243 103.282 109.571 107.429C106.914 111.556 102.885 113.348 98.052 112.727C93.3041 112.116 90.0012 109.311 88.4513 104.809C86.8178 100.064 87.9294 95.7407 91.5909 92.3249C95.0333 89.1122 99.161 88.2675 103.645 89.8732C104.545 90.1959 105.014 90.0777 105.608 89.3194C108.718 85.3458 111.885 81.4173 115.062 77.4994C115.55 76.8965 115.693 76.3533 115.53 75.5737C114.164 69.0661 119.009 62.5585 125.623 61.6925C132.493 60.7894 138.665 65.9716 139.004 72.7263C139.035 73.3611 139.269 73.7728 139.753 74.1672C142.573 76.4533 145.376 78.7598 148.162 81.0866C148.724 81.558 149.053 81.5992 149.675 81.0866C154.67 76.9204 161.221 77.1608 165.877 81.6563C166.443 82.2022 166.722 82.3058 167.308 81.6563C170.752 77.8491 174.228 74.0672 177.736 70.3105C178.219 69.7912 178.21 69.4552 177.841 68.8669C175.012 64.3593 175.357 58.6486 178.638 54.902C182.33 50.6814 187.811 49.4423 192.83 51.6947C197.142 53.6284 200.029 58.6008 199.596 63.354C199.138 68.3768 195.645 72.5616 190.964 73.8206C188.44 74.5006 185.971 74.4395 183.565 73.4434C182.801 73.1274 182.387 73.3106 181.874 73.8804C178.214 77.9151 174.532 81.9246 170.827 85.9089C169.799 87.0165 168.774 88.0338 169.372 89.4814ZM133.505 73.4249C133.505 69.8709 130.754 67.0899 127.242 67.0819C123.697 67.0726 120.797 69.9426 120.799 73.4567C120.799 76.8673 123.74 79.8315 127.133 79.8315C130.707 79.8408 133.512 77.0213 133.505 73.4249ZM163.803 89.9263C163.787 86.4467 161.033 83.6113 157.639 83.5794C154.081 83.5475 151.053 86.5291 151.104 90.0166C151.124 91.6929 151.802 93.2941 152.992 94.4746C154.182 95.6551 155.789 96.3202 157.465 96.3264C161.062 96.3357 163.819 93.5507 163.803 89.929V89.9263ZM99.663 94.6742C96.1077 94.6742 93.3201 97.4074 93.2988 100.916C93.2869 101.757 93.4416 102.593 93.754 103.374C94.0665 104.155 94.5305 104.867 95.1193 105.468C95.708 106.069 96.41 106.547 97.1846 106.876C97.9592 107.204 98.7911 107.376 99.6325 107.381C103.048 107.431 106.083 104.385 106.048 100.943C106.031 99.2655 105.348 97.6638 104.151 96.4887C102.954 95.3136 101.34 94.6611 99.663 94.6742ZM194.106 62.4801C194.126 58.8743 191.45 56.1491 187.872 56.1212C184.261 56.0933 181.518 58.7522 181.478 62.3221C181.439 65.9955 184.135 68.746 187.776 68.75C191.369 68.7513 194.086 66.0593 194.106 62.4774V62.4801Z" fill="#202124"/>
<path d="M135.733 139.207C135.637 122.197 149.484 108.433 166.791 108.333C183.336 108.239 197.337 122.191 197.534 138.747C197.734 155.928 184.06 169.975 166.855 170.157C149.689 170.341 135.828 156.458 135.733 139.207ZM178.907 131.158V131.146C181.918 131.146 184.929 131.189 187.938 131.129C189.501 131.098 190.559 129.991 190.618 128.551C190.678 127.111 189.822 126.049 188.323 125.773C187.802 125.68 187.273 125.636 186.743 125.64C181.254 125.632 175.764 125.632 170.275 125.64C169.567 125.64 169.11 125.557 168.735 124.782C167.287 121.782 164.743 120.301 161.48 120.301C158.217 120.301 155.683 121.783 154.222 124.78C153.889 125.462 153.524 125.666 152.82 125.645C151.538 125.605 150.246 125.571 148.968 125.681C147.287 125.827 146.157 127.077 146.238 128.523C146.321 130.033 147.497 131.093 149.202 131.139C150.397 131.173 151.593 131.178 152.788 131.139C153.47 131.115 153.858 131.272 154.216 131.96C155.732 134.857 158.155 136.476 161.463 136.485C164.771 136.494 167.192 134.867 168.731 131.987C169.082 131.332 169.433 131.126 170.141 131.135C173.064 131.179 175.986 131.158 178.907 131.158ZM178.741 158.469C180.247 158.469 181.753 158.498 183.257 158.469C184.983 158.426 186.71 158.672 188.419 158.325C189.989 158.005 190.828 156.732 190.576 155.2C190.339 153.763 189.184 152.943 187.307 152.943C181.684 152.933 176.061 152.924 170.441 152.955C169.57 152.955 169.077 152.77 168.615 151.912C165.826 146.718 158.622 145.966 155.242 150.741C153.857 152.694 152.469 153.172 150.415 152.944C150.061 152.919 149.706 152.919 149.352 152.944C147.493 153.004 146.231 154.114 146.231 155.7C146.231 157.258 147.491 158.404 149.347 158.47C150.497 158.513 151.65 158.509 152.8 158.47C153.484 158.446 153.876 158.603 154.214 159.304C155.66 162.307 158.181 163.789 161.454 163.801C164.726 163.813 167.257 162.34 168.724 159.351C169.093 158.599 169.52 158.462 170.242 158.47C173.078 158.486 175.912 158.469 178.747 158.469H178.741ZM158.194 139.14C155.273 139.14 152.351 139.115 149.429 139.148C147.475 139.17 146.194 140.343 146.23 141.962C146.264 143.556 147.506 144.618 149.389 144.682C149.699 144.691 150.009 144.682 150.319 144.682C155.719 144.682 161.119 144.698 166.522 144.663C167.361 144.663 167.828 144.856 168.26 145.658C171.093 150.919 178.326 151.67 181.708 146.815C183.072 144.856 184.452 144.485 186.443 144.677C186.797 144.699 187.152 144.699 187.505 144.677C189.403 144.617 190.606 143.562 190.626 141.95C190.646 140.338 189.455 139.21 187.582 139.142C186.387 139.1 185.192 139.099 183.997 139.142C183.332 139.17 182.994 138.959 182.692 138.336C181.243 135.34 178.759 133.834 175.479 133.81C172.142 133.785 169.617 135.302 168.127 138.334C167.82 138.959 167.482 139.149 166.823 139.142C163.954 139.121 161.078 139.138 158.2 139.14H158.194Z" fill="#FFBC3B"/>
<path d="M72.545 88.4891C72.545 75.6492 72.5609 62.8079 72.5184 49.9746C72.5184 48.8179 72.784 48.3716 73.9793 48.5071C74.9065 48.603 75.8411 48.603 76.7683 48.5071C77.8148 48.4075 78.1216 48.8484 77.9941 49.8007C77.9741 50.1102 77.9741 50.4208 77.9941 50.7303C77.9941 73.9771 77.9968 97.2231 78.0021 120.468C77.995 121.174 78.0514 121.88 78.1708 122.576C78.4151 123.92 79.2903 124.637 80.6304 124.779C81.1164 124.816 81.604 124.827 82.0913 124.814H131.628C133.2 124.814 133.181 124.807 132.659 126.219C132.277 127.253 131.906 128.297 131.617 129.36C131.428 130.052 131.16 130.365 130.366 130.364C112.168 130.34 93.9688 130.331 75.7696 130.338C73.5743 130.338 72.5503 129.215 72.549 126.885C72.5428 114.088 72.5415 101.289 72.545 88.4891Z" fill="#FFE7B9"/>
<path d="M133.505 73.4249C133.505 77.0187 130.707 79.8382 127.131 79.8302C123.737 79.8302 120.798 76.8673 120.797 73.4554C120.797 69.9413 123.695 67.0713 127.24 67.0806C130.754 67.0925 133.5 69.8736 133.505 73.4249Z" fill="#BE4E1E"/>
<path d="M163.803 89.9287C163.819 93.5504 161.062 96.3354 157.465 96.3288C155.789 96.3226 154.182 95.6575 152.992 94.477C151.802 93.2965 151.124 91.6953 151.104 90.019C151.053 86.5315 154.081 83.5499 157.639 83.5818C161.033 83.6137 163.787 86.4491 163.803 89.9287Z" fill="#BE4E1E"/>
<path d="M99.663 94.6743C101.34 94.6612 102.954 95.3133 104.15 96.4878C105.347 97.6623 106.03 99.2634 106.048 100.94C106.083 104.383 103.048 107.428 99.6325 107.379C98.7914 107.373 97.9596 107.202 97.1852 106.873C96.4108 106.545 95.709 106.067 95.1202 105.466C94.5315 104.865 94.0674 104.154 93.7548 103.373C93.4422 102.592 93.2872 101.757 93.2988 100.916C93.3201 97.4048 96.1077 94.6743 99.663 94.6743Z" fill="#BE4E1E"/>
<path d="M194.106 62.4775C194.086 66.0633 191.369 68.7514 187.776 68.7474C184.133 68.7474 181.439 65.993 181.479 62.3195C181.518 58.7496 184.268 56.0907 187.872 56.1186C191.454 56.1465 194.126 58.8717 194.106 62.4775Z" fill="#BE4E1E"/>
<path d="M178.907 131.158C175.986 131.158 173.064 131.179 170.142 131.142C169.434 131.133 169.079 131.339 168.733 131.993C167.194 134.874 164.779 136.509 161.464 136.492C158.149 136.474 155.734 134.863 154.217 131.967C153.86 131.284 153.472 131.122 152.789 131.146C151.594 131.187 150.399 131.182 149.203 131.146C147.498 131.1 146.323 130.04 146.239 128.53C146.158 127.084 147.288 125.834 148.97 125.688C150.245 125.577 151.537 125.612 152.821 125.652C153.525 125.673 153.89 125.469 154.224 124.787C155.684 121.79 158.22 120.309 161.482 120.308C164.743 120.306 167.288 121.788 168.737 124.789C169.111 125.564 169.568 125.649 170.276 125.647C175.766 125.629 181.255 125.629 186.744 125.647C187.274 125.643 187.803 125.687 188.325 125.779C189.819 126.056 190.679 127.122 190.62 128.558C190.56 129.993 189.503 131.105 187.94 131.136C184.93 131.195 181.919 131.153 178.909 131.153L178.907 131.158ZM158.922 128.19C158.907 128.526 158.957 128.861 159.071 129.177C159.185 129.493 159.361 129.784 159.587 130.032C159.813 130.281 160.086 130.482 160.391 130.625C160.695 130.768 161.024 130.85 161.36 130.865C161.696 130.881 162.031 130.83 162.347 130.716C162.664 130.602 162.954 130.427 163.203 130.2C163.451 129.974 163.652 129.701 163.795 129.397C163.938 129.093 164.02 128.763 164.035 128.428C164.057 128.096 164.012 127.764 163.904 127.451C163.796 127.137 163.627 126.848 163.406 126.6C163.186 126.352 162.918 126.15 162.62 126.007C162.321 125.863 161.996 125.78 161.665 125.762C160.188 125.668 158.986 126.732 158.928 128.19H158.922Z" fill="#202124"/>
<path d="M178.747 158.469C175.913 158.469 173.078 158.486 170.247 158.458C169.526 158.45 169.098 158.591 168.729 159.339C167.268 162.324 164.733 163.801 161.459 163.789C158.185 163.777 155.666 162.295 154.22 159.292C153.881 158.59 153.489 158.435 152.805 158.458C151.655 158.498 150.502 158.502 149.352 158.458C147.493 158.392 146.235 157.246 146.236 155.688C146.236 154.102 147.491 152.992 149.357 152.932C149.711 152.907 150.066 152.907 150.42 152.932C152.474 153.161 153.862 152.683 155.248 150.729C158.627 145.954 165.824 146.706 168.62 151.9C169.082 152.758 169.575 152.948 170.446 152.943C176.069 152.912 181.692 152.922 187.313 152.931C189.189 152.931 190.345 153.753 190.581 155.189C190.834 156.724 189.994 157.994 188.424 158.314C186.719 158.66 184.983 158.415 183.262 158.457C181.759 158.498 180.253 158.469 178.747 158.469ZM158.924 155.801C158.905 157.235 160.108 158.457 161.515 158.436C162.865 158.413 164.026 157.231 164.038 155.862C164.055 154.425 162.849 153.206 161.443 153.224C160.088 153.243 158.941 154.42 158.924 155.801Z" fill="#202124"/>
<path d="M158.2 139.138C161.078 139.138 163.954 139.121 166.832 139.152C167.496 139.152 167.83 138.968 168.136 138.343C169.627 135.311 172.151 133.794 175.489 133.819C178.768 133.843 181.253 135.349 182.702 138.346C183.003 138.968 183.342 139.18 184.006 139.152C185.201 139.104 186.396 139.105 187.592 139.152C189.464 139.219 190.654 140.347 190.636 141.959C190.617 143.572 189.412 144.626 187.515 144.686C187.161 144.708 186.806 144.708 186.452 144.686C184.46 144.495 183.081 144.865 181.718 146.824C178.335 151.68 171.102 150.928 168.269 145.667C167.838 144.87 167.37 144.667 166.531 144.673C161.131 144.707 155.731 144.691 150.328 144.691C150.019 144.691 149.708 144.691 149.399 144.691C147.515 144.634 146.274 143.564 146.239 141.971C146.203 140.35 147.485 139.182 149.438 139.157C152.358 139.114 155.279 139.14 158.2 139.138ZM178.023 141.795C177.983 140.377 176.719 139.193 175.313 139.259C173.95 139.322 172.79 140.541 172.814 141.878C172.842 143.267 174.142 144.481 175.531 144.418C176.893 144.358 178.06 143.129 178.023 141.796V141.795Z" fill="#202124"/>
<path d="M158.928 128.19C158.987 126.729 160.188 125.666 161.67 125.762C162.001 125.78 162.326 125.863 162.625 126.007C162.924 126.15 163.191 126.352 163.412 126.6C163.632 126.848 163.801 127.137 163.909 127.451C164.017 127.764 164.062 128.096 164.041 128.428C164.025 128.763 163.943 129.093 163.801 129.397C163.658 129.701 163.456 129.974 163.208 130.201C162.959 130.427 162.669 130.602 162.353 130.716C162.037 130.83 161.701 130.881 161.365 130.865C161.03 130.85 160.7 130.768 160.396 130.625C160.092 130.482 159.819 130.281 159.592 130.032C159.366 129.784 159.191 129.493 159.077 129.177C158.963 128.861 158.912 128.526 158.928 128.19Z" fill="#FFBC3B"/>
<path d="M158.924 155.801C158.941 154.42 160.088 153.248 161.447 153.224C162.853 153.199 164.059 154.42 164.042 155.862C164.025 157.231 162.864 158.413 161.519 158.436C160.108 158.458 158.905 157.235 158.924 155.801Z" fill="#FFBC3B"/>
<path d="M178.023 141.796C178.06 143.124 176.893 144.358 175.531 144.419C174.14 144.483 172.842 143.269 172.814 141.879C172.786 140.542 173.95 139.323 175.314 139.26C176.719 139.194 177.978 140.379 178.023 141.796Z" fill="#FFBC3B"/>
</svg>
