
<svg width="373" height="446" viewBox="0 0 373 446" fill="none" xmlns="http://www.w3.org/2000/svg">
<path d="M144.244 199.386L143.987 200.06L109.371 287.758L96.3664 320.75L71.9618 276.547L23.9556 292.159L71.8655 170.795L102.275 182.81L142.414 198.679L144.244 199.386Z" fill="#263238"/>
<g opacity="0.2">
<path d="M96.6875 304.591L75.8151 266.782L34.745 280.145L76.2006 175.004L138.143 199.45L96.6875 304.591ZM76.5859 264.95L96.4627 300.929L136.056 200.542L77.0997 177.284L37.5065 277.639L76.5859 264.95Z" fill="white"/>
</g>
<path opacity="0.2" d="M143.987 200.06L109.371 287.758C96.4829 257.138 88.8824 224.552 86.8936 191.387L102.403 182.842L142.542 198.711L143.987 200.06Z" fill="black"/>
<path d="M136.12 320.75L160.525 276.547L208.531 292.159L160.621 170.795L88.2422 199.386L136.12 320.75Z" fill="#263238"/>
<g opacity="0.2">
<path d="M94.3434 199.546L156.286 175.004L197.742 280.049L156.671 266.685L135.799 304.495L94.3434 199.546ZM194.98 277.543L155.387 177.188L96.4306 200.446L136.024 300.833L155.901 264.854L194.98 277.543Z" fill="white"/>
</g>
<path d="M116.243 27.5873L124.817 20.9055L132.042 29.0329L141.675 23.9573L147.327 33.2411L157.699 29.9966L161.616 40.1477L172.406 38.7664L174.461 49.4636L185.315 50.0419L185.411 60.9318L195.975 63.4375L194.145 74.1669L204.1 78.5357L200.375 88.7511L209.398 94.8546L203.907 104.235L211.71 111.816L204.645 120.104L210.939 128.938L202.494 135.813L207.118 145.642L197.581 150.911L200.375 161.415L190.067 164.885L190.934 175.71L180.177 177.284L179.117 188.11L168.231 187.725L165.245 198.197L154.616 195.852L149.832 205.618L139.781 201.442L133.294 210.179L124.175 204.268L116.243 211.721L108.312 204.268L99.1601 210.179L92.7057 201.442L82.6549 205.618L77.8382 195.852L67.2094 198.197L64.223 187.725L53.3694 188.11L52.2777 177.284L41.5204 175.71L42.3874 164.885L32.0797 161.415L34.8734 150.911L25.3684 145.642L29.9925 135.813L21.5472 128.938L27.841 120.104L20.7765 111.816L28.5475 104.235L23.0885 94.8546L32.0797 88.7511L28.3869 78.5357L38.3093 74.1669L36.4789 63.4375L47.0756 60.9318L47.172 50.0419L58.0256 49.4636L60.0807 38.7664L70.8701 40.1477L74.7876 29.9966L85.1596 33.2411L90.8111 23.9573L100.445 29.0329L107.67 20.9055L116.243 27.5873Z" fill="#F97E48"/>
<path d="M174.383 174.451C206.486 142.336 206.486 90.2659 174.383 58.1504C142.28 26.0348 90.2305 26.0347 58.1276 58.1503C26.0246 90.2659 26.0246 142.336 58.1275 174.451C90.2305 206.567 142.28 206.567 174.383 174.451Z" fill="#BE4E1E"/>
<path d="M77.9345 119.397L97.2012 117.695C97.2012 117.695 100.766 103.721 98.5499 73.6529C101.85 73.0179 105.221 72.8449 108.569 73.1389C111.78 73.8456 115.376 107.287 115.376 107.287C115.376 107.287 150.185 102.5 152.144 103.881C153.428 104.749 154.07 109.889 154.391 113.519C154.47 114.545 154.194 115.568 153.61 116.416C153.025 117.264 152.168 117.885 151.18 118.177L149.992 118.498L150.634 151.971C150.662 153.215 150.211 154.422 149.375 155.343C148.538 156.264 147.379 156.828 146.139 156.918L113.578 159.52C110.355 159.771 107.132 159.043 104.33 157.432L100.605 155.28L80.6318 158.139L77.9345 119.397Z" fill="#407BFF"/>
<path d="M77.9345 119.397L97.2012 117.695C97.2012 117.695 100.766 103.721 98.5499 73.6529C101.85 73.0179 105.221 72.8449 108.569 73.1389C111.78 73.8456 115.376 107.287 115.376 107.287C115.376 107.287 150.185 102.5 152.144 103.881C153.428 104.749 154.07 109.889 154.391 113.519C154.47 114.545 154.194 115.568 153.61 116.416C153.025 117.264 152.168 117.885 151.18 118.177L149.992 118.498L150.634 151.971C150.662 153.215 150.211 154.422 149.375 155.343C148.538 156.264 147.379 156.828 146.139 156.918L113.578 159.52C110.355 159.771 107.132 159.043 104.33 157.432L100.605 155.28L80.6318 158.139L77.9345 119.397Z" fill="#FEFFDD"/>
<path d="M229.05 101.87L215.331 94.6565L223.483 83.8203C223.483 83.8203 233.772 87.5228 234.012 96.5875L229.05 101.87Z" fill="#FFA496"/>
<path d="M209.141 85.5439L217.134 78.921L223.483 83.8363L215.347 94.6565L209.141 85.5439Z" fill="#FFA496"/>
<path d="M293.803 97.9441C292.994 98.1629 292.22 98.4961 291.505 98.9336C290.559 99.525 289.691 100.233 288.921 101.04C288.091 101.854 287.198 102.78 286.289 103.769C285.029 105.11 283.72 106.594 282.444 108.078C279.621 111.27 276.733 114.653 273.798 117.989C272.091 119.952 270.336 121.915 268.581 123.846L266.795 125.809L265.63 127.085C264.802 127.97 263.811 128.685 262.711 129.192C262.198 129.432 261.664 129.624 261.115 129.766C260.634 129.894 260.143 129.985 259.648 130.038C258.27 130.163 256.881 130.039 255.548 129.671C254.719 129.435 253.913 129.125 253.139 128.745C252.025 128.177 250.958 127.521 249.948 126.782C246.787 124.419 243.869 121.746 241.238 118.803C236.345 113.424 231.901 107.655 227.95 101.551L234.458 95.9014C239.739 100.322 245.083 104.87 250.331 108.956C251.639 109.977 252.964 110.951 254.272 111.844C255.021 112.387 255.787 112.898 256.521 113.345C260.701 107.871 264.832 102.445 269.283 96.9387C271.642 93.9241 274.183 91.0568 276.893 88.3527C278.595 86.6697 280.485 85.1865 282.524 83.9321C284.816 82.5619 287.316 81.5754 289.926 81.0116L293.803 97.9441Z" fill="#CEAA5A"/>
<path opacity="0.1" d="M286.289 103.769C285.029 105.11 283.72 106.594 282.444 108.078C279.621 111.27 276.733 114.653 273.798 117.989C274.094 114.287 275.215 110.699 277.079 107.487C278.942 104.276 281.5 101.522 284.566 99.4282C285.447 100.733 286.035 102.214 286.289 103.769Z" fill="black"/>
<path d="M353.29 84.6662C351.771 89.0467 350.509 93.5122 349.509 98.0398C348.425 102.828 347.547 107.839 346.813 112.866C346.654 114.031 346.494 115.18 346.351 116.345C345.633 122.026 345.106 127.708 344.756 133.166C344.548 136.166 344.373 139.102 344.245 141.943C344.038 147.018 343.926 151.79 343.894 156.035C343.894 158.668 343.894 161.11 343.894 163.296C343.894 170.797 344.213 175.473 344.213 175.473H279.924C270.815 110.264 289.192 80.852 289.192 80.852C294.02 79.9345 298.9 79.3216 303.805 79.0167C304.842 79.0167 305.895 78.905 306.995 78.889C315.701 78.9762 324.393 79.5677 333.03 80.6605C334.626 80.836 336.317 81.0754 337.928 81.3308C346.048 82.7032 353.29 84.6662 353.29 84.6662Z" fill="#CEAA5A"/>
<path d="M231.906 441.94C231.906 441.94 253.314 435.557 254.878 427.194C254.904 426.996 254.971 426.805 255.075 426.634C255.178 426.463 255.316 426.316 255.479 426.2C255.642 426.085 255.828 426.004 256.023 425.964C256.219 425.924 256.421 425.924 256.617 425.965L272.155 428.567C272.523 428.629 272.866 428.791 273.148 429.036C273.429 429.281 273.638 429.599 273.75 429.955L278.536 445.084L274.133 445.212L272.538 443.042L270.703 445.324C246.774 446.074 236.516 446.138 231.746 444.797C230.917 442.706 231.906 441.94 231.906 441.94Z" fill="black"/>
<path d="M318.114 441.94C318.114 441.94 339.523 435.557 341.086 427.194C341.111 426.997 341.176 426.806 341.278 426.635C341.38 426.464 341.516 426.317 341.678 426.201C341.84 426.085 342.024 426.005 342.219 425.964C342.414 425.924 342.615 425.924 342.809 425.965L358.363 428.567C358.731 428.629 359.075 428.791 359.356 429.036C359.638 429.281 359.846 429.599 359.958 429.955L364.744 445.084L360.357 445.212L358.762 443.042L356.912 445.324C332.982 446.074 322.725 446.138 317.955 444.797C317.109 442.706 318.114 441.94 318.114 441.94Z" fill="black"/>
<path d="M323.618 178.234C323.491 178.617 319.646 190.682 314.461 207.981L313.568 211.014C311.127 219.248 308.431 228.569 305.719 238.144C302.401 249.906 299.067 262.274 296.148 274.115C291.888 291.239 288.442 307.262 287.07 318.801C282.588 356.735 273.862 431.631 273.862 431.631L253.697 426.46C253.697 426.46 250.012 345.356 253.841 306.608C256.282 281.983 267.225 231.856 274.388 200.704C278.041 184.745 280.769 173.717 280.769 173.717L303.933 176.127L323.618 178.234Z" fill="#263238"/>
<path opacity="0.2" d="M296.116 274.163C301.492 252.587 308.144 229.287 313.568 211.046L309.325 201.327C298.365 213.599 294.552 252.762 296.116 274.163Z" fill="black"/>
<path d="M361.011 430.514L338.678 432.684C338.678 432.684 312.882 357.581 309.58 318.29C308.144 301.198 306.772 268.131 305.751 238.192C304.985 216.264 304.411 196.028 304.156 184.968C304.012 179.431 303.932 176.191 303.932 176.191L323.714 178.25L344.851 178.984C344.851 178.984 345.84 183.851 345.537 204.438C345.075 236.357 343.942 292.676 344.612 322.918C345.362 362.018 361.011 430.514 361.011 430.514Z" fill="#263238"/>
<path d="M327.431 53.4025L311.67 67.2708C313.408 73.7662 310.824 79.8625 307.681 81.0754L310.026 87.5707L329.505 80.07C324.512 74.8993 325.931 61.7969 327.431 53.4025Z" fill="#E4897B"/>
<path opacity="0.2" d="M321.002 59.036L311.67 67.1751C312.095 68.6905 312.393 70.2385 312.563 71.8032C316.12 71.2606 320.97 67.3028 321.273 63.5524C321.459 62.043 321.367 60.5123 321.002 59.036Z" fill="black"/>
<path d="M327.909 76.0962C327.909 76.0962 315.849 79.8944 314.142 80.8839C312.435 81.8734 310.457 86.693 310.457 86.693C310.457 86.693 311.781 81.7457 311.111 78.9209C310.441 76.0962 309.229 76.0962 309.229 76.0962L306.134 82.4798C306.134 82.4798 305.496 87.9537 310.457 88.7517C315.418 89.5496 330.494 80.437 330.494 80.437L327.909 76.0962Z" fill="#407BFF"/>
<path d="M327.909 76.0962C327.909 76.0962 315.849 79.8944 314.142 80.8839C312.435 81.8734 310.457 86.693 310.457 86.693C310.457 86.693 311.781 81.7457 311.111 78.9209C310.441 76.0962 309.229 76.0962 309.229 76.0962L306.134 82.4798C306.134 82.4798 305.496 87.9537 310.457 88.7517C315.418 89.5496 330.494 80.437 330.494 80.437L327.909 76.0962Z" fill="#CEAA5A"/>
<path d="M299.099 30.2141C296.259 33.5814 299.545 37.8744 299.418 41.1619C299.29 44.4495 298.716 48.7425 302.927 44.2101C307.139 39.6778 303.534 25.554 299.099 30.2141Z" fill="#263238"/>
<path d="M328.532 44.5931C327.112 55.5729 328.532 57.4401 322.613 62.6746C313.648 70.5584 299.833 71.3085 298.588 60.0095C297.472 49.8276 297.647 31.5386 308.75 27.9638C311.208 27.1762 313.825 27.0247 316.357 27.5234C318.889 28.0222 321.254 29.155 323.229 30.8159C325.205 32.4768 326.728 34.6117 327.655 37.021C328.582 39.4304 328.884 42.0355 328.532 44.5931Z" fill="#FFA496"/>
<path d="M326.904 51.9821C321.943 54.9824 320.332 48.0083 320.683 47.4657C322.182 45.1038 322.103 43.093 320.316 38.5766C318.529 34.0602 327.574 28.8416 334.147 30.7886C340.209 32.5919 334.147 37.3158 334.865 41.2577C336.253 48.2796 330.893 49.5723 326.904 51.9821Z" fill="#263238"/>
<path d="M302.146 56.4347C306.073 55.6577 310.06 55.2305 314.063 55.158C313.105 57.6316 311.239 59.7063 306.724 59.9457C302.21 60.185 302.146 56.4347 302.146 56.4347Z" fill="white"/>
<path d="M333.062 52.3013C331.962 54.6116 330.022 56.4152 327.638 57.3443C324.607 58.4296 323.171 55.4293 324.065 52.1736C324.878 49.2372 327.447 45.1357 330.446 45.4708C333.445 45.806 334.514 49.3489 333.062 52.3013Z" fill="#FFA496"/>
<path d="M315.115 44.8325C315.02 45.7581 314.573 45.822 313.967 45.7422C313.361 45.6624 312.786 45.5028 312.898 44.5772C313.01 43.6515 313.568 42.9813 314.174 42.9813C314.78 42.9813 315.211 43.8909 315.115 44.8325Z" fill="#263238"/>
<path d="M303.566 44.7846C303.47 45.7262 303.023 45.7741 302.417 45.7102C301.811 45.6464 301.236 45.4708 301.348 44.5293C301.46 43.5877 302.018 42.9333 302.64 42.9333C303.262 42.9333 303.661 43.843 303.566 44.7846Z" fill="#263238"/>
<path d="M305.368 44.4814C304.406 46.6441 303.15 48.6633 301.635 50.482C302.112 50.8612 302.666 51.1318 303.259 51.2752C303.851 51.4185 304.468 51.431 305.065 51.3118L305.368 44.4814Z" fill="#FF5652"/>
<path d="M317.125 40.7151C317.224 40.702 317.317 40.6634 317.397 40.6034C317.498 40.5017 317.555 40.3639 317.555 40.2204C317.555 40.0768 317.498 39.939 317.397 39.8373C316.867 39.1273 316.175 38.5551 315.378 38.1691C314.581 37.783 313.703 37.5943 312.818 37.619C312.745 37.6249 312.674 37.6455 312.61 37.6795C312.545 37.7135 312.488 37.7602 312.442 37.8169C312.396 37.8735 312.361 37.9389 312.341 38.0091C312.321 38.0793 312.315 38.1529 312.324 38.2255C312.34 38.371 312.412 38.5043 312.526 38.5968C312.639 38.6893 312.784 38.7336 312.93 38.7202C313.628 38.7177 314.318 38.878 314.943 39.1882C315.569 39.4984 316.114 39.9502 316.535 40.5076C316.597 40.6028 316.688 40.6748 316.795 40.7124C316.902 40.75 317.018 40.7509 317.125 40.7151Z" fill="#263238"/>
<path d="M298.078 42.5983C298.164 42.6207 298.255 42.6208 298.342 42.5984C298.428 42.5761 298.508 42.5321 298.572 42.4706C299.057 41.9712 299.656 41.5981 300.318 41.3838C300.98 41.1696 301.684 41.1209 302.369 41.2418C302.513 41.2753 302.664 41.2505 302.79 41.1727C302.915 41.0949 303.005 40.9706 303.039 40.8268C303.073 40.6829 303.048 40.5316 302.97 40.406C302.892 40.2804 302.768 40.1907 302.624 40.1565C301.765 40.0081 300.882 40.0668 300.05 40.3277C299.218 40.5886 298.46 41.0442 297.839 41.6567C297.736 41.7611 297.679 41.9015 297.679 42.0477C297.679 42.1939 297.736 42.3343 297.839 42.4387C297.901 42.5137 297.984 42.5691 298.078 42.5983Z" fill="#263238"/>
<path d="M311.175 32.1611C311.175 32.1611 302.864 35.8476 299.195 28.5862C295.525 21.3249 305.368 17 305.368 17C305.004 17.7935 304.816 18.6564 304.816 19.5295C304.816 20.4026 305.004 21.2655 305.368 22.059C305.368 22.059 307.043 16.7925 313.999 18.4842C320.954 20.1758 332.025 22.3463 334.322 26.0488C334.907 26.9244 335.261 27.933 335.353 28.9817C335.445 30.0304 335.272 31.0853 334.849 32.0493L323.491 34.7943C322.855 33.8121 322.032 32.9648 321.069 32.3008C320.106 31.6368 319.022 31.1692 317.878 30.9247C316.735 30.6801 315.554 30.6634 314.404 30.8756C313.254 31.0877 312.156 31.5245 311.175 32.1611Z" fill="#263238"/>
<path d="M279.158 170.031L278.663 182.24L345.521 193.028C345.521 182.463 343.926 168.722 343.926 168.722L279.158 170.031Z" fill="#263238"/>
<path d="M343.511 175.074L344.883 175.042L344.421 170.621L343.192 170.637L343.511 175.074Z" fill="#263238"/>
<path d="M292.654 175.952L320.252 175.473L319.965 171.052L292.462 171.531L292.654 175.952Z" fill="#263238"/>
<path d="M290.341 171.579L278.663 171.77V176.191L290.484 175.984L290.341 171.579Z" fill="#263238"/>
<path d="M341.07 170.685L322.087 171.004L322.422 175.441L341.342 175.106L341.07 170.685Z" fill="#263238"/>
<g opacity="0.2">
<path d="M343.511 175.074L344.883 175.042L344.421 170.621L343.192 170.637L343.511 175.074Z" fill="white"/>
<path d="M292.654 175.952L320.252 175.473L319.965 171.052L292.462 171.531L292.654 175.952Z" fill="white"/>
<path d="M290.341 171.579L278.663 171.77V176.191L290.484 175.984L290.341 171.579Z" fill="white"/>
<path d="M341.07 170.685L322.087 171.004L322.422 175.441L341.342 175.106L341.07 170.685Z" fill="white"/>
</g>
<path d="M300.949 172.217L301.093 174.898C301.101 175.104 301.189 175.299 301.338 175.442C301.486 175.585 301.684 175.665 301.891 175.664H308.798C308.908 175.665 309.018 175.642 309.119 175.598C309.22 175.554 309.311 175.49 309.386 175.409C309.461 175.328 309.518 175.232 309.554 175.128C309.59 175.023 309.605 174.913 309.596 174.803L309.388 172.01C309.376 171.804 309.284 171.611 309.133 171.471C308.981 171.331 308.781 171.255 308.575 171.26L301.731 171.387C301.625 171.389 301.52 171.413 301.423 171.456C301.326 171.499 301.239 171.561 301.166 171.638C301.093 171.715 301.036 171.806 300.999 171.906C300.962 172.005 300.945 172.111 300.949 172.217Z" stroke="white" stroke-width="0.75" stroke-miterlimit="10"/>
<path d="M306.453 173.398H308.543" stroke="white" stroke-width="0.75" stroke-linecap="round" stroke-linejoin="round"/>
<path opacity="0.1" d="M349.493 98.0877C348.409 102.875 347.531 107.887 346.797 112.914C345.438 108.556 345.009 103.962 345.537 99.4282C346.66 98.5351 348.059 98.0611 349.493 98.0877Z" fill="black"/>
<path opacity="0.1" d="M344.708 133.214C344.5 136.214 344.325 139.15 344.197 141.991C343.99 147.066 343.878 151.838 343.846 156.083C337.114 153.29 324.926 147.768 323.491 143.459C321.496 137.475 324.799 134.73 324.799 134.73C331.46 134.641 338.109 134.134 344.708 133.214Z" fill="black"/>
<path d="M315.259 132.048L311.861 133.07C311.019 133.323 310.294 133.865 309.812 134.601C309.331 135.336 309.124 136.218 309.229 137.092L309.739 141.528C309.846 142.316 310.2 143.05 310.75 143.624C311.301 144.198 312.019 144.582 312.802 144.72L314.844 145.087C316.931 146.332 319.383 146.821 321.788 146.472C324.193 146.124 326.405 144.958 328.053 143.172L328.149 135.895L317.62 132.048C316.854 131.793 316.025 131.793 315.259 132.048Z" fill="#FFA496"/>
<path d="M324.799 135.735C324.799 135.735 321.608 129.894 321.512 126.367C321.417 122.84 318.322 126.958 319.917 129.559C320.313 130.296 320.411 131.157 320.191 131.964C319.971 132.772 319.451 133.464 318.737 133.9L324.799 135.735Z" fill="#FFA496"/>
<path d="M372.242 134.123L372.13 133.293L371.971 132.703L371.843 132.033L371.604 130.692C370.312 123.51 368.86 116.329 366.994 109.131C366.065 105.345 364.92 101.615 363.564 97.96C362.768 95.83 361.808 93.765 360.692 91.7839C359.899 90.4012 358.94 89.1204 357.837 87.9697C357.036 87.1383 356.136 86.4093 355.157 85.7993C353.927 85.0457 352.578 84.5061 351.169 84.2034C349.812 85.0041 348.654 86.0997 347.778 87.4092C346.903 88.7186 346.333 90.2083 346.112 91.7679C345.347 94.6719 345.168 97.6992 345.585 100.673C346.208 101.833 346.742 103.039 347.18 104.28C348.281 107.184 349.334 110.456 350.371 113.759C352.333 120.287 354.152 127.053 356.018 133.82C355.221 134.059 354.311 134.267 353.354 134.458C351.771 134.763 350.174 134.987 348.568 135.129C341.964 135.799 334.785 135.895 327.83 135.927L326.522 144.433C333.803 146.547 341.291 147.874 348.855 148.39C350.802 148.486 352.796 148.534 354.87 148.39C357.135 148.324 359.387 148.013 361.586 147.465C362.998 147.089 364.362 146.553 365.654 145.869C367.589 144.892 369.238 143.429 370.439 141.624C371.202 140.468 371.743 139.18 372.035 137.826C372.292 136.609 372.362 135.361 372.242 134.123Z" fill="#CEAA5A"/>
</svg>
