<svg width="407" height="556" viewBox="0 0 407 556" fill="none" xmlns="http://www.w3.org/2000/svg">
<path d="M271.612 -5.09435e-06L0 30.7657L42.6459 407.542L314.258 376.777L271.612 -5.09435e-06Z" fill="#407BFF"/>
<path d="M271.612 -5.09435e-06L0 30.7657L42.6459 407.542L314.258 376.777L271.612 -5.09435e-06Z" fill="#FCFCF4"/>
<path d="M63.571 70.5665L64.3214 77.2764L39.7124 80.0645L36.2362 49.4259L60.2786 46.7144L61.0443 53.4089L45.5775 55.1706L46.1747 60.3332L59.7885 58.8013L60.5236 65.2967L46.8945 66.8286L47.5377 72.4355L63.571 70.5665Z" fill="#BE4E1E"/>
<path d="M88.2412 74.5648L80.8141 65.7716L75.6381 75.9589L65.7302 77.0925L75.148 60.2413L62.744 46.2853L72.5141 45.1824L79.6503 53.3476L84.6884 43.8036L94.0604 42.7466L85.056 58.7706L98.241 73.3393L88.2412 74.5648Z" fill="#BE4E1E"/>
<path d="M119.374 65.0056L106.403 66.5376L104.673 72.7725L95.8214 73.7683L105.898 41.5977L114.427 40.6326L131.487 69.7393L122.467 70.7657L119.374 65.0056ZM116.112 58.8779L111.058 49.5025L108.225 59.7664L116.112 58.8779Z" fill="#BE4E1E"/>
<path d="M161.624 66.2464L159.649 50.0079L153.263 64.1324L149.404 64.5766L140.124 52.6582L141.915 68.4831L133.891 69.3869L130.415 38.7482L137.566 37.9363L150.46 54.3893L158.975 35.5005L166.111 34.6886L169.679 65.3273L161.624 66.2464Z" fill="#BE4E1E"/>
<path opacity="0.2" d="M239.581 30.8442L181.016 37.3539L181.597 42.5862L240.162 36.0765L239.581 30.8442Z" fill="#BE4E1E"/>
<path opacity="0.2" d="M234.05 84.0067L51.1342 104.726L51.906 111.545L234.822 90.8261L234.05 84.0067Z" fill="#BE4E1E"/>
<path opacity="0.2" d="M231.664 42.5335L184.447 47.8817L185.042 53.1333L232.258 47.7851L231.664 42.5335Z" fill="#BE4E1E"/>
<path opacity="0.2" d="M42.3104 104.594L34.3674 105.494L35.2668 113.44L43.2098 112.54L42.3104 104.594Z" fill="#BE4E1E"/>
<path opacity="0.2" d="M246.269 191.984L63.3529 212.703L64.1248 219.523L247.041 198.804L246.269 191.984Z" fill="#BE4E1E"/>
<path opacity="0.2" d="M54.5444 212.572L46.6014 213.472L47.5008 221.418L55.4438 220.518L54.5444 212.572Z" fill="#BE4E1E"/>
<path opacity="0.2" d="M256.766 284.537L73.8494 305.256L74.6212 312.076L257.537 291.357L256.766 284.537Z" fill="#BE4E1E"/>
<path opacity="0.2" d="M65.0103 305.127L57.0674 306.026L57.9668 313.972L65.9097 313.073L65.0103 305.127Z" fill="#BE4E1E"/>
<path opacity="0.2" d="M237.998 105.426L76.5522 123.713L77.3241 130.532L238.77 112.245L237.998 105.426Z" fill="#BE4E1E"/>
<path opacity="0.2" d="M142.405 132.58L78.3741 139.833L79.146 146.652L143.177 139.4L142.405 132.58Z" fill="#BE4E1E"/>
<path opacity="0.2" d="M65.701 123.802L54.8213 125.035L56.0532 135.918L66.9329 134.686L65.701 123.802Z" fill="#BE4E1E" stroke="#BE4E1E" stroke-width="0.75" stroke-miterlimit="10"/>
<path opacity="0.2" d="M242.854 148.343L81.4086 166.63L82.1804 173.45L243.626 155.163L242.854 148.343Z" fill="#BE4E1E"/>
<path opacity="0.2" d="M147.261 175.483L83.2305 182.735L84.0023 189.555L148.033 182.302L147.261 175.483Z" fill="#BE4E1E"/>
<path opacity="0.2" d="M70.5573 166.72L59.6776 167.952L60.9095 178.836L71.7892 177.604L70.5573 166.72Z" fill="#BE4E1E" stroke="#BE4E1E" stroke-width="0.75" stroke-miterlimit="10"/>
<path opacity="0.2" d="M250.732 218.003L89.2863 236.29L90.0581 243.11L251.504 224.823L250.732 218.003Z" fill="#BE4E1E"/>
<path opacity="0.2" d="M155.33 246.873L91.2999 254.125L92.0718 260.945L156.102 253.692L155.33 246.873Z" fill="#BE4E1E"/>
<path opacity="0.2" d="M78.4504 236.38L67.5707 237.612L68.8026 248.496L79.6823 247.264L78.4504 236.38Z" fill="#BE4E1E" stroke="#BE4E1E" stroke-width="0.75" stroke-miterlimit="10"/>
<path opacity="0.2" d="M80.3574 253.306L69.4777 254.539L70.7096 265.423L81.5893 264.19L80.3574 253.306Z" fill="#BE4E1E" stroke="#BE4E1E" stroke-width="0.75" stroke-miterlimit="10"/>
<path opacity="0.2" d="M194.246 260.365L93.3005 271.799L94.0724 278.619L195.018 267.185L194.246 260.365Z" fill="#BE4E1E"/>
<path opacity="0.2" d="M82.3618 270.984L71.4821 272.216L72.7139 283.1L83.5937 281.868L82.3618 270.984Z" fill="#BE4E1E" stroke="#BE4E1E" stroke-width="0.75" stroke-miterlimit="10"/>
<path opacity="0.2" d="M260.903 307.791L99.4575 326.078L100.229 332.898L261.675 314.61L260.903 307.791Z" fill="#BE4E1E"/>
<path opacity="0.2" d="M165.504 336.676L101.473 343.928L102.245 350.748L166.275 343.495L165.504 336.676Z" fill="#BE4E1E"/>
<path opacity="0.2" d="M88.6234 326.183L77.7437 327.415L78.9755 338.299L89.8553 337.067L88.6234 326.183Z" fill="#BE4E1E" stroke="#BE4E1E" stroke-width="0.75" stroke-miterlimit="10"/>
<path opacity="0.2" d="M90.5305 343.109L79.6508 344.342L80.8827 355.226L91.7624 353.993L90.5305 343.109Z" fill="#BE4E1E" stroke="#BE4E1E" stroke-width="0.75" stroke-miterlimit="10"/>
<path opacity="0.2" d="M204.417 350.153L103.472 361.587L104.244 368.407L205.189 356.973L204.417 350.153Z" fill="#BE4E1E"/>
<path opacity="0.2" d="M92.5196 360.774L81.6399 362.006L82.8718 372.89L93.7515 371.657L92.5196 360.774Z" fill="#BE4E1E" stroke="#BE4E1E" stroke-width="0.75" stroke-miterlimit="10"/>
<path d="M285.923 360.791C285.923 360.791 275.847 294.122 273.672 277.898C271.497 261.675 273.672 253.387 279.797 248.072C285.923 242.756 314.452 235.694 333.548 235.035C348.479 234.514 356.212 237.44 368.938 271.02L347.836 280.212C347.836 280.212 364.681 335.576 362.675 357.069L285.923 360.791Z" fill="#CEAA5A"/>
<path opacity="0.3" d="M343.915 281.927L340.47 283.321L335.125 269.519L340.791 289.005L345.508 286.921L343.915 281.927Z" fill="black"/>
<path d="M279.782 248.026C279.782 248.026 267.807 253.234 263.167 265.015C260.885 270.805 256.245 281.192 251.712 291.364L286.979 296.634L279.782 248.026Z" fill="#CEAA5A"/>
<path d="M254.668 291.962C254.668 291.962 240.426 316.978 244.668 327.962H270.272L271.283 316.963L266.689 314.297L276.015 294.627L254.668 291.962Z" fill="#FFA496"/>
<path opacity="0.3" d="M266.719 314.221C266.719 314.221 259.262 312.336 253.779 314.818C253.779 314.818 258.374 308.414 267.562 312.535L266.719 314.221Z" fill="black"/>
<path opacity="0.3" d="M271.069 275.478C271.069 275.478 269.537 283.459 271.344 288.821C273.151 294.183 276.045 294.55 276.045 294.55L271.069 275.478Z" fill="black"/>
<path d="M347.361 191.222C345.493 190.394 343.425 190.088 341.572 189.199C337.621 187.315 335.324 183.072 333.671 179.073C332.017 175.075 330.73 170.648 327.805 167.385C326.412 165.829 324.706 164.586 322.798 163.738C320.89 162.89 318.824 162.456 316.736 162.464C314.648 162.473 312.586 162.924 310.685 163.788C308.784 164.652 307.088 165.909 305.708 167.477L315.019 200.995C317.249 204.842 320.651 207.875 324.727 209.651C326.384 210.502 328.289 210.735 330.102 210.309C330.99 210.052 331.741 209.458 332.196 208.653C332.652 207.849 332.774 206.898 332.537 206.005C333.269 207.157 334.406 207.994 335.724 208.351C337.041 208.708 338.445 208.558 339.658 207.932C340.871 207.306 341.806 206.249 342.28 204.968C342.753 203.687 342.73 202.275 342.216 201.011C344.15 201.097 346.081 200.795 347.897 200.122C348.8 199.773 349.582 199.168 350.147 198.382C350.713 197.596 351.037 196.662 351.082 195.695C350.924 194.682 350.494 193.732 349.839 192.944C349.184 192.156 348.327 191.561 347.361 191.222Z" fill="#263238"/>
<path d="M274.346 176.01C266.597 183.593 269.507 191.85 270.778 197.977C273.427 206.081 274.499 211.872 278.251 219.516L291.129 166.772C286.183 168.763 282.753 168.396 274.346 176.01Z" fill="#263238"/>
<path d="M285.448 169.407C293.319 163.785 302.676 166.925 308.219 169.284C311.328 171.04 314.028 173.436 316.14 176.315C318.252 179.194 319.728 182.489 320.47 185.982C321.711 192.6 323.227 200.612 319.858 204.825C318.939 206.014 317.784 207.001 316.467 207.723C315.149 208.445 313.697 208.888 312.201 209.023L273.794 184.956C276.306 178.873 280.315 173.524 285.448 169.407Z" fill="#263238"/>
<path d="M302.293 253.296C307.576 252.928 307.117 252.759 310.21 250.753C325.294 241.117 318.663 236.169 318.663 236.169C314.069 232.431 315.126 227.437 314.988 219.057C314.988 218.812 315.463 214.599 315.417 214.354C315.202 213.281 314.023 218.138 313.212 217.418C312.194 216.407 310.817 215.84 309.383 215.84C307.949 215.84 306.573 216.407 305.555 217.418L297.086 221.661V222.059C297.883 226.502 298.618 229.918 299.138 232.63C299.171 232.965 299.227 233.298 299.307 233.626C299.327 233.967 299.378 234.305 299.46 234.637C299.935 238.39 295.325 241.929 295.402 247.107C294.039 248.256 297.102 253.296 302.293 253.296Z" fill="#FFA496"/>
<path opacity="0.2" d="M297.102 221.584C297.117 221.727 297.117 221.871 297.102 222.013C297.898 226.456 298.633 229.872 299.154 232.584C299.233 232.911 299.29 233.244 299.322 233.58C299.345 233.931 299.345 234.285 299.322 234.637C303.683 232.61 307.594 229.729 310.823 226.165C313.165 223.459 314.591 220.08 314.896 216.514C314.697 215.441 313.901 218.168 313.135 217.387C312.111 216.388 310.737 215.828 309.307 215.828C307.876 215.828 306.502 216.388 305.478 217.387L297.102 221.584Z" fill="black"/>
<path d="M315.417 189.062C317.959 204.381 319.368 210.861 313.656 220.527C305.05 235.066 286.091 235.188 279.062 220.956C272.83 208.134 269.675 185.216 282.768 175.473C295.861 165.73 312.875 173.681 315.417 189.062Z" fill="#FFA496"/>
<path d="M325.141 200.658C324.306 203.871 322.236 206.624 319.383 208.318C315.662 210.432 311.818 204.58 312.063 200.183C312.221 198.205 313.078 196.347 314.481 194.943C315.884 193.539 317.742 192.681 319.72 192.524C323.732 192.263 326.197 196.537 325.141 200.658Z" fill="#FFA496"/>
<path opacity="0.2" d="M316.473 202.19C316.321 201.459 316.314 200.705 316.454 199.971C316.593 199.237 316.875 198.538 317.285 197.913C317.695 197.288 318.223 196.751 318.841 196.331C319.458 195.911 320.152 195.616 320.884 195.465" stroke="black" stroke-width="0.5" stroke-linecap="round" stroke-linejoin="round"/>
<path d="M297.209 199.157C297.576 200.781 297.071 202.328 296.091 202.619C295.111 202.91 294.008 201.838 293.641 200.229C293.273 198.621 293.763 197.058 294.759 196.752C295.754 196.446 296.841 197.533 297.209 199.157Z" fill="#263238"/>
<path d="M282.293 203.232C282.646 204.764 282.14 206.296 281.16 206.617C280.18 206.939 279.078 205.882 278.725 204.304C278.373 202.726 278.894 201.24 279.874 200.934C280.854 200.628 281.941 201.669 282.293 203.232Z" fill="#263238"/>
<path d="M298.817 192.708C298.726 192.749 298.626 192.77 298.526 192.77C298.426 192.77 298.326 192.749 298.235 192.708C297.411 192.264 296.491 192.031 295.555 192.031C294.62 192.031 293.699 192.264 292.875 192.708C292.792 192.759 292.7 192.794 292.604 192.809C292.507 192.824 292.408 192.819 292.314 192.794C292.219 192.77 292.131 192.727 292.054 192.667C291.976 192.607 291.912 192.532 291.865 192.447C291.77 192.262 291.748 192.048 291.802 191.848C291.855 191.647 291.981 191.473 292.155 191.359C293.195 190.79 294.362 190.491 295.547 190.491C296.733 190.491 297.9 190.79 298.939 191.359C299.115 191.459 299.246 191.624 299.303 191.818C299.36 192.013 299.34 192.222 299.246 192.401C299.146 192.553 298.993 192.662 298.817 192.708Z" fill="#263238"/>
<path d="M275.188 196.982C275.101 196.974 275.017 196.948 274.94 196.906C274.864 196.864 274.797 196.806 274.744 196.737C274.634 196.573 274.584 196.377 274.604 196.181C274.623 195.985 274.711 195.802 274.851 195.664C275.59 194.827 276.532 194.195 277.586 193.827C278.64 193.46 279.77 193.37 280.869 193.565C281.045 193.634 281.188 193.768 281.267 193.939C281.347 194.11 281.358 194.306 281.298 194.485C281.254 194.671 281.141 194.833 280.982 194.938C280.822 195.043 280.629 195.084 280.441 195.051C279.569 194.913 278.676 194.997 277.846 195.297C277.016 195.597 276.275 196.103 275.693 196.767C275.628 196.835 275.549 196.889 275.462 196.926C275.376 196.963 275.282 196.982 275.188 196.982Z" fill="#263238"/>
<path d="M286.152 201.378C285.687 204.978 284.85 208.521 283.656 211.949C283.589 212.125 283.564 212.314 283.583 212.502C283.602 212.69 283.664 212.871 283.765 213.03C283.866 213.189 284.003 213.323 284.165 213.419C284.327 213.516 284.51 213.574 284.698 213.588C286.126 213.614 287.535 213.249 288.771 212.531L286.152 201.378Z" fill="#A24E3F"/>
<path d="M295.341 196.66L291.65 196.813C291.65 196.813 294.253 198.866 295.341 196.66Z" fill="#263238"/>
<path d="M280.241 200.857L276.551 201.011C276.551 201.011 279.154 203.109 280.241 200.857Z" fill="#263238"/>
<path d="M311.313 193.55C311.313 193.55 300.685 185.201 298.817 176.699C298.817 176.699 265.556 178.614 273.519 205.07C273.519 205.07 263.044 180.023 287.883 171.368C312.722 162.712 324.253 195.128 314.865 208.946C314.789 208.885 317.898 198.789 311.313 193.55Z" fill="#263238"/>
<path d="M319.046 192.095C316.688 181.877 311.022 174.769 303.227 172.976C292.676 170.556 280.257 173.359 280.257 173.359C280.134 176.423 274.131 185.722 273.978 188.832C276.842 188.173 285.264 181.892 287.837 180.513L286.107 182.796C286.107 182.796 290.701 181.984 292.906 179.073C297.898 191.589 314.712 192.095 319.046 192.095Z" fill="#263238"/>
<path d="M300.762 166.925C300.762 166.925 308.235 167.553 312.415 172.486C312.385 172.471 308.418 165.715 300.762 166.925Z" fill="#BE4E1E"/>
<path d="M294.33 216.33C296.284 214.952 297.949 213.203 299.23 211.183" stroke="#263238" stroke-width="0.75" stroke-linecap="round" stroke-linejoin="round"/>
<path d="M295.524 241.408C295.524 241.408 286.765 255.67 302.569 255.195C318.372 254.72 323.104 239.677 323.809 235.51L318.878 233.809C318.878 233.809 316.029 246.065 305.34 248.501C294.652 250.936 297.163 239.968 297.163 239.968L295.524 241.408Z" fill="#F2DCCC"/>
<path d="M364.543 272.858C364.543 272.858 373.394 298.288 374.374 305.289C374.742 308.016 377.529 314.864 369.045 320.869C361.587 326.139 308.036 327.885 308.036 327.885L306.504 314.19L350.5 302.685L343.915 281.973L364.543 272.858Z" fill="#FFA496"/>
<path d="M309.322 313.638C309.322 313.638 301.236 307.281 300.9 307.174C300.563 307.066 290.731 306.592 289.353 307.74C287.975 308.889 287.041 314.221 287.041 314.221C287.041 314.221 283.35 315.599 282.646 317.453C282.469 318.043 282.44 318.668 282.563 319.273C282.686 319.877 282.956 320.441 283.35 320.915C283.126 321.504 283.05 322.14 283.131 322.765C283.211 323.39 283.444 323.986 283.81 324.5L285.081 326.108C285.081 326.108 283.81 327.64 284.958 328.774C286.107 329.908 312.033 327.885 312.033 327.885L309.322 313.638Z" fill="#FFA496"/>
<path opacity="0.3" d="M286.979 314.221L298.235 312.336C295.664 311.909 293.041 311.909 290.471 312.336C289.141 312.589 287.921 313.247 286.979 314.221Z" fill="black"/>
<path d="M300.226 297.645L294.315 313.102C293.105 312.857 291.681 313.669 290.915 313.562L297.438 296.465C297.595 296.09 297.894 295.791 298.27 295.636C298.647 295.481 299.069 295.482 299.445 295.638C299.82 295.795 300.118 296.094 300.274 296.47C300.429 296.847 300.428 297.269 300.272 297.645H300.226Z" fill="#263238"/>
<path opacity="0.3" d="M350.5 302.685C350.5 302.685 360.163 303.129 361.572 308.813C361.572 308.813 361.572 299.79 349.781 300.479L350.5 302.685Z" fill="black"/>
<path d="M271.283 316.886C271.283 316.886 289.445 315.569 293.733 319.046C296.853 321.841 299.61 325.017 301.941 328.498L269.369 327.885L271.283 316.886Z" fill="#FFA496"/>
<path opacity="0.3" d="M281.497 316.672C281.497 316.672 280.287 321.742 282.462 325.342C283.166 326.507 281.635 327.671 282.14 328.13L287.041 328.222L283.136 316.672H281.497Z" fill="black"/>
<path d="M204.944 533.348L206.997 521.307L231.406 523.069L224.73 540.548L210.243 541.039L204.944 533.348Z" fill="#FFA496"/>
<path d="M202.479 531.326H208.88C209.596 531.336 210.299 531.512 210.935 531.842C211.57 532.172 212.12 532.646 212.54 533.226C216.23 538.281 219.018 536.366 223.045 531.617C225.602 531.326 226.292 534.252 226.491 535.049L231.284 552.498C231.4 552.91 231.419 553.344 231.339 553.765C231.259 554.186 231.082 554.582 230.822 554.923C230.562 555.263 230.226 555.538 229.841 555.726C229.456 555.914 229.032 556.01 228.604 556.006H177.793C169.708 556.006 168.039 547.856 171.362 547.09C186.338 543.781 196.951 539.43 201.575 535.018C202.433 534.252 201.545 533.685 202.479 531.326Z" fill="#CEAA5A"/>
<path d="M198.298 537.071C199.406 537.227 200.467 537.622 201.408 538.227C202.349 538.833 203.148 539.635 203.75 540.579" stroke="white" stroke-width="0.5" stroke-linecap="round" stroke-linejoin="round"/>
<path d="M194.041 539.277C195.148 539.438 196.207 539.834 197.147 540.44C198.087 541.045 198.887 541.845 199.493 542.785" stroke="white" stroke-width="0.5" stroke-linecap="round" stroke-linejoin="round"/>
<path d="M189.079 541.805C190.186 541.966 191.245 542.362 192.185 542.967C193.126 543.573 193.926 544.372 194.531 545.313" stroke="white" stroke-width="0.5" stroke-linecap="round" stroke-linejoin="round"/>
<path d="M211.345 496L206.062 484.985L227.011 472.301L231.651 490.439L220.12 499.202L211.345 496Z" fill="#FFA496"/>
<path d="M208.176 495.709L213.397 492.001C213.988 491.594 214.665 491.331 215.375 491.233C216.085 491.134 216.808 491.203 217.486 491.435C223.428 493.426 224.592 490.255 225.143 484.051C227.057 482.335 229.324 484.326 229.952 484.847L243.948 496.321C244.229 496.548 244.463 496.827 244.635 497.143C244.808 497.46 244.917 497.807 244.955 498.166C244.994 498.524 244.961 498.887 244.859 499.233C244.757 499.579 244.588 499.902 244.362 500.182C244.195 500.392 243.999 500.578 243.78 500.733L226.491 512.989L202.295 530.131C195.695 534.804 189.631 529.12 191.897 526.577C202.219 515.226 208.313 505.498 209.584 499.263C209.814 498.19 208.773 498.236 208.176 495.709Z" fill="#CEAA5A"/>
<path d="M208.053 502.848C209.05 502.341 210.143 502.052 211.261 502.002C212.378 501.952 213.493 502.141 214.531 502.557" stroke="white" stroke-width="0.5" stroke-linecap="round" stroke-linejoin="round"/>
<path d="M205.817 507.137C206.814 506.629 207.907 506.34 209.025 506.29C210.142 506.24 211.257 506.429 212.295 506.846" stroke="white" stroke-width="0.5" stroke-linecap="round" stroke-linejoin="round"/>
<path d="M203.29 512.07C204.283 511.55 205.378 511.255 206.497 511.204C207.616 511.154 208.733 511.35 209.768 511.779" stroke="white" stroke-width="0.5" stroke-linecap="round" stroke-linejoin="round"/>
<path d="M286.474 355.721C286.474 355.721 209.064 345.15 185.68 367.149C185.68 367.149 167.549 378.638 174.516 417.35C179.11 441.249 192.617 472.086 207.119 491.603L227.44 474.262C227.44 474.262 216.185 426.557 215.48 402.123L243.596 400.453L283.917 372.878L288.143 361.45L286.474 355.721Z" fill="#263238"/>
<path opacity="0.3" d="M218.466 402.016C217.22 396.699 217.183 391.171 218.359 385.838C220.304 376.953 225.434 368.252 253.121 364.698C280.808 361.144 221.422 402.016 221.422 402.016H218.466Z" fill="black"/>
<path d="M362.567 354.878C362.567 354.878 364.711 376.938 357.713 393.084C350.715 409.231 325.983 415.144 309.307 414.072C292.63 413 271.115 411.621 261.972 414.194C261.972 414.194 250.135 481.339 229.691 530.3L204.944 528.155C204.944 528.155 218.39 433.39 220.549 411.376C222.708 389.362 221.621 386.083 235.066 375.329C248.512 364.575 317.377 350.037 362.567 354.878Z" fill="#263238"/>
<path opacity="0.3" d="M218.466 429.085L210.457 488.83C210.457 488.83 210.212 457.303 210.794 447.744C211.201 440.843 213.901 434.275 218.466 429.085Z" fill="black"/>
<path d="M242.6 550.659L269.706 422.406H361.618L381.97 550.659" stroke="#263238" stroke-width="3" stroke-linecap="round" stroke-linejoin="round"/>
<path opacity="0.5" d="M242.6 550.659L269.706 422.406H361.618L381.97 550.659" stroke="white" stroke-width="3" stroke-linecap="round" stroke-linejoin="round"/>
<path d="M363.93 422.39H267.547C266.267 422.39 265.04 421.882 264.136 420.977C263.231 420.072 262.723 418.845 262.723 417.565C262.723 416.285 263.231 415.057 264.136 414.153C265.04 413.248 266.267 412.739 267.547 412.739H363.93C365.211 412.739 366.44 413.247 367.347 414.152C368.254 415.056 368.766 416.283 368.77 417.565C368.766 418.846 368.254 420.073 367.347 420.978C366.44 421.882 365.211 422.39 363.93 422.39Z" fill="#CEAA5A"/>
<path d="M398.983 338.885H332.982V367.808H398.983V338.885Z" fill="#263238"/>
<path opacity="0.4" d="M398.983 338.885H332.982V367.808H398.983V338.885Z" fill="white"/>
<path d="M328.449 335.836H121.363V367.808H328.449V335.836Z" fill="#263238"/>
<path opacity="0.4" d="M328.449 335.836H121.363V367.808H328.449V335.836Z" fill="white"/>
<path d="M336.121 333.385H328.449V550.659H336.121V333.385Z" fill="#263238"/>
<path opacity="0.5" d="M336.121 333.385H328.449V550.659H336.121V333.385Z" fill="white"/>
<path d="M403.608 333.385H395.936V550.659H403.608V333.385Z" fill="#263238"/>
<path opacity="0.5" d="M403.608 333.385H395.936V550.659H403.608V333.385Z" fill="white"/>
<path d="M125.206 333.385H117.534V550.659H125.206V333.385Z" fill="#263238"/>
<path opacity="0.5" d="M125.206 333.385H117.534V550.659H125.206V333.385Z" fill="white"/>
<path d="M406.073 327.901H110V338.885H406.073V327.901Z" fill="#263238"/>
<path opacity="0.5" d="M406.073 327.901H110V338.885H406.073V327.901Z" fill="white"/>
<path d="M311.328 325.312H226.261V328.222H311.328V325.312Z" fill="#407BFF"/>
<path d="M311.328 325.312H226.261V328.222H311.328V325.312Z" fill="#F3E0D1"/>
</svg>
