<svg width="270" height="270" viewBox="0 0 270 270" fill="none" xmlns="http://www.w3.org/2000/svg">
<circle cx="135" cy="135" r="135" fill="#FFF4DA"/>
<path d="M105.703 196.909H113.288L121.299 216.455H121.64L129.651 196.909H137.237V226H131.271V207.065H131.029L123.501 225.858H119.438L111.91 206.994H111.669V226H105.703V196.909ZM143.104 226V196.909H154.581C156.778 196.909 158.653 197.302 160.206 198.088C161.769 198.865 162.957 199.968 163.772 201.398C164.596 202.818 165.008 204.49 165.008 206.412C165.008 208.344 164.591 210.006 163.758 211.398C162.924 212.78 161.717 213.841 160.135 214.58C158.563 215.318 156.66 215.688 154.425 215.688H146.741V210.744H153.431C154.605 210.744 155.581 210.583 156.357 210.261C157.134 209.939 157.711 209.456 158.09 208.812C158.478 208.169 158.672 207.368 158.672 206.412C158.672 205.446 158.478 204.632 158.09 203.969C157.711 203.306 157.129 202.804 156.343 202.463C155.566 202.113 154.586 201.938 153.402 201.938H149.255V226H143.104ZM158.814 212.761L166.045 226H159.255L152.181 212.761H158.814Z" fill="#BE4E1E"/>
<path d="M117.353 138.394C116.817 138.666 116.244 138.971 115.66 139.262C114.321 139.925 112.876 141.242 111.665 141.053C110.455 140.864 109.455 139.167 108.396 138.134C105.725 135.494 103.093 132.797 100.396 130.176C99.8077 129.606 99.6833 129.15 100.151 128.509C100.251 128.35 100.338 128.184 100.411 128.011C101.135 126.589 102.361 125.194 102.433 123.742C102.504 122.29 101.388 120.807 100.837 119.321C100.755 119.081 100.611 118.867 100.419 118.7C100.228 118.534 99.9964 118.42 99.7474 118.371C98.2199 117.926 96.7113 117.405 95.1876 116.938C95.0645 116.92 94.9461 116.878 94.8391 116.815C94.7321 116.752 94.6386 116.668 94.564 116.569C94.4894 116.469 94.4351 116.356 94.4043 116.235C94.3734 116.115 94.3666 115.99 94.3842 115.867C94.4219 110.788 94.4219 105.71 94.3842 100.633C94.365 100.51 94.3706 100.385 94.4006 100.264C94.4306 100.143 94.4844 100.029 94.5588 99.9296C94.6333 99.8299 94.727 99.746 94.8343 99.6829C94.9416 99.6198 95.0604 99.5787 95.1838 99.5622C96.6924 99.0983 98.2199 98.5966 99.7361 98.1101C100.087 98.0007 100.49 97.9743 100.656 97.5595C101.282 96.0508 101.924 94.5422 102.542 93.0336C102.708 92.6225 102.372 92.3208 102.214 92.0002C101.501 90.5745 100.785 89.1489 100.019 87.7534C99.9504 87.6617 99.9008 87.5573 99.8732 87.4462C99.8455 87.3352 99.8403 87.2197 99.8579 87.1066C99.8755 86.9934 99.9154 86.885 99.9755 86.7875C100.035 86.6901 100.114 86.6056 100.207 86.539C103.846 82.9309 107.47 79.3064 111.081 75.6656C111.484 75.262 111.835 75.164 112.292 75.4959C112.532 75.6417 112.785 75.7678 113.046 75.873C114.464 76.5972 115.859 77.8229 117.311 77.8946C118.764 77.9662 120.25 76.8574 121.732 76.303C121.972 76.2187 122.185 76.073 122.351 75.8804C122.517 75.6879 122.63 75.4551 122.678 75.2055C123.12 73.6742 123.644 72.1882 124.108 70.6457C124.146 70.3974 124.281 70.1743 124.483 70.0252C124.685 69.8761 124.938 69.8131 125.186 69.8499C130.266 69.88 135.345 69.88 140.424 69.8499C140.547 69.8317 140.672 69.838 140.793 69.8683C140.913 69.8987 141.027 69.9526 141.127 70.0268C141.227 70.1011 141.311 70.1943 141.375 70.3011C141.438 70.408 141.48 70.5263 141.498 70.6494C141.964 72.1731 142.448 73.6918 142.95 75.2055C143.328 76.3369 148.008 78.2227 149.072 77.6947C150.448 76.9932 151.833 76.2992 153.186 75.5524C153.764 75.2394 154.126 75.2394 154.631 75.7523C158.151 79.3403 161.708 82.8982 165.301 86.4258C165.806 86.9237 165.897 87.3122 165.504 87.8666C165.382 88.0663 165.274 88.2743 165.18 88.4889C164.46 89.9108 163.23 91.3062 163.158 92.7545C163.087 94.2028 164.203 95.6925 164.758 97.1748C164.839 97.4121 164.981 97.624 165.169 97.7894C165.358 97.9548 165.587 98.068 165.833 98.1176C167.364 98.5514 168.872 99.0794 170.396 99.5395C170.519 99.5588 170.638 99.6022 170.744 99.6673C170.851 99.7323 170.944 99.8177 171.017 99.9186C171.091 100.019 171.144 100.134 171.173 100.255C171.202 100.376 171.207 100.502 171.188 100.626C171.158 105.707 171.158 110.785 171.188 115.859C171.227 116.108 171.166 116.362 171.019 116.567C170.871 116.771 170.649 116.908 170.4 116.949C168.872 117.405 167.36 117.911 165.84 118.39C165.489 118.499 165.086 118.518 164.92 118.933C164.286 120.441 163.649 121.95 163.034 123.459C162.868 123.87 163.2 124.175 163.358 124.496C164.052 125.876 164.75 127.26 165.501 128.611C165.825 129.195 165.806 129.554 165.297 130.055C161.714 133.575 158.156 137.132 154.623 140.725C154.126 141.234 153.733 141.306 153.186 140.925C153.036 140.819 152.84 140.774 152.692 140.661C149.917 138.492 147.035 138.232 143.999 140.129C143.505 140.438 143.094 140.638 142.92 141.26C142.505 142.75 141.962 144.202 141.536 145.688C141.34 146.378 141.035 146.635 140.28 146.627C135.294 146.59 130.31 146.59 125.326 146.627C124.572 146.627 124.195 146.412 124.066 145.696C123.991 145.376 123.894 145.063 123.776 144.757C122.324 140.186 122.324 140.186 117.832 138.579C117.692 138.552 117.557 138.488 117.353 138.394ZM132.748 142.064V142.109H134.442C137.923 142.109 137.923 142.109 138.994 138.741C139.101 138.481 139.187 138.212 139.251 137.938C139.379 137.097 139.843 136.693 140.676 136.467C141.94 136.127 143.316 135.867 144.369 135.139C147.118 133.208 149.649 133.363 152.217 135.354C152.885 135.871 153.349 135.622 153.888 135.06C155.314 133.551 156.803 132.126 158.267 130.662C160.364 128.562 160.469 128.501 158.987 125.982C158.037 124.364 157.758 122.991 158.987 121.411C159.509 120.738 159.858 119.948 160.005 119.11C160.507 115.806 162.427 114.083 165.663 113.69C166.474 113.592 166.704 113.147 166.685 112.344C166.632 109.994 166.666 107.641 166.666 105.291C166.666 103.107 166.7 102.945 164.599 102.493C162.272 101.987 160.684 100.984 160.424 98.442C160.324 97.9339 160.14 97.4459 159.881 96.9975C159.236 95.5945 158.04 94.199 158.059 92.8148C158.078 91.4307 159.262 90.0239 160.005 88.6661C160.081 88.5644 160.135 88.4486 160.165 88.3255C160.196 88.2025 160.201 88.0746 160.181 87.9495C160.161 87.8244 160.116 87.7046 160.049 87.5971C159.982 87.4896 159.894 87.3966 159.79 87.3235C158.572 86.1467 157.396 84.9285 156.189 83.7443C155.185 82.7561 154.303 81.2399 153.115 80.9684C151.844 80.6742 150.528 82.0357 149.249 82.6958C148.495 83.0729 147.94 83.1333 147.19 82.6958C146.058 82.0433 144.878 81.2588 143.633 81.0401C140.326 80.4668 138.632 78.5659 138.232 75.345C138.127 74.4926 137.64 74.3456 136.863 74.3606C134.37 74.4059 131.873 74.4738 129.388 74.338C127.989 74.2626 127.31 74.7152 127.125 76.0654C126.778 78.6828 125.507 80.414 122.697 80.727C122.134 80.8048 121.6 81.0227 121.143 81.3606C118.503 83.3256 115.957 83.1031 113.438 81.1532C112.816 80.6704 112.307 80.776 111.752 81.3757C109.866 83.3407 107.943 85.2831 105.959 87.1537C105.288 87.7874 105.341 88.2852 105.74 88.9679C106.325 89.9824 106.804 91.0611 107.385 92.0794C107.536 92.3109 107.617 92.5815 107.617 92.8582C107.617 93.1349 107.536 93.4056 107.385 93.637C106.721 94.8741 105.842 96.1074 105.597 97.4425C104.994 100.743 103.093 102.429 99.8831 102.825C98.9817 102.934 98.9176 103.469 98.9289 104.209C98.9667 106.472 98.9289 108.735 98.9289 110.998C98.9289 113.389 98.895 113.547 101.192 114.06C103.376 114.55 104.828 115.482 105.111 117.85C105.243 118.495 105.469 119.116 105.782 119.695C106.393 121.056 107.547 122.41 107.521 123.749C107.494 125.088 106.348 126.453 105.635 127.762C105.292 128.381 105.39 128.75 105.869 129.218C107.878 131.189 109.866 133.181 111.835 135.192C111.915 135.305 112.018 135.4 112.136 135.472C112.254 135.544 112.385 135.591 112.522 135.611C112.658 135.63 112.798 135.622 112.931 135.587C113.065 135.551 113.19 135.489 113.299 135.403C114.396 134.777 115.561 134.249 116.667 133.642C116.878 133.502 117.126 133.427 117.379 133.427C117.633 133.427 117.881 133.502 118.092 133.642C120.324 134.946 122.727 135.933 125.232 136.572C125.479 136.632 125.704 136.76 125.882 136.942C126.06 137.123 126.183 137.35 126.239 137.598C126.763 139.107 126.688 141.249 127.898 141.92C129.109 142.592 131.104 142.064 132.748 142.064Z" fill="#691D1C"/>
<path d="M94.4106 175.973C85.0496 175.973 75.6924 175.955 66.3352 176C65.298 176 65.0038 175.785 65.0265 174.71C65.0944 171.47 65.0265 171.421 68.2926 171.485C69.3411 171.485 69.6127 171.255 69.5976 170.188C69.5372 164.972 69.5976 159.752 69.5486 154.532C69.5486 153.619 69.7673 153.359 70.68 153.374C74.4516 153.427 78.2143 153.427 81.9683 153.374C82.8772 153.374 83.1375 153.589 83.1261 154.506C83.0809 159.786 83.1261 165.04 83.0847 170.305C83.0847 171.214 83.2959 171.474 84.2161 171.466C87.6105 171.444 87.6105 171.466 87.6105 168.053C87.6105 160.578 87.6331 153.103 87.5841 145.624C87.5841 144.575 87.818 144.3 88.8778 144.323C92.5487 144.398 96.2172 144.398 99.8831 144.323C100.932 144.304 101.192 144.556 101.188 145.616C101.135 153.8 101.188 161.981 101.132 170.161C101.132 171.206 101.354 171.493 102.425 171.47C105.672 171.402 105.672 171.47 105.672 168.196C105.672 165.093 105.699 161.989 105.654 158.885C105.654 158.089 105.865 157.87 106.661 157.878C110.52 157.92 114.377 157.92 118.232 157.878C119.024 157.878 119.25 158.085 119.239 158.885C119.197 162.694 119.239 166.503 119.197 170.309C119.197 171.233 119.431 171.606 120.351 171.44C120.398 171.432 120.445 171.432 120.491 171.44C121.551 171.527 123.165 170.965 123.546 171.674C124.081 172.662 123.708 174.133 123.738 175.396C123.757 176.226 123.135 175.947 122.743 175.947C119.499 175.947 116.255 175.947 113.008 175.947L94.4106 175.973ZM96.6208 160.31V152.133C96.6208 148.871 96.6208 148.913 93.3169 148.897C92.3627 148.897 92.1854 149.192 92.1854 150.085C92.2194 156.101 92.1854 162.121 92.1854 168.136C92.1854 171.489 92.1854 171.451 95.5609 171.44C96.4661 171.44 96.6472 171.165 96.6321 170.327C96.5944 166.99 96.6208 163.652 96.6208 160.31ZM74.131 164.542V168.068C74.131 171.527 74.131 171.497 77.5782 171.436C78.4004 171.436 78.5852 171.168 78.5777 170.395C78.5362 167.378 78.5588 164.38 78.5588 161.37C78.5588 157.806 78.5588 157.836 75.0399 157.934C74.2856 157.953 74.097 158.191 74.1159 158.903C74.1574 160.782 74.131 162.664 74.131 164.542ZM114.683 166.899V165.768C114.683 162.335 114.683 162.373 111.194 162.449C110.47 162.449 110.21 162.626 110.236 163.388C110.293 164.934 110.236 166.488 110.236 168.038C110.236 171.598 110.236 171.58 113.796 171.432C114.453 171.406 114.709 171.255 114.679 170.565C114.649 169.347 114.683 168.121 114.683 166.899Z" fill="#691D1C"/>
<path d="M65.0566 50.0493V49.7702C65.0339 47.3866 65.0339 47.3866 67.3761 47.2885C70.2839 47.1716 72.3621 44.6258 71.6794 41.7783C71.3588 40.4356 71.7624 39.9264 72.9316 39.4022C82.9149 34.9103 92.8303 34.9819 102.753 39.5908C103.696 40.0283 103.851 40.4846 103.662 41.4011C102.938 44.9275 104.888 47.3413 108.49 47.2583C109.84 47.2282 110.266 47.4771 110.255 48.9593C110.132 62.122 105.141 73.0394 95.2818 81.7115C94.437 82.4658 93.5997 83.2201 92.7096 83.9103C91.2627 85.0652 89.4653 85.6924 87.614 85.6883C85.7627 85.6841 83.9681 85.049 82.5264 83.8877C73.2295 76.5558 67.1837 67.2664 65.4714 55.3898C65.4262 55.0617 65.3696 54.7373 65.3432 54.4092C65.2225 52.9609 65.1131 51.5089 65 50.0568L65.0566 50.0493ZM89.9149 80.3198L91.8007 78.7055C99.8642 71.8451 104.552 63.2158 105.518 52.6177C105.578 51.9351 105.567 51.5391 104.797 51.2373C101.346 49.8871 99.389 47.3074 98.9364 43.6339C98.9365 43.4068 98.8598 43.1863 98.7187 43.0083C98.5777 42.8303 98.3806 42.7052 98.1595 42.6533C95.8136 41.8226 93.3976 41.2054 90.9407 40.809C90.1864 40.6921 89.8432 40.8467 89.8847 41.7142C89.9564 43.1662 89.8847 44.6258 89.8847 46.0854C89.8847 49.6985 89.8847 49.6684 86.2942 49.5967C85.4607 49.5967 85.291 49.3025 85.306 48.5444C85.3475 46.2815 85.2683 44.0186 85.3438 41.7783C85.3777 40.8128 85.0194 40.6808 84.2123 40.8165C81.7567 41.2211 79.3439 41.8524 77.0049 42.7023C76.8063 42.7475 76.6288 42.8585 76.5015 43.0174C76.3741 43.1763 76.3042 43.3737 76.3033 43.5773C75.8658 47.3149 73.9122 49.906 70.3895 51.2713C69.7936 51.5013 69.6352 51.7842 69.7031 52.4027C70.072 57.0497 71.2916 61.5893 73.3012 65.7955C76.0582 71.5735 80.173 76.2239 85.3702 80.233V57.2492C85.3702 54.032 85.3702 54.0962 88.5345 54.0056C89.7602 53.9717 89.9677 54.3828 89.9601 55.4916C89.8922 63.6684 89.9149 71.83 89.9149 80.3198Z" fill="#691D1C"/>
<path d="M180.194 175.974C176.525 175.974 172.859 175.974 169.189 175.974C165.059 175.955 162.159 173.085 162.144 168.985C162.121 163.106 162.121 157.228 162.144 151.349C162.144 148.566 163.388 146.476 165.851 145.187C166.121 145.075 166.347 144.879 166.496 144.628C166.645 144.377 166.708 144.085 166.677 143.795C166.756 140.182 166.326 136.546 166.915 132.955C168.02 126.186 174.243 121.373 181.198 121.826C187.956 122.267 193.531 127.992 193.723 134.777C193.81 137.794 193.772 140.812 193.723 143.806C193.689 144.097 193.752 144.391 193.904 144.642C194.056 144.893 194.287 145.086 194.56 145.19C197.023 146.48 198.245 148.585 198.253 151.361C198.268 157.191 198.268 163.022 198.253 168.853C198.253 173.134 195.367 175.962 191.053 175.974C187.436 175.981 183.815 175.974 180.194 175.974ZM180.349 148.894C176.728 148.894 173.111 148.894 169.491 148.894C167.454 148.894 166.673 149.671 166.67 151.7C166.67 157.34 166.67 162.98 166.67 168.619C166.67 170.652 167.45 171.437 169.479 171.437C176.623 171.437 183.766 171.437 190.909 171.437C192.946 171.437 193.727 170.656 193.731 168.631C193.731 162.991 193.731 157.351 193.731 151.711C193.731 149.678 192.95 148.902 190.921 148.894C187.398 148.886 183.872 148.894 180.349 148.894ZM180.187 144.368C182.861 144.368 185.539 144.346 188.213 144.387C188.967 144.387 189.269 144.251 189.254 143.41C189.193 140.642 189.276 137.87 189.212 135.113C189.168 132.754 188.201 130.507 186.519 128.854C184.837 127.2 182.574 126.271 180.215 126.267C177.856 126.263 175.59 127.184 173.902 128.832C172.214 130.48 171.24 132.724 171.188 135.083C171.128 137.851 171.188 140.623 171.154 143.38C171.154 144.172 171.358 144.402 172.157 144.387C174.835 144.334 177.524 144.364 180.187 144.364V144.368Z" fill="#691D1C"/>
<path d="M205.057 60.847C205.054 65.7581 203.596 70.5582 200.866 74.6407C198.136 78.7232 194.258 81.9047 189.72 83.783C185.182 85.6614 180.19 86.1522 175.373 85.1936C170.556 84.2349 166.132 81.8698 162.659 78.3971C159.187 74.9245 156.822 70.5002 155.863 65.6836C154.904 60.8671 155.395 55.8744 157.274 51.3367C159.152 46.799 162.333 42.9201 166.416 40.1903C170.498 37.4604 175.299 36.0022 180.21 36C186.796 36.012 193.109 38.6336 197.766 43.2907C202.423 47.9479 205.045 54.2608 205.057 60.847ZM180.164 81.153C184.18 81.1656 188.109 79.9881 191.456 77.7691C194.802 75.5501 197.416 72.3891 198.968 68.6855C200.519 64.9818 200.938 60.9014 200.172 56.9597C199.406 53.018 197.489 49.3916 194.664 46.5386C191.838 43.6856 188.23 41.7339 184.296 40.9299C180.362 40.1258 176.278 40.5056 172.559 42.0213C168.841 43.5369 165.655 46.1204 163.404 49.4455C161.153 52.7707 159.937 56.6883 159.911 60.7037C159.889 66.0954 162.006 71.2759 165.798 75.1093C169.589 78.9427 174.746 81.1161 180.138 81.153H180.164Z" fill="#691D1C"/>
<path d="M89.8922 115.161C89.8922 122.968 89.8696 130.776 89.9186 138.583C89.9186 139.635 89.6773 139.903 88.6212 139.884C85.3739 139.816 85.3739 139.884 85.3739 136.606C85.3739 121.603 85.3739 106.6 85.3438 91.5966C85.3438 90.4274 85.6115 90.1182 86.7883 90.1521C89.8922 90.2426 89.8922 90.1785 89.8922 93.29V115.161Z" fill="#691D1C"/>
<path d="M131.511 65.354C125.537 65.354 119.563 65.3314 113.593 65.3766C112.672 65.3766 112.431 65.1428 112.435 64.2226C112.457 60.8282 112.435 60.8282 115.848 60.8282C127.091 60.8282 138.33 60.8282 149.573 60.8018C150.626 60.8018 150.893 61.0431 150.875 62.0992C150.81 65.3465 150.875 65.3465 147.597 65.3465L131.511 65.354Z" fill="#691D1C"/>
<path d="M140.691 164.685C135.411 164.685 130.157 164.663 124.888 164.708C123.968 164.708 123.727 164.478 123.731 163.558C123.753 160.163 123.731 160.163 127.125 160.163C136.863 160.163 146.597 160.163 156.332 160.137C157.384 160.137 157.656 160.378 157.637 161.434C157.569 164.682 157.637 164.682 154.359 164.682L140.691 164.685Z" fill="#691D1C"/>
<path d="M182.461 103.813C182.461 107.961 182.431 112.091 182.484 116.229C182.484 117.122 182.239 117.3 181.39 117.3C177.943 117.3 177.943 117.334 177.943 113.947C177.943 106.423 177.966 98.8983 177.917 91.3741C177.917 90.3671 178.184 90.1446 179.154 90.1596C182.461 90.2049 182.461 90.1596 182.461 93.5125V103.813Z" fill="#691D1C"/>
<path d="M132.748 142.063C131.104 142.063 129.154 142.607 127.898 141.905C126.642 141.204 126.767 139.076 126.239 137.583C126.183 137.335 126.06 137.107 125.882 136.926C125.704 136.745 125.479 136.617 125.232 136.557C122.727 135.917 120.324 134.931 118.092 133.626C117.881 133.486 117.633 133.412 117.379 133.412C117.126 133.412 116.878 133.486 116.666 133.626C115.554 134.234 114.404 134.758 113.299 135.388C113.19 135.473 113.065 135.535 112.931 135.571C112.798 135.607 112.658 135.615 112.522 135.595C112.385 135.575 112.253 135.528 112.135 135.456C112.017 135.384 111.915 135.289 111.835 135.177C109.866 133.175 107.876 131.186 105.865 129.21C105.386 128.742 105.288 128.373 105.631 127.754C106.363 126.445 107.517 125.114 107.517 123.741C107.517 122.368 106.385 121.048 105.778 119.687C105.466 119.108 105.241 118.487 105.11 117.843C104.828 115.474 103.376 114.542 101.192 114.052C98.8874 113.539 98.9289 113.381 98.9289 110.99C98.9289 108.727 98.9553 106.464 98.9289 104.201C98.9289 103.447 98.9817 102.926 99.8831 102.817C103.093 102.439 104.994 100.735 105.597 97.4346C105.842 96.0995 106.728 94.8662 107.385 93.6292C107.536 93.3977 107.617 93.127 107.617 92.8503C107.617 92.5736 107.536 92.303 107.385 92.0715C106.804 91.0532 106.325 89.9745 105.74 88.96C105.341 88.2622 105.288 87.7795 105.959 87.1459C107.943 85.2601 109.863 83.3328 111.752 81.3678C112.322 80.7719 112.816 80.6626 113.438 81.1453C115.957 83.0952 118.503 83.3177 121.143 81.3527C121.6 81.0148 122.134 80.797 122.697 80.7191C125.507 80.4061 126.778 78.6749 127.125 76.0575C127.306 74.7148 127.985 74.2547 129.388 74.3301C131.873 74.4659 134.37 74.398 136.863 74.3527C137.64 74.3527 138.127 74.4847 138.232 75.3371C138.632 78.558 140.325 80.4589 143.633 81.0322C144.878 81.2509 146.054 82.0354 147.19 82.6879C147.944 83.1216 148.498 83.065 149.249 82.6879C150.527 82.0279 151.844 80.6663 153.115 80.9605C154.292 81.2321 155.185 82.7482 156.189 83.7364C157.395 84.9206 158.572 86.1388 159.79 87.3156C159.894 87.3887 159.982 87.4817 160.049 87.5892C160.116 87.6967 160.161 87.8165 160.181 87.9416C160.201 88.0667 160.195 88.1946 160.165 88.3176C160.135 88.4407 160.081 88.5565 160.005 88.6582C159.251 90.0122 158.078 91.4077 158.059 92.8069C158.04 94.2062 159.236 95.5866 159.881 96.9896C160.14 97.438 160.324 97.926 160.424 98.4341C160.684 100.98 162.272 101.979 164.599 102.485C166.7 102.937 166.666 103.1 166.666 105.283C166.666 107.633 166.632 109.986 166.685 112.336C166.685 113.139 166.474 113.584 165.663 113.682C162.423 114.06 160.503 115.798 160.005 119.102C159.858 119.94 159.509 120.73 158.987 121.403C157.773 122.983 158.052 124.356 158.987 125.974C160.469 128.493 160.364 128.554 158.267 130.654C156.803 132.118 155.314 133.555 153.888 135.052C153.352 135.614 152.885 135.863 152.217 135.346C149.652 133.355 147.118 133.2 144.369 135.131C143.331 135.859 141.94 136.119 140.676 136.459C139.843 136.685 139.379 137.089 139.251 137.93C139.187 138.204 139.101 138.473 138.994 138.733C137.923 142.101 137.923 142.101 134.442 142.101H132.748V142.063ZM132.782 133.08H140.258C142.747 133.08 145.24 133.08 147.729 133.08C148.812 133.094 149.89 132.938 150.924 132.616C156.581 130.809 159.179 124.673 156.536 119.163C156.264 118.66 156.105 118.105 156.071 117.535C156.036 116.965 156.127 116.394 156.336 115.862C157.589 112.397 157.95 108.672 157.384 105.031C155.808 95.051 150.305 88.085 140.789 84.8113C131.274 81.5376 122.573 83.5629 115.429 90.5931C108.286 97.6232 106.306 106.234 109.233 115.862C109.429 116.396 109.513 116.965 109.479 117.532C109.446 118.1 109.297 118.655 109.04 119.163C105.823 125.899 110.383 133.072 117.828 133.08C122.817 133.085 127.801 133.085 132.782 133.08Z" fill="#BE4E1E"/>
<path d="M96.6209 160.31C96.6209 163.652 96.5945 166.99 96.6209 170.328C96.6209 171.165 96.4549 171.44 95.5497 171.44C92.1742 171.44 92.1742 171.489 92.1742 168.136C92.1742 162.102 92.1742 156.101 92.1742 150.086C92.1742 149.192 92.3628 148.894 93.3057 148.898C96.6095 148.898 96.6095 148.871 96.6095 152.134L96.6209 160.31Z" fill="#EFD374"/>
<path d="M74.131 164.542C74.131 162.656 74.1574 160.77 74.131 158.903C74.131 158.191 74.2894 157.953 75.055 157.934C78.5776 157.836 78.5739 157.806 78.5739 161.37C78.5739 164.387 78.5512 167.405 78.5927 170.395C78.5927 171.169 78.4155 171.425 77.5933 171.436C74.1461 171.497 74.1461 171.527 74.1461 168.068L74.131 164.542Z" fill="#EFD374"/>
<path d="M114.683 166.899C114.683 168.121 114.649 169.347 114.683 170.565C114.713 171.255 114.456 171.406 113.8 171.433C110.236 171.584 110.24 171.602 110.24 168.038C110.24 166.488 110.278 164.934 110.24 163.388C110.213 162.634 110.474 162.464 111.198 162.449C114.69 162.358 114.687 162.336 114.687 165.768L114.683 166.899Z" fill="#EFD374"/>
<path d="M89.915 80.3194C89.915 71.8448 89.8923 63.668 89.9414 55.4913C89.9414 54.3598 89.7415 53.9827 88.5157 54.0053C85.3552 54.0958 85.3514 54.0317 85.3514 57.2488V80.2327C80.1731 76.2235 76.0696 71.5732 73.3013 65.7952C71.293 61.5925 70.0735 57.0568 69.7032 52.4137C69.6504 51.7839 69.7937 51.501 70.3896 51.2823C73.9123 49.9056 75.8659 47.3146 76.3298 43.5694C76.3307 43.3658 76.4006 43.1684 76.5279 43.0095C76.6553 42.8507 76.8328 42.7396 77.0313 42.6944C79.3704 41.8445 81.7832 41.2132 84.2388 40.8087C85.0497 40.6729 85.408 40.8087 85.3703 41.7704C85.2948 44.0333 85.3702 46.2963 85.3325 48.5366C85.3325 49.2909 85.4872 49.5737 86.3207 49.5888C89.9112 49.6605 89.9112 49.6907 89.9112 46.0775C89.9112 44.6179 89.964 43.1583 89.9112 41.7063C89.8697 40.8388 90.2054 40.6842 90.9672 40.8011C93.4241 41.1975 95.8401 41.8147 98.186 42.6454C98.4071 42.6973 98.6042 42.8224 98.7452 43.0004C98.8863 43.1784 98.963 43.3989 98.9629 43.626C99.4155 47.2995 101.373 49.8792 104.824 51.2295C105.578 51.5312 105.605 51.9272 105.544 52.6098C104.579 63.2079 99.887 71.8448 91.8271 78.6977L89.915 80.3194Z" fill="#BE4E1E"/>
<path d="M180.349 148.894C183.872 148.894 187.398 148.894 190.91 148.894C192.939 148.894 193.719 149.678 193.719 151.711C193.719 157.351 193.719 162.991 193.719 168.63C193.719 170.656 192.935 171.436 190.898 171.436C183.755 171.436 176.612 171.436 169.468 171.436C167.439 171.436 166.662 170.652 166.658 168.619C166.658 162.977 166.658 157.337 166.658 151.7C166.658 149.671 167.443 148.898 169.48 148.894C173.112 148.886 176.728 148.894 180.349 148.894ZM177.932 166.367V167.216C177.932 169.211 177.932 169.211 179.908 169.211C182.473 169.211 182.518 169.211 182.454 166.677C182.42 165.228 182.552 164.195 184.098 163.312C186.636 161.872 187.542 158.662 186.682 155.898C186.256 154.528 185.408 153.328 184.259 152.471C183.109 151.613 181.718 151.141 180.284 151.123C178.85 151.105 177.447 151.542 176.276 152.37C175.106 153.199 174.228 154.377 173.768 155.735C172.821 158.519 173.726 161.77 176.28 163.309C177.747 164.184 178.245 165.108 177.932 166.367Z" fill="#BE4E1E"/>
<path d="M180.138 81.153C176.116 81.1432 172.188 79.9399 168.85 77.6957C165.513 75.4514 162.916 72.267 161.39 68.546C159.864 64.825 159.476 60.7346 160.276 56.7931C161.077 52.8516 163.029 49.2363 165.885 46.4051C168.742 43.574 172.374 41.6543 176.323 40.8893C180.271 40.1242 184.358 40.5483 188.065 42.1078C191.773 43.6672 194.934 46.2919 197.148 49.6493C199.362 53.0067 200.531 56.9458 200.504 60.9676C200.464 66.3399 198.299 71.4777 194.483 75.2596C190.667 79.0415 185.51 81.1601 180.138 81.153ZM186.863 56.3211C187.239 56.2906 187.618 56.2906 187.994 56.3211C189.314 56.5323 189.333 55.8685 189.077 54.869C188.823 53.792 188.318 52.7907 187.601 51.948C186.884 51.1052 185.977 50.4452 184.954 50.0226C184.143 49.6454 182.891 50.0226 182.533 49.1287C182.216 48.3103 182.39 47.2656 182.48 46.334C182.574 45.3157 182.299 44.98 181.202 45.0026C177.962 45.0668 177.928 45.0026 177.962 48.2801C177.962 49.1589 177.845 49.5096 176.83 49.6756C175.14 49.9425 173.616 50.8443 172.568 52.1971C171.52 53.5498 171.028 55.2515 171.192 56.9547C171.361 58.6307 172.145 60.1847 173.393 61.317C174.64 62.4494 176.262 63.0799 177.947 63.0872C179.403 63.1174 180.862 63.0646 182.318 63.1061C183.774 63.1476 184.698 64.0565 184.702 65.3464C184.705 66.6363 183.77 67.5603 182.326 67.6093C180.881 67.6583 179.41 67.6093 177.954 67.6093C177.147 67.6093 176.268 67.3001 176.106 66.5684C175.793 65.1578 174.85 65.3426 173.889 65.3577C173.278 65.3954 172.666 65.3954 172.056 65.3577C171.252 65.2747 171.086 65.6293 171.222 66.3308C171.418 67.54 171.93 68.676 172.705 69.6243C173.48 70.5726 174.492 71.2995 175.639 71.7316C176.393 72.0484 177.524 71.6637 177.864 72.4859C178.169 73.2063 177.935 74.1492 177.939 74.9978C177.947 75.0907 177.947 75.184 177.939 75.2769C177.762 76.3367 178.12 76.7101 179.271 76.6799C182.446 76.6007 182.476 76.661 182.435 73.4703C182.435 72.5501 182.552 72.1616 183.63 71.9617C185.296 71.6927 186.798 70.803 187.835 69.4714C188.871 68.1398 189.365 66.4652 189.216 64.7844C189.068 63.1046 188.3 61.54 187.062 60.3953C185.824 59.2505 184.204 58.6075 182.518 58.5915C181.062 58.5538 179.602 58.5915 178.147 58.5727C176.638 58.535 175.654 57.5883 175.695 56.2532C175.737 54.918 176.68 54.1072 178.147 54.0732C179.553 54.043 180.964 54.0732 182.375 54.0732C183.182 54.0732 184.057 54.3297 184.26 55.0614C184.69 56.6228 185.792 56.3324 186.863 56.3211Z" fill="#EFD374"/>
<path d="M132.782 133.08C127.801 133.08 122.818 133.08 117.832 133.08C110.387 133.08 105.827 125.914 109.044 119.163C109.301 118.655 109.45 118.1 109.483 117.533C109.516 116.965 109.432 116.396 109.236 115.863C106.31 106.241 108.297 97.6309 115.433 90.5932C122.569 83.5554 131.311 81.5414 140.793 84.8114C150.275 88.0813 155.808 95.0511 157.388 105.031C157.954 108.672 157.593 112.397 156.339 115.863C156.13 116.394 156.04 116.965 156.074 117.535C156.109 118.105 156.267 118.66 156.539 119.163C159.179 124.673 156.585 130.809 150.927 132.616C149.893 132.938 148.815 133.094 147.733 133.08C145.243 133.061 142.75 133.08 140.261 133.08H132.782ZM132.782 128.52C137.675 128.52 142.566 128.52 147.454 128.52C151.979 128.52 154.284 124.854 152.277 120.822C147.364 110.948 142.439 101.078 137.5 91.2117C136.516 89.2316 135.034 87.9946 132.782 87.9946C130.531 87.9946 129.048 89.2316 128.064 91.2155C123.148 101.092 118.22 110.963 113.28 120.83C111.273 124.861 113.581 128.512 118.115 128.52C123.008 128.527 127.899 128.527 132.79 128.52H132.782ZM142.147 90.3103C145.753 97.5253 149.196 104.405 152.707 111.431C154.518 103.613 149.909 94.2893 142.147 90.3103ZM123.44 90.3103C113.985 95.334 111.371 105.536 112.88 111.405L123.44 90.3103Z" fill="#691D1C"/>
<path d="M177.932 166.368C178.245 165.108 177.747 164.184 176.28 163.309C173.726 161.8 172.821 158.519 173.768 155.736C174.228 154.377 175.106 153.199 176.276 152.371C177.447 151.542 178.85 151.105 180.284 151.123C181.718 151.141 183.109 151.613 184.259 152.471C185.408 153.328 186.256 154.528 186.682 155.898C187.542 158.662 186.636 161.872 184.098 163.313C182.552 164.195 182.42 165.229 182.454 166.677C182.518 169.211 182.473 169.211 179.908 169.211C177.932 169.211 177.932 169.211 177.932 167.216V166.368ZM180.255 155.664C179.805 155.65 179.361 155.772 178.98 156.012C178.599 156.252 178.298 156.601 178.117 157.013C177.935 157.425 177.88 157.882 177.96 158.325C178.039 158.769 178.249 159.178 178.563 159.501C178.876 159.825 179.279 160.047 179.72 160.14C180.161 160.233 180.619 160.192 181.037 160.023C181.454 159.854 181.812 159.564 182.063 159.191C182.315 158.817 182.45 158.377 182.45 157.927C182.45 157.338 182.221 156.773 181.811 156.35C181.402 155.928 180.843 155.682 180.255 155.664Z" fill="#691D1C"/>
<path d="M186.863 56.3212C185.791 56.3212 184.675 56.6229 184.256 55.0577C184.057 54.326 183.182 54.0696 182.371 54.0696C180.96 54.0696 179.55 54.0432 178.143 54.0696C176.676 54.1035 175.733 54.9672 175.691 56.2495C175.65 57.5318 176.623 58.5124 178.143 58.569C179.599 58.603 181.058 58.569 182.514 58.5879C184.201 58.603 185.823 59.2461 187.062 60.3917C188.301 61.5374 189.069 63.1034 189.216 64.7845C189.368 66.4655 188.877 68.1415 187.843 69.4753C186.809 70.809 185.307 71.7015 183.642 71.9731C182.563 72.1542 182.435 72.5426 182.446 73.4817C182.488 76.6725 182.446 76.6121 179.282 76.6913C178.131 76.7215 177.773 76.3481 177.95 75.2883C177.958 75.1954 177.958 75.1021 177.95 75.0092C177.95 74.1606 178.18 73.2177 177.875 72.4974C177.536 71.6827 176.397 72.0674 175.65 71.7431C174.501 71.3093 173.488 70.5796 172.712 69.6277C171.936 68.6759 171.426 67.5359 171.233 66.3233C171.097 65.6218 171.263 65.2673 172.067 65.3503C172.677 65.388 173.289 65.388 173.9 65.3503C174.862 65.3503 175.804 65.1504 176.117 66.5609C176.28 67.2926 177.158 67.5943 177.965 67.6019C179.421 67.6019 180.881 67.6396 182.337 67.6019C183.793 67.5642 184.717 66.6401 184.713 65.339C184.709 64.0378 183.777 63.1364 182.329 63.0987C180.881 63.0609 179.414 63.0987 177.958 63.0798C176.273 63.0725 174.651 62.4419 173.404 61.3096C172.157 60.1772 171.373 58.6233 171.203 56.9473C171.039 55.244 171.531 53.5424 172.579 52.1896C173.627 50.8369 175.151 49.935 176.842 49.6682C177.852 49.5022 177.973 49.1515 177.973 48.2727C177.939 45.0065 177.973 45.0593 181.213 44.9952C182.31 44.9726 182.586 45.3082 182.491 46.3266C182.401 47.2581 182.227 48.3029 182.544 49.1213C182.921 50.034 184.155 49.6493 184.965 50.0151C185.989 50.4394 186.896 51.1013 187.612 51.9461C188.328 52.7909 188.833 53.7942 189.084 54.8729C189.34 55.8724 189.322 56.5362 188.002 56.3249C187.623 56.2929 187.242 56.2916 186.863 56.3212Z" fill="#691D1C"/>
<path d="M132.79 128.52C127.902 128.52 123.013 128.52 118.122 128.52C113.597 128.52 111.281 124.862 113.287 120.83C118.208 110.956 123.136 101.084 128.072 91.2155C129.056 89.2317 130.538 87.9984 132.79 87.9946C135.042 87.9909 136.524 89.2317 137.508 91.2118C142.421 101.091 147.347 110.961 152.285 120.822C154.292 124.854 151.987 128.512 147.461 128.52C142.573 128.528 137.683 128.528 132.79 128.52ZM130.489 103.733V111.763C130.489 115.093 130.489 115.033 133.846 115.093C134.977 115.116 135.117 114.697 135.109 113.728C135.068 107.765 135.109 101.802 135.109 95.8395C135.109 92.3319 135.109 92.3772 131.606 92.3734C130.606 92.3734 130.474 92.7506 130.493 93.5916C130.512 96.9709 130.489 100.354 130.489 103.733ZM132.801 124.077C133.253 124.075 133.693 123.939 134.068 123.687C134.443 123.435 134.734 123.078 134.906 122.66C135.078 122.243 135.123 121.784 135.035 121.341C134.947 120.898 134.73 120.491 134.411 120.172C134.093 119.852 133.686 119.633 133.244 119.544C132.801 119.454 132.342 119.498 131.924 119.668C131.506 119.839 131.148 120.13 130.895 120.503C130.641 120.877 130.504 121.317 130.501 121.769C130.494 122.073 130.55 122.375 130.663 122.658C130.776 122.94 130.946 123.197 131.16 123.412C131.375 123.627 131.631 123.797 131.913 123.912C132.195 124.026 132.497 124.082 132.801 124.077Z" fill="#EFD374"/>
<path d="M180.255 155.664C180.705 155.672 181.142 155.814 181.511 156.072C181.88 156.33 182.164 156.692 182.326 157.112C182.488 157.532 182.521 157.99 182.421 158.429C182.321 158.868 182.092 159.267 181.764 159.576C181.436 159.884 181.023 160.087 180.579 160.16C180.135 160.232 179.679 160.17 179.27 159.982C178.861 159.794 178.517 159.489 178.283 159.104C178.048 158.72 177.934 158.275 177.954 157.825C177.981 157.236 178.236 156.68 178.666 156.277C179.095 155.873 179.665 155.653 180.255 155.664Z" fill="#EFD374"/>
<path d="M130.489 103.733C130.489 100.339 130.512 96.9711 130.489 93.5918C130.489 92.7469 130.602 92.3698 131.602 92.3736C135.106 92.3736 135.106 92.3321 135.106 95.8396C135.106 101.802 135.083 107.765 135.106 113.728C135.106 114.697 134.985 115.116 133.842 115.093C130.485 115.033 130.485 115.093 130.485 111.763L130.489 103.733Z" fill="#691D1C"/>
<path d="M132.801 124.077C132.349 124.082 131.906 123.953 131.527 123.707C131.149 123.461 130.851 123.108 130.673 122.693C130.494 122.278 130.442 121.82 130.523 121.375C130.605 120.931 130.816 120.52 131.13 120.196C131.444 119.871 131.848 119.647 132.289 119.551C132.731 119.455 133.191 119.492 133.611 119.657C134.032 119.822 134.394 120.107 134.653 120.478C134.911 120.848 135.054 121.287 135.064 121.739C135.074 122.042 135.023 122.345 134.914 122.628C134.805 122.911 134.64 123.17 134.429 123.388C134.217 123.606 133.965 123.779 133.685 123.898C133.405 124.016 133.105 124.077 132.801 124.077Z" fill="#691D1C"/>
</svg>
