<svg width="270" height="270" viewBox="0 0 270 270" fill="none" xmlns="http://www.w3.org/2000/svg">
<circle cx="135" cy="135" r="135" fill="#FFF4DA"/>
<path d="M135.592 211.455C135.592 214.627 134.991 217.326 133.788 219.551C132.595 221.777 130.966 223.476 128.901 224.651C126.847 225.815 124.536 226.398 121.97 226.398C119.384 226.398 117.064 225.811 115.009 224.636C112.955 223.462 111.33 221.762 110.137 219.537C108.944 217.312 108.348 214.617 108.348 211.455C108.348 208.282 108.944 205.583 110.137 203.358C111.33 201.133 112.955 199.437 115.009 198.273C117.064 197.098 119.384 196.511 121.97 196.511C124.536 196.511 126.847 197.098 128.901 198.273C130.966 199.437 132.595 201.133 133.788 203.358C134.991 205.583 135.592 208.282 135.592 211.455ZM129.356 211.455C129.356 209.4 129.048 207.667 128.433 206.256C127.827 204.845 126.97 203.775 125.862 203.045C124.754 202.316 123.456 201.952 121.97 201.952C120.483 201.952 119.186 202.316 118.078 203.045C116.97 203.775 116.108 204.845 115.492 206.256C114.886 207.667 114.583 209.4 114.583 211.455C114.583 213.509 114.886 215.242 115.492 216.653C116.108 218.064 116.97 219.134 118.078 219.864C119.186 220.593 120.483 220.957 121.97 220.957C123.456 220.957 124.754 220.593 125.862 219.864C126.97 219.134 127.827 218.064 128.433 216.653C129.048 215.242 129.356 213.509 129.356 211.455ZM140.948 226V196.909H152.425C154.622 196.909 156.497 197.302 158.05 198.088C159.613 198.865 160.801 199.968 161.616 201.398C162.439 202.818 162.851 204.49 162.851 206.412C162.851 208.344 162.435 210.006 161.601 211.398C160.768 212.78 159.561 213.841 157.979 214.58C156.407 215.318 154.504 215.688 152.269 215.688H144.584V210.744H151.275C152.449 210.744 153.424 210.583 154.201 210.261C154.977 209.939 155.555 209.456 155.934 208.812C156.322 208.169 156.516 207.368 156.516 206.412C156.516 205.446 156.322 204.632 155.934 203.969C155.555 203.306 154.973 202.804 154.187 202.463C153.41 202.113 152.43 201.938 151.246 201.938H147.099V226H140.948ZM156.658 212.761L163.888 226H157.099L150.025 212.761H156.658Z" fill="#BE4E1E"/>
<path d="M126.313 171.996C126.066 171.503 125.546 171.589 125.146 171.459C122.239 170.495 119.884 168.753 118.383 166.021C117.838 165.031 117.216 164.86 116.235 164.86C103.365 164.885 90.4965 164.885 77.629 164.86C71.7525 164.86 67.2933 161.55 65.8251 156.16C65.5287 155.045 65.3832 153.894 65.3926 152.738C65.3926 119.783 65.3926 86.8282 65.3926 53.873C65.3926 47.0336 70.3024 41.9476 77.0003 41.8364C81.4849 41.7586 85.9695 41.8364 90.4468 41.8142C90.8793 41.8142 91.4026 41.9884 91.7115 41.5325C93.0453 39.5455 95.015 39.2601 97.1265 39.4269C98.1876 39.5121 98.7183 39.1933 99.2343 38.1257C101.778 32.8544 106.016 30 111.787 30C117.558 30 121.803 32.8507 124.328 38.1332C124.855 39.2452 125.419 39.5047 126.458 39.4269C128.573 39.2638 130.543 39.5529 131.869 41.5399C132.186 42.0144 132.698 41.8105 133.127 41.8105C139.109 41.8105 145.091 41.7771 151.069 41.8327C156.884 41.8846 161.354 45.5879 162.586 51.2411C162.788 52.3791 162.866 53.5366 162.818 54.6923C162.818 67.3554 162.811 80.0197 162.796 92.6852C162.796 93.7158 162.996 94.168 164.072 94.4794C167.281 95.3728 169.563 97.5303 171.282 100.411C176.494 109.112 181.726 117.796 186.978 126.463C191.933 134.676 196.892 142.883 201.857 151.085C203.056 153.01 203.982 155.098 204.608 157.287V161.735C204.146 162.058 204.223 162.614 204.07 163.062C202.616 167.344 199.887 170.243 195.584 171.566C195.152 171.7 194.574 171.451 194.272 172L126.313 171.996ZM79.3007 103.269C79.3007 118.616 79.3007 133.963 79.3007 149.31C79.3007 150.177 79.2753 150.711 80.46 150.703C93.1482 150.651 105.838 150.651 118.528 150.703C118.835 150.728 119.142 150.658 119.409 150.502C119.676 150.346 119.891 150.111 120.026 149.828C129.489 134.103 138.963 118.386 148.449 102.676C148.755 102.222 148.924 101.687 148.936 101.137C148.921 86.4352 148.921 71.7308 148.936 57.024C148.936 56.2826 148.772 56.0045 147.976 56.012C142.946 56.049 137.917 56.0379 132.887 56.012C132.645 55.9869 132.4 56.0275 132.178 56.1297C131.956 56.2319 131.764 56.392 131.622 56.594C130.674 57.8469 129.362 58.3696 127.817 58.3548C126.051 58.3548 124.281 58.3548 122.515 58.3548C113.767 58.3548 105.02 58.3548 96.2761 58.3548C94.6588 58.3548 93.1797 58.0619 92.1331 56.7311C91.9516 56.4776 91.7091 56.2762 91.429 56.1463C91.1488 56.0165 90.8406 55.9625 90.534 55.9897C87.2633 56.0231 83.9925 56.0676 80.7471 55.9712C79.5406 55.9378 79.2716 56.264 79.2753 57.4799C79.3189 72.7602 79.3007 88.0144 79.3007 103.269ZM160.452 167.27C170.87 167.27 181.288 167.27 191.706 167.27C194.857 167.27 197.354 166.106 198.928 163.251C200.501 160.397 200.261 157.509 198.586 154.725C188.141 137.401 177.695 120.08 167.248 102.761C163.843 97.1299 157.185 97.1744 153.773 102.831C143.369 120.069 132.971 137.311 122.577 154.559C120.869 157.383 120.527 160.256 122.122 163.2C123.718 166.143 126.338 167.277 129.594 167.277C139.883 167.244 150.168 167.27 160.452 167.27ZM117.006 155.408H79.9767C76.4261 155.408 74.6671 153.587 74.6635 149.936V114.99C74.6635 95.5309 74.6635 76.0742 74.6635 56.6199C74.6635 53.1724 76.4806 51.3115 79.8531 51.3004C82.3971 51.3004 84.941 51.3263 87.4668 51.3004C88.5825 51.2818 90.0398 51.8119 90.7375 51.078C91.4353 50.344 90.8248 48.876 90.9556 47.7417C91.0755 46.7074 90.6322 46.5517 89.7345 46.5628C85.7369 46.6073 81.7574 46.7222 77.778 46.5628C73.0099 46.3515 69.979 50.0697 69.9899 54.4847C70.0723 87.0642 70.0723 119.647 69.9899 152.234C69.9899 156.527 72.8209 160.278 77.8652 160.215C90.2796 160.06 102.694 160.167 115.108 160.167C115.337 160.167 115.563 160.149 115.788 160.167C116.293 160.212 116.548 160.049 116.515 159.474C116.399 158.114 116.718 156.794 117.006 155.404V155.408ZM111.761 53.6247C116.849 53.6247 121.908 53.6247 126.981 53.6247C127.788 53.6247 128.072 53.4652 128.053 52.5719C127.988 50.0808 128.014 47.5823 128.053 45.0874C128.053 44.3905 127.897 44.0866 127.152 44.1311C126.113 44.1904 125.07 44.1311 124.027 44.1311C121.803 44.1311 121.392 43.8123 120.756 41.6511C120.198 39.5857 118.971 37.7735 117.275 36.509C115.58 35.2444 113.515 34.6019 111.416 34.6856C107.375 34.845 104.013 37.6142 102.85 41.7512C102.305 43.6862 101.76 44.1199 99.7722 44.1311C98.7328 44.1311 97.6825 44.2015 96.6504 44.1088C95.7091 44.0273 95.5311 44.4091 95.5601 45.2765C95.6146 47.6786 95.6219 50.0956 95.5601 52.4829C95.5347 53.4059 95.8072 53.6209 96.6831 53.595C101.706 53.6024 106.732 53.6209 111.761 53.6209V53.6247ZM153.555 96.0771C154.787 95.3913 155.833 94.7129 157.014 94.4683C157.948 94.2755 158.221 93.9011 158.221 92.915C158.181 79.9739 158.221 67.0328 158.188 54.0917C158.188 49.458 155.35 46.5925 150.804 46.5777C145.908 46.5777 141.017 46.5777 136.121 46.5777C132.607 46.5777 132.64 46.5777 132.662 50.1957C132.662 51.1299 132.96 51.3337 133.825 51.3078C138.549 51.267 143.252 51.3078 147.962 51.3078C151.934 51.3078 153.555 52.9648 153.555 57.0203V96.0771Z" fill="#691D1C"/>
<path d="M79.3009 103.269C79.3009 88.0146 79.3009 72.7604 79.2719 57.5061C79.2719 56.2902 79.5372 55.964 80.7437 55.9974C84.0145 56.0938 87.2671 56.0493 90.5306 56.0159C90.8372 55.9887 91.1454 56.0426 91.4255 56.1725C91.7057 56.3024 91.9482 56.5038 92.1296 56.7573C93.1763 58.0881 94.6736 58.3847 96.2726 58.381C105.017 58.355 113.764 58.381 122.512 58.381C124.278 58.381 126.048 58.381 127.814 58.381C129.358 58.381 130.67 57.8731 131.619 56.6202C131.761 56.4182 131.953 56.2581 132.175 56.1559C132.397 56.0537 132.641 56.0131 132.884 56.0382C137.913 56.0382 142.943 56.0641 147.973 56.0382C148.769 56.0382 148.932 56.2902 148.932 57.0502C148.91 71.7521 148.91 86.4565 148.932 101.163C148.92 101.714 148.751 102.248 148.445 102.702C138.962 118.414 129.488 134.132 120.022 149.855C119.888 150.137 119.673 150.372 119.406 150.528C119.139 150.684 118.832 150.754 118.525 150.73C105.834 150.7 93.1448 150.7 80.4566 150.73C79.2719 150.73 79.2973 150.203 79.2973 149.336C79.307 133.971 79.3082 118.616 79.3009 103.269ZM126.854 74.9364C131.7 74.9364 136.546 74.9364 141.391 74.9364C143.256 74.9364 144.27 74.0986 144.27 72.5862C144.27 71.0737 143.23 70.2137 141.395 70.2137C131.704 70.2137 122.012 70.2137 112.321 70.2137C110.555 70.2137 109.443 71.1923 109.487 72.6529C109.53 74.1134 110.577 74.9327 112.318 74.9364C117.163 74.9413 122.009 74.9413 126.854 74.9364ZM126.836 100.989C131.771 100.989 136.71 100.989 141.646 100.989C143.263 100.989 144.262 100.062 144.273 98.6463C144.284 97.2302 143.292 96.2775 141.686 96.2738C131.813 96.2738 121.94 96.2738 112.067 96.2738C111.728 96.2473 111.388 96.2937 111.068 96.4099C110.748 96.5261 110.456 96.7096 110.21 96.9485C109.53 97.6714 109.265 98.5092 109.668 99.4841C109.849 99.9618 110.175 100.368 110.599 100.641C111.023 100.915 111.523 101.042 112.023 101.004L126.836 100.989ZM88.3137 131.791C87.9325 131.844 87.5713 131.997 87.265 132.235C86.9588 132.472 86.7179 132.787 86.5657 133.147C86.3423 133.582 86.266 134.08 86.3488 134.563C86.4317 135.047 86.6689 135.488 87.0236 135.82C88.3755 137.251 89.7638 138.641 91.1448 140.039C92.9401 141.855 94.4955 141.614 95.6221 139.323C97.73 135.05 99.8257 130.77 101.909 126.482C102.818 124.629 103.726 122.775 104.62 120.922C104.832 120.508 104.911 120.037 104.845 119.575C104.78 119.114 104.574 118.685 104.257 118.349C103.975 118.012 103.603 117.766 103.186 117.641C102.769 117.517 102.325 117.519 101.909 117.648C101.041 117.852 100.594 118.542 100.219 119.309C97.8681 124.128 95.4949 128.925 93.1727 133.766C92.7002 134.752 92.3731 134.764 91.719 133.974C91.2714 133.449 90.792 132.954 90.2835 132.491C90.0217 132.236 89.7088 132.041 89.3663 131.921C89.0237 131.8 88.6597 131.757 88.2992 131.794L88.3137 131.791ZM92.5112 109.011C91.6681 108.044 91.0358 107.202 90.2871 106.483C89.2296 105.467 87.9467 105.501 87.0163 106.457C86.7956 106.673 86.6199 106.931 86.4999 107.218C86.3799 107.505 86.318 107.813 86.318 108.125C86.318 108.437 86.3799 108.745 86.4999 109.032C86.6199 109.319 86.7956 109.578 87.0163 109.793C88.47 111.365 89.9734 112.898 91.5264 114.394C92.8492 115.676 94.4337 115.383 95.3605 113.745C95.782 112.985 96.1418 112.188 96.5234 111.406C99.1424 106.058 101.76 100.707 104.377 95.3545C105.187 93.6938 104.74 92.2258 103.338 91.6698C102.127 91.1915 100.975 91.7328 100.263 93.1822C98.0582 97.6603 95.862 102.144 93.6742 106.635C93.3471 107.328 92.9837 108.014 92.4967 109.011H92.5112ZM92.5694 82.8879C91.7553 81.9982 91.1375 81.2642 90.4543 80.5896C89.2804 79.4256 87.9685 79.3737 86.9764 80.4005C85.9842 81.4273 86.0969 82.7878 87.2126 83.9518C88.4809 85.2752 89.7565 86.5726 91.0503 87.8775C92.9546 89.8163 94.4737 89.5716 95.6875 87.1064C98.5634 81.2642 101.433 75.4183 104.297 69.5687C104.47 69.2444 104.62 68.9073 104.744 68.5604C104.915 68.0283 104.891 67.4511 104.676 66.9357C104.462 66.4204 104.071 66.0019 103.577 65.7579C103.119 65.489 102.579 65.4023 102.062 65.5145C101.545 65.6268 101.087 65.9299 100.775 66.3658C100.455 66.8104 100.184 67.2904 99.9686 67.7967L92.5694 82.8879ZM119.953 122.308C117.373 122.308 114.789 122.308 112.205 122.308C110.57 122.308 109.545 123.19 109.497 124.569C109.45 125.948 110.541 127.02 112.187 127.027C117.352 127.042 122.518 127.042 127.683 127.027C129.337 127.027 130.423 126.011 130.387 124.592C130.351 123.172 129.333 122.315 127.701 122.308C125.103 122.297 122.522 122.308 119.939 122.308H119.953ZM118.863 84.3966C121.08 84.3966 123.3 84.4152 125.517 84.3966C127.072 84.3966 128.006 83.507 128.043 82.1205C128.079 80.7341 127.109 79.6925 125.499 79.6813C121.019 79.6517 116.537 79.6517 112.052 79.6813C110.504 79.6813 109.45 80.7564 109.508 82.1243C109.567 83.4921 110.541 84.3781 112.07 84.3966C114.306 84.4115 116.57 84.3929 118.834 84.3966H118.863ZM118.743 110.438C120.96 110.438 123.177 110.438 125.397 110.438C127.054 110.438 128.017 109.575 128.043 108.144C128.072 106.661 127.076 105.727 125.368 105.719C120.978 105.704 116.587 105.704 112.194 105.719C110.606 105.719 109.548 106.668 109.508 108.036C109.468 109.404 110.551 110.427 112.223 110.438C114.367 110.453 116.541 110.438 118.714 110.438H118.743ZM116.41 136.491C117.9 136.491 119.393 136.513 120.883 136.491C122.475 136.461 123.427 135.509 123.402 134.055C123.369 132.669 122.432 131.787 120.883 131.776C117.945 131.753 115.006 131.753 112.067 131.776C110.57 131.776 109.552 132.728 109.523 134.059C109.494 135.39 110.541 136.461 112.067 136.491C113.484 136.513 114.934 136.491 116.381 136.491H116.41Z" fill="#FFE9C0"/>
<path d="M160.453 167.27C150.168 167.27 139.883 167.244 129.602 167.27C126.331 167.27 123.74 166.158 122.13 163.192C120.52 160.227 120.876 157.376 122.584 154.551C133.002 137.316 143.401 120.074 153.78 102.824C157.193 97.167 163.85 97.1226 167.256 102.753C177.72 120.053 188.166 137.374 198.593 154.718C200.269 157.495 200.523 160.349 198.935 163.244C197.347 166.139 194.865 167.27 191.714 167.263C181.291 167.25 170.871 167.253 160.453 167.27ZM167.445 125.863H167.496C167.496 122.536 167.496 119.213 167.496 115.891C167.529 115.018 167.445 114.145 167.245 113.296C166.264 109.775 163.076 107.699 159.417 108.195C156.146 108.644 153.602 111.635 153.573 115.291C153.526 122.304 153.555 129.321 153.573 136.339C153.574 137.17 153.71 137.996 153.976 138.782C154.477 140.303 155.473 141.605 156.798 142.47C158.123 143.336 159.698 143.714 161.263 143.542C164.701 143.104 167.292 140.539 167.441 137.088C167.557 133.351 167.445 129.611 167.445 125.863ZM160.54 148.349C159.622 148.348 158.713 148.532 157.866 148.891C157.018 149.249 156.248 149.775 155.6 150.437C154.952 151.1 154.438 151.887 154.089 152.753C153.74 153.618 153.562 154.546 153.566 155.482C153.602 157.348 154.349 159.126 155.648 160.44C156.947 161.755 158.696 162.502 160.525 162.525C161.444 162.525 162.353 162.339 163.201 161.978C164.049 161.617 164.819 161.089 165.466 160.424C166.113 159.758 166.624 158.969 166.971 158.101C167.317 157.233 167.492 156.304 167.485 155.367C167.483 154.441 167.303 153.525 166.953 152.671C166.603 151.817 166.091 151.042 165.447 150.391C164.802 149.739 164.038 149.224 163.198 148.875C162.358 148.526 161.458 148.35 160.551 148.357L160.54 148.349Z" fill="#FFB727"/>
<path d="M117.006 155.404C116.719 156.794 116.399 158.099 116.501 159.444C116.544 160.019 116.29 160.186 115.774 160.138C115.548 160.119 115.323 160.138 115.094 160.138C102.68 160.138 90.2653 160.03 77.8509 160.186C72.8067 160.249 69.9647 156.479 69.9756 152.205C70.058 119.62 70.058 87.0371 69.9756 54.4551C69.9756 50.0401 72.9956 46.3219 77.7637 46.5332C81.7613 46.7112 85.7335 46.5963 89.7202 46.5332C90.6179 46.5332 91.0612 46.6778 90.9413 47.7121C90.8105 48.8464 91.4029 50.3292 90.7233 51.0484C90.0437 51.7675 88.5754 51.2523 87.4525 51.2708C84.9085 51.3079 82.3646 51.2708 79.8388 51.2708C76.4699 51.2708 74.6492 53.1243 74.6492 56.5903C74.6492 76.0495 74.6492 95.5063 74.6492 114.961V149.903C74.6492 153.554 76.4118 155.37 79.9624 155.374H117.006V155.404Z" fill="#FFB727"/>
<path d="M111.762 53.6209C106.732 53.6209 101.702 53.6209 96.6761 53.6432C95.8002 53.6432 95.5277 53.4356 95.5531 52.5311C95.6185 50.1327 95.6112 47.712 95.5531 45.3247C95.5313 44.4573 95.7094 44.0755 96.6434 44.157C97.6755 44.2497 98.7257 44.183 99.7651 44.1792C101.738 44.1792 102.309 43.7344 102.843 41.7993C104.006 37.6623 107.368 34.8932 111.409 34.7338C113.508 34.6501 115.573 35.2926 117.268 36.5571C118.964 37.8217 120.191 39.6338 120.749 41.6993C121.37 43.8604 121.781 44.1755 124.02 44.1792C125.063 44.1792 126.106 44.2237 127.145 44.1792C127.89 44.1348 128.057 44.4387 128.046 45.1356C128.017 47.6304 127.992 50.129 128.046 52.62C128.072 53.5134 127.781 53.6803 126.974 53.6728C121.908 53.6061 116.835 53.6209 111.762 53.6209Z" fill="#BE4E1E"/>
<path d="M153.555 96.0735V57.0129C153.555 52.9575 151.934 51.3004 147.962 51.3004C143.237 51.3004 138.538 51.2782 133.825 51.3004C132.96 51.3004 132.669 51.104 132.662 50.1883C132.64 46.5703 132.607 46.5703 136.122 46.5703C141.017 46.5703 145.908 46.5703 150.804 46.5703C155.35 46.5703 158.181 49.4507 158.188 54.0844C158.207 67.0255 158.188 79.9666 158.221 92.9077C158.221 93.8938 157.949 94.2682 157.015 94.4609C155.833 94.7241 154.787 95.3877 153.555 96.0735Z" fill="#FFB727"/>
<path d="M126.854 74.9361C122.009 74.9361 117.163 74.9361 112.318 74.9361C110.584 74.9361 109.53 74.0687 109.486 72.6526C109.443 71.2365 110.555 70.2134 112.321 70.2134C122.012 70.2134 131.704 70.2134 141.395 70.2134C143.212 70.2134 144.273 71.0882 144.269 72.5859C144.266 74.0835 143.255 74.9361 141.391 74.9361C136.545 74.941 131.7 74.941 126.854 74.9361Z" fill="#691D1C"/>
<path d="M126.836 100.985H112.023C111.523 101.023 111.024 100.896 110.599 100.622C110.175 100.349 109.849 99.9428 109.668 99.4651C109.265 98.4901 109.53 97.6524 110.21 96.9295C110.455 96.69 110.748 96.5058 111.068 96.3889C111.388 96.272 111.728 96.2251 112.067 96.2511C121.94 96.2511 131.813 96.2511 141.686 96.2511C143.292 96.2511 144.284 97.2001 144.273 98.6236C144.262 100.047 143.263 100.963 141.646 100.966C136.71 100.996 131.772 100.989 126.836 100.985Z" fill="#691D1C"/>
<path d="M88.2992 131.794C88.6625 131.757 89.0293 131.802 89.3739 131.925C89.7185 132.048 90.0326 132.246 90.2944 132.506C90.8029 132.969 91.2823 133.464 91.7299 133.989C92.3695 134.778 92.6965 134.767 93.1835 133.781C95.4949 128.962 97.8789 124.143 100.23 119.324C100.594 118.556 101.052 117.867 101.92 117.663C102.336 117.534 102.779 117.532 103.197 117.656C103.614 117.78 103.986 118.026 104.268 118.364C104.585 118.7 104.791 119.129 104.856 119.59C104.922 120.052 104.843 120.523 104.631 120.936C103.737 122.79 102.814 124.643 101.92 126.497C99.8269 130.78 97.7311 135.06 95.633 139.338C94.5064 141.629 92.9509 141.87 91.1557 140.053C89.7747 138.656 88.3864 137.266 87.0345 135.835C86.6798 135.503 86.4425 135.061 86.3597 134.578C86.2769 134.094 86.3531 133.597 86.5766 133.162C86.7251 132.803 86.9614 132.488 87.263 132.249C87.5646 132.009 87.9213 131.853 88.2992 131.794Z" fill="#691D1C"/>
<path d="M92.4966 109.011C92.9945 108.014 93.3397 107.332 93.6777 106.646C95.88 102.158 98.0715 97.6737 100.252 93.1931C100.979 91.7437 102.116 91.2025 103.327 91.6807C104.744 92.2367 105.176 93.7047 104.366 95.3654C101.761 100.721 99.1435 106.071 96.5124 111.417C96.1308 112.199 95.7856 112.996 95.3495 113.756C94.4373 115.394 92.8382 115.687 91.5154 114.405C89.972 112.922 88.4687 111.388 87.0053 109.804C86.7846 109.589 86.6089 109.33 86.4889 109.043C86.3689 108.756 86.307 108.448 86.307 108.136C86.307 107.824 86.3689 107.516 86.4889 107.229C86.6089 106.942 86.7846 106.683 87.0053 106.468C87.9357 105.511 89.2185 105.478 90.2761 106.494C91.0211 107.202 91.6535 108.043 92.4966 109.011Z" fill="#691D1C"/>
<path d="M92.5547 82.8875L99.954 67.7964C100.169 67.2901 100.44 66.8101 100.761 66.3655C101.072 65.9296 101.53 65.6264 102.048 65.5142C102.565 65.402 103.104 65.4886 103.563 65.7575C104.057 66.0015 104.447 66.42 104.662 66.9354C104.876 67.4507 104.9 68.028 104.729 68.56C104.605 68.9069 104.456 69.244 104.282 69.5683C101.416 75.413 98.5463 81.2589 95.6729 87.1061C94.4591 89.5712 92.94 89.8159 91.0356 87.8771C89.7564 86.5723 88.4663 85.2822 87.1979 83.9514C86.0822 82.7874 86.0059 81.3936 86.9617 80.4001C87.9175 79.4067 89.2658 79.4252 90.4396 80.5892C91.1229 81.2639 91.7407 81.9979 92.5547 82.8875Z" fill="#691D1C"/>
<path d="M119.939 122.308C122.522 122.308 125.103 122.308 127.687 122.308C129.318 122.308 130.336 123.201 130.372 124.592C130.409 125.982 129.322 127.023 127.668 127.027C122.501 127.042 117.335 127.042 112.172 127.027C110.526 127.027 109.436 125.985 109.483 124.569C109.53 123.153 110.573 122.315 112.19 122.308C114.789 122.301 117.358 122.308 119.939 122.308Z" fill="#691D1C"/>
<path d="M118.834 84.3926C116.57 84.3926 114.305 84.3926 112.045 84.3926C110.515 84.3926 109.526 83.4658 109.483 82.1202C109.439 80.7746 110.493 79.6884 112.027 79.6773C116.507 79.6476 120.989 79.6476 125.473 79.6773C127.069 79.6773 128.035 80.6782 128.017 82.1165C127.999 83.5548 127.047 84.374 125.492 84.3926C123.271 84.4148 121.051 84.3963 118.834 84.3926Z" fill="#691D1C"/>
<path d="M118.714 110.438C116.533 110.438 114.353 110.438 112.194 110.438C110.522 110.438 109.443 109.456 109.479 108.036C109.516 106.616 110.57 105.727 112.165 105.719C116.555 105.704 120.946 105.704 125.339 105.719C127.047 105.719 128.043 106.657 128.014 108.144C127.988 109.574 127.025 110.427 125.368 110.438C123.147 110.453 120.931 110.438 118.714 110.438Z" fill="#691D1C"/>
<path d="M116.381 136.491C114.927 136.491 113.473 136.513 112.038 136.491C110.5 136.462 109.439 135.431 109.494 134.059C109.548 132.688 110.551 131.787 112.038 131.776C114.977 131.754 117.915 131.754 120.854 131.776C122.402 131.776 123.34 132.669 123.373 134.056C123.409 135.509 122.446 136.462 120.854 136.491C119.364 136.513 117.871 136.491 116.381 136.491Z" fill="#691D1C"/>
<path d="M167.445 125.862C167.445 129.603 167.557 133.343 167.412 137.076C167.278 140.527 164.686 143.093 161.234 143.53C159.669 143.702 158.094 143.324 156.769 142.459C155.444 141.593 154.448 140.292 153.947 138.77C153.681 137.984 153.545 137.159 153.544 136.327C153.544 129.31 153.508 122.293 153.544 115.279C153.569 111.624 156.088 108.632 159.388 108.184C163.047 107.687 166.234 109.763 167.216 113.285C167.416 114.134 167.5 115.007 167.466 115.88C167.466 119.206 167.466 122.53 167.466 125.851L167.445 125.862ZM162.84 125.803V115.694C162.84 114.997 162.818 114.304 162.346 113.726C162.055 113.334 161.647 113.049 161.183 112.915C160.719 112.781 160.226 112.806 159.777 112.984C158.53 113.422 158.188 114.489 158.192 115.753C158.192 122.452 158.192 129.151 158.192 135.849C158.192 137.732 159.042 138.815 160.485 138.841C161.928 138.867 162.826 137.784 162.829 135.793C162.847 132.465 162.84 129.139 162.84 125.811V125.803Z" fill="#691D1C"/>
<path d="M160.551 148.357C161.458 148.35 162.357 148.526 163.198 148.876C164.038 149.225 164.802 149.74 165.447 150.391C166.091 151.043 166.603 151.818 166.953 152.672C167.302 153.526 167.483 154.442 167.485 155.367C167.493 156.304 167.319 157.234 166.973 158.102C166.628 158.97 166.117 159.76 165.471 160.426C164.825 161.092 164.056 161.621 163.208 161.983C162.36 162.344 161.451 162.531 160.532 162.533C158.703 162.51 156.954 161.762 155.655 160.448C154.356 159.133 153.61 157.355 153.573 155.489C153.57 154.553 153.748 153.625 154.097 152.759C154.446 151.893 154.96 151.107 155.608 150.444C156.257 149.781 157.027 149.255 157.875 148.897C158.723 148.539 159.633 148.356 160.551 148.357ZM160.522 153.091C159.905 153.096 159.315 153.35 158.881 153.797C158.447 154.245 158.205 154.849 158.207 155.478C158.239 156.083 158.488 156.654 158.907 157.083C159.326 157.512 159.885 157.768 160.478 157.803C160.784 157.806 161.087 157.748 161.37 157.631C161.654 157.514 161.912 157.342 162.13 157.123C162.348 156.904 162.521 156.644 162.64 156.356C162.759 156.069 162.821 155.76 162.822 155.449C162.832 155.137 162.779 154.827 162.668 154.537C162.556 154.247 162.387 153.984 162.171 153.763C161.956 153.542 161.698 153.368 161.414 153.253C161.131 153.137 160.827 153.082 160.522 153.091Z" fill="#691D1C"/>
<path d="M162.84 125.811C162.84 129.148 162.84 132.465 162.84 135.791C162.84 137.781 161.99 138.864 160.496 138.838C159.002 138.812 158.207 137.726 158.203 135.846C158.203 129.148 158.203 122.449 158.203 115.751C158.203 114.486 158.541 113.419 159.787 112.981C160.236 112.803 160.73 112.779 161.194 112.912C161.658 113.046 162.066 113.331 162.357 113.723C162.829 114.301 162.851 114.994 162.851 115.691L162.84 125.811Z" fill="#BE4E1E"/>
<path d="M160.521 153.091C160.827 153.082 161.131 153.138 161.414 153.253C161.698 153.369 161.956 153.542 162.171 153.763C162.387 153.984 162.556 154.247 162.667 154.537C162.779 154.827 162.832 155.137 162.822 155.449C162.82 155.761 162.759 156.069 162.64 156.357C162.521 156.644 162.348 156.904 162.13 157.123C161.912 157.342 161.654 157.515 161.37 157.631C161.087 157.748 160.784 157.806 160.478 157.803C159.885 157.768 159.326 157.512 158.907 157.083C158.488 156.654 158.239 156.083 158.206 155.479C158.204 154.849 158.447 154.245 158.881 153.797C159.315 153.35 159.905 153.096 160.521 153.091Z" fill="#BE4E1E"/>
</svg>
